<svg width="50" height="50" viewBox="0 0 50 50" fill="none" xmlns="http://www.w3.org/2000/svg">
<g clip-path="url(#clip0_2374_549)">
<path d="M15.479 9.6875C11.4179 9.6875 7.52308 11.3008 4.65143 14.1724C1.77978 17.0441 0.166504 20.9389 0.166504 25C0.166504 29.0611 1.77978 32.9559 4.65143 35.8276C7.52308 38.6992 11.4179 40.3125 15.479 40.3125H33.854C37.9151 40.3125 41.8099 38.6992 44.6816 35.8276C47.5532 32.9559 49.1665 29.0611 49.1665 25C49.1665 20.9389 47.5532 17.0441 44.6816 14.1724C41.8099 11.3008 37.9151 9.6875 33.854 9.6875H15.479ZM33.854 37.25C30.6051 37.25 27.4893 35.9594 25.1919 33.6621C22.8946 31.3647 21.604 28.2489 21.604 25C21.604 21.7511 22.8946 18.6353 25.1919 16.3379C27.4893 14.0406 30.6051 12.75 33.854 12.75C37.1029 12.75 40.2187 14.0406 42.5161 16.3379C44.8134 18.6353 46.104 21.7511 46.104 25C46.104 28.2489 44.8134 31.3647 42.5161 33.6621C40.2187 35.9594 37.1029 37.25 33.854 37.25Z" fill="black"/>
</g>
<defs>
<clipPath id="clip0_2374_549">
<rect width="49" height="49" fill="white" transform="translate(0.166504 0.5)"/>
</clipPath>
</defs>
</svg>
