<svg width="56" height="55" viewBox="0 0 56 55" fill="none" xmlns="http://www.w3.org/2000/svg">
<g clip-path="url(#clip0_6828_25594)">
<path d="M41.2273 39.0961C41.3133 40.2595 41.2869 39.8204 41.3736 40.9838C41.3973 41.2989 41.3431 41.6526 41.4685 41.9189C41.5159 42.0205 41.5708 42.1188 41.6304 42.215C41.9523 42.734 42.678 42.8086 43.0771 42.3478C43.1774 42.2326 43.2499 42.112 43.2736 41.9819C43.5575 40.4004 43.7743 38.7912 43.8299 37.186C43.9085 34.9378 43.777 32.6828 43.8353 30.4332C43.8495 29.8769 44.1212 29.2142 44.4925 28.8002C46.055 27.0568 47.2435 25.1467 47.3357 22.7351C47.337 22.6945 47.3357 22.6532 47.3323 22.6125C47.2557 21.7858 46.1641 21.5148 45.6715 22.1782C45.6593 22.1944 45.6478 22.2114 45.6363 22.2276C44.9743 23.1973 44.5108 24.32 43.7757 25.2212C41.8025 27.6415 38.7941 27.6964 36.6434 25.4211C35.9706 24.7096 35.4238 23.8708 34.7197 23.1966C34.6913 23.1695 34.6608 23.1437 34.6296 23.1193C33.8809 22.5468 33.0251 22.9005 32.876 23.8382C32.8571 23.9582 32.8632 24.0639 32.9092 24.1466C33.6661 25.5038 34.4053 27.0053 35.5478 27.9756C37.1489 29.3355 37.6578 30.8221 37.6632 32.8657C37.6706 35.7786 38.0291 38.6916 38.254 41.6032C38.2872 42.0327 38.3028 42.5281 38.521 42.8628C38.7839 43.2666 39.3551 43.3649 39.5889 43.3649C39.8552 43.3649 40.4643 43.2029 40.5402 42.8092C40.7245 41.8511 40.7638 40.8537 40.7624 39.8699C40.7604 38.6225 40.7604 38.3853 40.9942 37.6738C41.2286 38.6225 41.2286 38.3853 41.2286 39.0968L41.2273 39.0961Z" fill="#C0C0C0"/>
<path d="M36.3319 24.0659C36.401 23.6173 36.4952 23.3843 36.4606 23.1728C36.1266 21.1272 37.1463 19.8398 38.5943 18.5551C39.9488 17.3531 41.0228 15.8129 42.1442 14.3615C42.7168 13.6203 42.8726 12.7055 41.9911 12.0611C41.1576 11.452 40.5363 12.1052 39.9651 12.654C39.1744 13.4143 38.4446 14.2457 37.6098 14.9504C35.3426 16.8659 32.5706 17.4832 29.7586 18.0273C27.2157 18.5192 24.6964 19.1351 22.167 19.6968C22.1724 19.8839 22.1778 20.0715 22.1833 20.2586C23.7159 20.5059 25.2432 20.7972 26.7827 20.9883C28.2354 21.1686 28.5119 21.3617 28.562 22.8652C28.6122 24.3579 28.5729 25.854 28.5729 27.0236C29.825 27.569 31.0081 27.8509 31.8937 28.5292C32.9426 29.3328 32.6384 30.6439 32.3423 31.8066C33.8289 31.5918 34.5885 29.4351 36.7351 30.5456C36.4376 29.9358 36.3122 29.4866 36.0426 29.1607C35.1692 28.1036 34.1684 27.1469 33.3634 26.0424C32.8715 25.3675 32.4602 24.5138 32.3687 23.7C32.305 23.1322 32.7 22.2622 33.1642 21.9634C33.5152 21.737 34.3838 22.0691 34.8676 22.3909C35.3934 22.7405 35.7404 23.3646 36.3312 24.0659H36.3319Z" fill="#C0C0C0"/>
<path d="M36.6374 32.1881C35.7687 33.1035 34.8736 34 34.0422 34.9533C33.7942 35.2372 33.5936 35.6858 33.5997 36.0544C33.6397 38.2965 33.7434 40.5373 33.8308 42.7781C33.8464 43.1711 33.7888 43.6047 33.9351 43.9442C34.1154 44.3602 34.2008 44.7857 34.6696 44.7857C35.3723 44.7857 35.8405 44.655 36.0241 44.2728C36.388 43.5153 36.6645 42.6351 36.6814 41.799C36.7464 38.6143 36.695 35.4269 36.68 32.2409C36.68 32.1867 36.5859 32.1332 36.6367 32.1874L36.6374 32.1881Z" fill="#C0C0C0"/>
<path d="M30.2864 10.788C28.6127 10.8883 27.3748 12.2496 27.4392 13.9191C27.5008 15.5196 28.9766 16.8964 30.5405 16.8131C32.1382 16.7277 33.4846 15.2465 33.4148 13.6508C33.343 12.0192 31.8929 10.6918 30.2871 10.788H30.2864Z" fill="#C0C0C0"/>
<path d="M39.9191 26.2797C41.281 26.2824 42.3394 25.1908 42.3313 23.7916C42.3231 22.4615 41.2573 21.3957 39.9401 21.4011C38.5707 21.4065 37.4913 22.5157 37.5191 23.8892C37.5455 25.1989 38.6283 26.277 39.9191 26.2797Z" fill="#C0C0C0"/>
<path d="M19.8492 40.454C19.9075 39.5136 21.2314 39.3746 21.4625 40.2867C21.4645 40.2948 21.4666 40.3029 21.4686 40.3117C21.7044 41.2638 21.9775 42.2286 22.4057 43.1014C22.5168 43.3284 22.7296 43.5045 22.9674 43.6678C23.3374 43.9219 23.8435 43.8189 24.0976 43.4463C24.2833 43.1739 24.4405 42.8994 24.4588 42.6162C24.5286 41.5233 24.2941 40.4134 24.3111 39.3123C24.3178 38.8583 24.5665 38.3393 24.8572 37.9748C25.3159 37.3995 25.9122 36.9381 26.4333 36.4109C26.8696 35.9698 26.7809 35.6405 26.2591 35.2841C25.5212 34.7793 24.8037 34.2264 24.1573 33.6084C23.5312 33.0101 23.1741 32.302 23.7331 31.3914C23.8727 31.1644 23.727 30.7375 23.668 30.4109C23.3645 28.7162 23.0359 27.0257 22.7391 25.3297C22.6246 24.6745 22.9518 24.4549 23.5942 24.3987C24.7542 24.297 25.9075 24.0951 27.0587 23.9095C27.7573 23.797 28.1835 23.467 28.071 22.6295C27.9653 21.8388 27.6007 21.4925 26.8073 21.3929C25.2306 21.1944 23.6423 20.9959 22.1028 20.6137C19.2712 19.911 17.1246 18.2577 15.8853 15.5217C15.3981 14.4463 15.0004 13.3229 14.4292 12.297C14.3167 12.0951 14.1236 11.9399 13.9054 11.799C13.5158 11.5463 12.9954 11.6594 12.7549 12.0599C12.5895 12.3343 12.4628 12.5999 12.5123 12.8255C12.9805 14.9654 13.1682 17.3518 14.2774 19.1223C16.1584 22.1227 16.0994 25.144 15.535 28.3178C15.163 30.4075 14.6677 32.489 14.0308 34.5109C13.6147 35.8322 13.9867 36.7145 15.0431 37.2843C16.3888 38.01 17.1151 38.9966 17.2229 40.5658C17.2656 41.1892 17.668 41.6452 18.0427 42.1785C18.248 42.4705 18.7515 42.8906 19.1011 42.8588C19.3315 42.8378 19.6405 42.3194 19.6947 41.9874C19.7767 41.4853 19.8153 40.9765 19.8478 40.4547L19.8492 40.454Z" fill="#C0C0C0"/>
<path d="M30.9188 43.8047C30.9215 43.8189 30.9242 43.8325 30.9269 43.8467C31.0624 44.5527 31.4764 45.7853 31.7502 45.7805C32.833 45.7615 32.7733 44.6693 32.7964 43.8907C32.8729 41.2881 32.898 38.6822 32.8695 36.0782C32.8614 35.2902 33.0423 34.7867 33.7064 34.3009C34.4151 33.7825 35.0188 33.0731 35.5365 32.3495C35.7059 32.113 35.9004 31.8358 36.0095 31.5248C36.1206 31.2091 35.7967 30.9096 35.4911 31.039C33.6217 31.8304 31.927 32.6788 30.1382 33.1795C28.2572 33.706 26.3505 32.4606 24.4702 31.8704C23.6896 31.6251 23.6137 32.0554 24.1328 32.6943C24.229 32.8129 24.4472 33.0799 24.6091 33.2635C25.0943 33.8144 25.6905 34.3537 26.3485 34.6282C27.9794 35.3078 28.0235 36.5627 27.873 38.6056C27.7382 40.4391 27.831 42.2923 28.245 44.0825C28.4029 44.7655 28.2626 45.1422 28.5533 45.4675C28.9375 45.8977 29.6476 45.7771 29.9004 45.2568C30 45.0514 29.9939 44.8936 30.0142 44.5175C30.0271 44.2824 30.0901 44.0527 30.1192 43.8189C30.2209 42.1792 30.6898 41.4677 30.9188 43.8054V43.8047Z" fill="#C0C0C0"/>
<path d="M21.3459 18.959C22.8048 18.9313 24.164 17.5686 24.1247 16.1735C24.0793 14.5696 22.8305 13.2971 21.3121 13.3066C19.6987 13.3161 18.4439 14.6422 18.5082 16.269C18.5665 17.7577 19.8641 18.9875 21.3466 18.959H21.3459Z" fill="#C0C0C0"/>
<path d="M29.6862 28.1472C28.3182 28.135 27.4116 29.028 27.4007 30.3981C27.3899 31.7018 28.3832 32.7005 29.6808 32.6917C30.9899 32.6829 31.9914 31.6808 31.9731 30.3988C31.9534 29.0267 31.0725 28.1594 29.6862 28.1472Z" fill="#C0C0C0"/>
<path d="M52.2204 26.8115V26.8258H51.8993V26.8115C51.6594 12.6534 41.1501 1.15007 28.0768 0.609361C27.7563 0.595132 27.4351 0.589034 27.1132 0.589034C24.9788 0.589034 22.9054 0.881073 20.9276 1.43195C20.7616 1.46515 20.5969 1.49971 20.4329 1.53562C18.8501 1.88661 17.3404 2.4097 15.927 3.0839C18.6997 1.59525 21.7183 0.673054 24.8569 0.37424C25.6022 0.303771 26.355 0.267181 27.1132 0.267181C33.8234 0.267181 40.131 3.08119 44.8748 8.19153C49.5054 13.1806 52.1046 19.7762 52.2211 26.8109L52.2204 26.8115Z" fill="#C0C0C0"/>
<path d="M20.9561 6.2036V5.47656L20.6255 6.2036H20.0787L19.7453 5.47656V6.2036H19.1863V4.59637H19.874L20.3748 5.59581L20.8755 4.59637H21.5199V6.2036H20.9555H20.9561Z" fill="#C0C0C0"/>
<path d="M22.327 6.20356C21.8723 6.20356 21.7219 6.13783 21.7219 5.84376V5.78278C21.7219 5.5131 21.8046 5.44941 22.3345 5.44941H23.008V5.42502C23.008 5.34506 22.9741 5.3227 22.8548 5.3227H21.7971V4.95816H23.0053C23.4647 4.95816 23.6225 5.02863 23.6225 5.34235V6.20288H22.3263L22.327 6.20356ZM23.008 5.83631V5.68792H22.4198C22.3494 5.68792 22.3202 5.70757 22.3202 5.75364V5.77329C22.3202 5.82208 22.3494 5.83631 22.4198 5.83631H23.008Z" fill="#C0C0C0"/>
<path d="M23.8562 6.20355V4.95883H24.4687V5.04895C24.5243 5.00491 24.59 4.95883 24.8258 4.95883H25.271V5.36945H24.5297C24.4911 5.36945 24.4687 5.40333 24.4687 5.4494V6.20288H23.8562V6.20355Z" fill="#C0C0C0"/>
<path d="M26.7007 6.70162V6.20292H26.0366C25.5793 6.20292 25.4214 6.13516 25.4214 5.81602V5.34171C25.4214 5.02799 25.5718 4.95752 26.0366 4.95752H27.3179V6.70094H26.7L26.7007 6.70162ZM26.7007 5.36949H26.1173C26.0637 5.36949 26.0346 5.39659 26.0346 5.44945V5.71709C26.0346 5.76791 26.0542 5.79501 26.1024 5.79501H26.7007V5.36949Z" fill="#C0C0C0"/>
<path d="M32.7144 4.71418C32.8885 4.37267 32.9292 4.34828 33.27 4.38623C33.0985 4.538 33.0247 4.79752 32.7144 4.71418Z" fill="#C0C0C0"/>
<path d="M27.5293 6.2036V5.79502H28.791C28.8465 5.79502 28.8709 5.77063 28.8709 5.70761V5.68322C28.8709 5.62224 28.8465 5.60055 28.791 5.60055H27.9785C27.6723 5.60055 27.5144 5.47385 27.5144 5.26515V4.97582C27.5144 4.70072 27.6167 4.59637 28.0443 4.59637H29.333V5.00496H28.1757C28.11 5.00496 28.0883 5.03409 28.0883 5.09237V5.11676C28.0883 5.17503 28.11 5.19942 28.1757 5.19942H28.976C29.3039 5.19942 29.4428 5.33833 29.4428 5.5809V5.81941C29.4428 6.08232 29.3161 6.2036 28.9394 6.2036H27.5293Z" fill="#C0C0C0"/>
<path d="M30.2018 6.20356C29.7471 6.20356 29.5967 6.13783 29.5967 5.84376V5.78278C29.5967 5.5131 29.6793 5.44941 30.2092 5.44941H30.8827V5.42502C30.8827 5.34506 30.8489 5.3227 30.7296 5.3227H29.6719V4.95816H30.88C31.3394 4.95816 31.4973 5.02863 31.4973 5.34235V6.20288H30.2011L30.2018 6.20356ZM30.8821 5.83631V5.68792H30.2939C30.2234 5.68792 30.1943 5.70757 30.1943 5.75364V5.77329C30.1943 5.82208 30.2234 5.83631 30.2939 5.83631H30.8821Z" fill="#C0C0C0"/>
<path d="M32.9392 5.79497C33.0069 5.79497 33.0266 5.76583 33.0266 5.71502V4.95883H33.6418V6.20355H33.0266V6.11344C32.9656 6.16696 32.8809 6.20355 32.6715 6.20355H32.3409C31.9058 6.20355 31.7229 6.12834 31.7229 5.81936V4.95883H32.3354V5.71502C32.3354 5.76583 32.3551 5.79497 32.4228 5.79497H32.9385H32.9392Z" fill="#C0C0C0"/>
<path d="M34.48 6.2036C34.0206 6.2036 33.8647 6.14059 33.8647 5.81941V5.34307C33.8647 5.02732 34.0396 4.95888 34.48 4.95888H35.1461V4.59637H35.7613V6.2036H34.48ZM35.1467 5.3695H34.5898C34.5145 5.3695 34.4807 5.40134 34.4807 5.46165V5.7171C34.4807 5.77063 34.5078 5.79502 34.5898 5.79502H35.1467V5.3695Z" fill="#C0C0C0"/>
<path d="M36.5954 6.20352C36.1625 6.20352 35.9829 6.09443 35.9829 5.76377V5.34095C35.9829 5.07127 36.1747 4.95947 36.5541 4.95947H37.4465C37.765 4.95947 37.8842 5.06382 37.8842 5.29013V5.40668C37.8842 5.64248 37.7995 5.70346 37.4953 5.70346H36.5887V5.72989C36.5887 5.81526 36.6226 5.82746 36.7689 5.82746H37.8097V6.20419H36.5968L36.5954 6.20352ZM37.1938 5.45953C37.2595 5.45953 37.2859 5.44733 37.2859 5.40871V5.39448C37.2859 5.35586 37.2588 5.34095 37.1938 5.34095H36.6517C36.6104 5.34095 36.5887 5.3606 36.5887 5.39719V5.46021H37.1938V5.45953Z" fill="#C0C0C0"/>
<path d="M20.3978 10.1702V7.78104H19.2344V6.96658H22.7822V7.78104H21.6235V10.1702H20.3971H20.3978Z" fill="#C0C0C0"/>
<path d="M24.2613 10.1702C23.3452 10.1702 23.0403 10.0394 23.0403 9.40453V7.73225C23.0403 7.09261 23.3554 6.96658 24.2613 6.96658H25.8848C26.8009 6.96658 27.116 7.09261 27.116 7.73225V9.40453C27.116 10.0442 26.8009 10.1702 25.8848 10.1702H24.2613ZM25.899 7.99854C25.899 7.82915 25.8218 7.78036 25.5406 7.78036H24.6197C24.3534 7.78036 24.2613 7.82373 24.2613 7.99854V9.13756C24.2613 9.29747 24.3243 9.35575 24.6197 9.35575H25.5406C25.8218 9.35575 25.899 9.30222 25.899 9.13756V7.99854Z" fill="#C0C0C0"/>
<path d="M28.5316 10.1702V7.78104H27.3682V6.96658H30.916V7.78104H29.7573V10.1702H28.5309H28.5316Z" fill="#C0C0C0"/>
<path d="M33.1852 9.7047H31.9737L31.8233 10.1702H30.481L31.7799 6.96658H33.3404L34.6393 10.1702H33.3404L33.1852 9.7047ZM32.2352 8.91938H32.9189L32.5747 7.89216L32.2352 8.91938Z" fill="#C0C0C0"/>
<path d="M34.9109 10.1702V6.96658H36.1421V9.35575H37.7994V10.1702H34.9109Z" fill="#C0C0C0"/>
<path d="M47.842 33.4377V31.7532H53.0445C53.2749 31.7532 53.3752 31.6529 53.3752 31.3921V31.2918C53.3752 31.0411 53.2749 30.951 53.0445 30.951H49.6966C48.4336 30.951 47.7817 30.4299 47.7817 29.5673V28.3741C47.7817 27.2412 48.2025 26.8102 49.9669 26.8102H55.2799V28.4947H50.5083C50.238 28.4947 50.1472 28.6146 50.1472 28.8559V28.9561C50.1472 29.1967 50.2373 29.297 50.5083 29.297H53.8068C55.16 29.297 55.7318 29.8682 55.7318 30.871V31.8535C55.7318 32.9363 55.2108 33.4377 53.6564 33.4377H47.842Z" fill="#C0C0C0"/>
<path d="M33.4222 53.7564C32.5068 53.8641 31.5805 53.919 30.6468 53.919C23.9367 53.919 17.6291 51.105 12.886 45.9946C8.38615 41.1479 5.80523 34.7847 5.55453 27.9763H4.70687L3.33341 24.9787V27.9763H1.02759V21.3502H3.86463L5.92991 25.4699L7.99519 21.3502H10.6513V27.9763H8.32585V24.9787L6.96255 27.9763H5.72799C5.79778 28.5543 5.88722 29.1262 5.99292 29.6913C8.11444 41.0096 17.3635 49.5282 28.4515 49.5282C29.7592 49.5282 31.0405 49.4097 32.2886 49.1827C32.4417 50.67 32.7873 52.0997 33.3002 53.4453C33.3402 53.5497 33.3809 53.6534 33.4222 53.7564Z" fill="#C0C0C0"/>
</g>
<defs>
<clipPath id="clip0_6828_25594">
<rect width="55" height="55" fill="white" transform="translate(0.902832)"/>
</clipPath>
</defs>
</svg>
