<svg width="32" height="33" viewBox="0 0 32 33" fill="none" xmlns="http://www.w3.org/2000/svg">
<g clip-path="url(#clip0_1025_5456)">
<path fill-rule="evenodd" clip-rule="evenodd" d="M2.66699 16.7718C2.66699 9.42515 8.65366 3.43848 16.0003 3.43848C23.347 3.43848 29.3337 9.42515 29.3337 16.7718C29.3337 24.1185 23.347 30.1052 16.0003 30.1052C8.65366 30.1052 2.66699 24.1185 2.66699 16.7718ZM14.8137 21.2652L22.3737 13.7052C22.7603 13.3051 22.7603 12.6785 22.3737 12.2918C21.987 11.9051 21.347 11.9051 20.9603 12.2918L14.107 19.1452L11.0403 16.0785C10.6537 15.6918 10.0137 15.6918 9.62699 16.0785C9.24032 16.4652 9.24032 17.1052 9.62699 17.4918L13.4003 21.2652C13.587 21.4518 13.8403 21.5585 14.107 21.5585C14.3737 21.5585 14.627 21.4518 14.8137 21.2652Z" fill="#8758C4"/>
</g>
<defs>
<clipPath id="clip0_1025_5456">
<rect width="29.3333" height="29.3333" fill="white" transform="translate(2.66699 3.43848)"/>
</clipPath>
</defs>
</svg>
