<svg width="32" height="33" viewBox="0 0 32 33" fill="none" xmlns="http://www.w3.org/2000/svg">
<g clip-path="url(#clip0_1182_4319)">
<path fill-rule="evenodd" clip-rule="evenodd" d="M2.6665 16.4999C2.6665 9.1533 8.65317 3.16663 15.9998 3.16663C23.3465 3.16663 29.3332 9.1533 29.3332 16.4999C29.3332 23.8466 23.3465 29.8333 15.9998 29.8333C8.65317 29.8333 2.6665 23.8466 2.6665 16.4999ZM14.8132 20.9933L22.3732 13.4333C22.7598 13.0333 22.7598 12.4066 22.3732 12.02C21.9865 11.6333 21.3465 11.6333 20.9598 12.02L14.1065 18.8733L11.0398 15.8066C10.6532 15.4199 10.0132 15.4199 9.6265 15.8066C9.23983 16.1933 9.23983 16.8333 9.6265 17.2199L13.3998 20.9933C13.5865 21.1799 13.8398 21.2866 14.1065 21.2866C14.3732 21.2866 14.6265 21.1799 14.8132 20.9933Z" fill="#8758C4"/>
</g>
<defs>
<clipPath id="clip0_1182_4319">
<rect width="29.3333" height="29.3333" fill="white" transform="translate(2.6665 3.16663)"/>
</clipPath>
</defs>
</svg>
