<svg width="50" height="50" viewBox="0 0 50 50" fill="none" xmlns="http://www.w3.org/2000/svg">
<g clip-path="url(#clip0_1076_1652)">
<path d="M33.8545 12.75C37.1034 12.75 40.2192 14.0406 42.5166 16.3379C44.8139 18.6353 46.1045 21.7511 46.1045 25C46.1045 28.2489 44.8139 31.3647 42.5166 33.6621C40.2192 35.9594 37.1034 37.25 33.8545 37.25H24.667C26.5702 35.825 28.1147 33.9758 29.178 31.8493C30.2413 29.7227 30.7939 27.3775 30.792 25C30.7939 22.6225 30.2413 20.2773 29.178 18.1507C28.1147 16.0242 26.5702 14.175 24.667 12.75H33.8545ZM15.4795 37.25C12.2306 37.25 9.11475 35.9594 6.81743 33.6621C4.52011 31.3647 3.22949 28.2489 3.22949 25C3.22949 21.7511 4.52011 18.6353 6.81743 16.3379C9.11475 14.0406 12.2306 12.75 15.4795 12.75C18.7284 12.75 21.8442 14.0406 24.1416 16.3379C26.4389 18.6353 27.7295 21.7511 27.7295 25C27.7295 28.2489 26.4389 31.3647 24.1416 33.6621C21.8442 35.9594 18.7284 37.25 15.4795 37.25ZM0.166992 25C0.166992 29.0611 1.78027 32.9559 4.65192 35.8276C7.52357 38.6992 11.4184 40.3125 15.4795 40.3125H33.8545C37.9156 40.3125 41.8104 38.6992 44.6821 35.8276C47.5537 32.9559 49.167 29.0611 49.167 25C49.167 20.9389 47.5537 17.0441 44.6821 14.1724C41.8104 11.3008 37.9156 9.6875 33.8545 9.6875H15.4795C11.4184 9.6875 7.52357 11.3008 4.65192 14.1724C1.78027 17.0441 0.166992 20.9389 0.166992 25Z" fill="white"/>
</g>
<defs>
<clipPath id="clip0_1076_1652">
<rect width="49" height="49" fill="white" transform="translate(0.166992 0.5)"/>
</clipPath>
</defs>
</svg>
