<svg width="710" height="715" viewBox="0 0 710 715" fill="none" xmlns="http://www.w3.org/2000/svg">
<g filter="url(#filter0_f_3931_1949)">
<circle cx="357.706" cy="357.608" r="99.7257" transform="rotate(-90 357.706 357.608)" fill="url(#paint0_linear_3931_1949)"/>
</g>
<g filter="url(#filter1_f_3931_1949)">
<path d="M386.658 431.96L134.152 405.644C131.318 405.349 130.005 401.971 131.897 399.839L234.757 283.974C236.657 281.835 240.181 282.754 240.794 285.548L257.502 361.78C258.237 365.135 262.863 365.534 264.161 362.353L309.406 251.503C310.348 249.196 313.33 248.584 315.104 250.333L400.393 334.43C401.951 335.965 404.519 335.713 405.747 333.903L486.194 215.349C487.546 213.357 490.459 213.292 491.897 215.223L582.893 337.381L624.571 393.989C625.432 395.158 625.482 396.736 624.697 397.957L604.346 429.615C603.463 430.987 601.75 431.568 600.215 431.015L123.722 259.328C120.261 258.081 117.466 262.335 119.985 265.017L247.686 401.011L423.819 579.744C425.278 581.224 427.698 581.114 429.017 579.508L531.855 454.288C533.613 452.148 532.306 448.91 529.555 448.59L386.658 431.96Z" stroke="url(#paint1_linear_3931_1949)" stroke-width="3.5" stroke-linecap="round"/>
</g>
<g filter="url(#filter2_f_3931_1949)">
<path d="M386.658 431.96L134.152 405.644C131.318 405.349 130.005 401.971 131.897 399.839L234.757 283.974C236.657 281.835 240.181 282.754 240.794 285.548L257.502 361.78C258.237 365.135 262.863 365.534 264.161 362.353L309.406 251.503C310.348 249.196 313.33 248.584 315.104 250.333L400.393 334.43C401.951 335.965 404.519 335.713 405.747 333.903L486.194 215.349C487.546 213.357 490.459 213.292 491.897 215.223L582.893 337.381L624.571 393.989C625.432 395.158 625.482 396.736 624.697 397.957L604.346 429.615C603.463 430.987 601.75 431.568 600.215 431.015L123.722 259.328C120.261 258.081 117.466 262.335 119.985 265.017L247.686 401.011L423.819 579.744C425.278 581.224 427.698 581.114 429.017 579.508L531.855 454.288C533.613 452.148 532.306 448.91 529.555 448.59L386.658 431.96Z" stroke="url(#paint2_linear_3931_1949)" stroke-width="3.5" stroke-linecap="round"/>
</g>
<path d="M386.658 431.96L134.152 405.644C131.318 405.349 130.005 401.971 131.897 399.839L234.757 283.974C236.657 281.835 240.181 282.754 240.794 285.548L257.502 361.78C258.237 365.135 262.863 365.534 264.161 362.353L309.406 251.503C310.348 249.196 313.33 248.584 315.104 250.333L400.393 334.43C401.951 335.965 404.519 335.713 405.747 333.903L486.194 215.349C487.546 213.357 490.459 213.292 491.897 215.223L582.893 337.381L624.571 393.989C625.432 395.158 625.482 396.736 624.697 397.957L604.346 429.615C603.463 430.987 601.75 431.568 600.215 431.015L123.722 259.328C120.261 258.081 117.466 262.335 119.985 265.017L247.686 401.011L423.819 579.744C425.278 581.224 427.698 581.114 429.017 579.508L531.855 454.288C533.613 452.148 532.306 448.91 529.555 448.59L386.658 431.96Z" stroke="url(#paint3_linear_3931_1949)" stroke-width="3.5" stroke-linecap="round"/>
<path d="M166.592 476.635L299.271 287.884L358.177 349.479L419.079 287.884L546.253 476.033L417.257 408.488L359.708 469.247L298.554 407.905L166.592 476.635ZM302.391 382.921L359.34 440.044L413.07 383.31L484.168 420.543L416.133 319.867L357.944 378.702L301.674 319.867L231.332 419.94L302.391 382.921Z" fill="url(#paint4_linear_3931_1949)"/>
<path d="M305.104 275.595L323.034 293.6L342.069 220.903L305.104 275.595Z" fill="url(#paint5_linear_3931_1949)"/>
<path d="M412.353 277.249L394.424 295.253L375.389 222.556L412.353 277.249Z" fill="url(#paint6_linear_3931_1949)"/>
<path d="M358.913 194.83L331.466 303.866L358.487 330.969L385.022 304.352L358.913 194.83Z" fill="url(#paint7_linear_3931_1949)"/>
<defs>
<filter id="filter0_f_3931_1949" x="0.579987" y="0.48233" width="714.251" height="714.251" filterUnits="userSpaceOnUse" color-interpolation-filters="sRGB">
<feFlood flood-opacity="0" result="BackgroundImageFix"/>
<feBlend mode="normal" in="SourceGraphic" in2="BackgroundImageFix" result="shape"/>
<feGaussianBlur stdDeviation="128.7" result="effect1_foregroundBlur_3931_1949"/>
</filter>
<filter id="filter1_f_3931_1949" x="104.455" y="199.264" width="535.348" height="396.073" filterUnits="userSpaceOnUse" color-interpolation-filters="sRGB">
<feFlood flood-opacity="0" result="BackgroundImageFix"/>
<feBlend mode="normal" in="SourceGraphic" in2="BackgroundImageFix" result="shape"/>
<feGaussianBlur stdDeviation="6.4" result="effect1_foregroundBlur_3931_1949"/>
</filter>
<filter id="filter2_f_3931_1949" x="61.9546" y="156.764" width="620.348" height="481.073" filterUnits="userSpaceOnUse" color-interpolation-filters="sRGB">
<feFlood flood-opacity="0" result="BackgroundImageFix"/>
<feBlend mode="normal" in="SourceGraphic" in2="BackgroundImageFix" result="shape"/>
<feGaussianBlur stdDeviation="27.65" result="effect1_foregroundBlur_3931_1949"/>
</filter>
<linearGradient id="paint0_linear_3931_1949" x1="457.431" y1="357.608" x2="257.98" y2="357.608" gradientUnits="userSpaceOnUse">
<stop stop-color="#6221A2"/>
<stop offset="1" stop-color="#240C3C"/>
</linearGradient>
<linearGradient id="paint1_linear_3931_1949" x1="368" y1="211.277" x2="368" y2="582.514" gradientUnits="userSpaceOnUse">
<stop stop-color="#6E4BEE"/>
<stop offset="1" stop-color="#00EAFF"/>
</linearGradient>
<linearGradient id="paint2_linear_3931_1949" x1="368" y1="211.277" x2="368" y2="582.514" gradientUnits="userSpaceOnUse">
<stop stop-color="#6E4BEE"/>
<stop offset="1" stop-color="#00EAFF"/>
</linearGradient>
<linearGradient id="paint3_linear_3931_1949" x1="368" y1="211.277" x2="368" y2="582.514" gradientUnits="userSpaceOnUse">
<stop stop-color="#6E4BEE"/>
<stop offset="1" stop-color="#00EAFF"/>
</linearGradient>
<linearGradient id="paint4_linear_3931_1949" x1="356.423" y1="287.884" x2="356.423" y2="476.635" gradientUnits="userSpaceOnUse">
<stop stop-color="#5D2E9A"/>
<stop offset="1" stop-color="#1F1034"/>
</linearGradient>
<linearGradient id="paint5_linear_3931_1949" x1="323.587" y1="220.903" x2="323.587" y2="293.6" gradientUnits="userSpaceOnUse">
<stop stop-color="#5D2E9A"/>
<stop offset="1" stop-color="#1F1034"/>
</linearGradient>
<linearGradient id="paint6_linear_3931_1949" x1="393.871" y1="222.556" x2="393.871" y2="295.253" gradientUnits="userSpaceOnUse">
<stop stop-color="#5D2E9A"/>
<stop offset="1" stop-color="#1F1034"/>
</linearGradient>
<linearGradient id="paint7_linear_3931_1949" x1="358.244" y1="194.83" x2="358.244" y2="330.969" gradientUnits="userSpaceOnUse">
<stop stop-color="#5D2E9A"/>
<stop offset="1" stop-color="#1F1034"/>
</linearGradient>
</defs>
</svg>
