<svg width="250" height="499" viewBox="0 0 250 499" fill="none" xmlns="http://www.w3.org/2000/svg">
<path d="M66.928 8.4855C66.928 10.0486 66.443 12.9144 65.4731 17.0826C64.5031 21.1766 63.2719 25.9776 61.7797 31.4857C60.2874 36.9194 58.6086 42.7252 56.7433 48.9033C54.878 55.0068 53.0499 60.8872 51.2593 66.5442C49.4685 72.1267 47.827 77.1139 46.3347 81.5055C44.8425 85.8971 43.7233 89.0977 42.9772 91.1075C43.7979 97.7322 44.3575 104.32 44.656 110.87C44.9544 117.42 45.2902 124.007 45.6632 130.632C46.0363 136.214 46.372 141.834 46.6705 147.492C47.0436 153.148 47.2301 158.768 47.2301 164.351C47.2301 166.062 46.7824 167.402 45.8871 168.37C45.0663 169.264 43.7979 169.71 42.0818 169.71C41.4103 169.71 40.5149 169.598 39.3957 169.375C38.2766 169.227 37.12 168.966 35.9262 168.594C34.8071 168.296 33.7252 167.924 32.6805 167.477C31.7106 167.031 31.0391 166.583 30.666 166.137C29.7706 165.095 29.211 164.127 28.9872 163.234C28.7634 162.267 28.6515 161.151 28.6515 159.884C28.6515 148.347 28.5395 136.884 28.3157 125.496C28.0919 114.108 27.98 102.645 27.98 91.1075L27.0845 90.2143C26.6369 89.5444 26.1146 88.614 25.5177 87.423C24.9954 86.1576 24.4358 84.855 23.8389 83.5152C23.3166 82.1754 22.8316 80.8728 22.3839 79.6074C21.9363 78.342 21.5631 77.3371 21.2648 76.5928C18.8025 69.7449 16.4895 62.8969 14.3258 56.049C12.162 49.201 9.84894 42.3531 7.3867 35.5051C7.01364 34.3141 6.41673 32.7138 5.59598 30.7041C4.77524 28.62 3.9545 26.4614 3.13375 24.2284C2.31301 21.9954 1.60419 19.9111 1.00728 17.9759C0.335759 15.9662 0 14.4402 0 13.3982C0 12.5794 0.22384 11.9095 0.671518 11.3884C1.1192 10.8674 1.6788 10.4953 2.35032 10.2719C3.02184 9.97423 3.73066 9.7881 4.47679 9.71366C5.22292 9.63923 5.89444 9.60202 6.49135 9.60202C8.43129 9.60202 10.222 9.71366 11.8635 9.93698C13.5796 10.0859 15.2957 10.7185 17.0117 11.8351C17.4595 12.1327 18.1683 13.5098 19.1383 15.9662C20.1082 18.4224 21.1901 21.4742 22.3839 25.1215C23.5777 28.7688 24.8088 32.7138 26.0773 36.9566C27.4204 41.1994 28.6515 45.2932 29.7706 49.2383C30.8899 53.1832 31.8971 56.6817 32.7925 59.7335C33.6878 62.7852 34.322 64.9066 34.6951 66.0976C37.1573 56.57 39.6196 47.1169 42.0818 37.7382C44.6186 28.3594 46.7824 18.8318 48.5732 9.15541C48.7224 8.2622 48.8717 7.29456 49.0208 6.25248C49.2447 5.13596 49.5058 4.1311 49.8043 3.23789C50.1774 2.34468 50.6996 1.60034 51.3712 1.00486C52.0427 0.334954 52.9753 0 54.1691 0C55.1391 0 56.3329 0.223302 57.7506 0.669908C59.2428 1.11651 60.6604 1.74921 62.0035 2.56798C63.3465 3.31233 64.5031 4.20554 65.4731 5.24761C66.443 6.21525 66.928 7.29456 66.928 8.4855ZM153.218 144.253C153.218 145.519 152.696 146.747 151.651 147.938C150.681 149.129 149.487 150.283 148.07 151.399C146.653 152.515 145.197 153.558 143.705 154.525C142.213 155.419 140.981 156.163 140.011 156.758C137.475 158.396 134.938 159.922 132.401 161.336C129.939 162.75 127.365 163.978 124.678 165.021C122.067 166.062 119.343 166.881 116.509 167.477C113.747 168.072 110.838 168.37 107.779 168.37L105.988 168.594C103.526 168.594 101.064 168.333 98.6013 167.812C96.2137 167.217 93.9753 166.361 91.8861 165.244C89.7969 164.053 87.9316 162.564 86.2901 160.778C84.6486 158.992 83.3802 156.833 82.4848 154.303C81.8133 152.293 81.291 149.91 80.9179 147.156C80.5449 144.402 80.2464 141.537 80.0226 138.559C79.8734 135.582 79.7241 132.679 79.5749 129.851C79.5003 126.947 79.4257 124.38 79.3511 122.146C78.2319 99.3697 77.3365 76.5928 76.665 53.8159C76.5158 51.2108 76.4039 48.6055 76.3292 46.0004C76.2546 43.3951 76.2173 40.79 76.2173 38.1847C76.2173 33.7187 76.4784 29.9225 77.0007 26.7964C77.5231 23.6701 78.5677 21.1021 80.1345 19.0923C81.7014 17.0826 83.9398 15.6312 86.8497 14.738C89.8343 13.8448 93.7514 13.3982 98.6013 13.3982C103.451 13.3982 108.301 13.4354 113.151 13.5098C118.075 13.5843 123 13.6214 127.924 13.6214C129.417 13.6214 130.909 13.5843 132.401 13.5098C133.893 13.3609 135.385 13.4726 136.878 13.8448C137.773 13.9936 138.556 14.2542 139.228 14.6263C139.899 14.9241 140.236 15.6312 140.236 16.7477C140.236 19.4274 139.34 21.4371 137.549 22.7769C135.759 24.0422 133.633 24.8983 131.17 25.3449C128.708 25.7914 126.134 26.0147 123.447 26.0147C120.836 25.9403 118.672 25.9031 116.956 25.9031H102.407C100.914 25.9031 99.422 25.9031 97.9297 25.9031C96.4375 25.9031 94.9452 25.9776 93.453 26.1264C93.0053 27.2429 92.7068 28.3967 92.5576 29.5876C92.4083 30.7786 92.3338 32.0068 92.3338 33.2721C92.3338 41.3854 92.5202 49.3872 92.8934 57.2771C93.341 65.1671 93.7514 73.1688 94.1245 81.2822C98.7505 80.91 103.34 80.4634 107.891 79.9424C112.442 79.4213 117.03 78.8258 121.657 78.1559C122.328 78.1559 122.925 78.1187 123.447 78.0443C124.045 77.9699 124.641 77.9327 125.238 77.9327C126.805 77.9327 127.887 78.342 128.484 79.1608C129.155 79.9795 129.491 81.1333 129.491 82.622C129.491 83.6641 129.417 84.6317 129.268 85.5249C129.192 86.4181 128.969 87.3114 128.596 88.2046C128.073 89.6933 127.216 90.7726 126.022 91.4425C124.827 92.1124 123.485 92.5962 121.993 92.8939C120.5 93.1172 118.933 93.2288 117.292 93.2288C115.725 93.2288 114.345 93.2661 113.151 93.3405C110.017 93.4893 106.921 93.601 103.861 93.6755C100.877 93.7499 97.8552 93.8616 94.7959 94.0104C94.8706 95.5736 94.9825 97.9182 95.1318 101.044C95.281 104.171 95.4302 107.707 95.5795 111.652C95.8033 115.522 96.0271 119.541 96.251 123.71C96.5494 127.878 96.8478 131.823 97.1463 135.544C97.4448 139.192 97.7805 142.392 98.1535 145.147C98.5267 147.901 98.8997 149.761 99.2728 150.729C100.094 152.293 101.026 153.334 102.07 153.855C103.115 154.303 104.496 154.525 106.212 154.525C108.973 154.525 111.883 154.004 114.941 152.963C118.001 151.846 120.985 150.468 123.896 148.831C126.805 147.119 129.566 145.258 132.177 143.249C134.864 141.239 137.176 139.267 139.117 137.331C139.937 136.662 140.758 135.992 141.579 135.322C142.399 134.577 143.37 134.205 144.489 134.205C145.608 134.205 146.69 134.54 147.734 135.21C148.779 135.88 149.711 136.736 150.532 137.778C151.353 138.746 151.987 139.825 152.435 141.015C152.957 142.207 153.218 143.286 153.218 144.253ZM226.973 133.312C226.973 138.82 226.078 144.03 224.287 148.943C222.497 153.855 219.922 158.173 216.565 161.894C213.282 165.542 209.289 168.445 204.589 170.604C199.889 172.836 194.666 173.953 188.921 173.953C183.847 173.953 179.147 173.134 174.819 171.496C170.566 169.934 166.872 167.7 163.738 164.797C160.604 161.894 158.142 158.359 156.352 154.191C154.636 150.022 153.777 145.37 153.777 140.234C153.777 139.192 153.815 137.889 153.889 136.326C153.964 134.764 154.188 133.275 154.561 131.86C155.008 130.372 155.606 129.144 156.352 128.175C157.172 127.134 158.329 126.613 159.822 126.613C161.015 126.613 162.321 126.873 163.738 127.394C165.231 127.841 166.611 128.474 167.879 129.293C169.148 130.111 170.192 131.116 171.013 132.307C171.909 133.424 172.356 134.652 172.356 135.992V142.467C172.356 147.604 173.737 151.808 176.497 155.083C179.333 158.285 183.4 159.884 188.696 159.884C192.427 159.884 195.636 159.029 198.321 157.317C201.008 155.605 203.172 153.409 204.813 150.729C206.529 148.05 207.76 145.072 208.507 141.797C209.327 138.448 209.738 135.173 209.738 131.972C209.738 125.719 208.432 119.653 205.82 113.773C203.284 107.892 200.075 102.161 196.195 96.5784C192.316 90.9215 188.1 85.376 183.549 79.9424C178.996 74.5086 174.782 69.1122 170.901 63.7529C167.021 58.3936 163.775 53.0344 161.164 47.6751C158.628 42.3158 157.359 36.8449 157.359 31.2624C157.359 26.7219 158.254 22.814 160.045 19.539C161.911 16.1894 164.336 13.4726 167.32 11.3884C170.38 9.22985 173.812 7.66673 177.616 6.69908C181.497 5.657 185.488 5.13596 189.592 5.13596C194.591 5.13596 199.068 5.84308 203.023 7.25733C206.977 8.67158 210.334 10.7185 213.095 13.3982C215.855 16.0778 217.945 19.3901 219.363 23.3352C220.855 27.2057 221.601 31.6345 221.601 36.6216C221.601 37.366 221.564 38.2965 221.489 39.4129C221.415 40.5295 221.228 41.6459 220.929 42.7624C220.631 43.8045 220.183 44.7349 219.587 45.5537C218.989 46.2981 218.169 46.6703 217.125 46.6703C215.632 46.6703 214.14 46.2981 212.648 45.5537C211.379 44.8838 210.334 44.2511 209.514 43.6556C208.768 42.9857 208.17 42.2787 207.723 41.5343C207.276 40.7155 206.939 39.8223 206.716 38.8546C206.492 37.8871 206.306 36.6961 206.157 35.2818C205.783 32.6022 205.298 30.183 204.701 28.0244C204.105 25.8659 203.209 24.0422 202.015 22.5535C200.822 21.0649 199.254 19.9111 197.314 19.0923C195.375 18.2736 192.875 17.8643 189.815 17.8643C187.652 17.8643 185.563 18.0875 183.549 18.5342C181.609 18.9807 179.892 19.7251 178.4 20.7672C176.983 21.8092 175.826 23.1863 174.931 24.8983C174.11 26.5358 173.7 28.5827 173.7 31.0391C173.7 34.463 174.445 37.9614 175.938 41.5343C177.505 45.1072 179.519 48.7544 181.981 52.4761C184.519 56.1979 187.353 60.0312 190.487 63.9762C193.696 67.8468 196.979 71.8662 200.336 76.0346C203.694 80.2029 206.939 84.52 210.073 88.9861C213.282 93.3777 216.117 97.9554 218.579 102.719C221.116 107.483 223.13 112.433 224.623 117.569C226.19 122.63 226.973 127.878 226.973 133.312ZM125.106 222.863C125.106 233.372 125.02 243.88 124.846 254.389C124.674 264.897 124.242 275.406 123.551 285.914C122.947 296.337 122.041 306.759 120.832 317.182C119.623 327.603 118.025 338.026 116.039 348.449L113.967 358.785C114.227 359.387 114.658 360.379 115.263 361.757C115.953 363.049 116.644 364.47 117.335 366.021C118.025 367.484 118.63 368.862 119.148 370.155C119.666 371.447 119.925 372.308 119.925 372.739C119.925 373.859 119.45 374.72 118.501 375.323C117.637 375.926 116.601 376.356 115.392 376.615C114.184 376.959 112.931 377.175 111.636 377.261C110.341 377.347 109.305 377.39 108.527 377.39C107.579 377.39 106.672 377.347 105.808 377.261C104.945 377.261 104.124 377.132 103.348 376.874C101.362 376.185 100.024 375.409 99.3324 374.548C98.6417 373.686 97.8214 372.394 96.8717 370.672C93.2452 363.781 90.0506 356.674 87.2876 349.353C84.6109 341.945 82.2366 334.451 80.1643 326.871C78.0921 319.206 76.2357 311.539 74.5952 303.874C72.9547 296.121 71.4006 288.412 69.9327 280.746C66.8243 309.171 61.9029 337.337 55.1681 365.245C55.9452 366.795 56.8086 368.518 57.7584 370.413C58.7945 372.222 59.3126 374.031 59.3126 375.84C59.3126 377.045 58.924 377.993 58.1469 378.682C57.3698 379.372 56.3769 379.845 55.1681 380.104C54.0456 380.362 52.8368 380.491 51.5417 380.491C50.3329 380.577 49.2968 380.577 48.4334 380.491C48.1743 380.663 47.9153 380.793 47.6563 380.879C47.3973 380.965 47.0519 381.008 46.6202 381.008C43.5982 381.008 41.1806 380.104 39.3674 378.294C37.6405 376.486 36.259 374.289 35.223 371.705C32.201 363.867 29.5243 355.555 27.193 346.769C24.8618 337.983 22.8327 329.068 21.1059 320.024C19.379 310.98 17.868 301.978 16.5729 293.021C15.3641 283.976 14.328 275.234 13.4646 266.792C12.2558 256.541 11.0902 246.335 9.96765 236.171C8.84524 226.007 8.28401 215.714 8.28401 205.291C8.28401 203.482 8.54304 202.104 9.0611 201.156C9.57916 200.123 10.8743 199.607 12.9465 199.607C16.1412 199.607 18.602 200.123 20.3288 201.156C22.142 202.104 23.4803 203.439 24.3437 205.162C25.2935 206.799 25.898 208.736 26.157 210.976C26.5023 213.216 26.7613 215.628 26.934 218.211C28.6609 237.334 30.7763 256.37 33.2803 275.32C35.7842 294.27 39.3674 313.047 44.0299 331.652C46.3611 319.679 48.1312 307.707 49.34 295.734C50.6351 283.674 51.887 271.615 53.0959 259.557C53.3549 256.37 53.5276 253.14 53.6139 249.866C53.7003 246.593 53.8298 243.32 54.0025 240.047C54.2615 236.688 54.5637 233.372 54.9091 230.099C55.3408 226.825 56.0316 223.638 56.9813 220.538C57.7584 217.781 59.0103 215.671 60.7372 214.206C62.4641 212.742 64.8385 212.009 67.8605 212.009C70.7961 212.009 73.0842 212.655 74.7247 213.947C76.3652 215.24 77.6172 216.876 78.4807 218.857C79.4305 220.752 80.078 222.906 80.4234 225.318C80.7687 227.729 81.0709 230.012 81.3299 232.166C83.4021 247.756 86.0788 263.175 89.3598 278.42C92.7272 293.667 96.699 308.826 101.275 323.9C103.002 310.549 104.081 297.241 104.513 283.976C104.945 270.712 105.16 257.317 105.16 243.794C105.16 236.128 105.074 228.419 104.901 220.667C104.815 212.914 104.298 205.119 103.348 197.28C103.348 196.334 103.261 195.472 103.088 194.697C102.915 193.921 102.829 193.06 102.829 192.113C102.829 190.303 103.391 189.011 104.513 188.236C105.636 187.375 107.06 186.944 108.787 186.944C109.91 186.944 111.118 187.073 112.413 187.332C113.795 187.505 115.134 187.806 116.429 188.236C117.81 188.581 119.062 189.054 120.184 189.657C121.393 190.26 122.343 190.992 123.034 191.854C123.379 192.284 123.638 193.232 123.811 194.697C124.07 196.161 124.285 197.926 124.458 199.994C124.631 202.061 124.76 204.258 124.846 206.583C124.933 208.909 124.977 211.149 124.977 213.301C125.063 215.455 125.106 217.393 125.106 219.116C125.106 220.838 125.106 222.087 125.106 222.863ZM236.618 346.123C236.618 347.587 236.013 349.009 234.804 350.387C233.682 351.765 232.301 353.1 230.66 354.392C229.02 355.684 227.335 356.89 225.608 358.009C223.882 359.043 222.458 359.905 221.335 360.594C218.399 362.489 215.463 364.254 212.527 365.891C209.679 367.527 206.7 368.949 203.591 370.155C200.569 371.361 197.417 372.308 194.136 372.997C190.942 373.686 187.574 374.031 184.035 374.031L181.962 374.289C179.114 374.289 176.264 373.988 173.414 373.385C170.652 372.696 168.061 371.705 165.643 370.413C163.226 369.035 161.068 367.313 159.168 365.245C157.268 363.178 155.8 360.68 154.764 357.752C153.987 355.425 153.383 352.669 152.951 349.482C152.519 346.296 152.174 342.979 151.915 339.534C151.742 336.088 151.57 332.729 151.397 329.456C151.311 326.097 151.225 323.125 151.138 320.541C149.843 294.183 148.807 267.826 148.03 241.468C147.857 238.453 147.728 235.439 147.642 232.424C147.554 229.41 147.511 226.394 147.511 223.38C147.511 218.211 147.814 213.819 148.418 210.201C149.023 206.583 150.232 203.612 152.045 201.286C153.858 198.961 156.448 197.28 159.816 196.247C163.269 195.213 167.802 194.697 173.414 194.697C179.026 194.697 184.639 194.74 190.251 194.826C195.95 194.912 201.648 194.955 207.348 194.955C209.074 194.955 210.801 194.912 212.527 194.826C214.255 194.653 215.982 194.783 217.708 195.213C218.744 195.386 219.651 195.687 220.428 196.118C221.205 196.462 221.594 197.28 221.594 198.572C221.594 201.674 220.558 203.999 218.485 205.55C216.413 207.014 213.953 208.004 211.103 208.521C208.253 209.038 205.275 209.296 202.167 209.296C199.145 209.21 196.641 209.168 194.655 209.168H177.818C176.091 209.168 174.364 209.168 172.638 209.168C170.911 209.168 169.183 209.253 167.457 209.426C166.938 210.718 166.593 212.053 166.421 213.431C166.248 214.809 166.162 216.23 166.162 217.695C166.162 227.083 166.378 236.343 166.809 245.474C167.328 254.604 167.802 263.864 168.234 273.252C173.587 272.821 178.897 272.305 184.164 271.702C189.431 271.099 194.741 270.41 200.094 269.634C200.872 269.634 201.562 269.591 202.167 269.505C202.857 269.419 203.548 269.377 204.239 269.377C206.052 269.377 207.304 269.85 207.994 270.797C208.772 271.745 209.16 273.08 209.16 274.802C209.16 276.009 209.074 277.128 208.901 278.162C208.815 279.196 208.556 280.229 208.124 281.263C207.52 282.985 206.527 284.235 205.146 285.009C203.764 285.785 202.21 286.344 200.483 286.69C198.756 286.948 196.943 287.077 195.043 287.077C193.231 287.077 191.633 287.12 190.251 287.206C186.624 287.379 183.041 287.508 179.502 287.594C176.048 287.68 172.552 287.809 169.011 287.981C169.097 289.79 169.226 292.503 169.4 296.121C169.572 299.739 169.745 303.831 169.917 308.396C170.176 312.874 170.436 317.526 170.695 322.349C171.04 327.173 171.385 331.738 171.731 336.045C172.076 340.266 172.464 343.969 172.897 347.157C173.328 350.344 173.76 352.497 174.192 353.617C175.141 355.425 176.221 356.632 177.429 357.235C178.638 357.752 180.236 358.009 182.221 358.009C185.416 358.009 188.783 357.406 192.324 356.201C195.864 354.909 199.317 353.315 202.684 351.42C206.052 349.439 209.246 347.286 212.269 344.96C215.377 342.634 218.054 340.352 220.299 338.113C221.248 337.337 222.198 336.562 223.148 335.786C224.098 334.926 225.22 334.494 226.515 334.494C227.811 334.494 229.063 334.883 230.271 335.658C231.48 336.432 232.559 337.423 233.509 338.629C234.459 339.749 235.192 340.998 235.711 342.377C236.315 343.755 236.618 345.004 236.618 346.123ZM60.6141 441.651C60.6141 447.077 60.1311 452.426 59.1655 457.699C58.1998 462.922 56.5986 467.815 54.3622 472.378C52.1766 476.943 49.2793 481.1 45.6706 484.853C42.0618 488.554 37.6397 491.596 32.4045 493.979C31.0829 494.589 29.6343 495.146 28.0586 495.653C26.5337 496.16 24.9327 496.591 23.2553 496.946C21.6288 497.301 20.0023 497.58 18.3758 497.783C16.7493 497.986 15.2245 498.086 13.8013 498.086C13.2422 498.086 12.6069 498.061 11.8952 498.01C11.2345 498.01 10.5991 497.91 9.98917 497.707C9.37926 497.554 8.87098 497.276 8.46436 496.87C8.05773 496.464 7.85442 495.907 7.85442 495.197C7.85442 494.589 7.98149 493.954 8.23563 493.295C8.48977 492.635 8.82016 492.002 9.22678 491.393C9.68424 490.785 10.1671 490.253 10.6754 489.797C11.1837 489.289 11.7174 488.909 12.2765 488.655C12.0223 488.25 11.7682 487.109 11.5141 485.232C11.3107 483.357 11.1074 480.974 10.9041 478.083C10.7517 475.193 10.5991 471.973 10.4467 468.423C10.2941 464.824 10.1417 461.122 9.98917 457.319C9.88757 453.516 9.78588 449.739 9.68423 445.986C9.63341 442.183 9.58257 438.684 9.53174 435.49C9.48092 432.296 9.43009 429.532 9.37926 427.199C9.37926 424.817 9.37926 423.092 9.37926 422.028C9.37926 417.261 9.4555 412.571 9.60799 407.957C9.76045 403.342 9.83673 398.651 9.83673 393.885C9.27761 393.885 8.74391 393.734 8.23563 393.429C7.77818 393.125 7.54944 392.668 7.54944 392.06C7.54944 391.248 7.75276 390.513 8.15939 389.854C8.56601 389.144 9.07429 388.536 9.68423 388.029C10.345 387.522 11.0566 387.141 11.8191 386.888C12.6323 386.583 13.3947 386.431 14.1063 386.431C14.8179 386.431 15.5041 386.507 16.1649 386.66C16.8256 386.761 17.5118 386.888 18.2234 387.041C24.9835 388.663 31.0067 391.122 36.2927 394.418C41.5789 397.714 46.0009 401.72 49.5589 406.435C53.1677 411.151 55.9125 416.475 57.7931 422.407C59.6737 428.34 60.6141 434.755 60.6141 441.651ZM49.3302 440.282C49.3302 435.211 48.7202 430.444 47.5004 425.983C46.2805 421.47 44.4507 417.363 42.0109 413.661C39.622 409.909 36.5977 406.613 32.9381 403.773C29.3293 400.883 25.1359 398.5 20.3581 396.623V396.928C20.3581 410.01 20.5614 422.99 20.9681 435.87C21.4255 448.699 22.0863 461.629 22.9504 474.661C23.1029 476.638 23.2299 478.615 23.3316 480.593C23.4841 482.52 23.7128 484.447 24.0178 486.374C28.7956 484.802 32.811 482.368 36.064 479.072C39.317 475.776 41.9093 472.024 43.8407 467.815C45.823 463.555 47.2208 459.043 48.0341 454.276C48.8982 449.459 49.3302 444.794 49.3302 440.282ZM118.1 437.696C118.1 439.826 118.05 442.31 117.948 445.15C117.897 447.939 117.72 450.93 117.415 454.124C117.16 457.319 116.754 460.59 116.194 463.936C115.686 467.283 115 470.553 114.137 473.747C113.272 476.943 112.205 479.959 110.934 482.799C109.663 485.639 108.138 488.123 106.359 490.253C104.581 492.383 102.522 494.081 100.184 495.348C97.8457 496.566 95.1772 497.174 92.1783 497.174C89.1795 497.174 86.4602 496.49 84.0204 495.121C81.5806 493.701 79.5221 491.85 77.8448 489.568C76.4724 487.743 75.2526 485.512 74.1852 482.875C73.1686 480.188 72.2537 477.272 71.4405 474.128C70.678 470.984 70.0173 467.713 69.4582 464.316C68.899 460.919 68.4416 457.572 68.0858 454.276C67.7808 450.981 67.5521 447.863 67.3997 444.921C67.2471 441.929 67.1708 439.318 67.1708 437.088C67.1708 433.335 67.3234 429.405 67.6284 425.298C67.9841 421.191 68.6195 417.134 69.5344 413.128C70.4493 409.072 71.6946 405.168 73.2703 401.415C74.8459 397.663 76.8791 394.291 79.3696 391.299C79.6237 390.995 79.9287 390.64 80.2846 390.235C80.6912 389.828 81.1232 389.449 81.5806 389.093C82.0382 388.688 82.4956 388.359 82.953 388.105C83.4613 387.8 83.9442 387.649 84.4017 387.649C84.8591 387.649 85.2912 387.775 85.6977 388.029C86.1552 388.283 86.5364 388.612 86.8414 389.018C87.9088 388.41 89.027 387.978 90.196 387.725C91.4159 387.471 92.6357 387.344 93.8557 387.344C97.5661 387.344 100.743 388.232 103.386 390.006C106.08 391.731 108.316 394.012 110.095 396.852C111.875 399.691 113.298 402.911 114.365 406.512C115.432 410.111 116.246 413.788 116.805 417.539C117.364 421.292 117.72 424.918 117.872 428.416C118.024 431.915 118.1 435.009 118.1 437.696ZM106.207 441.043C106.207 439.724 106.156 437.721 106.054 435.034C106.004 432.296 105.826 429.304 105.521 426.059C105.215 422.763 104.784 419.391 104.224 415.943C103.716 412.495 103.004 409.377 102.089 406.588C101.175 403.748 100.032 401.44 98.6589 399.666C97.3374 397.841 95.7363 396.928 93.8557 396.928C93.0933 396.928 92.407 397.282 91.7972 397.992C91.1872 398.702 90.6027 399.615 90.0436 400.73C89.4844 401.847 88.9762 403.063 88.5188 404.382C88.0612 405.7 87.6038 406.968 87.1464 408.184C86.6889 409.401 86.2569 410.492 85.8503 411.455C85.4436 412.419 85.0116 413.103 84.5541 413.508C84.4016 413.661 84.1475 413.762 83.7917 413.813C83.4867 413.813 83.1817 413.813 82.8767 413.813C82.0127 413.813 81.1995 413.661 80.437 413.357C79.573 416.805 78.963 420.252 78.6072 423.7C78.3022 427.098 78.1498 430.546 78.1498 434.045C78.1498 435.109 78.2006 436.707 78.3022 438.837C78.4039 440.966 78.5564 443.4 78.7597 446.138C78.963 448.876 79.2426 451.818 79.5984 454.961C79.9541 458.104 80.3862 461.249 80.8945 464.392C81.4028 467.486 81.9873 470.477 82.648 473.368C83.3597 476.207 84.1729 478.742 85.0878 480.974C86.0027 483.153 87.0193 484.903 88.1375 486.222C89.2557 487.54 90.501 488.199 91.8733 488.199C92.6357 488.199 93.322 487.996 93.9319 487.591C94.5418 487.135 95.1263 486.678 95.6855 486.222C97.2104 484.853 98.5319 483.053 99.6501 480.821C100.768 478.59 101.709 476.131 102.471 473.444C103.234 470.756 103.869 467.942 104.378 465.001C104.885 462.01 105.266 459.068 105.521 456.178C105.775 453.288 105.953 450.55 106.054 447.963C106.156 445.327 106.207 443.02 106.207 441.043ZM195.868 485.156C195.868 486.627 195.487 488.021 194.724 489.34C193.961 490.607 192.919 491.546 191.598 492.154C191.192 492.357 190.201 492.56 188.624 492.762C187.049 492.915 185.346 493.067 183.517 493.219C181.687 493.371 179.933 493.523 178.256 493.675C176.629 493.828 175.485 493.929 174.825 493.979C174.672 494.841 174.266 495.45 173.605 495.805C172.944 496.109 172.232 496.261 171.471 496.261C170.606 496.261 169.615 496.134 168.497 495.881C167.379 495.628 166.388 495.348 165.523 495.045C163.236 495.348 160.924 495.678 158.586 496.033C156.247 496.388 153.883 496.566 151.495 496.566C149.665 496.566 148.751 495.704 148.751 493.979C148.751 492.256 149.233 490.937 150.199 490.024C151.165 489.112 152.334 488.428 153.706 487.971C155.078 487.515 156.552 487.21 158.128 487.059C159.704 486.906 161.101 486.728 162.321 486.525C162.067 472.125 161.788 457.826 161.482 443.628C161.228 429.431 161.101 415.131 161.101 400.73C159.017 400.883 156.984 401.035 155.002 401.188C153.019 401.288 151.038 401.339 149.055 401.339C148.648 401.339 148.216 401.339 147.759 401.339C147.301 401.288 146.87 401.213 146.462 401.111C146.107 400.959 145.802 400.756 145.548 400.503C145.243 400.198 145.09 399.768 145.09 399.21C145.09 398.246 145.293 397.409 145.701 396.699C146.107 395.939 146.641 395.33 147.301 394.874C148.013 394.367 148.776 393.961 149.588 393.657C150.402 393.353 151.241 393.125 152.105 392.973C154.291 392.567 156.502 392.238 158.738 391.984C161.025 391.68 163.287 391.401 165.523 391.147C167.811 390.843 170.072 390.538 172.309 390.235C174.596 389.93 176.858 389.525 179.095 389.018C181.23 388.561 183.364 387.978 185.498 387.268C187.633 386.507 189.819 386.127 192.056 386.127C193.276 386.127 194.088 386.583 194.496 387.497C194.902 388.359 195.105 389.322 195.105 390.387C195.105 391.248 195.003 392.085 194.8 392.897C194.648 393.657 194.293 394.393 193.733 395.103C193.428 395.508 192.742 395.913 191.674 396.319C190.658 396.674 189.413 397.004 187.939 397.308C186.515 397.612 184.965 397.916 183.287 398.221C181.661 398.475 180.06 398.728 178.485 398.982C176.96 399.185 175.562 399.361 174.291 399.514C173.021 399.666 172.08 399.768 171.471 399.818C172.029 406.866 172.41 413.915 172.614 420.962C172.868 428.011 173.071 435.059 173.224 442.107C173.376 449.156 173.528 456.203 173.682 463.252C173.834 470.299 174.113 477.348 174.52 484.397C177.417 483.939 180.34 483.509 183.287 483.104C186.236 482.647 189.209 482.419 192.209 482.419C193.072 482.419 193.885 482.621 194.648 483.027C195.462 483.382 195.868 484.092 195.868 485.156ZM250 391.452C250 393.277 249.467 394.773 248.399 395.939C247.383 397.106 245.984 397.892 244.206 398.297C241.359 398.905 238.436 399.235 235.438 399.285C232.49 399.285 229.567 399.361 226.669 399.514V414.574C226.669 427.352 227.051 440.104 227.814 452.831C228.626 465.509 229.922 478.21 231.702 490.937C231.854 491.698 232.006 492.459 232.16 493.219C232.363 493.979 232.464 494.74 232.464 495.501C232.464 496.717 232.134 497.605 231.473 498.163C230.863 498.72 229.974 499 228.804 499C227.89 499 226.746 498.873 225.373 498.62C224.052 498.417 223.01 498.086 222.247 497.63C221.231 497.022 220.57 496.414 220.266 495.805C220.011 495.146 219.808 494.284 219.655 493.219C219.096 489.619 218.715 486.019 218.512 482.419C218.309 478.819 218.08 475.218 217.825 471.618C217.216 463.911 216.707 456.229 216.301 448.573C215.895 440.916 215.69 433.233 215.69 425.526C215.69 421.318 215.716 417.134 215.767 412.976C215.817 408.818 215.843 404.585 215.843 400.274C212.692 400.579 209.516 400.883 206.313 401.188C203.162 401.491 199.985 401.644 196.783 401.644C196.02 401.644 195.411 401.466 194.953 401.111C194.445 400.705 194.19 400.122 194.19 399.361C194.19 397.587 194.775 396.218 195.944 395.254C197.113 394.24 198.51 393.531 200.137 393.125C202.729 392.567 205.373 392.212 208.066 392.06C210.761 391.857 213.454 391.604 216.148 391.299C216.148 390.792 216.174 390.311 216.225 389.854C216.275 389.347 216.377 388.916 216.529 388.561C216.732 388.156 217.013 387.826 217.368 387.573C217.724 387.319 218.233 387.192 218.893 387.192C220.112 387.192 221.359 387.471 222.629 388.029C223.9 388.586 224.891 389.372 225.602 390.387L238.258 389.018C239.478 388.866 240.698 388.713 241.919 388.561C243.138 388.359 244.358 388.257 245.578 388.257C246.136 388.257 246.671 388.283 247.178 388.333C247.738 388.384 248.22 388.536 248.628 388.789C249.034 388.993 249.364 389.322 249.619 389.778C249.873 390.184 250 390.742 250 391.452Z" fill="white"/>
</svg>
