<svg width="603" height="1020" viewBox="0 0 603 1020" fill="none" xmlns="http://www.w3.org/2000/svg">
<path d="M325.722 125.181L315.532 356.593L258.748 313.271L325.722 125.181Z" stroke="url(#paint0_linear_3906_3492)"/>
<path d="M544.519 251.166L507.382 316.642L417.862 108.75L544.519 251.166Z" stroke="url(#paint1_linear_3906_3492)"/>
<path d="M431.174 449.507L344.688 383.603L357.217 33.4683L486.742 351.651L431.174 449.507Z" stroke="url(#paint2_linear_3906_3492)"/>
<path fill-rule="evenodd" clip-rule="evenodd" d="M603.428 319.125L569.217 280.662L568.533 279.892L568.003 280.835L440.833 506.814L440.324 507.719L439.553 507.105L249.797 355.905L248.994 355.266L248.616 356.276L0.774272 1017.41L-1.95284e-05 1019.48L1.60775 1017.97L313.766 724.99L510.167 874.654L510.951 875.252L511.443 874.336L603.428 702.9V700.841L510.658 873.738L314.382 724.17L313.737 723.678L313.116 724.261L2.38203 1015.9L249.418 356.915L439.692 508.527L440.585 509.239L441.176 508.19L568.687 281.604L603.428 320.664V319.125ZM603.428 406.706L579.192 379.452L578.292 378.44L577.593 379.68L455.678 596.256L273.807 451.351L272.751 450.509L272.253 451.838L140.246 803.988L141.818 805.038L310.149 647.018L493.128 786.453L494.037 787.146L494.606 786.084L603.428 583.243V581.183L494.235 784.717L493.744 785.632L492.96 785.035L310.12 645.706L142.775 802.8L141.168 804.309L141.942 802.243L272.796 453.168L273.175 452.159L273.977 452.798L455.168 597.162L455.94 597.776L456.449 596.871L577.915 381.093L578.445 380.151L579.129 380.92L603.428 408.244V406.706Z" fill="url(#paint3_linear_3906_3492)"/>
<defs>
<linearGradient id="paint0_linear_3906_3492" x1="277.066" y1="133.564" x2="329.173" y2="354.47" gradientUnits="userSpaceOnUse">
<stop stop-color="#6221A2"/>
</linearGradient>
<linearGradient id="paint1_linear_3906_3492" x1="465.447" y1="94.4321" x2="517.554" y2="315.338" gradientUnits="userSpaceOnUse">
<stop stop-color="#6221A2"/>
</linearGradient>
<linearGradient id="paint2_linear_3906_3492" x1="355.023" y1="31.5428" x2="452.605" y2="445.232" gradientUnits="userSpaceOnUse">
<stop offset="1" stop-color="#6221A2"/>
</linearGradient>
<linearGradient id="paint3_linear_3906_3492" x1="301.714" y1="279.892" x2="301.714" y2="1019.48" gradientUnits="userSpaceOnUse">
<stop stop-color="#6221A2"/>
<stop offset="1" stop-color="#6221A2" stop-opacity="0"/>
</linearGradient>
</defs>
</svg>
