<svg width="112" height="39" viewBox="0 0 112 39" fill="none" xmlns="http://www.w3.org/2000/svg">
<rect width="112" height="39"/>
<g clip-path="url(#clip0_276_139)">
<path d="M8.01383 37.9894H0.901367V1.75391H8.01383V24.6038L18.5403 12.1138H26.6614L17.4799 22.9095L26.6614 37.9894H18.5403L12.9279 28.5736L8.01383 34.6733V37.9894Z" fill="#C0C0C0"/>
<path d="M36.567 37.9894H29.4546V1.75391H36.567V37.9894Z" fill="#C0C0C0"/>
<path d="M59.4565 36.9437C59.4565 36.9437 59.1806 37.1343 58.4736 37.4569C57.7667 37.7635 57.0339 38.0057 56.2752 38.1831C55.5338 38.3767 54.7751 38.4736 53.9992 38.4736C52.2922 38.4736 50.6888 38.1912 49.1887 37.6264C47.6886 37.0616 46.3695 36.2628 45.2315 35.2301C44.1108 34.1811 43.2228 32.9144 42.5676 31.4298C41.9296 29.929 41.6106 28.2508 41.6106 26.395V12.0654H48.6454V26.395C48.6454 27.2664 48.7835 28.0491 49.0594 28.743C49.3525 29.4208 49.7403 29.9936 50.2231 30.4616C50.7059 30.9295 51.2664 31.2846 51.9044 31.5266C52.5596 31.7687 53.2578 31.8897 53.9992 31.8897C54.7234 31.8897 55.4045 31.7364 56.0425 31.4298C56.6977 31.107 57.2667 30.6875 57.7495 30.1712C58.2322 29.6547 58.6116 29.0738 58.8875 28.4284C59.1633 27.7667 59.3013 27.0889 59.3013 26.395V12.0654H66.3621V37.9894H59.4565V36.9437Z" fill="#C0C0C0"/>
<path d="M99.4931 24.7975C99.4931 26.8308 99.1224 28.6864 98.381 30.3648C97.6396 32.043 96.6309 33.4873 95.3549 34.6976C94.079 35.8917 92.5789 36.8195 90.8548 37.4812C89.1478 38.1427 87.3114 38.4736 85.3458 38.4736C83.3974 38.4736 81.5611 38.1347 79.8368 37.4569C78.1298 36.7791 76.6297 35.8352 75.3367 34.6249C74.0607 33.4147 73.052 31.9784 72.3106 30.3163C71.5692 28.6381 71.1985 26.7985 71.1985 24.7975V1.75391H78.285V13.8566C78.6644 13.4048 79.1213 13.0014 79.6558 12.6464C80.2076 12.2913 80.7938 12.0009 81.4145 11.775C82.0525 11.549 82.7077 11.3796 83.3802 11.2666C84.0526 11.1375 84.7078 11.073 85.3458 11.073C87.3114 11.073 89.1478 11.42 90.8548 12.1138C92.5789 12.7916 94.079 13.7436 95.3549 14.9701C96.6309 16.1965 97.6396 17.6488 98.381 19.327C99.1224 20.9892 99.4931 22.8127 99.4931 24.7975ZM92.3806 24.7975C92.3806 23.797 92.1911 22.8691 91.8116 22.0139C91.4495 21.1425 90.9496 20.3921 90.3116 19.7628C89.6737 19.1334 88.9236 18.6412 88.0615 18.2862C87.2166 17.9313 86.3114 17.7537 85.3458 17.7537C84.3802 17.7537 83.4664 17.9554 82.6043 18.3589C81.7594 18.7461 81.0179 19.2706 80.38 19.9322C79.742 20.5777 79.242 21.3281 78.8799 22.1833C78.5178 23.0224 78.3367 23.8938 78.3367 24.7975C78.3367 25.7981 78.5178 26.7259 78.8799 27.5811C79.242 28.4364 79.742 29.1786 80.38 29.808C81.0179 30.4374 81.7594 30.9377 82.6043 31.3087C83.4664 31.6638 84.3802 31.8412 85.3458 31.8412C86.3114 31.8412 87.2166 31.6638 88.0615 31.3087C88.9236 30.9377 89.6737 30.4374 90.3116 29.808C90.9496 29.1786 91.4495 28.4364 91.8116 27.5811C92.1911 26.7259 92.3806 25.7981 92.3806 24.7975Z" fill="#C0C0C0"/>
<path d="M110.537 37.9894H103.424V12.0654H110.537V37.9894Z" fill="#C0C0C0"/>
<path d="M106.963 9.48507C109.614 9.48507 111.763 7.47369 111.763 4.99253C111.763 2.51138 109.614 0.5 106.963 0.5C104.312 0.5 102.163 2.51138 102.163 4.99253C102.163 7.47369 104.312 9.48507 106.963 9.48507Z" fill="#C0C0C0"/>
</g>
<defs>
<clipPath id="clip0_276_139">
<rect width="111" height="38" fill="white" transform="translate(0.901367 0.5)"/>
</clipPath>
</defs>
</svg>
