<svg width="112" height="38" viewBox="0 0 112 38" fill="none" xmlns="http://www.w3.org/2000/svg">
<rect width="112" height="38" fill="#1E1E1E"/>
<g clip-path="url(#clip0_276_139)">
<rect width="1920" height="5639.06" transform="translate(-859 -948)" fill="white"/>
<g clip-path="url(#clip1_276_139)">
<path d="M8.01383 37.4894H0.901367V1.25388H8.01383V24.1038L18.5403 11.6138H26.6614L17.4799 22.4095L26.6614 37.4894H18.5403L12.9279 28.0736L8.01383 34.1733V37.4894Z" fill="#C0C0C0"/>
<path d="M36.567 37.4894H29.4546V1.25388H36.567V37.4894Z" fill="#C0C0C0"/>
<path d="M59.4565 36.4437C59.4565 36.4437 59.1806 36.6342 58.4736 36.9569C57.7667 37.2635 57.0339 37.5056 56.2752 37.683C55.5338 37.8766 54.7751 37.9735 53.9992 37.9735C52.2922 37.9735 50.6888 37.6912 49.1887 37.1264C47.6886 36.5616 46.3695 35.7628 45.2315 34.73C44.1108 33.6811 43.2228 32.4144 42.5676 30.9298C41.9296 29.429 41.6106 27.7507 41.6106 25.895V11.5654H48.6454V25.895C48.6454 26.7664 48.7835 27.5491 49.0594 28.2429C49.3525 28.9207 49.7403 29.4936 50.2231 29.9615C50.7059 30.4294 51.2664 30.7845 51.9044 31.0265C52.5596 31.2687 53.2578 31.3897 53.9992 31.3897C54.7234 31.3897 55.4045 31.2364 56.0425 30.9298C56.6977 30.607 57.2667 30.1874 57.7495 29.6711C58.2322 29.1547 58.6116 28.5738 58.8875 27.9283C59.1633 27.2666 59.3013 26.5888 59.3013 25.895V11.5654H66.3621V37.4894H59.4565V36.4437Z" fill="#C0C0C0"/>
<path d="M99.4931 24.2974C99.4931 26.3308 99.1224 28.1864 98.381 29.8648C97.6396 31.543 96.6309 32.9873 95.3549 34.1975C94.079 35.3916 92.5789 36.3195 90.8548 36.9811C89.1478 37.6427 87.3114 37.9736 85.3458 37.9736C83.3974 37.9736 81.5611 37.6347 79.8368 36.9569C78.1298 36.2791 76.6297 35.3352 75.3367 34.1249C74.0607 32.9146 73.052 31.4784 72.3106 29.8163C71.5692 28.138 71.1985 26.2985 71.1985 24.2974V1.25388H78.285V13.3566C78.6644 12.9048 79.1213 12.5013 79.6558 12.1463C80.2076 11.7913 80.7938 11.5008 81.4145 11.2749C82.0525 11.049 82.7077 10.8796 83.3802 10.7666C84.0526 10.6375 84.7078 10.573 85.3458 10.573C87.3114 10.573 89.1478 10.9199 90.8548 11.6138C92.5789 12.2916 94.079 13.2436 95.3549 14.4701C96.6309 15.6965 97.6396 17.1488 98.381 18.827C99.1224 20.4891 99.4931 22.3126 99.4931 24.2974ZM92.3806 24.2974C92.3806 23.297 92.1911 22.369 91.8116 21.5138C91.4495 20.6424 90.9496 19.892 90.3116 19.2628C89.6737 18.6334 88.9236 18.1412 88.0615 17.7862C87.2166 17.4312 86.3114 17.2537 85.3458 17.2537C84.3802 17.2537 83.4664 17.4554 82.6043 17.8588C81.7594 18.2461 81.0179 18.7706 80.38 19.4321C79.742 20.0776 79.242 20.828 78.8799 21.6832C78.5178 22.5223 78.3367 23.3937 78.3367 24.2974C78.3367 25.298 78.5178 26.2258 78.8799 27.081C79.242 27.9364 79.742 28.6786 80.38 29.308C81.0179 29.9374 81.7594 30.4376 82.6043 30.8087C83.4664 31.1638 84.3802 31.3412 85.3458 31.3412C86.3114 31.3412 87.2166 31.1638 88.0615 30.8087C88.9236 30.4376 89.6737 29.9374 90.3116 29.308C90.9496 28.6786 91.4495 27.9364 91.8116 27.081C92.1911 26.2258 92.3806 25.298 92.3806 24.2974Z" fill="#C0C0C0"/>
<path d="M110.537 37.4894H103.424V11.5654H110.537V37.4894Z" fill="#C0C0C0"/>
<path d="M106.963 8.98507C109.614 8.98507 111.763 6.97369 111.763 4.49253C111.763 2.01138 109.614 0 106.963 0C104.312 0 102.163 2.01138 102.163 4.49253C102.163 6.97369 104.312 8.98507 106.963 8.98507Z" fill="#C0C0C0"/>
</g>
</g>
<defs>
<clipPath id="clip0_276_139">
<rect width="1920" height="5639.06" fill="white" transform="translate(-859 -948)"/>
</clipPath>
<clipPath id="clip1_276_139">
<rect width="111" height="38" fill="white" transform="translate(0.901367)"/>
</clipPath>
</defs>
</svg>
