<svg width="24" height="16" viewBox="0 0 24 16" fill="none" xmlns="http://www.w3.org/2000/svg">
<path d="M6.98112 0.5C7.67263 0.5 8.31164 0.552239 8.89815 0.708955C9.48316 0.813432 9.96467 1.03134 10.3922 1.29253C10.8212 1.55522 11.1377 1.92835 11.3537 2.40745C11.5637 2.88506 11.6777 3.46864 11.6777 4.10446C11.6777 4.84476 11.5187 5.48058 11.1437 5.95819C10.8212 6.4358 10.2947 6.86266 9.64816 7.17758C10.5572 7.44027 11.2487 7.91788 11.6702 8.5537C12.0917 9.18952 12.3617 9.98205 12.3617 10.8865C12.3617 11.6268 12.2042 12.2626 11.9342 12.794C11.6649 13.3288 11.2607 13.7849 10.7612 14.1179C10.2812 14.4387 9.69466 14.6999 9.05565 14.8581C8.42969 15.0226 7.78596 15.1108 7.13862 15.1208L0 15.1313V0.5H6.98112ZM6.55361 6.43729C7.13862 6.43729 7.61863 6.28057 7.98913 6.01192C8.35814 5.74326 8.52164 5.27013 8.52164 4.68804C8.52164 4.36566 8.46914 4.05222 8.36414 3.84178C8.25049 3.62849 8.08559 3.44647 7.88413 3.31193C7.66653 3.19387 7.43393 3.10551 7.19262 3.04924C6.92862 2.997 6.65861 2.997 6.34211 2.997H3.25505V6.44475C3.25505 6.43729 6.55361 6.43729 6.55361 6.43729ZM6.71111 12.6955C7.03362 12.6955 7.35012 12.6432 7.62013 12.591C7.88413 12.5388 8.15414 12.4328 8.36414 12.2686C8.57414 12.1044 8.73915 11.9477 8.89815 11.6865C9.00315 11.4238 9.10815 11.1029 9.10815 10.7298C9.10815 9.98951 8.89815 9.45817 8.46914 9.08504C8.04164 8.76414 7.45513 8.60743 6.76361 8.60743H3.25505V12.688H6.71261L6.71111 12.6955ZM16.9983 12.6432C17.4273 13.0686 18.0648 13.2791 18.9153 13.2791C19.5003 13.2791 20.0343 13.1208 20.4633 12.8522C20.8909 12.5313 21.1534 12.2164 21.2584 11.897H23.8684C23.4394 13.1671 22.8004 14.0716 21.9514 14.6552C21.1024 15.185 20.0868 15.4999 18.8613 15.4999C18.0777 15.5034 17.3004 15.3591 16.5708 15.0746C15.9141 14.8317 15.3281 14.4307 14.8653 13.9074C14.3715 13.4195 14.0049 12.819 13.7972 12.1582C13.5347 11.4701 13.4222 10.7298 13.4222 9.87757C13.4222 9.08504 13.5272 8.33728 13.7972 7.64922C14.0672 6.96266 14.4362 6.37759 14.9178 5.84774C15.3978 5.37013 15.9843 4.94327 16.6233 4.68058C17.3358 4.39831 18.0959 4.25394 18.8628 4.25521C19.7718 4.25521 20.5683 4.41192 21.2599 4.78506C21.9499 5.15819 22.4854 5.57908 22.9129 6.2149C23.3404 6.79699 23.6569 7.48505 23.8744 8.22683C23.9794 8.96713 24.0319 9.7134 23.9794 10.5597H16.2543C16.2543 11.4253 16.5693 12.2164 16.9983 12.6432ZM20.3583 7.07311C19.9833 6.69997 19.3953 6.48953 18.7038 6.48953C18.2238 6.48953 17.8548 6.59401 17.5323 6.75221C17.2098 6.90893 16.9983 7.12535 16.7883 7.3343C16.5922 7.53916 16.4617 7.79733 16.4133 8.07609C16.3593 8.33728 16.3083 8.5537 16.3083 8.76265H21.1024C20.9974 7.97758 20.7288 7.44624 20.3583 7.07311ZM15.6678 1.50895H21.6349V2.9373H15.6678V1.50895Z" fill="white"/>
</svg>
