<svg width="56" height="57" viewBox="0 0 56 57" fill="none" xmlns="http://www.w3.org/2000/svg">
<rect y="56.2534" width="56" height="56" rx="28" transform="rotate(-90 0 56.2534)" fill="white"/>
<g clip-path="url(#clip0_1128_1084)">
<path fill-rule="evenodd" clip-rule="evenodd" d="M28 45.7534C27.6759 45.7534 27.3651 45.6217 27.1359 45.3873C26.9067 45.1529 26.7779 44.835 26.7779 44.5035L26.7779 15.0229L19.0888 22.8899C18.8593 23.1246 18.5481 23.2564 18.2236 23.2564C17.8991 23.2564 17.5878 23.1246 17.3584 22.8899C17.1289 22.6552 17 22.3369 17 22.0049C17 21.673 17.1289 21.3547 17.3584 21.12L27.1348 11.1206C27.2483 11.0042 27.3832 10.9119 27.5316 10.8489C27.6801 10.7859 27.8393 10.7534 28 10.7534C28.1607 10.7534 28.3199 10.7859 28.4684 10.8489C28.6168 10.9119 28.7517 11.0042 28.8652 11.1206L38.6416 21.12C38.8711 21.3547 39 21.673 39 22.0049C39 22.3369 38.8711 22.6552 38.6416 22.8899C38.4121 23.1246 38.1009 23.2564 37.7764 23.2564C37.4519 23.2564 37.1407 23.1246 36.9112 22.8899L29.222 15.0229L29.2221 44.5035C29.2221 44.835 29.0933 45.1529 28.8641 45.3873C28.6349 45.6217 28.3241 45.7534 28 45.7534Z" fill="#101010"/>
</g>
<defs>
<clipPath id="clip0_1128_1084">
<rect width="35" height="22" fill="white" transform="translate(17 45.7534) rotate(-90)"/>
</clipPath>
</defs>
</svg>
