<svg width="150" height="76" viewBox="0 0 150 76" fill="none" xmlns="http://www.w3.org/2000/svg">
<path fill-rule="evenodd" clip-rule="evenodd" d="M85.606 70L86.1957 71.2594C86.2185 71.3086 86.2539 71.3506 86.2982 71.3818C86.3438 71.4131 86.3969 71.4323 86.4526 71.4371L87.8964 71.5811L86.817 72.5032C86.7753 72.538 86.7462 72.5836 86.7284 72.634C86.7107 72.6844 86.7082 72.7373 86.7196 72.7901L87.0207 74.1371L85.7642 73.4492C85.7161 73.4216 85.6617 73.4084 85.606 73.4084C85.5504 73.4084 85.4947 73.4216 85.4466 73.4492L84.1901 74.1371L84.4925 72.7901C84.5039 72.7373 84.5014 72.6844 84.4837 72.634C84.4659 72.5824 84.4356 72.538 84.3938 72.5032L83.3145 71.5811L84.7582 71.4371C84.8139 71.4311 84.8671 71.4131 84.9126 71.3818C84.9569 71.3506 84.9923 71.3086 85.0151 71.2594L85.606 70Z" fill="white"/>
<path d="M41.2207 63.3852H44.9396C46.4632 63.3852 47.7083 62.2002 47.7083 60.7055C47.7083 60.0068 47.354 59.3237 46.7377 58.9239C47.3299 58.5385 47.5767 57.841 47.6045 57.1651C47.6438 55.5948 46.6061 54.4626 44.9396 54.4626H41.2207V63.384V63.3852ZM43.115 56.2443H44.7815C45.318 56.2443 45.6483 56.6441 45.6483 57.1423C45.6483 57.6405 45.318 58.0367 44.7815 58.0367H43.115V56.2443ZM43.115 59.8219H44.7815C45.318 59.8219 45.728 60.2073 45.728 60.7055C45.728 61.2038 45.318 61.6035 44.7815 61.6035H43.115V59.8219Z" fill="white"/>
<path d="M48.5345 63.3848H50.6628L51.0285 62.4268H54.1426L54.5248 63.3848H56.6367L52.6824 54.1501H52.4875L48.5332 63.3848H48.5345ZM51.7131 60.7544L52.5925 58.4373L53.4479 60.7544H51.7131Z" fill="white"/>
<path d="M62.6234 63.3851H64.7518L62.5677 59.709C65.3288 58.9503 64.9985 54.4746 61.6491 54.4746H57.9453V63.3851H59.8231V59.9852H60.7304L62.6234 63.3851ZM59.8231 58.2516V56.255H61.4782C62.755 56.255 62.755 58.2516 61.4782 58.2516H59.8231Z" fill="white"/>
<path d="M65.9902 63.3852H69.7092C71.2327 63.3852 72.4778 62.2002 72.4778 60.7055C72.4778 60.0068 72.1235 59.3237 71.5073 58.9239C72.0995 58.5385 72.3462 57.841 72.3741 57.1651C72.4133 55.5948 71.3757 54.4626 69.7092 54.4626H65.9902V63.384V63.3852ZM67.8832 56.2443H69.5497C70.0863 56.2443 70.4165 56.6441 70.4165 57.1423C70.4165 57.6405 70.0863 58.0367 69.5497 58.0367H67.8832V56.2443ZM67.8832 59.8219H69.5497C70.0863 59.8219 70.4962 60.2073 70.4962 60.7055C70.4962 61.2038 70.0863 61.6035 69.5497 61.6035H67.8832V59.8219Z" fill="white"/>
<path d="M79.0042 63.3849V61.6032H76.0204V59.8216H78.4904V58.0364H76.0204V56.2548H78.8447V54.4731H74.1426V63.3837H79.0029L79.0042 63.3849Z" fill="white"/>
<path d="M79.9212 63.3848H82.0496L82.4152 62.4268H85.5293L85.9115 63.3848H88.0234L84.0691 54.1501H83.8742L79.9199 63.3848H79.9212ZM83.0985 60.7544L83.978 58.4373L84.8334 60.7544H83.0985Z" fill="white"/>
<path d="M94.0101 63.3851H96.1385L93.9545 59.709C96.7155 58.9503 96.3852 54.4746 93.0358 54.4746H89.332V63.3851H91.2099V59.9852H92.1171L94.0101 63.3851ZM91.2099 58.2516V56.255H92.865C94.1417 56.255 94.1417 58.2516 92.865 58.2516H91.2099Z" fill="white"/>
<path d="M99.2548 63.3851V54.4746H97.377V63.3851H99.2548Z" fill="white"/>
<path d="M100.531 63.3848H102.659L103.025 62.4268H106.139L106.521 63.3848H108.633L104.678 54.1501H104.484L100.529 63.3848H100.531ZM103.708 60.7544L104.587 58.4373L105.443 60.7544H103.708Z" fill="white"/>
<path d="M47.8355 29.7632C47.337 28.3465 46.8726 27.0283 46.3449 25.5288C42.2097 30.7704 39.8965 36.4935 38.826 43.0269C35.9777 40.3317 33.9493 37.2871 31.645 33.9231C31.502 35.078 31.2806 35.9124 31.316 36.7384C31.4438 39.6798 31.659 42.6187 31.8412 45.5577C31.8475 45.6513 31.8538 45.745 31.8614 45.8386C32.0892 48.6671 31.2464 49.2578 28.4398 48.1809C27.3921 47.7787 26.3127 47.3873 25.3776 46.8039C23.4011 45.5709 22.6533 43.7136 22.6887 41.5058C22.8342 32.5545 24.2793 23.8144 27.8502 15.5006C29.0295 12.7537 30.8301 10.2446 32.3764 7.64296C32.5877 7.28759 32.9408 6.98386 33.2888 6.73294C34.191 6.08344 34.7908 6.28632 34.8426 7.35362C34.997 10.4883 34.873 13.6445 35.202 16.76C35.6196 20.7038 36.3763 24.614 37.0115 28.7019C39.1563 24.2694 40.9747 20.0915 43.1675 16.0985C45.387 12.0574 48.4568 8.54578 52.0366 4.94531C52.0366 5.67525 52.0809 6.10385 52.0302 6.52164C51.3583 12.0826 52.0644 17.5223 53.6398 22.8804C54.3193 25.1915 54.275 25.0882 52.1631 26.3812C50.8193 27.2036 49.7095 28.3705 48.4859 29.3718C48.2898 29.5327 48.043 29.6407 47.8368 29.7632H47.8355Z" fill="white"/>
<path d="M120.962 20.8413C120.837 23.1283 120.718 25.3037 120.594 27.5608C117.855 27.969 115.131 28.2883 112.989 30.657C114.694 30.2848 116.115 29.9463 117.55 29.6666C124.529 28.3039 129.874 34.5408 128.862 40.133C128.204 43.7683 125.462 46.1226 121.827 47.2619C119.608 47.957 117.236 48.2127 114.929 48.6545C113.877 48.855 113.094 48.4204 112.567 47.5992C111.307 45.6411 110.609 43.5702 111.229 41.1619C114.332 41.8618 117.199 41.6049 119.803 39.9133C120.841 39.2386 121.99 38.4558 121.477 37.0992C120.995 35.8242 119.753 35.1303 118.32 35.1771C116.957 35.2215 115.607 35.5421 114.248 35.7234C112.737 35.925 111.91 36.0415 110.87 35.877C109.442 35.6513 108.376 35.0246 107.728 34.56L103.376 46.7901C103.376 46.7901 102.636 47.502 102.519 47.4948C99.5863 47.3123 96.8417 47.8562 94.2199 49.4085C93.1127 46.8597 92.051 44.4646 91.0501 42.0455C90.9438 41.7898 91.083 41.2795 91.3019 41.091C93.0127 39.6203 94.7716 38.1989 96.5722 36.715C97.1985 38.1521 97.8502 39.6444 98.6094 41.3864C100.191 36.4401 101.698 31.7243 103.191 27.053C103.343 26.9785 103.439 26.8885 103.514 26.9017C104.052 27.0001 104.531 26.6592 106.169 26.8392C106.857 26.9149 107.675 27.0217 107.671 27.0217C107.683 27.0013 108.715 25.2929 108.988 24.8751C110.223 22.9891 112.573 22.1415 114.043 21.6108C116.889 20.5832 119.465 20.6696 120.967 20.8437L120.962 20.8413Z" fill="white"/>
<path d="M59.6094 15.2112C65.6832 16.7575 70.3043 19.6604 73.7576 24.1469C77.1905 28.607 78.7824 33.6193 78.1168 39.2955C78.8634 39.2955 79.4353 39.2547 79.9971 39.3039C81.217 39.4096 82.4874 39.3928 83.6376 39.7289C86.3772 40.5285 86.6518 41.1468 85.7673 43.6943C85.003 45.8974 84.2121 48.092 83.4326 50.2926C79.6483 48.9576 75.4089 48.6918 70.7143 49.4954C71.2736 47.3812 71.9051 45.2575 72.3922 43.1025C73.4387 38.4731 72.8389 34.0875 69.9121 30.1449C67.5522 26.9658 64.0382 25.5828 60.2168 24.722C59.8435 24.6379 59.474 24.5407 58.959 24.4158C59.9979 21.4913 60.8292 18.6208 59.6094 15.2124V15.2112Z" fill="white"/>
<path d="M60.7081 37.6761C59.3491 35.5871 58.0837 35.0097 55.9225 35.4539C53.9599 35.8573 52.2504 37.7902 52.0846 39.7939C51.915 41.8408 53.1855 43.8193 55.1873 44.6249C57.8395 45.6922 59.8679 44.9491 61.2042 42.5107C61.4117 42.1314 61.9431 41.7796 62.3898 41.6788C63.2452 41.4855 64.1474 41.4711 65.0319 41.4026C65.9076 41.3342 66.7845 41.291 67.7993 41.2285C67.9296 44.757 66.5036 47.5567 63.5299 49.4115C59.2352 52.0912 52.3377 51.2016 49.4425 47.6983C47.2433 45.0367 46.8599 42.0053 47.3761 38.8166C48.0696 34.5391 51.4165 30.2603 56.6159 29.3743C61.1649 28.5987 66.3631 31.2783 67.9549 35.7228C65.5267 36.3771 63.1086 37.029 60.7069 37.6761H60.7081Z" fill="white"/>
<path d="M94.8534 29.6024C94.8458 33.8308 91.9898 36.8057 87.9393 36.8033C83.9129 36.8009 81.1354 33.8104 81.1544 29.4992C81.1721 25.5818 83.9635 23.033 88.2215 23.0462C92.1796 23.0582 94.8597 25.709 94.8521 29.6024H94.8534ZM88.6872 27.822C87.1257 27.8568 85.6022 29.3695 85.6186 30.8702C85.6351 32.3949 87.1611 33.7851 88.7796 33.7503C90.4119 33.7143 91.919 32.2593 91.8582 30.7766C91.7975 29.2783 90.198 27.7884 88.6872 27.822Z" fill="white"/>
<path d="M35.0462 63.5338C33.4227 65.3814 30.7553 65.0741 28.9952 63.5854C27.006 62.0547 26.8782 59.4315 27.6311 57.2825C28.0955 55.7938 29.1242 54.496 30.358 53.5007C30.6832 53.2366 31.0223 52.9905 31.3728 52.766C30.253 53.173 29.1622 53.6304 28.1233 54.1538C25.9102 55.2307 23.8173 56.334 21.7889 57.7219C20.9702 58.2693 19.9287 58.7051 19.0177 59.0941C17.3398 59.8108 15.8264 60.3415 13.9271 60.1854C13.3551 60.1386 10.5156 59.9057 8.74915 57.6474C7.79632 56.4301 7.57108 55.1527 7.50781 54.4888C8.243 55.1959 9.67667 56.3544 11.805 56.8587C13.8613 57.3461 15.591 56.9919 16.6767 56.771C18.218 56.4565 19.5011 55.8982 19.6719 55.8226C20.3387 55.5285 20.5716 55.3628 21.5915 54.891C21.5915 54.891 22.6556 54.3987 23.8805 53.9257C24.3234 53.7552 26.205 53.0385 28.8572 52.3842C30.4845 51.9832 32.5521 51.5678 34.988 51.3037C35.0057 51.4094 35.0222 51.5138 35.0399 51.6195C34.2579 51.832 33.4733 52.0601 32.6951 52.3146C30.9451 53.3711 29.4254 54.8357 28.6953 56.6882C28.1474 58.2261 27.9082 60.0485 28.713 61.5132C29.3963 62.7654 31.3285 63.8051 32.6635 63.3117C33.7315 62.9563 34.5983 61.7641 34.5514 60.6428C34.2452 58.393 31.9005 58.3834 30.9755 60.3499C30.9957 60.1062 31.0932 59.2802 31.7904 58.7027C32.7015 57.9464 34.0997 58.0592 34.8893 58.5707C36.3268 59.5023 36.2977 62.1075 35.0424 63.5362L35.0462 63.5338Z" fill="white"/>
<path d="M27.1274 64.5214C26.544 64.2417 25.7861 63.7675 25.161 62.9871C25.0129 62.8022 24.7662 62.4889 24.5586 62.0231C24.5586 62.0231 24.2081 61.2355 24.1727 60.2823C24.1702 60.2246 24.155 59.7636 24.155 59.7636C23.8083 59.9629 23.2857 60.2451 22.6251 60.532C21.6293 60.9666 20.2412 61.5825 18.4127 61.6749C17.4472 61.7242 16.483 61.6629 15.5605 61.4552L15.5757 61.3316C17.2017 61.1419 19.5288 60.6749 22.0254 59.4407C23.3907 58.766 24.4979 58.0156 25.3634 57.3325C25.3166 59.2486 25.3318 59.7997 25.3318 59.7997C25.3558 60.6028 25.3685 61.0362 25.4507 61.4876C25.5735 62.1503 25.924 63.2681 27.1236 64.5214H27.1274Z" fill="white"/>
<path d="M108.809 67.6324H106.697C106.028 67.6324 105.371 67.498 104.766 67.2387C104.161 67.498 103.503 67.6324 102.835 67.6324H100.708C100.5 67.6324 100.288 67.618 100.071 67.5904C99.8551 67.618 99.6412 67.6324 99.4337 67.6324H97.5559C97.3496 67.6324 97.1396 67.6192 96.932 67.5928C96.7245 67.6192 96.5183 67.6324 96.3158 67.6324H94.1874C93.7104 67.6324 93.2409 67.5652 92.7892 67.4307C92.3375 67.5652 91.868 67.6324 91.3884 67.6324H89.5106C89.293 67.6324 89.0741 67.618 88.8551 67.5892C88.6362 67.618 88.4173 67.6324 88.2009 67.6324H86.0903C85.4222 67.6324 84.7642 67.4968 84.1593 67.2387C83.5545 67.498 82.8978 67.6324 82.2284 67.6324H80.1C79.9482 67.6324 79.795 67.6252 79.6407 67.6108C79.4876 67.6252 79.3344 67.6324 79.1839 67.6324H74.3236C73.6453 67.6324 72.9785 67.4932 72.3686 67.2279C71.5752 67.4968 70.7438 67.6324 69.8922 67.6324H66.1733C65.9657 67.6324 65.757 67.6192 65.5482 67.5928C65.3419 67.6192 65.1357 67.6324 64.9307 67.6324H62.8036C62.3253 67.6324 61.8558 67.5652 61.4053 67.4307C60.9536 67.5652 60.4841 67.6324 60.0033 67.6324H58.1255C57.9078 67.6324 57.6889 67.618 57.4713 67.5892C57.2524 67.618 57.0335 67.6324 56.8171 67.6324H54.7052C54.037 67.6324 53.3803 67.4968 52.7742 67.2387C52.1681 67.498 51.5114 67.6324 50.842 67.6324H48.7149C48.167 67.6324 47.633 67.5436 47.1256 67.3695C46.4726 67.5448 45.8007 67.6324 45.1212 67.6324H41.4023C38.812 67.6324 36.7039 65.6335 36.7039 63.1748V54.2534C36.7039 51.7959 38.8108 49.7958 41.4023 49.7958H45.1212C45.2756 49.7958 45.43 49.8006 45.5831 49.809C44.4404 48.3203 43.6319 46.684 43.1586 44.9119C42.5993 45.9132 41.649 46.6876 40.4709 47.0537C39.2208 47.4415 37.8921 47.3154 36.776 46.7404C36.7242 48.2771 36.2851 50.4453 34.2478 51.8583C33.2229 52.5691 32.0233 52.9292 30.682 52.9292C29.0256 52.9292 27.5704 52.3734 26.8707 52.1057L26.6037 52.0036C25.4826 51.5762 24.2235 51.0948 22.9771 50.3168C20.7399 48.9206 18.0915 46.2097 18.1737 41.225C18.342 30.8798 20.1427 21.8469 23.6819 13.6075C24.6499 11.3504 25.909 9.34791 27.1263 7.41021L27.1453 7.3802C27.6476 6.58303 28.0627 5.92031 28.4676 5.2408C28.9623 4.40641 29.6697 3.66327 30.6301 2.97055C33.3064 1.04366 35.684 1.76159 36.5812 2.16017C37.4733 2.55636 39.5637 3.81334 39.7168 6.93358C39.7788 8.17615 39.7978 9.40672 39.8167 10.5977V10.6529C39.8281 11.3336 39.8383 11.9999 39.856 12.6554C42.4601 8.30222 45.8146 4.68015 48.8022 1.67516C50.1308 0.33654 52.1529 -0.0884594 53.9535 0.591055C55.7529 1.26937 56.9158 2.89492 56.9158 4.73297C56.9158 4.92266 56.9208 5.08833 56.9246 5.23599L56.9272 5.31884C56.9373 5.75464 56.9499 6.24806 56.8803 6.81593C56.688 8.41026 56.6184 10.0214 56.6754 11.6638C57.8509 10.6745 59.4731 10.3023 61.0093 10.6925C68.1713 12.5162 73.6415 15.987 77.735 21.3054C78.0956 21.7736 78.4411 22.2515 78.7701 22.7365C80.8668 19.9788 84.3365 18.3761 88.3705 18.3761H88.4161C93.4396 18.3929 97.4053 21.1097 98.9883 25.2336C99.378 24.2732 100.101 23.4748 101.05 22.9622C101.935 22.4447 102.868 22.1986 103.825 22.2286C104.131 22.1854 104.634 22.1218 105.308 22.1146C107.39 19.0928 110.736 17.8838 112.552 17.2295C115.414 16.1959 118.583 15.8417 121.716 16.2031C124.155 16.4876 125.966 18.5321 125.838 20.86L125.552 26.0692C126.933 26.6923 128.203 27.5327 129.34 28.5736C132.79 31.743 134.452 36.3796 133.675 40.674C132.771 45.6671 129.057 49.5329 123.483 51.2809C121.606 51.8679 119.78 52.1729 118.013 52.467L117.984 52.4718C117.355 52.5751 116.69 52.6867 116.038 52.8104C113.081 53.3758 110.351 52.2149 108.739 49.7081C108.431 49.2267 108.152 48.7441 107.905 48.2627C107.674 48.8005 107.33 49.2952 106.902 49.7057C106.853 49.7538 106.802 49.803 106.749 49.8534C107.847 50.3084 108.742 51.1572 109.214 52.2605L113.167 61.4952C113.755 62.871 113.586 64.4294 112.713 65.6611C111.837 66.8941 110.38 67.63 108.815 67.63L108.809 67.6324ZM104.766 65.1617C104.953 65.1653 105.108 65.2169 105.108 65.2169C105.176 65.2397 105.243 65.2697 105.308 65.3082C105.725 65.5531 106.206 65.6827 106.697 65.6827H108.809C109.69 65.6827 110.508 65.2685 111.002 64.5746C111.493 63.8819 111.589 63.0055 111.257 62.2311L107.304 52.9965C106.898 52.0468 105.936 51.4333 104.857 51.4333H104.662C104.528 51.4333 104.398 51.4429 104.275 51.461C104.16 51.4778 104.045 51.4766 103.936 51.4573C103.854 51.5258 103.759 51.5822 103.654 51.6242C103.222 51.7947 102.963 52.0456 102.663 52.3049C102.663 52.3049 102.481 52.4622 101.978 53.0109C101.791 52.03 101.309 51.5234 101.309 51.5234C101.309 51.5234 100.631 50.8331 97.8912 51.1392C97.8912 51.1392 98.4252 50.7514 98.4897 50.7046C99.1819 50.2076 100.221 49.9807 100.427 49.9363C100.427 49.9363 101.428 49.7178 102.521 49.785C102.543 49.7862 102.6 49.7898 102.681 49.791C102.82 49.791 102.959 49.7814 103.105 49.761C103.218 49.7442 103.331 49.7466 103.439 49.7646C103.521 49.6961 103.614 49.6397 103.721 49.5977C103.857 49.5437 104.628 49.0983 105.435 48.3383C105.724 48.067 105.872 47.9265 106.03 47.696C106.176 47.4847 106.382 47.1222 106.381 47.1245C106.663 46.4234 106.946 45.7223 107.228 45.0224C107.657 43.781 107.933 42.9838 107.933 42.9838C108.675 45.1881 108.778 45.457 108.778 45.457C109.199 46.5387 109.609 47.5928 110.491 48.6949C111.161 49.5329 111.82 50.3228 112.985 50.7346C113.791 51.0192 114.688 51.0816 115.631 50.9015C116.306 50.773 116.988 50.659 117.627 50.5545L117.654 50.5497C119.348 50.2676 121.099 49.9759 122.834 49.4332C127.663 47.9193 130.875 44.6082 131.645 40.3486C132.309 36.6809 130.877 32.7083 127.907 29.9794C126.777 28.9434 125.494 28.1402 124.095 27.5939C123.691 27.4367 123.437 27.0549 123.459 26.6419L123.782 20.7628C123.854 19.4542 122.834 18.3028 121.463 18.1432C118.661 17.8202 115.832 18.1348 113.279 19.0556C111.653 19.6427 108.627 20.7352 106.921 23.3404C106.878 23.4052 106.823 23.4904 106.755 23.6009C106.563 23.9082 106.207 24.0919 105.83 24.0763C104.955 24.0427 104.353 24.1291 104.03 24.1759C103.959 24.1855 103.887 24.1892 103.816 24.1856C103.236 24.1543 102.679 24.3008 102.112 24.6346C102.1 24.6418 102.087 24.649 102.075 24.6562C101.647 24.8831 101.403 25.1712 101.275 25.3117C100.543 26.1221 100.039 27.0393 100.039 27.0393C99.6969 27.6612 99.2717 28.5244 98.8757 29.6133C98.6871 30.1811 98.4998 30.7502 98.3113 31.318C98.3518 30.8402 98.7099 25.5362 94.4279 22.3499C92.0603 20.5875 89.4726 20.3642 88.4072 20.3318H88.3654C86.89 20.2465 85.7335 20.5071 85.0286 20.722C83.0559 21.3246 81.8133 22.4315 81.3451 22.8577C80.5897 23.5457 79.8621 24.4353 79.6736 24.667C79.299 25.1256 78.617 26.0044 78.617 26.0044C78.617 26.0044 78.0476 25.0175 78.0185 24.9683C77.5844 24.2192 76.6746 22.9622 75.7636 21.8925C73.7908 19.579 71.5866 17.885 71.1829 17.5777C71.1829 17.5777 66.682 14.1609 60.474 12.5822C59.5313 12.3421 58.5304 12.6134 57.861 13.2905C57.1929 13.9664 56.9727 14.9317 57.2878 15.8105C57.4725 16.3255 57.6016 16.8418 57.6763 17.3652C57.7155 17.6353 57.8964 18.4337 57.7117 19.3053C57.7117 19.3053 57.6143 19.7651 56.5627 21.5912C56.5438 21.4987 55.5922 18.1624 55.1493 14.6231C54.7469 11.4141 54.8039 8.37185 54.8368 6.59984C54.8469 6.092 54.8595 5.66821 54.8709 5.36927L54.8684 5.29003C54.8646 5.12795 54.8595 4.94547 54.8595 4.73777C54.8595 3.7041 54.2053 2.78927 53.193 2.4087C52.1807 2.02572 51.0432 2.26582 50.2966 3.01857C45.3831 7.96486 41.0062 14.7324 41.0062 14.7324C40.0888 16.2931 38.3185 19.3749 38.3122 19.3857C38.3122 19.3857 37.763 10.7021 37.7618 10.6877V10.6325C37.7428 9.45715 37.7225 8.24099 37.6631 7.02963C37.5669 5.04511 36.3977 4.23713 35.7106 3.93219C35.15 3.68368 33.6556 3.24429 31.8727 4.52888C31.1413 5.05592 30.6124 5.60337 30.2581 6.20365C29.8405 6.90357 29.4179 7.57709 28.9105 8.38506L28.8915 8.41387C27.7134 10.2879 26.4949 12.2268 25.5851 14.347C22.1445 22.3583 20.3932 31.1608 20.2287 41.2598C20.1617 45.3597 22.3001 47.5652 24.1071 48.6925C25.1814 49.3624 26.3392 49.8054 27.3616 50.1956L27.6286 50.2964C28.2626 50.5389 29.4229 50.9831 30.6807 50.9831C31.5893 50.9831 32.3586 50.7562 33.0343 50.288C34.9615 48.9506 34.7628 46.4907 34.678 45.4402L34.6616 45.2193C34.6616 45.2193 34.6616 45.2049 34.6603 45.1989C34.6603 45.1989 34.6173 44.571 34.5477 43.9491C34.5477 43.9491 34.4617 43.1783 34.1896 41.5972C34.1896 41.5972 35.3031 42.6453 36.3977 43.8674C36.6229 44.1196 36.8393 44.3105 37.143 44.5962C37.8503 45.2637 38.8804 45.4966 39.8307 45.2025C40.2634 45.068 40.6418 44.8351 40.9391 44.5338C41.4491 44.0175 41.5744 43.4088 41.6199 43.2035C41.9426 41.7509 42.6018 40.0653 43.0688 38.8731C43.9495 36.6221 45.3945 34.6616 45.3945 34.6616C45.3945 34.6616 44.8213 36.7866 44.6897 38.9404C44.6518 39.5731 44.6315 40.5299 44.7606 41.6812C44.939 43.2768 45.3363 44.631 45.7476 45.6923C46.4119 47.4067 47.2306 48.5976 47.5431 49.037C47.6962 49.2531 48.6529 50.5833 49.9587 51.7431C49.9587 51.7431 49.9828 51.7647 51.1748 52.8128C51.1748 52.8128 49.7866 52.3374 49.6601 52.2941C48.9047 52.0384 47.5887 51.7827 45.1237 51.7479H41.4048C39.9483 51.7479 38.7627 52.8728 38.7627 54.2546V63.176C38.7627 64.5578 39.9483 65.6827 41.4048 65.6827H45.1237C45.7096 65.6827 46.2891 65.5915 46.8446 65.4114C47.0952 65.3298 47.3698 65.3442 47.6102 65.451C47.9582 65.6047 48.3302 65.6827 48.7174 65.6827H50.8445C51.3355 65.6827 51.8176 65.5531 52.2364 65.307C52.5679 65.1125 52.9855 65.1125 53.3158 65.307C53.7346 65.5531 54.2155 65.6827 54.7064 65.6827H56.8183C56.974 65.6827 57.1334 65.6695 57.2929 65.6419C57.4131 65.6215 57.5358 65.6215 57.6548 65.6419C57.8104 65.6683 57.9686 65.6815 58.1255 65.6815H60.0033C60.3538 65.6815 60.6929 65.6179 61.0118 65.493C61.2636 65.3946 61.5471 65.3934 61.7989 65.493C62.1177 65.6191 62.4569 65.6815 62.8048 65.6815H64.9319C65.0762 65.6815 65.2242 65.6695 65.371 65.6443C65.4874 65.6251 65.6076 65.6251 65.7241 65.6443C65.8734 65.6695 66.0252 65.6815 66.1733 65.6815H69.8922C70.6312 65.6815 71.3461 65.5411 72.0206 65.2625C72.3268 65.1365 72.6786 65.1593 72.9633 65.3226C73.3707 65.5567 73.8415 65.6815 74.3236 65.6815H79.1839C79.2914 65.6815 79.4003 65.6743 79.5103 65.6611C79.5964 65.6503 79.6837 65.6503 79.7697 65.6611C79.8811 65.6743 79.9924 65.6815 80.1 65.6815H82.2284C82.7193 65.6815 83.2002 65.5519 83.6178 65.307C83.9493 65.1125 84.3669 65.1125 84.6984 65.307C85.1172 65.5531 85.5993 65.6827 86.0903 65.6827H88.2009C88.3566 65.6827 88.516 65.6695 88.6755 65.6419C88.7944 65.6215 88.9171 65.6215 89.0374 65.6419C89.1955 65.6683 89.355 65.6827 89.5106 65.6827H91.3884C91.7377 65.6827 92.0768 65.6191 92.3957 65.4942C92.6475 65.3958 92.9296 65.3946 93.1815 65.4942C93.5029 65.6203 93.842 65.6839 94.1887 65.6839H96.3171C96.4601 65.6839 96.6081 65.6719 96.7574 65.6467C96.8738 65.6275 96.9928 65.6275 97.1092 65.6467C97.2585 65.6719 97.4091 65.6839 97.5571 65.6839H99.435C99.5843 65.6839 99.7374 65.6707 99.9019 65.6443C100.016 65.6263 100.132 65.6263 100.246 65.6443C100.407 65.6707 100.562 65.6839 100.709 65.6839H102.836C103.811 65.3358 104.553 65.1593 104.769 65.1629L104.766 65.1617Z" fill="white"/>
<path d="M115.086 63.9036C116.71 65.7513 119.377 65.444 121.137 63.9553C123.126 62.4246 123.254 59.8013 122.501 57.6524C122.037 56.1637 121.008 54.8659 119.774 53.8706C119.449 53.6065 119.11 53.3604 118.76 53.1359C119.879 53.5429 120.97 54.0003 122.009 54.5237C124.222 55.6006 126.315 56.7039 128.344 58.0917C129.162 58.6392 130.204 59.075 131.115 59.464C132.793 60.1807 134.306 60.7114 136.205 60.5553C136.777 60.5085 139.617 60.2756 141.383 58.0173C142.336 56.7999 142.561 55.5226 142.625 54.8587C141.889 55.5658 140.456 56.7243 138.327 57.2286C136.271 57.716 134.541 57.3618 133.456 57.1409C131.914 56.8264 130.631 56.2681 130.461 56.1925C129.794 55.8983 129.561 55.7327 128.541 55.2608C128.541 55.2608 127.477 54.7686 126.252 54.2956C125.809 54.1251 123.927 53.4084 121.275 52.7541C119.648 52.3531 117.58 51.9377 115.144 51.6736C115.127 51.7792 115.11 51.8837 115.093 51.9893C115.875 52.2018 116.659 52.4299 117.437 52.6845C119.187 53.7409 120.707 55.2056 121.437 57.0581C121.985 58.596 122.224 60.4184 121.419 61.8831C120.736 63.1353 118.804 64.175 117.469 63.6815C116.401 63.3262 115.534 62.134 115.581 61.0127C115.887 58.7629 118.232 58.7533 119.157 60.7198C119.137 60.4761 119.039 59.6501 118.342 59.0726C117.431 58.3163 116.033 58.4291 115.243 58.9405C113.806 59.8722 113.835 62.4774 115.09 63.906L115.086 63.9036Z" fill="white"/>
<path d="M123.006 64.8913C123.589 64.6116 124.347 64.1374 124.972 63.357C125.12 63.1721 125.367 62.8588 125.575 62.393C125.575 62.393 125.925 61.6054 125.961 60.6522C125.963 60.5945 125.978 60.1335 125.978 60.1335C126.325 60.3328 126.848 60.6149 127.508 60.9019C128.504 61.3365 129.892 61.9524 131.721 62.0448C132.686 62.094 133.65 62.0328 134.573 61.8251L134.557 61.7014C132.931 61.5118 130.604 61.0447 128.108 59.8106C126.743 59.1359 125.635 58.3855 124.77 57.7024C124.817 59.6185 124.801 60.1695 124.801 60.1695C124.777 60.9727 124.765 61.4061 124.682 61.8575C124.56 62.5202 124.209 63.6379 123.01 64.8913H123.006Z" fill="white"/>
<path fill-rule="evenodd" clip-rule="evenodd" d="M52.6842 69.0969L53.1587 70.109C53.1777 70.1486 53.2055 70.1822 53.241 70.2074C53.2776 70.2326 53.3207 70.2483 53.365 70.2519L54.5253 70.3671L53.6573 71.1079C53.6244 71.1367 53.6003 71.1727 53.5864 71.2135C53.5725 71.2543 53.57 71.2963 53.5801 71.3384L53.8218 72.4213L52.812 71.8678C52.7728 71.8462 52.7297 71.8354 52.6842 71.8354C52.6386 71.8354 52.5943 71.8462 52.5551 71.8678L51.5453 72.4213L51.7883 71.3384C51.7972 71.2963 51.7946 71.2531 51.782 71.2135C51.7681 71.1727 51.7427 71.1367 51.7098 71.1079L50.8418 70.3671L52.0021 70.2519C52.0464 70.2471 52.0895 70.2326 52.1262 70.2074C52.1616 70.1822 52.1907 70.1486 52.2084 70.109L52.6842 69.0969Z" fill="white"/>
<path fill-rule="evenodd" clip-rule="evenodd" d="M74.5302 70.3472L75.2325 71.8467C75.2603 71.9043 75.3021 71.9547 75.3552 71.9919C75.4096 72.0291 75.4729 72.052 75.5387 72.058L77.2583 72.2284L75.9727 73.3257C75.9234 73.3678 75.8879 73.4206 75.8677 73.4818C75.8475 73.5418 75.8437 73.6043 75.8576 73.6679L76.2169 75.2718L74.72 74.4519C74.6618 74.4194 74.5973 74.4038 74.5315 74.4038C74.4657 74.4038 74.3986 74.4194 74.3404 74.4519L72.8435 75.2718L73.2041 73.6679C73.218 73.6055 73.2142 73.5418 73.194 73.4818C73.1737 73.4206 73.1357 73.3678 73.0864 73.3257L71.8008 72.2284L73.5204 72.058C73.5862 72.052 73.6495 72.0291 73.7039 71.9919C73.7571 71.9547 73.7988 71.9043 73.8267 71.8467L74.5302 70.3472Z" fill="white"/>
<path fill-rule="evenodd" clip-rule="evenodd" d="M63.6275 69.7598L64.2172 71.0191C64.24 71.0684 64.2754 71.1104 64.3197 71.1416C64.3653 71.1728 64.4184 71.192 64.4741 71.1968L65.9179 71.3409L64.8385 72.2629C64.7967 72.2977 64.7676 72.3434 64.7499 72.3938C64.7322 72.4442 64.7297 72.497 64.7411 72.5499L65.0422 73.8969L63.7857 73.209C63.7376 73.1813 63.6832 73.1681 63.6275 73.1681C63.5719 73.1681 63.5162 73.1813 63.4681 73.209L62.2116 73.8969L62.514 72.5499C62.5254 72.497 62.5229 72.4442 62.5051 72.3938C62.4874 72.3422 62.4571 72.2977 62.4153 72.2629L61.3359 71.3409L62.7797 71.1968C62.8354 71.1908 62.8886 71.1728 62.9341 71.1416C62.9784 71.1104 63.0138 71.0684 63.0366 71.0191L63.6275 69.7598Z" fill="white"/>
<path fill-rule="evenodd" clip-rule="evenodd" d="M96.3268 69.239L96.8013 70.2511C96.8203 70.2907 96.8481 70.3243 96.8835 70.3495C96.9202 70.3747 96.9632 70.3903 97.0075 70.3939L98.1679 70.5092L97.2998 71.2499C97.2669 71.2788 97.2429 71.3148 97.229 71.3556C97.2151 71.3964 97.2125 71.4384 97.2227 71.4804L97.4643 72.5633L96.4546 72.0099C96.4153 71.9883 96.3723 71.9775 96.3268 71.9775C96.2812 71.9775 96.2369 71.9883 96.1977 72.0099L95.1879 72.5633L95.4309 71.4804C95.4397 71.4384 95.4372 71.3952 95.4246 71.3556C95.4106 71.3148 95.3853 71.2788 95.3524 71.2499L94.4844 70.5092L95.6447 70.3939C95.689 70.3891 95.732 70.3747 95.7687 70.3495C95.8042 70.3243 95.8333 70.2907 95.851 70.2511L96.3268 69.239Z" fill="white"/>
<path fill-rule="evenodd" clip-rule="evenodd" d="M1.25778 19.1636H13.8546C14.2481 19.1636 14.567 18.8575 14.567 18.4877C14.567 18.118 14.2494 17.8118 13.8546 17.8118H1.25778C0.868048 17.8118 0.545377 18.1132 0.545377 18.4877C0.545377 18.8623 0.868048 19.1636 1.25778 19.1636ZM1.25778 48.9698H13.8546C14.2481 48.9698 14.567 48.6685 14.567 48.2939C14.567 47.9193 14.2494 47.618 13.8546 47.618H1.25778C0.868048 47.618 0.545377 47.9241 0.545377 48.2939C0.545377 48.6637 0.868048 48.9698 1.25778 48.9698ZM7.44421 7.99249C11.0088 7.99249 13.8964 10.7321 13.8964 14.1105C13.8964 15.2847 13.5459 16.382 12.9423 17.3148H1.94995C1.3451 16.3832 0.995851 15.2847 0.995851 14.1105C0.995851 10.7333 3.88344 7.99249 7.44421 7.99249ZM12.9929 49.396C11.935 50.4981 9.86614 51.2485 7.48344 51.2485C5.10073 51.2485 3.02805 50.4969 1.97019 49.396H12.9929ZM13.7648 19.6799V47.1018H13.8559C14.548 47.1018 15.1162 47.6372 15.1162 48.2939C15.1162 48.9506 14.5468 49.4897 13.8559 49.4897H13.6572C13.1802 49.9651 12.7423 50.3421 12.1539 50.6818C11.6326 50.9615 11.0999 51.1728 10.5355 51.3457C9.96611 51.5198 9.44983 51.6062 8.89307 51.6819V51.7011C8.89686 51.9388 8.84119 52.1537 8.72604 52.365C8.61468 52.5763 8.47549 52.6975 8.28822 52.826C8.04906 52.9689 7.80231 53.0409 7.52013 53.0445C7.3569 53.0409 7.20632 53.0181 7.05068 52.9689C6.81658 52.8788 6.62931 52.754 6.46228 52.5727C6.25096 52.3158 6.14467 52.0288 6.14846 51.7011L6.15226 51.6903L6.11303 51.6867C5.53982 51.611 4.98685 51.5018 4.43388 51.3469C3.80499 51.1548 3.22038 50.9171 2.65603 50.5918C2.09167 50.2676 1.73736 49.9159 1.3122 49.4897H1.26031C0.568154 49.4897 0 48.9494 0 48.2939C0 47.6384 0.569419 47.1018 1.26031 47.1018H1.27676V19.6799H1.26031C0.568154 19.6799 0 19.1444 0 18.4877C0 17.831 0.569419 17.292 1.26031 17.292H1.3084C0.744041 16.2991 0.460597 15.2318 0.453005 14.1069C0.484639 12.8535 0.803514 11.7598 1.46278 10.6685C2.09167 9.74048 2.8395 9.03096 3.81764 8.43428C4.9666 7.80759 6.12063 7.50625 7.44548 7.47144C8.88927 7.50865 10.142 7.86763 11.3593 8.60717C12.402 9.3131 13.165 10.1511 13.7534 11.234C14.1988 12.1704 14.4139 13.0792 14.4417 14.1057C14.4379 14.7324 14.3468 15.3399 14.171 15.9438C14.0242 16.412 13.8293 16.861 13.5863 17.2908H13.8571C14.5493 17.2908 15.1175 17.8262 15.1175 18.4865C15.1175 19.1468 14.548 19.6787 13.8571 19.6787H13.766L13.7648 19.6799ZM9.19802 46.6227L13.0688 45.0188V41.177L1.97146 45.7775V46.6227H9.19929H9.19802ZM1.97019 39.7316L13.0675 35.131V31.0744L1.97019 35.6785V39.7316ZM1.97019 29.6289L13.0675 25.0284V20.4014L1.97019 25.0055V29.6289ZM8.31479 51.5402C8.33504 51.6038 8.34642 51.6759 8.34642 51.7479C8.34642 52.1777 7.97693 52.5295 7.51887 52.5295C7.0608 52.5295 6.69511 52.1789 6.69511 51.7479C6.69511 51.6759 6.7027 51.6086 6.72295 51.5438L7.48217 51.563L8.31352 51.5402H8.31479ZM7.06966 8.77405C3.66453 9.37793 1.39698 13.0768 2.71803 16.352C3.38994 15.227 4.07831 14.7444 5.34369 14.7516C4.38959 12.174 5.18425 10.2639 7.06966 8.77405Z" fill="white"/>
<path fill-rule="evenodd" clip-rule="evenodd" d="M136.142 19.2093H148.739C149.132 19.2093 149.451 18.9032 149.451 18.5334C149.451 18.1636 149.134 17.8575 148.739 17.8575H136.142C135.752 17.8575 135.43 18.1588 135.43 18.5334C135.43 18.908 135.752 19.2093 136.142 19.2093ZM136.142 49.0155H148.739C149.132 49.0155 149.451 48.7142 149.451 48.3396C149.451 47.965 149.134 47.6637 148.739 47.6637H136.142C135.752 47.6637 135.43 47.9698 135.43 48.3396C135.43 48.7094 135.752 49.0155 136.142 49.0155ZM142.331 8.03816C145.89 8.03816 148.779 10.7778 148.779 14.1562C148.779 15.3303 148.429 16.4276 147.825 17.3605H136.835C136.231 16.4288 135.881 15.3303 135.881 14.1562C135.881 10.779 138.769 8.03816 142.333 8.03816H142.331ZM147.88 49.4417C146.822 50.5438 144.749 51.2941 142.366 51.2941C139.984 51.2941 137.915 50.5426 136.853 49.4417H147.88ZM148.651 19.7268V47.1486H148.739C149.435 47.1486 149.999 47.6841 149.999 48.3408C149.999 48.9975 149.435 49.5365 148.739 49.5365H148.54C148.067 50.012 147.625 50.3889 147.037 50.7287C146.516 51.0084 145.983 51.2197 145.418 51.3926C144.849 51.5667 144.333 51.6531 143.776 51.7287V51.748C143.78 51.9857 143.724 52.2006 143.613 52.4119C143.498 52.6232 143.358 52.7444 143.171 52.8729C142.932 53.0157 142.69 53.0878 142.403 53.0914C142.24 53.0878 142.089 53.065 141.934 53.0158C141.7 52.9257 141.512 52.8008 141.345 52.6196C141.134 52.3626 141.028 52.0757 141.035 51.748V51.7372L140.996 51.7336C140.427 51.6579 139.87 51.5487 139.317 51.3938C138.688 51.2017 138.103 50.964 137.539 50.6386C136.975 50.3133 136.624 49.9627 136.195 49.5365H136.143C135.451 49.5365 134.887 48.9963 134.887 48.3408C134.887 47.6853 135.451 47.1486 136.143 47.1486H136.16V19.7268H136.143C135.451 19.7268 134.887 19.1913 134.887 18.5346C134.887 17.8779 135.451 17.3389 136.143 17.3389H136.191C135.631 16.346 135.349 15.2787 135.336 14.1538C135.368 12.9004 135.69 11.8067 136.351 10.7154C136.976 9.78736 137.727 9.07783 138.706 8.48116C139.851 7.85447 141.005 7.55313 142.333 7.51831C143.777 7.55553 145.026 7.9145 146.243 8.65405C147.29 9.35997 148.053 10.198 148.638 11.2809C149.083 12.2173 149.298 13.1261 149.326 14.1526C149.322 14.7793 149.235 15.3868 149.055 15.9906C148.908 16.4589 148.713 16.9079 148.471 17.3377H148.741C149.437 17.3377 150.002 17.8731 150.002 18.5334C150.002 19.1937 149.437 19.7256 148.741 19.7256H148.654L148.651 19.7268ZM144.081 46.6684L147.952 45.0645V41.2227L136.854 45.8232V46.6684H144.082H144.081ZM136.853 39.7772L147.95 35.1767V31.12L136.853 35.7242V39.7772ZM136.853 29.6746L147.95 25.074V20.4471L136.853 25.0512V29.6746ZM143.198 51.5859C143.218 51.6495 143.229 51.7215 143.229 51.7936C143.229 52.2234 142.86 52.5751 142.402 52.5751C141.944 52.5751 141.578 52.2246 141.578 51.7936C141.578 51.7215 141.589 51.6543 141.606 51.5895L142.365 51.6087L143.196 51.5859H143.198ZM141.953 8.81972C138.551 9.4236 136.28 13.1225 137.605 16.3976C138.273 15.2727 138.961 14.7901 140.23 14.7973C139.271 12.2197 140.071 10.3096 141.953 8.81972Z" fill="white"/>
</svg>
