<svg width="371" height="89" viewBox="0 0 371 89" fill="none" xmlns="http://www.w3.org/2000/svg">
<rect x="2" y="2" width="89" height="85" rx="21" fill="url(#paint0_linear_6597_3209)" stroke="#C900A4" stroke-width="4"/>
<path d="M21 24.3571C21 22.9363 21.5644 21.5737 22.5691 20.5691C23.5737 19.5644 24.9363 19 26.3571 19H37.0714C38.4922 19 39.8548 19.5644 40.8595 20.5691C41.8642 21.5737 42.4286 22.9363 42.4286 24.3571V35.0714C42.4286 36.4922 41.8642 37.8548 40.8595 38.8595C39.8548 39.8642 38.4922 40.4286 37.0714 40.4286H26.3571C24.9363 40.4286 23.5737 39.8642 22.5691 38.8595C21.5644 37.8548 21 36.4922 21 35.0714V24.3571ZM26.3571 22.5714C25.8835 22.5714 25.4293 22.7596 25.0945 23.0945C24.7596 23.4293 24.5714 23.8835 24.5714 24.3571V35.0714C24.5714 35.545 24.7596 35.9992 25.0945 36.3341C25.4293 36.669 25.8835 36.8571 26.3571 36.8571H37.0714C37.545 36.8571 37.9992 36.669 38.3341 36.3341C38.669 35.9992 38.8571 35.545 38.8571 35.0714V24.3571C38.8571 23.8835 38.669 23.4293 38.3341 23.0945C37.9992 22.7596 37.545 22.5714 37.0714 22.5714H26.3571ZM49.5714 24.3571C49.5714 22.9363 50.1358 21.5737 51.1405 20.5691C52.1452 19.5644 53.5078 19 54.9286 19H65.6429C67.0637 19 68.4263 19.5644 69.4309 20.5691C70.4356 21.5737 71 22.9363 71 24.3571V35.0714C71 36.4922 70.4356 37.8548 69.4309 38.8595C68.4263 39.8642 67.0637 40.4286 65.6429 40.4286H54.9286C53.5078 40.4286 52.1452 39.8642 51.1405 38.8595C50.1358 37.8548 49.5714 36.4922 49.5714 35.0714V24.3571ZM54.9286 22.5714C54.455 22.5714 54.0008 22.7596 53.6659 23.0945C53.331 23.4293 53.1429 23.8835 53.1429 24.3571V35.0714C53.1429 35.545 53.331 35.9992 53.6659 36.3341C54.0008 36.669 54.455 36.8571 54.9286 36.8571H65.6429C66.1165 36.8571 66.5707 36.669 66.9055 36.3341C67.2404 35.9992 67.4286 35.545 67.4286 35.0714V24.3571C67.4286 23.8835 67.2404 23.4293 66.9055 23.0945C66.5707 22.7596 66.1165 22.5714 65.6429 22.5714H54.9286ZM21 52.9286C21 51.5078 21.5644 50.1452 22.5691 49.1405C23.5737 48.1358 24.9363 47.5714 26.3571 47.5714H37.0714C38.4922 47.5714 39.8548 48.1358 40.8595 49.1405C41.8642 50.1452 42.4286 51.5078 42.4286 52.9286V63.6429C42.4286 65.0637 41.8642 66.4263 40.8595 67.4309C39.8548 68.4356 38.4922 69 37.0714 69H26.3571C24.9363 69 23.5737 68.4356 22.5691 67.4309C21.5644 66.4263 21 65.0637 21 63.6429V52.9286ZM26.3571 51.1429C25.8835 51.1429 25.4293 51.331 25.0945 51.6659C24.7596 52.0008 24.5714 52.455 24.5714 52.9286V63.6429C24.5714 64.1165 24.7596 64.5707 25.0945 64.9055C25.4293 65.2404 25.8835 65.4286 26.3571 65.4286H37.0714C37.545 65.4286 37.9992 65.2404 38.3341 64.9055C38.669 64.5707 38.8571 64.1165 38.8571 63.6429V52.9286C38.8571 52.455 38.669 52.0008 38.3341 51.6659C37.9992 51.331 37.545 51.1429 37.0714 51.1429H26.3571ZM49.5714 52.9286C49.5714 51.5078 50.1358 50.1452 51.1405 49.1405C52.1452 48.1358 53.5078 47.5714 54.9286 47.5714H65.6429C67.0637 47.5714 68.4263 48.1358 69.4309 49.1405C70.4356 50.1452 71 51.5078 71 52.9286V63.6429C71 65.0637 70.4356 66.4263 69.4309 67.4309C68.4263 68.4356 67.0637 69 65.6429 69H54.9286C53.5078 69 52.1452 68.4356 51.1405 67.4309C50.1358 66.4263 49.5714 65.0637 49.5714 63.6429V52.9286ZM54.9286 51.1429C54.455 51.1429 54.0008 51.331 53.6659 51.6659C53.331 52.0008 53.1429 52.455 53.1429 52.9286V63.6429C53.1429 64.1165 53.331 64.5707 53.6659 64.9055C54.0008 65.2404 54.455 65.4286 54.9286 65.4286H65.6429C66.1165 65.4286 66.5707 65.2404 66.9055 64.9055C67.2404 64.5707 67.4286 64.1165 67.4286 63.6429V52.9286C67.4286 52.455 67.2404 52.0008 66.9055 51.6659C66.5707 51.331 66.1165 51.1429 65.6429 51.1429H54.9286Z" fill="#C900A4"/>
<path d="M124.76 61.5L139.88 27.9H146.024L161.192 61.5H154.664L141.656 31.212H144.152L131.192 61.5H124.76ZM131.72 53.724L133.4 48.828H151.544L153.224 53.724H131.72ZM179.097 61.836C177.017 61.836 175.113 61.356 173.385 60.396C171.689 59.436 170.329 57.996 169.305 56.076C168.313 54.124 167.817 51.66 167.817 48.684C167.817 45.676 168.297 43.212 169.257 41.292C170.249 39.372 171.593 37.948 173.289 37.02C174.985 36.06 176.921 35.58 179.097 35.58C181.625 35.58 183.849 36.124 185.769 37.212C187.721 38.3 189.257 39.82 190.377 41.772C191.529 43.724 192.105 46.028 192.105 48.684C192.105 51.34 191.529 53.66 190.377 55.644C189.257 57.596 187.721 59.116 185.769 60.204C183.849 61.292 181.625 61.836 179.097 61.836ZM164.889 70.812V35.868H170.601V41.916L170.409 48.732L170.889 55.548V70.812H164.889ZM178.425 56.7C179.865 56.7 181.145 56.38 182.265 55.74C183.417 55.1 184.329 54.172 185.001 52.956C185.673 51.74 186.009 50.316 186.009 48.684C186.009 47.02 185.673 45.596 185.001 44.412C184.329 43.196 183.417 42.268 182.265 41.628C181.145 40.988 179.865 40.668 178.425 40.668C176.985 40.668 175.689 40.988 174.537 41.628C173.385 42.268 172.473 43.196 171.801 44.412C171.129 45.596 170.793 47.02 170.793 48.684C170.793 50.316 171.129 51.74 171.801 52.956C172.473 54.172 173.385 55.1 174.537 55.74C175.689 56.38 176.985 56.7 178.425 56.7ZM197.795 61.5V25.884H203.795V61.5H197.795ZM211.67 61.5V35.868H217.67V61.5H211.67ZM214.694 31.644C213.574 31.644 212.646 31.292 211.91 30.588C211.206 29.884 210.854 29.036 210.854 28.044C210.854 27.02 211.206 26.172 211.91 25.5C212.646 24.796 213.574 24.444 214.694 24.444C215.814 24.444 216.726 24.78 217.43 25.452C218.166 26.092 218.534 26.908 218.534 27.9C218.534 28.956 218.182 29.852 217.478 30.588C216.774 31.292 215.846 31.644 214.694 31.644ZM237.305 61.836C234.617 61.836 232.217 61.276 230.105 60.156C228.025 59.004 226.393 57.436 225.209 55.452C224.025 53.468 223.433 51.212 223.433 48.684C223.433 46.124 224.025 43.868 225.209 41.916C226.393 39.932 228.025 38.38 230.105 37.26C232.217 36.14 234.617 35.58 237.305 35.58C239.801 35.58 241.993 36.092 243.881 37.116C245.801 38.108 247.257 39.58 248.249 41.532L243.641 44.22C242.873 43.004 241.929 42.108 240.809 41.532C239.721 40.956 238.537 40.668 237.257 40.668C235.785 40.668 234.457 40.988 233.273 41.628C232.089 42.268 231.161 43.196 230.489 44.412C229.817 45.596 229.481 47.02 229.481 48.684C229.481 50.348 229.817 51.788 230.489 53.004C231.161 54.188 232.089 55.1 233.273 55.74C234.457 56.38 235.785 56.7 237.257 56.7C238.537 56.7 239.721 56.412 240.809 55.836C241.929 55.26 242.873 54.364 243.641 53.148L248.249 55.836C247.257 57.756 245.801 59.244 243.881 60.3C241.993 61.324 239.801 61.836 237.305 61.836ZM269.228 61.5V56.316L268.892 55.212V46.14C268.892 44.38 268.364 43.02 267.308 42.06C266.252 41.068 264.652 40.572 262.508 40.572C261.068 40.572 259.644 40.796 258.236 41.244C256.86 41.692 255.692 42.316 254.732 43.116L252.38 38.748C253.756 37.692 255.388 36.908 257.276 36.396C259.196 35.852 261.18 35.58 263.228 35.58C266.94 35.58 269.804 36.476 271.82 38.268C273.868 40.028 274.892 42.764 274.892 46.476V61.5H269.228ZM261.164 61.836C259.244 61.836 257.564 61.516 256.124 60.876C254.684 60.204 253.564 59.292 252.764 58.14C251.996 56.956 251.612 55.628 251.612 54.156C251.612 52.716 251.948 51.42 252.62 50.268C253.324 49.116 254.46 48.204 256.028 47.532C257.596 46.86 259.676 46.524 262.268 46.524H269.708V50.508H262.7C260.652 50.508 259.276 50.844 258.572 51.516C257.868 52.156 257.516 52.956 257.516 53.916C257.516 55.004 257.948 55.868 258.812 56.508C259.676 57.148 260.876 57.468 262.412 57.468C263.884 57.468 265.196 57.132 266.348 56.46C267.532 55.788 268.38 54.796 268.892 53.484L269.9 57.084C269.324 58.588 268.284 59.756 266.78 60.588C265.308 61.42 263.436 61.836 261.164 61.836ZM292.24 61.836C289.424 61.836 287.248 61.116 285.712 59.676C284.176 58.204 283.408 56.044 283.408 53.196V30.204H289.408V53.052C289.408 54.268 289.712 55.212 290.32 55.884C290.96 56.556 291.84 56.892 292.96 56.892C294.304 56.892 295.424 56.54 296.32 55.836L298 60.108C297.296 60.684 296.432 61.116 295.408 61.404C294.384 61.692 293.328 61.836 292.24 61.836ZM279.184 40.86V36.06H296.272V40.86H279.184ZM302.936 61.5V35.868H308.936V61.5H302.936ZM305.96 31.644C304.84 31.644 303.912 31.292 303.176 30.588C302.472 29.884 302.12 29.036 302.12 28.044C302.12 27.02 302.472 26.172 303.176 25.5C303.912 24.796 304.84 24.444 305.96 24.444C307.08 24.444 307.992 24.78 308.696 25.452C309.432 26.092 309.8 26.908 309.8 27.9C309.8 28.956 309.448 29.852 308.744 30.588C308.04 31.292 307.112 31.644 305.96 31.644ZM323.627 61.5L312.635 35.868H318.875L328.331 58.476H325.259L335.051 35.868H340.811L329.819 61.5H323.627ZM355.378 61.836C352.754 61.836 350.418 61.276 348.37 60.156C346.322 59.004 344.706 57.436 343.522 55.452C342.338 53.468 341.746 51.212 341.746 48.684C341.746 46.124 342.338 43.868 343.522 41.916C344.706 39.932 346.322 38.38 348.37 37.26C350.418 36.14 352.754 35.58 355.378 35.58C358.034 35.58 360.386 36.14 362.434 37.26C364.514 38.38 366.13 39.916 367.282 41.868C368.466 43.82 369.058 46.092 369.058 48.684C369.058 51.212 368.466 53.468 367.282 55.452C366.13 57.436 364.514 59.004 362.434 60.156C360.386 61.276 358.034 61.836 355.378 61.836ZM355.378 56.7C356.85 56.7 358.162 56.38 359.314 55.74C360.466 55.1 361.362 54.172 362.002 52.956C362.674 51.74 363.01 50.316 363.01 48.684C363.01 47.02 362.674 45.596 362.002 44.412C361.362 43.196 360.466 42.268 359.314 41.628C358.162 40.988 356.866 40.668 355.426 40.668C353.954 40.668 352.642 40.988 351.49 41.628C350.37 42.268 349.474 43.196 348.802 44.412C348.13 45.596 347.794 47.02 347.794 48.684C347.794 50.316 348.13 51.74 348.802 52.956C349.474 54.172 350.37 55.1 351.49 55.74C352.642 56.38 353.938 56.7 355.378 56.7Z" fill="white"/>
<defs>
<linearGradient id="paint0_linear_6597_3209" x1="-21" y1="-13.5" x2="46.5" y2="89" gradientUnits="userSpaceOnUse">
<stop stop-color="#C900A4"/>
<stop offset="1" stop-color="#020202"/>
</linearGradient>
</defs>
</svg>
