<svg width="56" height="56" viewBox="0 0 56 56" fill="none" xmlns="http://www.w3.org/2000/svg">
<rect width="56" height="56" rx="28" fill="#179D3C"/>
<g clip-path="url(#clip0_1076_1666)">
<path d="M36.4015 19.4891C35.3012 18.3786 33.9909 17.4982 32.547 16.8992C31.103 16.3002 29.5543 15.9945 27.991 16.0001C21.4405 16.0001 16.102 21.3371 16.096 27.8891C16.096 29.9876 16.645 32.0291 17.6815 33.8366L16 40.0001L22.306 38.3471C24.0505 39.2964 26.0049 39.7941 27.991 39.7946H27.997C34.549 39.7946 39.886 34.4576 39.892 27.8996C39.8935 26.3366 39.5857 24.7889 38.9864 23.3454C38.3871 21.9019 37.5096 20.5913 36.4015 19.4891ZM27.991 37.7816C26.2195 37.7822 24.4806 37.3055 22.957 36.4016L22.597 36.1856L18.856 37.1666L19.855 33.5171L19.621 33.1406C18.6307 31.5661 18.107 29.7431 18.1105 27.8831C18.1105 22.4441 22.546 18.0071 27.997 18.0071C29.2956 18.0047 30.5818 18.2595 31.7815 18.7566C32.9812 19.2537 34.0706 19.9834 34.987 20.9036C35.9065 21.8201 36.6355 22.9097 37.1319 24.1094C37.6282 25.3091 37.8822 26.5952 37.879 27.8936C37.873 33.3521 33.4375 37.7816 27.991 37.7816ZM33.4135 30.3806C33.118 30.2321 31.6585 29.5136 31.384 29.4116C31.111 29.3141 30.9115 29.2631 30.7165 29.5601C30.517 29.8556 29.947 30.5291 29.776 30.7226C29.605 30.9221 29.428 30.9446 29.131 30.7976C28.8355 30.6476 27.877 30.3356 26.743 29.3201C25.858 28.5326 25.2655 27.5576 25.0885 27.2621C24.9175 26.9651 25.072 26.8061 25.2205 26.6576C25.351 26.5256 25.516 26.3096 25.6645 26.1386C25.8145 25.9676 25.864 25.8416 25.9615 25.6436C26.059 25.4426 26.0125 25.2716 25.939 25.1231C25.864 24.9746 25.2715 23.5091 25.021 22.9181C24.781 22.3346 24.5365 22.4156 24.3535 22.4081C24.1825 22.3976 23.983 22.3976 23.7835 22.3976C23.6328 22.4013 23.4846 22.4362 23.348 22.4999C23.2115 22.5637 23.0896 22.655 22.99 22.7681C22.717 23.0651 21.9535 23.7836 21.9535 25.2491C21.9535 26.7146 23.0185 28.1231 23.1685 28.3226C23.3155 28.5221 25.2595 31.5206 28.243 32.8106C28.948 33.1181 29.503 33.2996 29.9365 33.4376C30.649 33.6656 31.2925 33.6311 31.8055 33.5576C32.3755 33.4706 33.562 32.8376 33.8125 32.1431C34.0585 31.4471 34.0585 30.8531 33.9835 30.7286C33.91 30.6026 33.7105 30.5291 33.4135 30.3806Z" fill="white"/>
</g>
<defs>
<clipPath id="clip0_1076_1666">
<rect width="24" height="24" fill="white" transform="translate(16 16)"/>
</clipPath>
</defs>
</svg>
