<svg width="261" height="261" viewBox="0 0 261 261" fill="none" xmlns="http://www.w3.org/2000/svg">
<circle cx="130.492" cy="130.587" r="130" fill="white"/>
<path d="M36.5308 182.082L100.631 91.5538L129.089 121.096L158.513 91.5538L219.953 181.793L157.632 149.398L129.829 178.539L100.284 149.118L36.5308 182.082ZM102.138 137.135L129.651 164.532L155.61 137.322L189.959 155.179L157.089 106.894L128.977 135.111L101.792 106.894L67.8082 154.89L102.138 137.135Z" fill="#5D2E9A"/>
<path d="M103.448 85.6597L112.11 94.2947L121.306 59.4281L103.448 85.6597Z" fill="#5D2E9A"/>
<path d="M155.266 86.4531L146.604 95.0882L137.408 60.2216L155.266 86.4531Z" fill="#5D2E9A"/>
<path d="M129.446 46.9232L116.186 99.2185L129.24 112.218L142.06 99.4516L129.446 46.9232Z" fill="#5D2E9A"/>
</svg>
