<svg width="154" height="56" viewBox="0 0 154 56" fill="none" xmlns="http://www.w3.org/2000/svg">
<g clip-path="url(#clip0_1182_4275)">
<path d="M9.86872 54.5326H0.000976562V2.08643H9.86872V35.1587L24.4729 17.0811H35.7401L23.0018 32.7064L35.7401 54.5326H24.4729L16.6864 40.9044L9.86872 49.733V54.5326Z" fill="black"/>
<path d="M49.4835 54.5326H39.6157V2.08643H49.4835V54.5326Z" fill="black"/>
<path d="M81.2397 53.0191C81.2397 53.0191 80.8569 53.2948 79.876 53.7618C78.8953 54.2056 77.8786 54.5561 76.826 54.8128C75.7974 55.0931 74.7448 55.2333 73.6683 55.2333C71.3 55.2333 69.0754 54.8247 66.9942 54.0072C64.913 53.1897 63.0829 52.0336 61.504 50.5388C59.9492 49.0206 58.7172 47.1872 57.8082 45.0384C56.9231 42.8662 56.4805 40.4372 56.4805 37.7512V17.011H66.2405V37.7512C66.2405 39.0125 66.432 40.1453 66.8148 41.1496C67.2214 42.1306 67.7596 42.9597 68.4294 43.637C69.0992 44.3142 69.8767 44.8282 70.7619 45.1785C71.6709 45.5289 72.6397 45.7041 73.6683 45.7041C74.673 45.7041 75.618 45.4822 76.5032 45.0384C77.4122 44.5712 78.2016 43.964 78.8714 43.2167C79.5411 42.4692 80.0675 41.6284 80.4503 40.6942C80.8329 39.7365 81.0243 38.7555 81.0243 37.7512V17.011H90.8204V54.5326H81.2397V53.0191Z" fill="black"/>
<path d="M136.786 35.439C136.786 38.3819 136.272 41.0677 135.243 43.4969C134.214 45.9259 132.815 48.0163 131.045 49.7681C129.274 51.4963 127.193 52.8392 124.801 53.7969C122.433 54.7545 119.885 55.2333 117.158 55.2333C114.455 55.2333 111.907 54.7428 109.515 53.7618C107.147 52.7809 105.066 51.4147 103.272 49.6629C101.501 47.9112 100.102 45.8325 99.0732 43.4267C98.0446 40.9977 97.5303 38.3352 97.5303 35.439V2.08643H107.362V19.6035C107.888 18.9496 108.522 18.3657 109.264 17.8518C110.029 17.338 110.843 16.9176 111.704 16.5906C112.589 16.2636 113.498 16.0184 114.431 15.8549C115.364 15.668 116.273 15.5746 117.158 15.5746C119.885 15.5746 122.433 16.0768 124.801 17.0811C127.193 18.062 129.274 19.44 131.045 21.2152C132.815 22.9902 134.214 25.0922 135.243 27.5212C136.272 29.9269 136.786 32.5662 136.786 35.439ZM126.918 35.439C126.918 33.9909 126.655 32.6478 126.129 31.4101C125.626 30.1488 124.933 29.0627 124.048 28.1519C123.163 27.241 122.122 26.5286 120.926 26.0148C119.754 25.501 118.498 25.2441 117.158 25.2441C115.818 25.2441 114.551 25.536 113.355 26.1199C112.182 26.6804 111.154 27.4396 110.269 28.3971C109.383 29.3313 108.69 30.4174 108.187 31.6552C107.685 32.8697 107.434 34.131 107.434 35.439C107.434 36.8872 107.685 38.2301 108.187 39.4678C108.69 40.7058 109.383 41.7801 110.269 42.6911C111.154 43.602 112.182 44.3261 113.355 44.8631C114.551 45.3771 115.818 45.6339 117.158 45.6339C118.498 45.6339 119.754 45.3771 120.926 44.8631C122.122 44.3261 123.163 43.602 124.048 42.6911C124.933 41.7801 125.626 40.7058 126.129 39.4678C126.655 38.2301 126.918 36.8872 126.918 35.439Z" fill="black"/>
<path d="M152.108 54.5326H142.24V17.011H152.108V54.5326Z" fill="black"/>
<path d="M147.149 13.2764C150.827 13.2764 153.809 10.3652 153.809 6.77408C153.809 3.18293 150.827 0.271729 147.149 0.271729C143.471 0.271729 140.489 3.18293 140.489 6.77408C140.489 10.3652 143.471 13.2764 147.149 13.2764Z" fill="black"/>
</g>
<defs>
<clipPath id="clip0_1182_4275">
<rect width="154" height="55" fill="white" transform="translate(0.000976562 0.271729)"/>
</clipPath>
</defs>
</svg>
