<svg width="447" height="89" viewBox="0 0 447 89" fill="none" xmlns="http://www.w3.org/2000/svg">
<rect x="2" y="2" width="89" height="85" rx="21" fill="url(#paint0_linear_6456_2143)" stroke="#367CFF" stroke-width="4"/>
<path d="M27.375 21.5H65.625C67.1889 21.5 68.6856 22.0991 69.7861 23.1602C70.8859 24.2206 71.5 25.655 71.5 27.1465V66.4639C71.4999 66.6646 71.4381 66.8623 71.3203 67.0322C71.2022 67.2025 71.0322 67.3384 70.8301 67.4189C70.6278 67.4995 70.4042 67.5211 70.1885 67.4795C69.9728 67.4379 69.7767 67.3361 69.625 67.1895V67.1885L60.5312 58.4209C59.8386 57.7529 58.9027 57.3801 57.9307 57.3799H27.375C25.8111 57.3799 24.3144 56.7808 23.2139 55.7197C22.1141 54.6593 21.5 53.2248 21.5 51.7334V27.1465L21.5068 26.8682C21.5782 25.4776 22.1827 24.1544 23.2139 23.1602C24.3144 22.0991 25.8111 21.5 27.375 21.5ZM27.375 23.5732C26.4029 23.5732 25.4672 23.9455 24.7744 24.6133C24.081 25.2818 23.6875 26.1928 23.6875 27.1465V51.7334C23.6875 52.687 24.081 53.598 24.7744 54.2666C25.4672 54.9344 26.4029 55.3066 27.375 55.3066H57.9307C59.4943 55.3071 60.9907 55.9067 62.0908 56.9678L68.4658 63.1143L69.3125 63.9307V27.1465C69.3125 26.1928 68.919 25.2818 68.2256 24.6133C67.5328 23.9455 66.5971 23.5732 65.625 23.5732H27.375Z" fill="#367CFF" stroke="#367CFF"/>
<path d="M129.512 61.5V27.9H134.648L149.336 52.428H146.648L161.096 27.9H166.232L166.28 61.5H160.376L160.328 37.164H161.576L149.288 57.66H146.504L134.024 37.164H135.464V61.5H129.512ZM190.572 61.5V56.316L190.236 55.212V46.14C190.236 44.38 189.708 43.02 188.652 42.06C187.596 41.068 185.996 40.572 183.852 40.572C182.412 40.572 180.988 40.796 179.58 41.244C178.204 41.692 177.036 42.316 176.076 43.116L173.724 38.748C175.1 37.692 176.732 36.908 178.62 36.396C180.54 35.852 182.524 35.58 184.572 35.58C188.284 35.58 191.148 36.476 193.164 38.268C195.212 40.028 196.236 42.764 196.236 46.476V61.5H190.572ZM182.508 61.836C180.588 61.836 178.908 61.516 177.468 60.876C176.028 60.204 174.908 59.292 174.108 58.14C173.34 56.956 172.956 55.628 172.956 54.156C172.956 52.716 173.292 51.42 173.964 50.268C174.668 49.116 175.804 48.204 177.372 47.532C178.94 46.86 181.02 46.524 183.612 46.524H191.052V50.508H184.044C181.996 50.508 180.62 50.844 179.916 51.516C179.212 52.156 178.86 52.956 178.86 53.916C178.86 55.004 179.292 55.868 180.156 56.508C181.02 57.148 182.22 57.468 183.756 57.468C185.228 57.468 186.54 57.132 187.692 56.46C188.876 55.788 189.724 54.796 190.236 53.484L191.244 57.084C190.668 58.588 189.628 59.756 188.124 60.588C186.652 61.42 184.78 61.836 182.508 61.836ZM215.599 71.148C213.231 71.148 210.911 70.828 208.639 70.188C206.399 69.58 204.559 68.684 203.119 67.5L205.807 62.988C206.927 63.916 208.335 64.652 210.031 65.196C211.759 65.772 213.503 66.06 215.263 66.06C218.079 66.06 220.143 65.404 221.455 64.092C222.767 62.812 223.423 60.876 223.423 58.284V53.724L223.903 47.916L223.711 42.108V35.868H229.423V57.612C229.423 62.252 228.239 65.66 225.871 67.836C223.503 70.044 220.079 71.148 215.599 71.148ZM214.831 60.348C212.399 60.348 210.191 59.836 208.207 58.812C206.255 57.756 204.703 56.3 203.551 54.444C202.431 52.588 201.871 50.412 201.871 47.916C201.871 45.452 202.431 43.292 203.551 41.436C204.703 39.58 206.255 38.14 208.207 37.116C210.191 36.092 212.399 35.58 214.831 35.58C217.007 35.58 218.959 36.012 220.687 36.876C222.415 37.74 223.791 39.084 224.815 40.908C225.871 42.732 226.399 45.068 226.399 47.916C226.399 50.764 225.871 53.116 224.815 54.972C223.791 56.796 222.415 58.156 220.687 59.052C218.959 59.916 217.007 60.348 214.831 60.348ZM215.743 55.26C217.247 55.26 218.591 54.956 219.775 54.348C220.959 53.708 221.871 52.844 222.511 51.756C223.183 50.636 223.519 49.356 223.519 47.916C223.519 46.476 223.183 45.212 222.511 44.124C221.871 43.004 220.959 42.156 219.775 41.58C218.591 40.972 217.247 40.668 215.743 40.668C214.239 40.668 212.879 40.972 211.663 41.58C210.479 42.156 209.551 43.004 208.879 44.124C208.239 45.212 207.919 46.476 207.919 47.916C207.919 49.356 208.239 50.636 208.879 51.756C209.551 52.844 210.479 53.708 211.663 54.348C212.879 54.956 214.239 55.26 215.743 55.26ZM251.855 35.58C253.903 35.58 255.727 35.98 257.327 36.78C258.959 37.58 260.239 38.812 261.167 40.476C262.095 42.108 262.559 44.22 262.559 46.812V61.5H256.559V47.58C256.559 45.308 256.015 43.612 254.927 42.492C253.871 41.372 252.383 40.812 250.463 40.812C249.055 40.812 247.807 41.1 246.719 41.676C245.631 42.252 244.783 43.116 244.175 44.268C243.599 45.388 243.311 46.812 243.311 48.54V61.5H237.311V35.868H243.023V42.78L242.015 40.668C242.911 39.036 244.207 37.788 245.903 36.924C247.631 36.028 249.615 35.58 251.855 35.58ZM282.265 61.836C279.417 61.836 276.921 61.276 274.777 60.156C272.665 59.004 271.017 57.436 269.833 55.452C268.681 53.468 268.105 51.212 268.105 48.684C268.105 46.124 268.665 43.868 269.785 41.916C270.937 39.932 272.505 38.38 274.489 37.26C276.505 36.14 278.793 35.58 281.353 35.58C283.849 35.58 286.073 36.124 288.025 37.212C289.977 38.3 291.513 39.836 292.633 41.82C293.753 43.804 294.313 46.14 294.313 48.828C294.313 49.084 294.297 49.372 294.265 49.692C294.265 50.012 294.249 50.316 294.217 50.604H272.857V46.62H291.049L288.697 47.868C288.729 46.396 288.425 45.1 287.785 43.98C287.145 42.86 286.265 41.98 285.145 41.34C284.057 40.7 282.793 40.38 281.353 40.38C279.881 40.38 278.585 40.7 277.465 41.34C276.377 41.98 275.513 42.876 274.873 44.028C274.265 45.148 273.961 46.476 273.961 48.012V48.972C273.961 50.508 274.313 51.868 275.017 53.052C275.721 54.236 276.713 55.148 277.993 55.788C279.273 56.428 280.745 56.748 282.409 56.748C283.849 56.748 285.145 56.524 286.297 56.076C287.449 55.628 288.473 54.924 289.369 53.964L292.585 57.66C291.433 59.004 289.977 60.044 288.217 60.78C286.489 61.484 284.505 61.836 282.265 61.836ZM309.725 61.836C306.909 61.836 304.733 61.116 303.197 59.676C301.661 58.204 300.893 56.044 300.893 53.196V30.204H306.893V53.052C306.893 54.268 307.197 55.212 307.805 55.884C308.445 56.556 309.325 56.892 310.445 56.892C311.789 56.892 312.909 56.54 313.805 55.836L315.485 60.108C314.781 60.684 313.917 61.116 312.893 61.404C311.869 61.692 310.813 61.836 309.725 61.836ZM296.669 40.86V36.06H313.757V40.86H296.669ZM349.814 61.98C347.254 61.98 344.87 61.564 342.662 60.732C340.486 59.868 338.582 58.668 336.95 57.132C335.35 55.564 334.102 53.724 333.206 51.612C332.31 49.5 331.862 47.196 331.862 44.7C331.862 42.204 332.31 39.9 333.206 37.788C334.102 35.676 335.366 33.852 336.998 32.316C338.63 30.748 340.534 29.548 342.71 28.716C344.886 27.852 347.27 27.42 349.862 27.42C352.614 27.42 355.126 27.9 357.398 28.86C359.67 29.788 361.59 31.18 363.158 33.036L359.126 36.828C357.91 35.516 356.55 34.54 355.046 33.9C353.542 33.228 351.91 32.892 350.15 32.892C348.39 32.892 346.774 33.18 345.302 33.756C343.862 34.332 342.598 35.148 341.51 36.204C340.454 37.26 339.622 38.508 339.014 39.948C338.438 41.388 338.15 42.972 338.15 44.7C338.15 46.428 338.438 48.012 339.014 49.452C339.622 50.892 340.454 52.14 341.51 53.196C342.598 54.252 343.862 55.068 345.302 55.644C346.774 56.22 348.39 56.508 350.15 56.508C351.91 56.508 353.542 56.188 355.046 55.548C356.55 54.876 357.91 53.868 359.126 52.524L363.158 56.364C361.59 58.188 359.67 59.58 357.398 60.54C355.126 61.5 352.598 61.98 349.814 61.98ZM383.105 35.58C385.153 35.58 386.977 35.98 388.577 36.78C390.209 37.58 391.489 38.812 392.417 40.476C393.345 42.108 393.809 44.22 393.809 46.812V61.5H387.809V47.58C387.809 45.308 387.265 43.612 386.177 42.492C385.121 41.372 383.633 40.812 381.713 40.812C380.305 40.812 379.057 41.1 377.969 41.676C376.881 42.252 376.033 43.116 375.425 44.268C374.849 45.388 374.561 46.812 374.561 48.54V61.5H368.561V25.884H374.561V42.78L373.265 40.668C374.161 39.036 375.457 37.788 377.153 36.924C378.881 36.028 380.865 35.58 383.105 35.58ZM417.212 61.5V56.316L416.876 55.212V46.14C416.876 44.38 416.348 43.02 415.292 42.06C414.236 41.068 412.636 40.572 410.492 40.572C409.052 40.572 407.628 40.796 406.22 41.244C404.844 41.692 403.676 42.316 402.716 43.116L400.364 38.748C401.74 37.692 403.372 36.908 405.26 36.396C407.18 35.852 409.164 35.58 411.212 35.58C414.924 35.58 417.788 36.476 419.804 38.268C421.852 40.028 422.876 42.764 422.876 46.476V61.5H417.212ZM409.148 61.836C407.228 61.836 405.548 61.516 404.108 60.876C402.668 60.204 401.548 59.292 400.748 58.14C399.98 56.956 399.596 55.628 399.596 54.156C399.596 52.716 399.932 51.42 400.604 50.268C401.308 49.116 402.444 48.204 404.012 47.532C405.58 46.86 407.66 46.524 410.252 46.524H417.692V50.508H410.684C408.636 50.508 407.26 50.844 406.556 51.516C405.852 52.156 405.5 52.956 405.5 53.916C405.5 55.004 405.932 55.868 406.796 56.508C407.66 57.148 408.86 57.468 410.396 57.468C411.868 57.468 413.18 57.132 414.332 56.46C415.516 55.788 416.364 54.796 416.876 53.484L417.884 57.084C417.308 58.588 416.268 59.756 414.764 60.588C413.292 61.42 411.42 61.836 409.148 61.836ZM440.225 61.836C437.409 61.836 435.233 61.116 433.697 59.676C432.161 58.204 431.393 56.044 431.393 53.196V30.204H437.393V53.052C437.393 54.268 437.697 55.212 438.305 55.884C438.945 56.556 439.825 56.892 440.945 56.892C442.289 56.892 443.409 56.54 444.305 55.836L445.985 60.108C445.281 60.684 444.417 61.116 443.393 61.404C442.369 61.692 441.313 61.836 440.225 61.836ZM427.169 40.86V36.06H444.257V40.86H427.169Z" fill="white"/>
<defs>
<linearGradient id="paint0_linear_6456_2143" x1="-21" y1="-13.5" x2="46.5" y2="89" gradientUnits="userSpaceOnUse">
<stop stop-color="#493CF3"/>
<stop offset="1" stop-color="#020202"/>
</linearGradient>
</defs>
</svg>
