<svg width="151" height="46" viewBox="0 0 151 46" fill="none" xmlns="http://www.w3.org/2000/svg">
<path d="M10.6324 8.44521C10.6324 9.71215 10.3799 10.6223 9.87494 11.1757C9.36994 11.7315 8.66244 12.0082 7.75495 12.0082C6.84746 12.0082 6.13496 11.7315 5.62246 11.1757C5.10997 10.6199 4.85247 9.70973 4.85247 8.44521V0.270752H0.5V8.57142C0.5 10.7777 1.1325 12.4839 2.40249 13.6926C3.66998 14.9013 5.43997 15.5056 7.70995 15.5056C9.97994 15.5056 11.7349 14.9013 13.0174 13.6926C14.2999 12.4839 14.9399 10.7752 14.9399 8.57142V0.270752H10.6324V8.44521Z" fill="black"/>
<path d="M27.9454 7.62202C27.4254 7.30164 26.8579 7.04679 26.2429 6.85262C25.6279 6.66088 25.0079 6.5007 24.3854 6.37206C23.7629 6.24343 23.1954 6.11964 22.683 5.99829C22.1705 5.87693 21.753 5.7216 21.4305 5.52986C21.108 5.33812 20.948 5.07114 20.948 4.72891C20.948 4.50077 21.028 4.28719 21.1905 4.08816C21.3505 3.88914 21.6155 3.72652 21.983 3.59789C22.3479 3.46925 22.8329 3.40615 23.4329 3.40615C24.1079 3.40615 24.8029 3.49838 25.5204 3.68284C26.2379 3.8673 26.9629 4.15855 27.6954 4.55659L29.0154 1.4402C28.2679 0.998471 27.4079 0.668386 26.4329 0.447521C25.4579 0.226655 24.4654 0.117432 23.4554 0.117432C21.9455 0.117432 20.6855 0.3383 19.6755 0.780032C18.6655 1.22176 17.9105 1.80426 17.4105 2.52997C16.913 3.25567 16.663 4.05904 16.663 4.9425C16.663 5.73859 16.8205 6.40118 17.1355 6.92786C17.4505 7.45454 17.8655 7.88171 18.378 8.20937C18.8905 8.53703 19.463 8.79915 20.093 8.99818C20.723 9.1972 21.343 9.35739 21.9504 9.47874C22.5579 9.6001 23.1229 9.72873 23.6429 9.86222C24.1629 9.99814 24.5854 10.1608 24.9079 10.3525C25.2304 10.5442 25.3904 10.8039 25.3904 11.1316C25.3904 11.3889 25.3054 11.6073 25.1379 11.7942C24.9704 11.9787 24.7054 12.1218 24.3454 12.2214C23.9854 12.3209 23.5004 12.3718 22.8829 12.3718C21.988 12.3718 21.0905 12.2335 20.1905 11.9568C19.288 11.6801 18.493 11.3282 17.8055 10.901L16.3755 14.0393C17.093 14.5077 18.0355 14.896 19.2005 15.2018C20.3655 15.5076 21.5855 15.6606 22.8604 15.6606C24.3854 15.6606 25.6529 15.4397 26.6629 14.998C27.6729 14.5562 28.4329 13.9713 28.9379 13.2383C29.4429 12.5053 29.6954 11.7044 29.6954 10.8379C29.6954 10.0564 29.5329 9.40593 29.2129 8.8841C28.8904 8.3647 28.4679 7.94482 27.9479 7.62444L27.9454 7.62202Z" fill="black"/>
<path d="M37.914 0.421143L31.1216 15.3599H35.5616L36.769 12.4353H43.2765L44.484 15.3599H49.0115L42.1965 0.421143H37.909H37.914ZM38.049 9.34072L40.024 4.5642L41.999 9.34072H38.049Z" fill="black"/>
<path d="M62.1827 1.33858C60.8927 0.726956 59.4053 0.421143 57.7203 0.421143H50.4453V15.3599H57.7203C59.4053 15.3599 60.8927 15.0541 62.1827 14.4425C63.4727 13.8309 64.4802 12.9668 65.2052 11.8503C65.9302 10.7339 66.2927 9.40625 66.2927 7.8699C66.2927 6.33355 65.9302 5.03263 65.2052 3.92102C64.4802 2.81184 63.4727 1.95021 62.1827 1.33858ZM61.3477 10.0786C60.9802 10.6975 60.4727 11.1708 59.8203 11.4984C59.1678 11.8261 58.3953 11.9887 57.5003 11.9887H54.7978V3.7948H57.5003C58.3928 3.7948 59.1678 3.95743 59.8203 4.28508C60.4727 4.61274 60.9802 5.07874 61.3477 5.68309C61.7127 6.28743 61.8977 7.02527 61.8977 7.89174C61.8977 8.75822 61.7152 9.45965 61.3477 10.0786Z" fill="black"/>
<path d="M97.8974 8.88168C97.5749 8.36228 97.1524 7.94239 96.6324 7.62202C96.1124 7.30164 95.5449 7.04679 94.9299 6.85262C94.3149 6.65846 93.6949 6.5007 93.0724 6.37206C92.4499 6.24343 91.8824 6.11964 91.37 5.99829C90.8575 5.87693 90.44 5.7216 90.1175 5.52986C89.795 5.33812 89.635 5.07114 89.635 4.72891C89.635 4.50077 89.715 4.28719 89.8775 4.08816C90.0375 3.88914 90.3025 3.72652 90.67 3.59789C91.035 3.46925 91.52 3.40615 92.1199 3.40615C92.7949 3.40615 93.4899 3.49838 94.2074 3.68284C94.9249 3.8673 95.6499 4.15855 96.3824 4.55659L97.7024 1.4402C96.9549 0.998471 96.0949 0.668386 95.1199 0.447521C94.1449 0.226655 93.1524 0.117432 92.1425 0.117432C90.6325 0.117432 89.3725 0.3383 88.3625 0.780032C87.3525 1.22176 86.5975 1.80426 86.0975 2.52997C85.6 3.25567 85.35 4.05904 85.35 4.9425C85.35 5.73859 85.5075 6.40118 85.8225 6.92786C86.1375 7.45454 86.5525 7.88171 87.065 8.20937C87.5775 8.53703 88.15 8.79915 88.78 8.99818C89.41 9.1972 90.03 9.35739 90.6375 9.47874C91.245 9.6001 91.81 9.72873 92.33 9.86222C92.8499 9.99814 93.2724 10.1608 93.5949 10.3525C93.9174 10.5442 94.0774 10.8039 94.0774 11.1316C94.0774 11.3889 93.9924 11.6073 93.8249 11.7942C93.6574 11.9787 93.3924 12.1218 93.0324 12.2214C92.6725 12.3209 92.185 12.3718 91.57 12.3718C90.675 12.3718 89.7775 12.2335 88.8775 11.9568C87.9775 11.6801 87.18 11.3282 86.4925 10.901L85.0625 14.0393C85.78 14.5077 86.7225 14.896 87.8875 15.2018C89.0525 15.5076 90.2725 15.6606 91.5475 15.6606C93.0724 15.6606 94.3399 15.4397 95.3499 14.998C96.3599 14.5562 97.1199 13.9713 97.6249 13.2383C98.1299 12.5053 98.3824 11.7044 98.3824 10.8379C98.3824 10.0564 98.2199 9.40593 97.8999 8.8841L97.8974 8.88168Z" fill="black"/>
<path d="M72.1046 10.8474C71.9371 10.8741 71.8746 11.112 72.0371 11.294C72.1896 11.4396 72.3396 11.3887 72.3996 11.3062C72.5296 11.1217 72.3296 10.8086 72.1046 10.845V10.8474ZM71.4171 13.2187C71.3421 13.192 71.2996 13.2236 71.3296 13.2867C71.3421 13.3109 71.3596 13.3304 71.3721 13.3425C71.4521 13.4177 71.5246 13.4274 71.5521 13.4153C71.6146 13.3862 71.5246 13.2575 71.4171 13.2187ZM73.3871 13.9129C73.2296 13.8133 72.9871 13.8255 73.0046 13.9323C73.0096 13.9638 73.0346 13.9881 73.0521 14.0027C73.1671 14.0925 73.3221 14.1095 73.3971 14.0925C73.5046 14.0682 73.4996 13.9832 73.3871 13.9104V13.9129ZM82.5645 5.28696C82.5645 5.26754 82.5645 5.23598 82.5595 5.20443C82.532 5.05881 82.4295 4.8695 82.392 4.92289C82.3595 4.96901 82.3995 5.17774 82.4895 5.29424C82.5495 5.35977 82.562 5.3088 82.5645 5.28453V5.28696ZM80.7395 4.74086C80.8395 4.56854 80.612 4.2967 80.4145 4.35495C80.287 4.39378 80.2545 4.56611 80.407 4.72387C80.562 4.86222 80.6945 4.8161 80.737 4.74086H80.7395ZM73.5896 6.33061C73.3371 6.37187 73.1771 6.68496 73.3721 6.9034C73.5496 7.06359 73.7621 6.97136 73.8571 6.85486C74.0471 6.61701 73.8771 6.28449 73.5896 6.33061ZM81.672 11.0465C81.8045 10.8329 81.752 10.5999 81.5795 10.6363C81.3895 10.6775 81.2045 11.027 81.3345 11.1897C81.4445 11.2892 81.5995 11.1654 81.672 11.0465ZM80.412 13.7357C80.412 13.7357 80.417 13.7405 80.417 13.743C80.4795 13.7769 80.6545 13.6629 80.7495 13.5803C80.887 13.4614 80.952 13.3473 80.887 13.3376C80.7545 13.3182 80.3595 13.6483 80.412 13.7357ZM74.4121 10.9275C74.1771 10.9469 74.0646 11.2091 74.2721 11.4251C74.4646 11.595 74.6746 11.544 74.7621 11.4542C74.9546 11.2552 74.7196 10.9008 74.4121 10.9275ZM78.677 8.87663C78.4295 8.9276 78.302 9.24312 78.5095 9.47127C78.707 9.64602 78.9245 9.55379 79.017 9.43244C79.212 9.17516 78.9895 8.81352 78.677 8.87663ZM81.372 13.0124C81.332 13.1362 81.237 13.2673 81.1195 13.3935C81.1595 13.3571 81.1995 13.3231 81.237 13.2842C81.902 12.6386 82.4245 11.9129 82.8145 11.1387C82.717 11.2479 82.5945 11.4251 82.4945 11.578C82.152 12.1047 81.9795 12.3668 81.3745 13.01L81.372 13.0124ZM76.6896 4.76028C76.8771 4.91318 77.092 4.85493 77.1845 4.76513C77.3695 4.58552 77.1996 4.30399 76.9071 4.30884C76.6521 4.31369 76.4871 4.55882 76.6871 4.75785L76.6896 4.76028ZM81.517 8.66547C81.742 8.60722 82.042 8.52228 82.262 8.44704C83.292 8.10239 83.4445 9.27953 83.4495 9.34749C83.992 6.88641 83.302 4.24573 81.3645 2.36473C78.2945 -0.615741 73.2571 -0.559916 70.1171 2.48852C66.9771 5.53695 66.9171 10.4275 69.9896 13.408C72.9021 16.2356 77.5846 16.3278 80.7395 13.726C80.357 14.0075 79.942 14.1847 79.8995 14.0415C79.817 13.7697 80.787 12.9639 81.1845 12.9008C81.372 12.8716 82.0195 12.0027 82.287 11.6095C82.467 11.3377 82.8695 10.7309 83.082 10.5465C83.182 10.2989 83.267 10.0465 83.3395 9.79407C83.322 9.69213 83.2545 9.52224 82.9795 9.12905C82.802 8.91789 82.6295 8.88877 82.297 9.01498C81.7795 9.21157 81.247 9.41302 79.662 9.53438C79.3395 10.4178 78.1545 10.4688 77.797 9.61447C77.4396 8.76256 78.252 7.9155 79.092 8.26257C79.3645 8.37422 79.557 8.58052 79.6645 8.87663C80.4445 8.82809 80.4745 8.82566 80.8545 8.77712C79.8545 7.74075 78.9195 6.80632 77.3621 5.35734C76.3446 5.65345 75.7071 4.79668 76.0496 4.23845C76.4571 3.56857 77.722 3.76031 77.877 4.51514C77.9195 4.72629 77.862 4.85736 77.807 4.98599C78.917 6.01266 80.1345 7.16795 81.522 8.66304L81.517 8.66547ZM82.267 4.55397C82.3145 4.54912 82.367 4.6195 82.4095 4.67533C82.432 4.71173 82.4645 4.76027 82.4845 4.79668C82.5595 4.9326 82.592 5.08551 82.667 5.22142C82.8245 5.50297 83.0495 5.74325 83.177 6.04178C83.187 6.07091 83.202 6.10974 83.212 6.13886C83.257 6.28692 83.307 6.47138 83.3495 6.6437C83.3695 6.71166 83.382 6.77719 83.3995 6.84758L83.407 6.88884C83.3895 6.8136 83.3695 6.72865 83.3495 6.6437C83.2845 6.4107 83.1595 6.15829 82.7345 5.59763C82.707 5.90587 82.5245 5.70684 82.4895 5.66316C82.1895 5.30637 82.1095 4.56611 82.267 4.55155V4.55397ZM79.852 4.2433C80.0045 3.79672 80.7545 3.83798 81.062 4.43748C81.172 4.65349 81.1595 4.82581 81.1495 4.92046C83.037 6.83787 83.492 7.67037 83.5395 8.032V8.40335L83.5345 8.57567C83.457 7.80385 81.5345 5.83062 80.947 5.24327C80.337 5.52481 79.697 4.6996 79.852 4.2433ZM74.2871 14.9298C73.7946 14.7866 73.4596 14.7138 72.8646 14.4638C72.3046 14.2114 72.1596 14.0682 71.6346 13.5925C71.2296 13.4638 70.9846 13.0876 71.1746 12.9906C71.4071 12.8716 71.9146 13.3376 71.8596 13.5197C71.8546 13.5391 71.8346 13.5609 71.8246 13.5803C72.0721 13.8036 72.1321 13.857 72.4096 14.0925C72.5521 14.2041 72.7921 14.3886 73.9971 14.7381C73.7296 14.5463 73.6821 14.5099 73.4296 14.3109C72.7121 14.1968 72.3896 13.8133 72.7071 13.6289C73.1096 13.3959 74.0796 13.8036 73.9571 14.158C73.9346 14.2211 73.8721 14.2551 73.8246 14.2818C74.1971 14.5755 74.5846 14.8788 75.0796 15.1555L75.3246 15.2963C74.7396 15.2089 74.6271 15.141 74.2896 14.9347L74.2871 14.9298ZM77.1246 15.3036C77.0171 15.3157 76.9095 15.3036 76.807 15.272L76.7796 15.2623C76.0071 14.9614 74.4671 13.7114 72.5896 11.845C71.7546 12.0586 71.2846 11.0246 71.6246 10.5246C71.7696 10.311 72.2421 10.0659 72.7621 10.6775C72.9346 10.9421 73.0271 11.1897 72.9196 11.5343C75.7296 14.306 77.1771 15.2599 77.562 15.2356C77.562 15.2356 77.2371 15.289 77.1271 15.3036H77.1246ZM79.977 12.3619C80.237 12.1071 80.5795 11.7624 80.827 11.4955C80.6495 10.6557 81.527 9.8499 81.937 10.0926C82.442 10.3911 81.962 11.6314 81.287 11.7746C81.232 11.7867 81.1545 11.7819 81.097 11.7746C80.502 12.4178 80.4545 12.4687 80.017 12.8474C79.467 13.3352 79.2595 14.0561 78.747 14.5706C78.9295 14.6822 78.9995 14.7187 79.1195 14.7599L78.7695 14.9055L78.7345 14.9177C78.5695 14.9662 78.1845 15.0779 74.9346 12.0488C73.8846 12.2794 73.2821 11.2528 73.6571 10.663C74.0896 9.98096 75.3146 10.328 75.4771 11.1799C75.5246 11.4251 75.4571 11.5659 75.3921 11.7018C76.3446 12.5949 77.407 13.5828 78.4195 14.34C78.647 14.0415 78.742 13.9323 78.867 13.6507C79.0145 13.3425 79.172 13.1265 79.4895 12.7988C77.4271 10.8984 75.1746 8.68489 74.0146 7.53445C73.0446 7.93734 72.4746 7.05874 72.7646 6.36459C73.0946 5.57821 74.1496 5.4617 74.5021 6.17527C74.6896 6.55147 74.5521 6.89127 74.4846 7.05388C77.3995 9.9033 79.172 11.6023 79.9695 12.3619H79.977Z" fill="black"/>
<path d="M56.1351 22.087C56.7201 21.5264 57.4101 21.0919 58.2026 20.7861C58.9951 20.4803 59.8501 20.3274 60.775 20.3274C61.7 20.3274 62.475 20.4657 63.2375 20.7424C64 21.0191 64.695 21.4706 65.325 22.0967L66.3575 21.0943C65.6825 20.3686 64.855 19.825 63.8725 19.4609C62.89 19.0993 61.8425 18.9172 60.73 18.9172C59.6176 18.9172 58.5026 19.1066 57.5201 19.4828C56.5376 19.859 55.6851 20.3905 54.9601 21.0725C54.2351 21.7545 53.6701 22.5603 53.2676 23.485C52.8651 24.4098 52.6626 25.4194 52.6626 26.5165C52.6626 27.6135 52.8626 28.6232 53.2676 29.5479C53.6701 30.4726 54.2301 31.276 54.9501 31.9605C55.6676 32.6425 56.5176 33.174 57.5001 33.5502C58.4826 33.9264 59.5526 34.1157 60.71 34.1157C61.8675 34.1157 62.8925 33.9313 63.875 33.5599C64.8575 33.191 65.685 32.6425 66.36 31.9168L65.3275 30.9144C64.6975 31.5406 64 31.9969 63.24 32.2808C62.4775 32.5648 61.6575 32.708 60.7775 32.708C59.855 32.708 58.9976 32.5551 58.2051 32.2493C57.4126 31.9435 56.7251 31.509 56.1376 30.9484C55.5501 30.3877 55.0926 29.7324 54.7626 28.9848C54.4326 28.2373 54.2676 27.4169 54.2676 26.5189C54.2676 25.6209 54.4326 24.8005 54.7626 24.053C55.0926 23.3054 55.5501 22.6525 56.1376 22.0895L56.1351 22.087Z" fill="black"/>
<path d="M74.0052 19.0452L66.9702 33.9839H68.6627L70.5027 29.9938H79.0901L80.9301 33.9839H82.6451L75.6102 19.0452H74.0052ZM71.0927 28.7123L74.7952 20.6786L78.4976 28.7123H71.0902H71.0927Z" fill="black"/>
<path d="M95.7783 19.9942C94.5408 19.3607 93.1008 19.0452 91.4583 19.0452H85.1934V33.9839H91.4583C93.0983 33.9839 94.5383 33.6684 95.7783 33.035C97.0158 32.4015 97.9808 31.5229 98.6683 30.3991C99.3558 29.2754 99.7008 27.9817 99.7008 26.5158C99.7008 25.0498 99.3558 23.7562 98.6683 22.6324C97.9783 21.5087 97.0158 20.6301 95.7783 19.9966V19.9942ZM97.2608 29.6831C96.7033 30.6006 95.9233 31.319 94.9208 31.8384C93.9158 32.3578 92.7333 32.6175 91.3708 32.6175H86.8209V20.4116H91.3708C92.7333 20.4116 93.9158 20.6713 94.9208 21.1907C95.9233 21.7101 96.7058 22.4261 97.2608 23.3363C97.8183 24.2464 98.0958 25.3071 98.0958 26.5158C98.0958 27.7245 97.8183 28.7681 97.2608 29.6855V29.6831Z" fill="black"/>
<path d="M105.46 22.087C106.045 21.5264 106.735 21.0919 107.527 20.7861C108.32 20.4803 109.175 20.3274 110.1 20.3274C111.025 20.3274 111.8 20.4657 112.562 20.7424C113.325 21.0191 114.02 21.4706 114.65 22.0967L115.682 21.0943C115.007 20.3686 114.18 19.825 113.197 19.4609C112.215 19.0993 111.167 18.9172 110.055 18.9172C108.942 18.9172 107.827 19.1066 106.845 19.4828C105.862 19.859 105.01 20.3905 104.285 21.0725C103.56 21.7545 102.995 22.5603 102.592 23.485C102.19 24.4098 101.987 25.4194 101.987 26.5165C101.987 27.6135 102.19 28.6232 102.592 29.5479C102.995 30.4726 103.555 31.276 104.275 31.9605C104.992 32.6425 105.842 33.174 106.825 33.5502C107.807 33.9264 108.877 34.1157 110.035 34.1157C111.192 34.1157 112.217 33.9313 113.2 33.5599C114.182 33.191 115.01 32.6425 115.685 31.9168L114.652 30.9144C114.022 31.5406 113.325 31.9969 112.565 32.2808C111.802 32.5648 110.982 32.708 110.102 32.708C109.18 32.708 108.322 32.5551 107.53 32.2493C106.737 31.9435 106.05 31.509 105.462 30.9484C104.875 30.3877 104.417 29.7324 104.087 28.9848C103.757 28.2373 103.592 27.4169 103.592 26.5189C103.592 25.6209 103.757 24.8005 104.087 24.053C104.417 23.3054 104.875 22.6525 105.462 22.0895L105.46 22.087Z" fill="black"/>
<path d="M123.329 19.0452L116.294 33.9839H117.987L119.827 29.9938H128.414L130.254 33.9839H131.969L124.934 19.0452H123.329ZM120.417 28.7123L124.119 20.6786L127.822 28.7123H120.414H120.417Z" fill="black"/>
<path d="M148.939 22.0354V33.9839H150.499V19.0452H149.159L142.539 30.1103L135.86 19.0452H134.52V33.9839H136.08V22.1033L142.124 32.0835H142.894L148.939 22.0354Z" fill="black"/>
<path d="M3.78138 40.4895H4.23638V44.0719H3.78138V43.4651C3.52889 43.7491 3.21389 43.9408 2.83639 44.0355C2.45889 44.1302 2.0864 44.1107 1.7214 43.9797C1.3564 43.8486 1.06141 43.6253 0.838907 43.3171C0.613908 43.0064 0.503906 42.6618 0.503906 42.2831C0.503906 41.9045 0.616408 41.5599 0.838907 41.2492C1.06391 40.9385 1.3564 40.7177 1.7214 40.5866C2.0864 40.4531 2.45889 40.4361 2.83639 40.5308C3.21389 40.6254 3.52889 40.8172 3.78138 41.1084V40.4944V40.4895ZM1.3764 43.3244C1.6564 43.6326 1.9864 43.7855 2.3689 43.7855C2.75139 43.7855 3.07889 43.6326 3.36139 43.3244C3.64139 43.0161 3.78138 42.669 3.78138 42.2831C3.78138 41.8972 3.64139 41.5501 3.36139 41.2443C3.08139 40.9385 2.75139 40.788 2.3689 40.788C1.9864 40.788 1.6564 40.9409 1.3764 41.2443C1.0964 41.5501 0.956406 41.8948 0.956406 42.2831C0.956406 42.6715 1.0964 43.0185 1.3764 43.3244Z" fill="black"/>
<path d="M11.0436 40.4968H11.4986V45.4262H11.0436V43.4627C10.7911 43.7466 10.4761 43.9384 10.0986 44.033C9.7211 44.1277 9.3486 44.1107 8.9836 43.9796C8.61861 43.8486 8.32361 43.6277 8.10111 43.3171C7.87611 43.004 7.76611 42.6593 7.76611 42.2782C7.76611 41.8972 7.87861 41.555 8.10111 41.2443C8.32361 40.9336 8.61861 40.7128 8.9836 40.5817C9.3486 40.4482 9.7211 40.4312 10.0986 40.5259C10.4761 40.6205 10.7911 40.8123 11.0436 41.1035V40.4968ZM8.63861 43.3146C8.9186 43.6204 9.2486 43.7709 9.6311 43.7709C10.0136 43.7709 10.3411 43.618 10.6236 43.3146C10.9036 43.0112 11.0436 42.6666 11.0436 42.2807C11.0436 41.8948 10.9036 41.5501 10.6236 41.2395C10.3436 40.9288 10.0136 40.7759 9.6311 40.7759C9.2486 40.7759 8.9186 40.9312 8.63861 41.2395C8.35861 41.5501 8.21861 41.8972 8.21861 42.2807C8.21861 42.6642 8.35861 43.0088 8.63861 43.3146Z" fill="black"/>
<path d="M17.8673 40.5046H18.3223V44.07H17.8673V43.4705C17.7273 43.6259 17.5698 43.7497 17.3898 43.8443C17.2923 43.8953 17.1898 43.9366 17.0823 43.973C16.8773 44.0385 16.6623 44.07 16.4423 44.07C16.1348 44.0797 15.8573 43.9875 15.6173 43.7933C15.5923 43.7739 15.5648 43.7521 15.5398 43.7254C15.2623 43.4147 15.1349 43.0531 15.1624 42.6381V40.5022H15.6173V42.6381C15.5923 42.9317 15.6773 43.1939 15.8723 43.4244C16.0373 43.5749 16.2323 43.6574 16.4598 43.672C16.8198 43.706 17.1448 43.6307 17.4323 43.439C17.7198 43.2497 17.8673 42.9827 17.8723 42.6381V40.5022L17.8673 40.5046Z" fill="black"/>
<path d="M22.4114 39.8565C22.3639 39.9002 22.3114 39.9196 22.2489 39.9196C22.1864 39.9196 22.1339 39.8977 22.0914 39.8565C22.0489 39.8152 22.0264 39.7618 22.0264 39.7036C22.0264 39.6453 22.0489 39.5919 22.0914 39.5507C22.1339 39.5094 22.1889 39.4875 22.2489 39.4875C22.3089 39.4875 22.3639 39.5094 22.4114 39.5507C22.4589 39.5919 22.4814 39.6453 22.4814 39.7036C22.4814 39.7618 22.4589 39.8152 22.4114 39.8565ZM22.4814 44.0699H22.0264V40.4972H22.4814V44.0699Z" fill="black"/>
<path d="M32.4585 42.1525C32.6435 42.2035 32.801 42.2641 32.9285 42.337C33.056 42.4098 33.156 42.4874 33.221 42.5724C33.2885 42.6573 33.3335 42.7399 33.361 42.82C33.386 42.9001 33.3985 42.9826 33.3985 43.0675C33.3985 43.3466 33.266 43.5845 33.001 43.7787C32.736 43.9728 32.4135 44.0699 32.0335 44.0699C31.6885 44.0699 31.381 43.9898 31.1085 43.8272C30.836 43.6646 30.6735 43.4631 30.6235 43.2253L30.931 43.1646C31.0385 43.3588 31.191 43.5117 31.386 43.6185C31.581 43.7253 31.7935 43.7738 32.0185 43.7641C32.281 43.7641 32.506 43.701 32.6935 43.5772C32.881 43.4534 32.976 43.2835 32.976 43.0675C32.976 42.8515 32.766 42.6865 32.3435 42.5797C32.266 42.5602 32.136 42.5336 31.951 42.5044C31.8235 42.4802 31.7335 42.4632 31.681 42.451C31.361 42.3855 31.1135 42.269 30.9335 42.0991C30.7535 41.9292 30.6635 41.7278 30.6635 41.4923C30.6635 41.2084 30.796 40.9681 31.061 40.7739C31.326 40.5797 31.651 40.4827 32.036 40.4827C32.2785 40.4827 32.5035 40.5409 32.716 40.6598C32.926 40.7763 33.0935 40.939 33.2185 41.1428L32.926 41.2715C32.8285 41.121 32.701 41.0045 32.5435 40.9195C32.386 40.8346 32.2185 40.7909 32.0385 40.7909C31.8785 40.7909 31.7235 40.8273 31.576 40.9025C31.426 40.9778 31.311 41.0676 31.226 41.1768C31.141 41.2836 31.0985 41.3904 31.0985 41.4948C31.0985 41.7545 31.326 41.9316 31.7785 42.0263C31.8185 42.0311 31.9035 42.0457 32.0335 42.0724C32.2335 42.1064 32.3785 42.1355 32.466 42.1549L32.4585 42.1525Z" fill="black"/>
<path d="M38.5866 43.7853C38.7566 43.7756 38.9191 43.7368 39.0766 43.6737C39.2341 43.6081 39.3741 43.5208 39.4966 43.4067C39.6191 43.2926 39.7216 43.164 39.7966 43.0135L40.2591 43.0742C40.1091 43.363 39.8966 43.6008 39.6191 43.7829C39.3416 43.9649 39.0366 44.0668 38.7041 44.0863C38.3716 44.1057 38.0566 44.045 37.7541 43.9018C37.4541 43.7586 37.2091 43.5523 37.0241 43.2829C36.9666 43.1931 36.9166 43.0984 36.8691 42.9989C36.6691 42.5548 36.6566 42.1033 36.8341 41.647C37.0116 41.1907 37.3266 40.8558 37.7791 40.6471C38.2316 40.4383 38.6966 40.4116 39.1766 40.5694C39.6541 40.7272 40.0066 41.0208 40.2341 41.4504C40.2541 41.4893 40.2716 41.5281 40.2891 41.5621C40.3191 41.6228 40.3466 41.6834 40.3666 41.749L37.4266 43.1057C37.5441 43.3096 37.7066 43.4722 37.9141 43.5936C38.1191 43.7125 38.3441 43.778 38.5866 43.7877V43.7853ZM37.2816 42.812L39.8366 41.6349C39.7291 41.3898 39.5616 41.1907 39.3341 41.0354C39.1066 40.8801 38.8591 40.7975 38.5866 40.7878C38.2066 40.7878 37.8741 40.9407 37.5941 41.2441C37.3141 41.5499 37.1741 41.8946 37.1741 42.2781C37.1741 42.4625 37.2091 42.6397 37.2816 42.8096V42.812Z" fill="black"/>
<path d="M46.4879 40.5046H46.9429V44.07H46.4879V43.4705C46.3479 43.6259 46.1904 43.7497 46.0104 43.8443C45.9129 43.8953 45.8104 43.9366 45.7029 43.973C45.4979 44.0385 45.2829 44.07 45.0629 44.07C44.7555 44.0797 44.478 43.9875 44.238 43.7933C44.213 43.7739 44.1855 43.7521 44.1605 43.7254C43.883 43.4147 43.7555 43.0531 43.783 42.6381V40.5022H44.238V42.6381C44.213 42.9317 44.298 43.1939 44.493 43.4244C44.658 43.5749 44.853 43.6574 45.0805 43.672C45.4404 43.706 45.7654 43.6307 46.0529 43.439C46.3404 43.2497 46.4879 42.9827 46.4929 42.6381V40.5022L46.4879 40.5046Z" fill="black"/>
<path d="M57.9167 40.5046H58.3717V44.07H57.9167V43.4705C57.7767 43.6259 57.6192 43.7497 57.4392 43.8443C57.3417 43.8953 57.2392 43.9366 57.1317 43.973C56.9267 44.0385 56.7117 44.07 56.4917 44.07C56.1842 44.0797 55.9067 43.9875 55.6667 43.7933C55.6417 43.7739 55.6142 43.7521 55.5892 43.7254C55.3117 43.4147 55.1842 43.0531 55.2117 42.6381V40.5022H55.6667V42.6381C55.6417 42.9317 55.7267 43.1939 55.9217 43.4244C56.0867 43.5749 56.2817 43.6574 56.5092 43.672C56.8692 43.706 57.1942 43.6307 57.4817 43.439C57.7692 43.2497 57.9167 42.9827 57.9217 42.6381V40.5022L57.9167 40.5046Z" fill="black"/>
<path d="M63.7359 42.1525C63.9209 42.2035 64.0784 42.2641 64.2059 42.337C64.3334 42.4098 64.4334 42.4874 64.4984 42.5724C64.5659 42.6573 64.6109 42.7399 64.6384 42.82C64.6634 42.9001 64.6759 42.9826 64.6759 43.0675C64.6759 43.3466 64.5434 43.5845 64.2784 43.7787C64.0134 43.9728 63.6909 44.0699 63.3109 44.0699C62.9659 44.0699 62.6584 43.9898 62.3859 43.8272C62.1134 43.6646 61.9509 43.4631 61.8984 43.2253L62.2059 43.1646C62.3134 43.3588 62.4659 43.5117 62.6609 43.6185C62.8559 43.7253 63.0684 43.7738 63.2934 43.7641C63.5559 43.7641 63.7809 43.701 63.9684 43.5772C64.1559 43.4534 64.2509 43.2835 64.2509 43.0675C64.2509 42.8515 64.0409 42.6865 63.6184 42.5797C63.5409 42.5602 63.4109 42.5336 63.2259 42.5044C63.0984 42.4802 63.0059 42.4632 62.9559 42.451C62.6359 42.3855 62.3884 42.269 62.2084 42.0991C62.0284 41.9292 61.9384 41.7278 61.9384 41.4923C61.9384 41.2084 62.0709 40.9681 62.3359 40.7739C62.6009 40.5797 62.9259 40.4827 63.3134 40.4827C63.5559 40.4827 63.7809 40.5409 63.9934 40.6598C64.2034 40.7763 64.3709 40.939 64.4959 41.1428L64.2034 41.2715C64.1059 41.121 63.9784 41.0045 63.8209 40.9195C63.6634 40.8346 63.4959 40.7909 63.3159 40.7909C63.1559 40.7909 63.0009 40.8273 62.8534 40.9025C62.7034 40.9778 62.5859 41.0676 62.5034 41.1768C62.4184 41.2836 62.3759 41.3904 62.3759 41.4948C62.3759 41.7545 62.6034 41.9316 63.0559 42.0263C63.0959 42.0311 63.1809 42.0457 63.3109 42.0724C63.5109 42.1064 63.6559 42.1355 63.7434 42.1549L63.7359 42.1525Z" fill="black"/>
<path d="M71.276 40.4897H71.731V44.0721H71.276V43.4654C71.0235 43.7493 70.7085 43.9411 70.331 44.0357C69.9535 44.1304 69.581 44.111 69.216 43.9799C68.851 43.8488 68.556 43.6256 68.3335 43.3173C68.111 43.0067 67.9985 42.662 67.9985 42.2834C67.9985 41.9047 68.111 41.5601 68.3335 41.2494C68.5585 40.9388 68.851 40.7179 69.216 40.5868C69.581 40.4558 69.9535 40.4363 70.331 40.531C70.7085 40.6257 71.0235 40.8174 71.276 41.1087V40.4946V40.4897ZM68.871 43.3246C69.151 43.6328 69.481 43.7857 69.8635 43.7857C70.246 43.7857 70.576 43.6328 70.856 43.3246C71.136 43.0164 71.276 42.6693 71.276 42.2834C71.276 41.8975 71.136 41.5504 70.856 41.2446C70.576 40.9388 70.246 40.7883 69.8635 40.7883C69.481 40.7883 69.151 40.9412 68.871 41.2446C68.591 41.548 68.451 41.895 68.451 42.2834C68.451 42.6717 68.591 43.0188 68.871 43.3246Z" fill="black"/>
<path d="M78.9932 39.1331V44.0698H78.5382V43.463C78.2857 43.747 77.9707 43.9387 77.5932 44.0334C77.2157 44.128 76.8432 44.111 76.4782 43.98C76.1132 43.8489 75.8182 43.628 75.5957 43.3174C75.3732 43.0043 75.2607 42.6596 75.2607 42.2834C75.2607 41.9072 75.3732 41.5626 75.5957 41.2495C75.8207 40.9364 76.1132 40.7155 76.4782 40.582C76.8432 40.4485 77.2157 40.4316 77.5932 40.5262C77.9707 40.6209 78.2857 40.8126 78.5382 41.1039V39.1331H78.9932ZM78.1182 43.3246C78.3982 43.0164 78.5382 42.6693 78.5382 42.2834C78.5382 41.8975 78.3982 41.5504 78.1182 41.2446C77.8382 40.9388 77.5082 40.7883 77.1257 40.7883C76.7432 40.7883 76.4132 40.9412 76.1332 41.2446C75.8533 41.548 75.7132 41.8951 75.7132 42.2834C75.7132 42.6718 75.8533 43.0188 76.1332 43.3246C76.4132 43.6305 76.7432 43.7858 77.1257 43.7858C77.5082 43.7858 77.8382 43.6329 78.1182 43.3246Z" fill="black"/>
<path d="M83.068 41.004C83.433 40.652 83.873 40.4749 84.388 40.4749C84.903 40.4749 85.3405 40.652 85.703 41.004C86.0655 41.3559 86.248 41.7831 86.248 42.2806C86.248 42.7782 86.0655 43.2078 85.703 43.5621C85.3405 43.9165 84.9005 44.0937 84.388 44.0937C83.8755 44.0937 83.433 43.9165 83.068 43.5621C82.703 43.2078 82.5205 42.7806 82.5205 42.2806C82.5205 41.7806 82.703 41.3559 83.068 41.004ZM83.393 43.3267C83.6705 43.6349 84.0005 43.7878 84.3855 43.7878C84.7705 43.7878 85.1005 43.6349 85.3805 43.3267C85.6605 43.0185 85.8005 42.6714 85.8005 42.2806C85.8005 41.8899 85.6605 41.5525 85.3805 41.2467C85.1005 40.9409 84.768 40.7904 84.3855 40.7904C84.003 40.7904 83.6705 40.9433 83.393 41.2467C83.1155 41.5525 82.9755 41.8971 82.9755 42.2855C82.9755 42.6738 83.1155 43.0209 83.393 43.3267Z" fill="black"/>
<path d="M97.6305 40.4895H98.0005L96.273 44.0719H95.748L94.0205 40.4895H94.523L96.0755 43.7175L97.6355 40.4895H97.6305Z" fill="black"/>
<path d="M104.266 40.4897H104.721V44.0721H104.266V43.4654C104.014 43.7493 103.699 43.9411 103.321 44.0357C102.944 44.1304 102.571 44.111 102.206 43.9799C101.841 43.8488 101.546 43.6256 101.324 43.3173C101.101 43.0067 100.989 42.662 100.989 42.2834C100.989 41.9047 101.101 41.5601 101.324 41.2494C101.549 40.9388 101.841 40.7179 102.206 40.5868C102.571 40.4558 102.944 40.4363 103.321 40.531C103.699 40.6257 104.014 40.8174 104.266 41.1087V40.4946V40.4897ZM101.861 43.3246C102.141 43.6328 102.471 43.7857 102.854 43.7857C103.236 43.7857 103.566 43.6328 103.846 43.3246C104.126 43.0164 104.266 42.6693 104.266 42.2834C104.266 41.8975 104.126 41.5504 103.846 41.2446C103.566 40.9388 103.236 40.7883 102.854 40.7883C102.471 40.7883 102.141 40.9412 101.861 41.2446C101.581 41.5504 101.441 41.895 101.441 42.2834C101.441 42.6717 101.581 43.0188 101.861 43.3246Z" fill="black"/>
<path d="M108.887 44.0727H108.432V39.136H108.887V44.0727Z" fill="black"/>
<path d="M114.276 43.7853C114.446 43.7756 114.609 43.7368 114.766 43.6737C114.924 43.6081 115.064 43.5208 115.186 43.4067C115.309 43.2926 115.409 43.164 115.486 43.0135L115.949 43.0742C115.799 43.363 115.586 43.6008 115.309 43.7829C115.031 43.9649 114.726 44.0668 114.394 44.0863C114.061 44.1057 113.746 44.045 113.444 43.9018C113.144 43.7586 112.899 43.5523 112.714 43.2829C112.656 43.1931 112.606 43.0984 112.559 42.9989C112.359 42.5548 112.346 42.1033 112.524 41.647C112.701 41.1907 113.016 40.8558 113.469 40.6471C113.921 40.4383 114.386 40.4116 114.866 40.5694C115.344 40.7272 115.696 41.0208 115.924 41.4504C115.944 41.4893 115.961 41.5281 115.979 41.5621C116.009 41.6228 116.036 41.6834 116.056 41.749L113.116 43.1057C113.234 43.3096 113.396 43.4722 113.604 43.5936C113.809 43.7125 114.034 43.778 114.276 43.7877V43.7853ZM112.971 42.812L115.526 41.6349C115.419 41.3898 115.251 41.1907 115.024 41.0354C114.796 40.8801 114.549 40.7975 114.276 40.7878C113.896 40.7878 113.564 40.9407 113.284 41.2441C113.004 41.5499 112.864 41.8946 112.864 42.2781C112.864 42.4625 112.899 42.6397 112.971 42.8096V42.812Z" fill="black"/>
<path d="M128.438 40.7298C128.7 40.9895 128.825 41.3026 128.815 41.6667V44.0719H128.368V41.6667C128.368 41.6206 128.363 41.5696 128.353 41.5138C128.343 41.4555 128.323 41.3803 128.29 41.2856C128.26 41.191 128.203 41.1109 128.12 41.0454C128.038 40.9798 127.938 40.9483 127.82 40.9483C127.513 40.9337 127.248 41.0284 127.025 41.2371C126.803 41.4434 126.698 41.6982 126.708 41.9968V44.0719H126.253V41.6667C126.253 41.6376 126.25 41.6012 126.245 41.5623C126.24 41.5235 126.228 41.4628 126.208 41.3851C126.188 41.3075 126.16 41.2395 126.128 41.1789C126.095 41.1182 126.04 41.0648 125.965 41.0187C125.89 40.9701 125.805 40.9483 125.708 40.9483C125.405 40.9337 125.143 41.0284 124.92 41.2322C124.7 41.4361 124.59 41.6885 124.595 41.9895V44.0719H124.14V40.4993H124.595V41.1133C124.723 40.9337 124.885 40.7905 125.08 40.6861C125.275 40.5818 125.485 40.5211 125.705 40.5065C125.943 40.5017 126.148 40.5769 126.323 40.7323C126.468 40.8633 126.568 41.0211 126.623 41.2128C126.663 41.157 126.693 41.123 126.708 41.1085C126.77 41.0235 126.843 40.9458 126.923 40.873C127.005 40.8002 127.093 40.7395 127.188 40.6886C127.283 40.6376 127.383 40.5988 127.488 40.5696C127.593 40.5405 127.703 40.5187 127.815 40.509C128.053 40.5041 128.258 40.5794 128.433 40.7347L128.438 40.7298Z" fill="black"/>
<path d="M135.582 40.4897H136.037V44.0721H135.582V43.4654C135.33 43.7493 135.015 43.9411 134.637 44.0357C134.26 44.1304 133.887 44.111 133.522 43.9799C133.157 43.8488 132.862 43.6256 132.64 43.3173C132.417 43.0067 132.305 42.662 132.305 42.2834C132.305 41.9047 132.417 41.5601 132.64 41.2494C132.865 40.9388 133.157 40.7179 133.522 40.5868C133.887 40.4558 134.26 40.4363 134.637 40.531C135.015 40.6257 135.33 40.8174 135.582 41.1087V40.4946V40.4897ZM133.177 43.3246C133.457 43.6328 133.787 43.7857 134.17 43.7857C134.552 43.7857 134.882 43.6328 135.162 43.3246C135.442 43.0164 135.582 42.6693 135.582 42.2834C135.582 41.8975 135.442 41.5504 135.162 41.2446C134.882 40.9388 134.552 40.7883 134.17 40.7883C133.787 40.7883 133.457 40.9412 133.177 41.2446C132.897 41.5504 132.757 41.895 132.757 42.2834C132.757 42.6717 132.897 43.0188 133.177 43.3246Z" fill="black"/>
<path d="M140.135 39.8565C140.09 39.9002 140.035 39.9196 139.973 39.9196C139.91 39.9196 139.858 39.8977 139.815 39.8565C139.77 39.8152 139.75 39.7618 139.75 39.7036C139.75 39.6453 139.773 39.5919 139.815 39.5507C139.858 39.5094 139.913 39.4875 139.973 39.4875C140.033 39.4875 140.087 39.5094 140.135 39.5507C140.182 39.5919 140.205 39.6453 140.205 39.7036C140.205 39.7618 140.182 39.8152 140.135 39.8565ZM140.205 44.0699H139.75V40.4972H140.205V44.0699Z" fill="black"/>
<path d="M145.568 42.1525C145.753 42.2035 145.911 42.2641 146.038 42.337C146.166 42.4098 146.266 42.4874 146.331 42.5724C146.398 42.6573 146.443 42.7399 146.471 42.82C146.496 42.9001 146.508 42.9826 146.508 43.0675C146.508 43.3466 146.376 43.5845 146.111 43.7787C145.846 43.9728 145.523 44.0699 145.143 44.0699C144.798 44.0699 144.491 43.9898 144.218 43.8272C143.946 43.6646 143.783 43.4631 143.731 43.2253L144.038 43.1646C144.146 43.3588 144.298 43.5117 144.493 43.6185C144.688 43.7253 144.901 43.7738 145.126 43.7641C145.388 43.7641 145.613 43.701 145.801 43.5772C145.988 43.4534 146.083 43.2835 146.083 43.0675C146.083 42.8515 145.873 42.6865 145.451 42.5797C145.373 42.5602 145.243 42.5336 145.058 42.5044C144.931 42.4802 144.838 42.4632 144.788 42.451C144.468 42.3855 144.221 42.269 144.041 42.0991C143.861 41.9292 143.771 41.7278 143.771 41.4923C143.771 41.2084 143.903 40.9681 144.168 40.7739C144.433 40.5797 144.758 40.4827 145.146 40.4827C145.388 40.4827 145.613 40.5409 145.826 40.6598C146.036 40.7763 146.203 40.939 146.328 41.1428L146.036 41.2715C145.938 41.121 145.811 41.0045 145.653 40.9195C145.496 40.8346 145.328 40.7909 145.148 40.7909C144.988 40.7909 144.833 40.8273 144.686 40.9025C144.536 40.9778 144.418 41.0676 144.336 41.1768C144.251 41.2836 144.208 41.3904 144.208 41.4948C144.208 41.7545 144.436 41.9316 144.888 42.0263C144.928 42.0311 145.013 42.0457 145.143 42.0724C145.343 42.1064 145.488 42.1355 145.576 42.1549L145.568 42.1525Z" fill="black"/>
<path d="M150.081 43.6116C150.131 43.5631 150.189 43.5413 150.259 43.5413C150.329 43.5413 150.386 43.5655 150.431 43.6116C150.479 43.6602 150.501 43.716 150.501 43.784C150.501 43.8519 150.479 43.9078 150.431 43.9563C150.384 44.0048 150.326 44.0267 150.259 44.0267C150.191 44.0267 150.131 44.0024 150.081 43.9563C150.031 43.9078 150.009 43.8519 150.009 43.784C150.009 43.716 150.034 43.6602 150.081 43.6116ZM150.386 43.0534H150.131L150.031 39.1506H150.486L150.386 43.0534Z" fill="black"/>
</svg>
