<svg width="56" height="56" viewBox="0 0 56 56" fill="none" xmlns="http://www.w3.org/2000/svg">
<g clip-path="url(#clip0_6828_25594)">
<path d="M41.2273 39.5961C41.3133 40.7595 41.2869 40.3204 41.3736 41.4838C41.3973 41.7989 41.3431 42.1526 41.4685 42.4189C41.5159 42.5205 41.5708 42.6188 41.6304 42.715C41.9523 43.234 42.678 43.3086 43.0771 42.8478C43.1774 42.7326 43.2499 42.612 43.2736 42.4819C43.5575 40.9004 43.7743 39.2912 43.8299 37.686C43.9085 35.4378 43.777 33.1828 43.8353 30.9332C43.8495 30.3769 44.1212 29.7142 44.4925 29.3002C46.055 27.5568 47.2435 25.6467 47.3357 23.2351C47.337 23.1945 47.3357 23.1532 47.3323 23.1125C47.2557 22.2858 46.1641 22.0148 45.6715 22.6782C45.6593 22.6944 45.6478 22.7114 45.6363 22.7276C44.9743 23.6973 44.5108 24.82 43.7757 25.7212C41.8025 28.1415 38.7941 28.1964 36.6434 25.9211C35.9706 25.2096 35.4238 24.3708 34.7197 23.6966C34.6913 23.6695 34.6608 23.6437 34.6296 23.6193C33.8809 23.0468 33.0251 23.4005 32.876 24.3382C32.8571 24.4582 32.8632 24.5639 32.9092 24.6466C33.6661 26.0038 34.4053 27.5053 35.5478 28.4756C37.1489 29.8355 37.6578 31.3221 37.6632 33.3657C37.6706 36.2786 38.0291 39.1916 38.254 42.1032C38.2872 42.5327 38.3028 43.0281 38.521 43.3628C38.7839 43.7666 39.3551 43.8649 39.5889 43.8649C39.8552 43.8649 40.4643 43.7029 40.5402 43.3092C40.7245 42.3511 40.7638 41.3537 40.7624 40.3699C40.7604 39.1225 40.7604 38.8853 40.9942 38.1738C41.2286 39.1225 41.2286 38.8853 41.2286 39.5968L41.2273 39.5961Z" fill="#fff"/>
<path d="M36.3319 24.5659C36.401 24.1173 36.4952 23.8843 36.4606 23.6728C36.1266 21.6272 37.1463 20.3398 38.5943 19.0551C39.9488 17.8531 41.0228 16.3129 42.1442 14.8615C42.7168 14.1203 42.8726 13.2055 41.9911 12.5611C41.1576 11.952 40.5363 12.6052 39.9651 13.154C39.1744 13.9143 38.4446 14.7457 37.6098 15.4504C35.3426 17.3659 32.5706 17.9832 29.7586 18.5273C27.2157 19.0192 24.6964 19.6351 22.167 20.1968C22.1724 20.3839 22.1778 20.5715 22.1833 20.7586C23.7159 21.0059 25.2432 21.2972 26.7827 21.4883C28.2354 21.6686 28.5119 21.8617 28.562 23.3652C28.6122 24.8579 28.5729 26.354 28.5729 27.5236C29.825 28.069 31.0081 28.3509 31.8937 29.0292C32.9426 29.8328 32.6384 31.1439 32.3423 32.3066C33.8289 32.0918 34.5885 29.9351 36.7351 31.0456C36.4376 30.4358 36.3122 29.9866 36.0426 29.6607C35.1692 28.6036 34.1684 27.6469 33.3634 26.5424C32.8715 25.8675 32.4602 25.0138 32.3687 24.2C32.305 23.6322 32.7 22.7622 33.1642 22.4634C33.5152 22.237 34.3838 22.5691 34.8676 22.8909C35.3934 23.2405 35.7404 23.8646 36.3312 24.5659H36.3319Z" fill="#fff"/>
<path d="M36.6374 32.6881C35.7687 33.6035 34.8736 34.5 34.0422 35.4533C33.7942 35.7372 33.5936 36.1858 33.5997 36.5544C33.6397 38.7965 33.7434 41.0373 33.8308 43.2781C33.8464 43.6711 33.7888 44.1047 33.9351 44.4442C34.1154 44.8602 34.2008 45.2857 34.6696 45.2857C35.3723 45.2857 35.8405 45.155 36.0241 44.7728C36.388 44.0153 36.6645 43.1351 36.6814 42.299C36.7464 39.1143 36.695 35.9269 36.68 32.7409C36.68 32.6867 36.5859 32.6332 36.6367 32.6874L36.6374 32.6881Z" fill="#fff"/>
<path d="M30.2864 11.288C28.6127 11.3883 27.3748 12.7496 27.4392 14.4191C27.5008 16.0196 28.9766 17.3964 30.5405 17.3131C32.1382 17.2277 33.4846 15.7465 33.4148 14.1508C33.343 12.5192 31.8929 11.1918 30.2871 11.288H30.2864Z" fill="#fff"/>
<path d="M39.9191 26.7797C41.281 26.7824 42.3394 25.6908 42.3313 24.2916C42.3231 22.9615 41.2573 21.8957 39.9401 21.9011C38.5707 21.9065 37.4913 23.0157 37.5191 24.3892C37.5455 25.6989 38.6283 26.777 39.9191 26.7797Z" fill="#fff"/>
<path d="M19.8492 40.954C19.9075 40.0136 21.2314 39.8746 21.4625 40.7867C21.4645 40.7948 21.4666 40.8029 21.4686 40.8117C21.7044 41.7638 21.9775 42.7286 22.4057 43.6014C22.5168 43.8284 22.7296 44.0045 22.9674 44.1678C23.3374 44.4219 23.8435 44.3189 24.0976 43.9463C24.2833 43.6739 24.4405 43.3994 24.4588 43.1162C24.5286 42.0233 24.2941 40.9134 24.3111 39.8123C24.3178 39.3583 24.5665 38.8393 24.8572 38.4748C25.3159 37.8995 25.9122 37.4381 26.4333 36.9109C26.8696 36.4698 26.7809 36.1405 26.2591 35.7841C25.5212 35.2793 24.8037 34.7264 24.1573 34.1084C23.5312 33.5101 23.1741 32.802 23.7331 31.8914C23.8727 31.6644 23.727 31.2375 23.668 30.9109C23.3645 29.2162 23.0359 27.5257 22.7391 25.8297C22.6246 25.1745 22.9518 24.9549 23.5942 24.8987C24.7542 24.797 25.9075 24.5951 27.0587 24.4095C27.7573 24.297 28.1835 23.967 28.071 23.1295C27.9653 22.3388 27.6007 21.9925 26.8073 21.8929C25.2306 21.6944 23.6423 21.4959 22.1028 21.1137C19.2712 20.411 17.1246 18.7577 15.8853 16.0217C15.3981 14.9463 15.0004 13.8229 14.4292 12.797C14.3167 12.5951 14.1236 12.4399 13.9054 12.299C13.5158 12.0463 12.9954 12.1594 12.7549 12.5599C12.5895 12.8343 12.4628 13.0999 12.5123 13.3255C12.9805 15.4654 13.1682 17.8518 14.2774 19.6223C16.1584 22.6227 16.0994 25.644 15.535 28.8178C15.163 30.9075 14.6677 32.989 14.0308 35.0109C13.6147 36.3322 13.9867 37.2145 15.0431 37.7843C16.3888 38.51 17.1151 39.4966 17.2229 41.0658C17.2656 41.6892 17.668 42.1452 18.0427 42.6785C18.248 42.9705 18.7515 43.3906 19.1011 43.3588C19.3315 43.3378 19.6405 42.8194 19.6947 42.4874C19.7767 41.9853 19.8153 41.4765 19.8478 40.9547L19.8492 40.954Z" fill="#fff"/>
<path d="M30.9188 44.3047C30.9215 44.3189 30.9242 44.3325 30.9269 44.3467C31.0624 45.0527 31.4764 46.2853 31.7502 46.2805C32.833 46.2615 32.7733 45.1693 32.7964 44.3907C32.8729 41.7881 32.898 39.1822 32.8695 36.5782C32.8614 35.7902 33.0423 35.2867 33.7064 34.8009C34.4151 34.2825 35.0188 33.5731 35.5365 32.8495C35.7059 32.613 35.9004 32.3358 36.0095 32.0248C36.1206 31.7091 35.7967 31.4096 35.4911 31.539C33.6217 32.3304 31.927 33.1788 30.1382 33.6795C28.2572 34.206 26.3505 32.9606 24.4702 32.3704C23.6896 32.1251 23.6137 32.5554 24.1328 33.1943C24.229 33.3129 24.4472 33.5799 24.6091 33.7635C25.0943 34.3144 25.6905 34.8537 26.3485 35.1282C27.9794 35.8078 28.0235 37.0627 27.873 39.1056C27.7382 40.9391 27.831 42.7923 28.245 44.5825C28.4029 45.2655 28.2626 45.6422 28.5533 45.9675C28.9375 46.3977 29.6476 46.2771 29.9004 45.7568C30 45.5514 29.9939 45.3936 30.0142 45.0175C30.0271 44.7824 30.0901 44.5527 30.1192 44.3189C30.2209 42.6792 30.6898 41.9677 30.9188 44.3054V44.3047Z" fill="#fff"/>
<path d="M21.3459 19.459C22.8048 19.4313 24.164 18.0686 24.1247 16.6735C24.0793 15.0696 22.8305 13.7971 21.3121 13.8066C19.6987 13.8161 18.4439 15.1422 18.5082 16.769C18.5665 18.2577 19.8641 19.4875 21.3466 19.459H21.3459Z" fill="#fff"/>
<path d="M29.6862 28.6472C28.3182 28.635 27.4116 29.528 27.4007 30.8981C27.3899 32.2018 28.3832 33.2005 29.6808 33.1917C30.9899 33.1829 31.9914 32.1808 31.9731 30.8988C31.9534 29.5267 31.0725 28.6594 29.6862 28.6472Z" fill="#fff"/>
<path d="M52.2204 27.3115V27.3258H51.8993V27.3115C51.6594 13.1534 41.1501 1.65007 28.0768 1.10936C27.7563 1.09513 27.4351 1.08903 27.1132 1.08903C24.9788 1.08903 22.9054 1.38107 20.9276 1.93195C20.7616 1.96515 20.5969 1.99971 20.4329 2.03562C18.8501 2.38661 17.3404 2.9097 15.927 3.5839C18.6997 2.09525 21.7183 1.17305 24.8569 0.87424C25.6022 0.803771 26.355 0.767181 27.1132 0.767181C33.8234 0.767181 40.131 3.58119 44.8748 8.69153C49.5054 13.6806 52.1046 20.2762 52.2211 27.3109L52.2204 27.3115Z" fill="#fff"/>
<path d="M20.9561 6.7036V5.97656L20.6255 6.7036H20.0787L19.7453 5.97656V6.7036H19.1863V5.09637H19.874L20.3748 6.09581L20.8755 5.09637H21.5199V6.7036H20.9555H20.9561Z" fill="#fff"/>
<path d="M22.327 6.70356C21.8723 6.70356 21.7219 6.63783 21.7219 6.34376V6.28278C21.7219 6.0131 21.8046 5.94941 22.3345 5.94941H23.008V5.92502C23.008 5.84506 22.9741 5.8227 22.8548 5.8227H21.7971V5.45816H23.0053C23.4647 5.45816 23.6225 5.52863 23.6225 5.84235V6.70288H22.3263L22.327 6.70356ZM23.008 6.33631V6.18792H22.4198C22.3494 6.18792 22.3202 6.20757 22.3202 6.25364V6.27329C22.3202 6.32208 22.3494 6.33631 22.4198 6.33631H23.008Z" fill="#fff"/>
<path d="M23.8562 6.70355V5.45883H24.4687V5.54895C24.5243 5.50491 24.59 5.45883 24.8258 5.45883H25.271V5.86945H24.5297C24.4911 5.86945 24.4687 5.90333 24.4687 5.9494V6.70288H23.8562V6.70355Z" fill="#fff"/>
<path d="M26.7007 7.20162V6.70292H26.0366C25.5793 6.70292 25.4214 6.63516 25.4214 6.31602V5.84171C25.4214 5.52799 25.5718 5.45752 26.0366 5.45752H27.3179V7.20094H26.7L26.7007 7.20162ZM26.7007 5.86949H26.1173C26.0637 5.86949 26.0346 5.89659 26.0346 5.94945V6.21709C26.0346 6.26791 26.0542 6.29501 26.1024 6.29501H26.7007V5.86949Z" fill="#fff"/>
<path d="M32.7144 5.21418C32.8885 4.87267 32.9292 4.84828 33.27 4.88623C33.0985 5.038 33.0247 5.29752 32.7144 5.21418Z" fill="#fff"/>
<path d="M27.5293 6.7036V6.29502H28.791C28.8465 6.29502 28.8709 6.27063 28.8709 6.20761V6.18322C28.8709 6.12224 28.8465 6.10055 28.791 6.10055H27.9785C27.6723 6.10055 27.5144 5.97385 27.5144 5.76515V5.47582C27.5144 5.20072 27.6167 5.09637 28.0443 5.09637H29.333V5.50496H28.1757C28.11 5.50496 28.0883 5.53409 28.0883 5.59237V5.61676C28.0883 5.67503 28.11 5.69942 28.1757 5.69942H28.976C29.3039 5.69942 29.4428 5.83833 29.4428 6.0809V6.31941C29.4428 6.58232 29.3161 6.7036 28.9394 6.7036H27.5293Z" fill="#fff"/>
<path d="M30.2018 6.70356C29.7471 6.70356 29.5967 6.63783 29.5967 6.34376V6.28278C29.5967 6.0131 29.6793 5.94941 30.2092 5.94941H30.8827V5.92502C30.8827 5.84506 30.8489 5.8227 30.7296 5.8227H29.6719V5.45816H30.88C31.3394 5.45816 31.4973 5.52863 31.4973 5.84235V6.70288H30.2011L30.2018 6.70356ZM30.8821 6.33631V6.18792H30.2939C30.2234 6.18792 30.1943 6.20757 30.1943 6.25364V6.27329C30.1943 6.32208 30.2234 6.33631 30.2939 6.33631H30.8821Z" fill="#fff"/>
<path d="M32.9392 6.29497C33.0069 6.29497 33.0266 6.26583 33.0266 6.21502V5.45883H33.6418V6.70355H33.0266V6.61344C32.9656 6.66696 32.8809 6.70355 32.6715 6.70355H32.3409C31.9058 6.70355 31.7229 6.62834 31.7229 6.31936V5.45883H32.3354V6.21502C32.3354 6.26583 32.3551 6.29497 32.4228 6.29497H32.9385H32.9392Z" fill="#fff"/>
<path d="M34.48 6.7036C34.0206 6.7036 33.8647 6.64059 33.8647 6.31941V5.84307C33.8647 5.52732 34.0396 5.45888 34.48 5.45888H35.1461V5.09637H35.7613V6.7036H34.48ZM35.1467 5.8695H34.5898C34.5145 5.8695 34.4807 5.90134 34.4807 5.96165V6.2171C34.4807 6.27063 34.5078 6.29502 34.5898 6.29502H35.1467V5.8695Z" fill="#fff"/>
<path d="M36.5954 6.70352C36.1625 6.70352 35.9829 6.59443 35.9829 6.26377V5.84095C35.9829 5.57127 36.1747 5.45947 36.5541 5.45947H37.4465C37.765 5.45947 37.8842 5.56382 37.8842 5.79013V5.90668C37.8842 6.14248 37.7995 6.20346 37.4953 6.20346H36.5887V6.22989C36.5887 6.31526 36.6226 6.32746 36.7689 6.32746H37.8097V6.70419H36.5968L36.5954 6.70352ZM37.1938 5.95953C37.2595 5.95953 37.2859 5.94733 37.2859 5.90871V5.89448C37.2859 5.85586 37.2588 5.84095 37.1938 5.84095H36.6517C36.6104 5.84095 36.5887 5.8606 36.5887 5.89719V5.96021H37.1938V5.95953Z" fill="#fff"/>
<path d="M20.3978 10.6702V8.28104H19.2344V7.46658H22.7822V8.28104H21.6235V10.6702H20.3971H20.3978Z" fill="#fff"/>
<path d="M24.2613 10.6702C23.3452 10.6702 23.0403 10.5394 23.0403 9.90453V8.23225C23.0403 7.59261 23.3554 7.46658 24.2613 7.46658H25.8848C26.8009 7.46658 27.116 7.59261 27.116 8.23225V9.90453C27.116 10.5442 26.8009 10.6702 25.8848 10.6702H24.2613ZM25.899 8.49854C25.899 8.32915 25.8218 8.28036 25.5406 8.28036H24.6197C24.3534 8.28036 24.2613 8.32373 24.2613 8.49854V9.63756C24.2613 9.79747 24.3243 9.85575 24.6197 9.85575H25.5406C25.8218 9.85575 25.899 9.80222 25.899 9.63756V8.49854Z" fill="#fff"/>
<path d="M28.5316 10.6702V8.28104H27.3682V7.46658H30.916V8.28104H29.7573V10.6702H28.5309H28.5316Z" fill="#fff"/>
<path d="M33.1852 10.2047H31.9737L31.8233 10.6702H30.481L31.7799 7.46658H33.3404L34.6393 10.6702H33.3404L33.1852 10.2047ZM32.2352 9.41938H32.9189L32.5747 8.39216L32.2352 9.41938Z" fill="#fff"/>
<path d="M34.9109 10.6702V7.46658H36.1421V9.85575H37.7994V10.6702H34.9109Z" fill="#fff"/>
<path d="M47.842 33.9377V32.2532H53.0445C53.2749 32.2532 53.3752 32.1529 53.3752 31.8921V31.7918C53.3752 31.5411 53.2749 31.451 53.0445 31.451H49.6966C48.4336 31.451 47.7817 30.9299 47.7817 30.0673V28.8741C47.7817 27.7412 48.2025 27.3102 49.9669 27.3102H55.2799V28.9947H50.5083C50.238 28.9947 50.1472 29.1146 50.1472 29.3559V29.4561C50.1472 29.6967 50.2373 29.797 50.5083 29.797H53.8068C55.16 29.797 55.7318 30.3682 55.7318 31.371V32.3535C55.7318 33.4363 55.2108 33.9377 53.6564 33.9377H47.842Z" fill="#fff"/>
<path d="M33.4222 54.2564C32.5068 54.3641 31.5805 54.419 30.6468 54.419C23.9367 54.419 17.6291 51.605 12.886 46.4946C8.38615 41.6479 5.80523 35.2847 5.55453 28.4763H4.70687L3.33341 25.4787V28.4763H1.02759V21.8502H3.86463L5.92991 25.9699L7.99519 21.8502H10.6513V28.4763H8.32585V25.4787L6.96255 28.4763H5.72799C5.79778 29.0543 5.88722 29.6262 5.99292 30.1913C8.11444 41.5096 17.3635 50.0282 28.4515 50.0282C29.7592 50.0282 31.0405 49.9097 32.2886 49.6827C32.4417 51.17 32.7873 52.5997 33.3002 53.9453C33.3402 54.0497 33.3809 54.1534 33.4222 54.2564Z" fill="#fff"/>
</g>
<defs>
<clipPath id="clip0_6828_25594">
<rect width="55" height="55" fill="white" transform="translate(0.902832 0.5)"/>
</clipPath>
</defs>
</svg>
