<svg width="150" height="46" viewBox="0 0 150 46" fill="none" xmlns="http://www.w3.org/2000/svg">
<path d="M10.1324 8.32778C10.1324 9.59472 9.87994 10.5049 9.37494 11.0583C8.86994 11.6141 8.16244 11.8908 7.25495 11.8908C6.34746 11.8908 5.63496 11.6141 5.12246 11.0583C4.60997 10.5025 4.35247 9.5923 4.35247 8.32778V0.15332H0V8.45399C0 10.6602 0.632496 12.3665 1.90249 13.5752C3.16998 14.7839 4.93997 15.3882 7.20995 15.3882C9.47994 15.3882 11.2349 14.7839 12.5174 13.5752C13.7999 12.3665 14.4399 10.6578 14.4399 8.45399V0.15332H10.1324V8.32778Z" fill="white"/>
<path d="M27.4449 7.50458C26.9249 7.18421 26.3574 6.92936 25.7424 6.73519C25.1274 6.54345 24.5074 6.38327 23.885 6.25463C23.2625 6.126 22.695 6.00221 22.1825 5.88086C21.67 5.7595 21.2525 5.60417 20.93 5.41243C20.6075 5.22069 20.4475 4.9537 20.4475 4.61148C20.4475 4.38334 20.5275 4.16976 20.69 3.97073C20.85 3.77171 21.115 3.60909 21.4825 3.48046C21.8475 3.35182 22.3325 3.28872 22.9325 3.28872C23.6075 3.28872 24.3024 3.38095 25.0199 3.5654C25.7374 3.74986 26.4624 4.04112 27.1949 4.43916L28.5149 1.32277C27.7674 0.881039 26.9074 0.550955 25.9324 0.330089C24.9574 0.109223 23.9649 0 22.955 0C21.445 0 20.185 0.220868 19.175 0.6626C18.165 1.10433 17.41 1.68683 16.91 2.41253C16.4125 3.13824 16.1625 3.94161 16.1625 4.82507C16.1625 5.62116 16.32 6.28375 16.635 6.81043C16.95 7.33711 17.365 7.76428 17.8775 8.09194C18.39 8.4196 18.9625 8.68172 19.5925 8.88074C20.2225 9.07977 20.8425 9.23996 21.45 9.36131C22.0575 9.48267 22.6225 9.6113 23.1425 9.74479C23.6625 9.88071 24.0849 10.0433 24.4074 10.2351C24.7299 10.4268 24.8899 10.6865 24.8899 11.0142C24.8899 11.2714 24.8049 11.4899 24.6374 11.6768C24.4699 11.8612 24.2049 12.0044 23.8449 12.1039C23.485 12.2034 23 12.2544 22.3825 12.2544C21.4875 12.2544 20.59 12.1161 19.69 11.8394C18.7875 11.5627 17.9925 11.2108 17.305 10.7836L15.875 13.9218C16.5925 14.3903 17.535 14.7786 18.7 15.0844C19.865 15.3902 21.085 15.5431 22.36 15.5431C23.8849 15.5431 25.1524 15.3223 26.1624 14.8805C27.1724 14.4388 27.9324 13.8539 28.4374 13.1209C28.9424 12.3879 29.1949 11.587 29.1949 10.7205C29.1949 9.93896 29.0324 9.2885 28.7124 8.76667C28.3899 8.24727 27.9674 7.82738 27.4474 7.50701L27.4449 7.50458Z" fill="white"/>
<path d="M37.4136 0.303711L30.6211 15.2425H35.0611L36.2686 12.3178H42.776L43.9835 15.2425H48.511L41.696 0.303711H37.4086H37.4136ZM37.5486 9.22329L39.5235 4.44677L41.4985 9.22329H37.5486Z" fill="white"/>
<path d="M61.6827 1.22115C60.3927 0.609525 58.9053 0.303711 57.2203 0.303711H49.9453V15.2425H57.2203C58.9053 15.2425 60.3927 14.9367 61.6827 14.3251C62.9727 13.7134 63.9802 12.8494 64.7052 11.7329C65.4302 10.6164 65.7927 9.28882 65.7927 7.75247C65.7927 6.21612 65.4302 4.9152 64.7052 3.80359C63.9802 2.6944 62.9727 1.83278 61.6827 1.22115ZM60.8477 9.96113C60.4802 10.58 59.9727 11.0533 59.3203 11.381C58.6678 11.7086 57.8953 11.8713 57.0003 11.8713H54.2978V3.67737H57.0003C57.8928 3.67737 58.6678 3.83999 59.3203 4.16765C59.9727 4.49531 60.4802 4.96131 60.8477 5.56565C61.2127 6.17 61.3977 6.90784 61.3977 7.77431C61.3977 8.64079 61.2152 9.34222 60.8477 9.96113Z" fill="white"/>
<path d="M97.3974 8.76425C97.0749 8.24485 96.6524 7.82496 96.1324 7.50458C95.6124 7.18421 95.0449 6.92936 94.4299 6.73519C93.8149 6.54102 93.1949 6.38327 92.5724 6.25463C91.9499 6.126 91.3824 6.00221 90.87 5.88086C90.3575 5.7595 89.94 5.60417 89.6175 5.41243C89.295 5.22069 89.135 4.9537 89.135 4.61148C89.135 4.38334 89.215 4.16976 89.3775 3.97073C89.5375 3.77171 89.8025 3.60909 90.17 3.48046C90.535 3.35182 91.02 3.28872 91.6199 3.28872C92.2949 3.28872 92.9899 3.38095 93.7074 3.5654C94.4249 3.74986 95.1499 4.04112 95.8824 4.43916L97.2024 1.32277C96.4549 0.881039 95.5949 0.550955 94.6199 0.330089C93.6449 0.109223 92.6524 0 91.6425 0C90.1325 0 88.8725 0.220868 87.8625 0.6626C86.8525 1.10433 86.0975 1.68683 85.5975 2.41253C85.1 3.13824 84.85 3.94161 84.85 4.82507C84.85 5.62116 85.0075 6.28375 85.3225 6.81043C85.6375 7.33711 86.0525 7.76428 86.565 8.09194C87.0775 8.4196 87.65 8.68172 88.28 8.88074C88.91 9.07977 89.53 9.23996 90.1375 9.36131C90.745 9.48267 91.31 9.6113 91.83 9.74479C92.3499 9.88071 92.7724 10.0433 93.0949 10.2351C93.4174 10.4268 93.5774 10.6865 93.5774 11.0142C93.5774 11.2714 93.4924 11.4899 93.3249 11.6768C93.1574 11.8612 92.8924 12.0044 92.5324 12.1039C92.1725 12.2034 91.685 12.2544 91.07 12.2544C90.175 12.2544 89.2775 12.1161 88.3775 11.8394C87.4775 11.5627 86.68 11.2108 85.9925 10.7836L84.5625 13.9218C85.28 14.3903 86.2225 14.7786 87.3875 15.0844C88.5525 15.3902 89.7725 15.5431 91.0475 15.5431C92.5724 15.5431 93.8399 15.3223 94.8499 14.8805C95.8599 14.4388 96.6199 13.8539 97.1249 13.1209C97.6299 12.3879 97.8824 11.587 97.8824 10.7205C97.8824 9.93896 97.7199 9.2885 97.3999 8.76667L97.3974 8.76425Z" fill="white"/>
<path d="M71.6041 10.73C71.4366 10.7567 71.3741 10.9946 71.5366 11.1766C71.6891 11.3222 71.8391 11.2712 71.8991 11.1887C72.0291 11.0043 71.8291 10.6912 71.6041 10.7276V10.73ZM70.9166 13.1013C70.8416 13.0746 70.7991 13.1061 70.8291 13.1692C70.8416 13.1935 70.8591 13.2129 70.8716 13.2251C70.9516 13.3003 71.0241 13.31 71.0516 13.2979C71.1141 13.2687 71.0241 13.1401 70.9166 13.1013ZM72.8866 13.7954C72.7291 13.6959 72.4866 13.7081 72.5041 13.8148C72.5091 13.8464 72.5341 13.8707 72.5516 13.8852C72.6666 13.975 72.8216 13.992 72.8966 13.975C73.0041 13.9508 72.9991 13.8658 72.8866 13.793V13.7954ZM82.064 5.16953C82.064 5.15011 82.064 5.11855 82.059 5.087C82.0315 4.94137 81.929 4.75207 81.8915 4.80546C81.859 4.85158 81.899 5.06031 81.989 5.17681C82.049 5.24234 82.0615 5.19137 82.064 5.1671V5.16953ZM80.239 4.62343C80.339 4.45111 80.1115 4.17927 79.914 4.23752C79.7865 4.27635 79.754 4.44868 79.9065 4.60644C80.0615 4.74478 80.194 4.69867 80.2365 4.62343H80.239ZM73.0891 6.21318C72.8366 6.25444 72.6766 6.56753 72.8716 6.78597C73.0491 6.94616 73.2616 6.85393 73.3566 6.73743C73.5466 6.49957 73.3766 6.16706 73.0891 6.21318ZM81.1715 10.929C81.304 10.7154 81.2515 10.4824 81.079 10.5188C80.889 10.5601 80.704 10.9096 80.834 11.0722C80.944 11.1717 81.099 11.0479 81.1715 10.929ZM79.9115 13.6182C79.9115 13.6182 79.9165 13.6231 79.9165 13.6255C79.979 13.6595 80.154 13.5454 80.249 13.4629C80.3865 13.344 80.4515 13.2299 80.3865 13.2202C80.254 13.2008 79.859 13.5309 79.9115 13.6182ZM73.9116 10.8101C73.6766 10.8295 73.5641 11.0916 73.7716 11.3076C73.9641 11.4775 74.1741 11.4266 74.2616 11.3368C74.4541 11.1378 74.2191 10.7834 73.9116 10.8101ZM78.1766 8.7592C77.9291 8.81017 77.8016 9.12569 78.009 9.35384C78.2065 9.52859 78.4241 9.43636 78.5166 9.315C78.7116 9.05773 78.4891 8.69609 78.1766 8.7592ZM80.8715 12.895C80.8315 13.0188 80.7365 13.1498 80.619 13.276C80.659 13.2396 80.699 13.2056 80.7365 13.1668C81.4015 12.5212 81.924 11.7955 82.314 11.0213C82.2165 11.1305 82.094 11.3076 81.994 11.4606C81.6515 11.9872 81.479 12.2494 80.874 12.8925L80.8715 12.895ZM76.1891 4.64284C76.3766 4.79575 76.5916 4.7375 76.6841 4.6477C76.8691 4.46809 76.6991 4.18655 76.4066 4.19141C76.1516 4.19626 75.9866 4.44139 76.1866 4.64041L76.1891 4.64284ZM81.0165 8.54804C81.2415 8.48979 81.5415 8.40484 81.7615 8.3296C82.7915 7.98496 82.944 9.1621 82.949 9.23005C83.4915 6.76898 82.8015 4.1283 80.864 2.2473C77.7941 -0.733173 72.7566 -0.677347 69.6166 2.37109C66.4766 5.41952 66.4166 10.3101 69.4891 13.2906C72.4016 16.1182 77.0841 16.2104 80.239 13.6085C79.8565 13.8901 79.4415 14.0673 79.399 13.9241C79.3165 13.6522 80.2865 12.8464 80.684 12.7833C80.8715 12.7542 81.519 11.8853 81.7865 11.4921C81.9665 11.2203 82.369 10.6135 82.5815 10.429C82.6815 10.1815 82.7665 9.92906 82.839 9.67664C82.8215 9.5747 82.754 9.40481 82.479 9.01162C82.3015 8.80046 82.129 8.77133 81.7965 8.89754C81.279 9.09414 80.7465 9.29559 79.1616 9.41695C78.8391 10.3004 77.6541 10.3514 77.2966 9.49704C76.9391 8.64513 77.7516 7.79807 78.5915 8.14514C78.864 8.25679 79.0565 8.46309 79.164 8.7592C79.944 8.71066 79.974 8.70823 80.354 8.65969C79.354 7.62332 78.4191 6.68888 76.8616 5.23991C75.8441 5.53601 75.2066 4.67925 75.5491 4.12102C75.9566 3.45114 77.2216 3.64288 77.3766 4.3977C77.4191 4.60886 77.3616 4.73993 77.3066 4.86856C78.4165 5.89522 79.6341 7.05052 81.0215 8.54561L81.0165 8.54804ZM81.7665 4.43654C81.814 4.43169 81.8665 4.50207 81.909 4.55789C81.9315 4.5943 81.964 4.64284 81.984 4.67925C82.059 4.81517 82.0915 4.96807 82.1665 5.10399C82.324 5.38553 82.549 5.62582 82.6765 5.92435C82.6865 5.95348 82.7015 5.99231 82.7115 6.02143C82.7565 6.16949 82.8065 6.35395 82.849 6.52627C82.869 6.59423 82.8815 6.65976 82.899 6.73015L82.9065 6.7714C82.889 6.69616 82.869 6.61122 82.849 6.52627C82.784 6.29327 82.659 6.04085 82.234 5.4802C82.2065 5.78844 82.024 5.58941 81.989 5.54572C81.689 5.18894 81.609 4.44868 81.7665 4.43412V4.43654ZM79.3515 4.12587C79.504 3.67929 80.254 3.72055 80.5615 4.32004C80.6715 4.53606 80.659 4.70838 80.649 4.80303C82.5365 6.72044 82.9915 7.55294 83.039 7.91457V8.28592L83.034 8.45824C82.9565 7.68642 81.034 5.71319 80.4465 5.12583C79.8365 5.40738 79.1965 4.58217 79.3515 4.12587ZM73.7866 14.8124C73.2941 14.6692 72.9591 14.5964 72.3641 14.3464C71.8041 14.094 71.6591 13.9508 71.1341 13.4751C70.7291 13.3464 70.4841 12.9702 70.6741 12.8731C70.9066 12.7542 71.4141 13.2202 71.3591 13.4022C71.3541 13.4217 71.3341 13.4435 71.3241 13.4629C71.5716 13.6862 71.6316 13.7396 71.9091 13.975C72.0516 14.0867 72.2916 14.2711 73.4966 14.6206C73.2291 14.4289 73.1816 14.3925 72.9291 14.1935C72.2116 14.0794 71.8891 13.6959 72.2066 13.5115C72.6091 13.2785 73.5791 13.6862 73.4566 14.0406C73.4341 14.1037 73.3716 14.1376 73.3241 14.1643C73.6966 14.458 74.0841 14.7614 74.5791 15.0381L74.8241 15.1789C74.2391 15.0915 74.1266 15.0235 73.7891 14.8172L73.7866 14.8124ZM76.6241 15.1862C76.5166 15.1983 76.4091 15.1862 76.3066 15.1546L76.2791 15.1449C75.5066 14.8439 73.9666 13.594 72.0891 11.7275C71.2541 11.9411 70.7841 10.9072 71.1241 10.4072C71.2691 10.1936 71.7416 9.94848 72.2616 10.5601C72.4341 10.8247 72.5266 11.0722 72.4191 11.4169C75.2291 14.1886 76.6766 15.1425 77.0616 15.1182C77.0616 15.1182 76.7366 15.1716 76.6266 15.1862H76.6241ZM79.4765 12.2445C79.7365 11.9897 80.079 11.645 80.3265 11.378C80.149 10.5383 81.0265 9.73247 81.4365 9.97518C81.9415 10.2737 81.4615 11.514 80.7865 11.6572C80.7315 11.6693 80.654 11.6644 80.5965 11.6572C80.0015 12.3003 79.954 12.3513 79.5165 12.7299C78.9665 13.2178 78.759 13.9386 78.2466 14.4532C78.429 14.5648 78.499 14.6012 78.619 14.6425L78.2691 14.7881L78.2341 14.8002C78.0691 14.8488 77.6841 14.9604 74.4341 11.9314C73.3841 12.162 72.7816 11.1353 73.1566 10.5455C73.5891 9.86353 74.8141 10.2106 74.9766 11.0625C75.0241 11.3077 74.9566 11.4484 74.8916 11.5843C75.8441 12.4775 76.9066 13.4653 77.9191 14.2226C78.1466 13.9241 78.2415 13.8148 78.3665 13.5333C78.514 13.2251 78.6716 13.009 78.9891 12.6814C76.9266 10.781 74.6741 8.56746 73.5141 7.41701C72.5441 7.81991 71.9741 6.94131 72.2641 6.24716C72.5941 5.46078 73.6491 5.34427 74.0016 6.05784C74.1891 6.43404 74.0516 6.77384 73.9841 6.93645C76.8991 9.78586 78.6716 11.4848 79.469 12.2445H79.4765Z" fill="white"/>
<path d="M55.6346 21.9696C56.2196 21.4089 56.9096 20.9745 57.7021 20.6687C58.4946 20.3629 59.3496 20.2099 60.2746 20.2099C61.1996 20.2099 61.9745 20.3483 62.737 20.625C63.4995 20.9017 64.1945 21.3531 64.8245 21.9793L65.857 20.9769C65.182 20.2512 64.3545 19.7075 63.372 19.3435C62.3895 18.9818 61.3421 18.7998 60.2296 18.7998C59.1171 18.7998 58.0021 18.9891 57.0196 19.3653C56.0371 19.7415 55.1846 20.2731 54.4596 20.9551C53.7346 21.6371 53.1696 22.4429 52.7671 23.3676C52.3646 24.2923 52.1621 25.302 52.1621 26.399C52.1621 27.4961 52.3621 28.5058 52.7671 29.4305C53.1696 30.3552 53.7296 31.1586 54.4496 31.843C55.1671 32.525 56.0171 33.0566 56.9996 33.4328C57.9821 33.809 59.0521 33.9983 60.2096 33.9983C61.367 33.9983 62.392 33.8138 63.3745 33.4425C64.357 33.0736 65.1845 32.525 65.8595 31.7993L64.827 30.7969C64.197 31.4231 63.4995 31.8794 62.7395 32.1634C61.977 32.4474 61.157 32.5906 60.2771 32.5906C59.3546 32.5906 58.4971 32.4377 57.7046 32.1318C56.9121 31.826 56.2246 31.3916 55.6371 30.8309C55.0496 30.2703 54.5921 29.615 54.2621 28.8674C53.9321 28.1199 53.7671 27.2995 53.7671 26.4015C53.7671 25.5034 53.9321 24.6831 54.2621 23.9355C54.5921 23.188 55.0496 22.5351 55.6371 21.972L55.6346 21.9696Z" fill="white"/>
<path d="M73.5037 18.9277L66.4688 33.8665H68.1612L70.0012 29.8764H78.5887L80.4286 33.8665H82.1437L75.1087 18.9277H73.5037ZM70.5912 28.5948L74.2937 20.5612L77.9962 28.5948H70.5887H70.5912Z" fill="white"/>
<path d="M95.2783 19.8767C94.0408 19.2433 92.6008 18.9277 90.9583 18.9277H84.6934V33.8665H90.9583C92.5983 33.8665 94.0383 33.551 95.2783 32.9175C96.5158 32.284 97.4808 31.4054 98.1683 30.2817C98.8558 29.1579 99.2008 27.8643 99.2008 26.3983C99.2008 24.9324 98.8558 23.6387 98.1683 22.515C97.4783 21.3912 96.5158 20.5126 95.2783 19.8792V19.8767ZM96.7608 29.5657C96.2033 30.4831 95.4233 31.2016 94.4208 31.7209C93.4158 32.2403 92.2333 32.5001 90.8708 32.5001H86.3209V20.2942H90.8708C92.2333 20.2942 93.4158 20.5539 94.4208 21.0733C95.4233 21.5927 96.2058 22.3087 96.7608 23.2188C97.3183 24.129 97.5958 25.1896 97.5958 26.3983C97.5958 27.607 97.3183 28.6507 96.7608 29.5681V29.5657Z" fill="white"/>
<path d="M104.959 21.9696C105.544 21.4089 106.234 20.9745 107.026 20.6687C107.819 20.3629 108.674 20.2099 109.599 20.2099C110.524 20.2099 111.299 20.3483 112.061 20.625C112.824 20.9017 113.519 21.3531 114.149 21.9793L115.181 20.9769C114.506 20.2512 113.679 19.7075 112.696 19.3435C111.714 18.9818 110.666 18.7998 109.554 18.7998C108.441 18.7998 107.326 18.9891 106.344 19.3653C105.361 19.7415 104.509 20.2731 103.784 20.9551C103.059 21.6371 102.494 22.4429 102.091 23.3676C101.689 24.2923 101.486 25.302 101.486 26.399C101.486 27.4961 101.689 28.5058 102.091 29.4305C102.494 30.3552 103.054 31.1586 103.774 31.843C104.491 32.525 105.341 33.0566 106.324 33.4328C107.306 33.809 108.376 33.9983 109.534 33.9983C110.691 33.9983 111.716 33.8138 112.699 33.4425C113.681 33.0736 114.509 32.525 115.184 31.7993L114.151 30.7969C113.521 31.4231 112.824 31.8794 112.064 32.1634C111.301 32.4474 110.481 32.5906 109.601 32.5906C108.679 32.5906 107.821 32.4377 107.029 32.1318C106.236 31.826 105.549 31.3916 104.961 30.8309C104.374 30.2703 103.916 29.615 103.586 28.8674C103.256 28.1199 103.091 27.2995 103.091 26.4015C103.091 25.5034 103.256 24.6831 103.586 23.9355C103.916 23.188 104.374 22.5351 104.961 21.972L104.959 21.9696Z" fill="white"/>
<path d="M122.83 18.9277L115.795 33.8665H117.487L119.327 29.8764H127.915L129.755 33.8665H131.47L124.435 18.9277H122.83ZM119.917 28.5948L123.62 20.5612L127.322 28.5948H119.915H119.917Z" fill="white"/>
<path d="M148.439 21.9179V33.8665H149.999V18.9277H148.659L142.039 29.9929L135.36 18.9277H134.02V33.8665H135.58V21.9859L141.624 31.9661H142.394L148.439 21.9179Z" fill="white"/>
<path d="M3.28138 40.3721H3.73638V43.9545H3.28138V43.3477C3.02889 43.6317 2.71389 43.8234 2.33639 43.9181C1.95889 44.0127 1.5864 43.9933 1.2214 43.8622C0.856403 43.7312 0.561405 43.5079 0.338907 43.1997C0.113908 42.889 0.00390625 42.5443 0.00390625 42.1657C0.00390625 41.7871 0.116408 41.4424 0.338907 41.1318C0.563905 40.8211 0.856403 40.6002 1.2214 40.4692C1.5864 40.3357 1.95889 40.3187 2.33639 40.4133C2.71389 40.508 3.02889 40.6997 3.28138 40.991V40.3769V40.3721ZM0.876402 43.2069C1.1564 43.5152 1.4864 43.6681 1.8689 43.6681C2.25139 43.6681 2.57889 43.5152 2.86139 43.2069C3.14139 42.8987 3.28138 42.5516 3.28138 42.1657C3.28138 41.7798 3.14139 41.4327 2.86139 41.1269C2.58139 40.8211 2.25139 40.6706 1.8689 40.6706C1.4864 40.6706 1.1564 40.8235 0.876402 41.1269C0.596404 41.4327 0.456406 41.7774 0.456406 42.1657C0.456406 42.554 0.596404 42.9011 0.876402 43.2069Z" fill="white"/>
<path d="M10.5431 40.3793H10.9981V45.3088H10.5431V43.3452C10.2906 43.6292 9.97561 43.821 9.59811 43.9156C9.22062 44.0103 8.84811 43.9933 8.48312 43.8622C8.11812 43.7311 7.82312 43.5103 7.60062 43.1996C7.37562 42.8865 7.26562 42.5419 7.26562 42.1608C7.26562 41.7798 7.37812 41.4375 7.60062 41.1269C7.82312 40.8162 8.11812 40.5953 8.48312 40.4643C8.84811 40.3308 9.22062 40.3138 9.59811 40.4085C9.97561 40.5031 10.2906 40.6949 10.5431 40.9861V40.3793ZM8.13812 43.1972C8.41812 43.503 8.74811 43.6535 9.13061 43.6535C9.51311 43.6535 9.84061 43.5006 10.1231 43.1972C10.4031 42.8938 10.5431 42.5492 10.5431 42.1632C10.5431 41.7773 10.4031 41.4327 10.1231 41.122C9.84311 40.8114 9.51311 40.6584 9.13061 40.6584C8.74811 40.6584 8.41812 40.8138 8.13812 41.122C7.85812 41.4327 7.71812 41.7798 7.71812 42.1632C7.71812 42.5467 7.85812 42.8914 8.13812 43.1972Z" fill="white"/>
<path d="M17.3668 40.3872H17.8218V43.9526H17.3668V43.3531C17.2268 43.5084 17.0693 43.6322 16.8893 43.7269C16.7918 43.7779 16.6894 43.8191 16.5819 43.8555C16.3769 43.9211 16.1619 43.9526 15.9419 43.9526C15.6344 43.9623 15.3569 43.8701 15.1169 43.6759C15.0919 43.6565 15.0644 43.6347 15.0394 43.608C14.7619 43.2973 14.6344 42.9357 14.6619 42.5206V40.3848H15.1169V42.5206C15.0919 42.8143 15.1769 43.0764 15.3719 43.307C15.5369 43.4575 15.7319 43.54 15.9594 43.5546C16.3193 43.5885 16.6443 43.5133 16.9318 43.3216C17.2193 43.1322 17.3668 42.8653 17.3718 42.5206V40.3848L17.3668 40.3872Z" fill="white"/>
<path d="M21.9123 39.739C21.8648 39.7827 21.8123 39.8021 21.7498 39.8021C21.6873 39.8021 21.6348 39.7803 21.5923 39.739C21.5498 39.6978 21.5273 39.6444 21.5273 39.5861C21.5273 39.5279 21.5498 39.4745 21.5923 39.4332C21.6348 39.392 21.6898 39.3701 21.7498 39.3701C21.8098 39.3701 21.8648 39.392 21.9123 39.4332C21.9598 39.4745 21.9823 39.5279 21.9823 39.5861C21.9823 39.6444 21.9598 39.6978 21.9123 39.739ZM21.9823 43.9525H21.5273V40.3798H21.9823V43.9525Z" fill="white"/>
<path d="M31.958 42.0351C32.143 42.086 32.3005 42.1467 32.428 42.2195C32.5555 42.2923 32.6555 42.37 32.7205 42.455C32.788 42.5399 32.833 42.6224 32.8605 42.7025C32.8855 42.7826 32.898 42.8651 32.898 42.9501C32.898 43.2292 32.7655 43.4671 32.5005 43.6612C32.2355 43.8554 31.913 43.9525 31.533 43.9525C31.188 43.9525 30.8805 43.8724 30.608 43.7098C30.3355 43.5472 30.173 43.3457 30.123 43.1079L30.4305 43.0472C30.538 43.2413 30.6905 43.3942 30.8855 43.501C31.0805 43.6078 31.293 43.6564 31.518 43.6467C31.7805 43.6467 32.0055 43.5836 32.193 43.4598C32.3805 43.336 32.4755 43.1661 32.4755 42.9501C32.4755 42.7341 32.2655 42.569 31.843 42.4622C31.7655 42.4428 31.6355 42.4161 31.4505 42.387C31.323 42.3627 31.233 42.3457 31.1805 42.3336C30.8605 42.2681 30.613 42.1516 30.4331 41.9817C30.2531 41.8118 30.163 41.6103 30.163 41.3749C30.163 41.0909 30.2955 40.8506 30.5605 40.6565C30.8255 40.4623 31.1505 40.3652 31.5355 40.3652C31.778 40.3652 32.003 40.4235 32.2155 40.5424C32.4255 40.6589 32.593 40.8215 32.718 41.0254L32.4255 41.154C32.328 41.0036 32.2005 40.8871 32.043 40.8021C31.8855 40.7172 31.718 40.6735 31.538 40.6735C31.378 40.6735 31.223 40.7099 31.0755 40.7851C30.9255 40.8604 30.8105 40.9502 30.7255 41.0594C30.6405 41.1662 30.598 41.273 30.598 41.3773C30.598 41.637 30.8255 41.8142 31.278 41.9089C31.318 41.9137 31.403 41.9283 31.533 41.955C31.733 41.989 31.878 42.0181 31.9655 42.0375L31.958 42.0351Z" fill="white"/>
<path d="M38.0861 43.6679C38.2561 43.6582 38.4186 43.6193 38.5761 43.5562C38.7336 43.4907 38.8736 43.4033 38.9961 43.2892C39.1186 43.1752 39.2211 43.0465 39.2961 42.8961L39.7586 42.9567C39.6086 43.2456 39.3961 43.4834 39.1186 43.6654C38.8411 43.8475 38.5361 43.9494 38.2036 43.9688C37.8711 43.9882 37.5561 43.9276 37.2536 43.7844C36.9536 43.6412 36.7086 43.4349 36.5236 43.1655C36.4661 43.0757 36.4161 42.981 36.3686 42.8815C36.1686 42.4373 36.1561 41.9859 36.3336 41.5296C36.5111 41.0733 36.8261 40.7384 37.2786 40.5296C37.7311 40.3209 38.1961 40.2942 38.6761 40.452C39.1536 40.6097 39.5061 40.9034 39.7336 41.333C39.7536 41.3718 39.7711 41.4107 39.7886 41.4446C39.8186 41.5053 39.8461 41.566 39.8661 41.6315L36.9261 42.9883C37.0436 43.1922 37.2061 43.3548 37.4136 43.4761C37.6186 43.5951 37.8436 43.6606 38.0861 43.6703V43.6679ZM36.7811 42.6946L39.3361 41.5175C39.2286 41.2723 39.0611 41.0733 38.8336 40.918C38.6061 40.7626 38.3586 40.6801 38.0861 40.6704C37.7061 40.6704 37.3736 40.8233 37.0936 41.1267C36.8136 41.4325 36.6736 41.7772 36.6736 42.1606C36.6736 42.3451 36.7086 42.5223 36.7811 42.6922V42.6946Z" fill="white"/>
<path d="M45.9879 40.3872H46.4429V43.9526H45.9879V43.3531C45.8479 43.5084 45.6904 43.6322 45.5104 43.7269C45.4129 43.7779 45.3104 43.8191 45.2029 43.8555C44.9979 43.9211 44.7829 43.9526 44.5629 43.9526C44.2555 43.9623 43.978 43.8701 43.738 43.6759C43.713 43.6565 43.6855 43.6347 43.6605 43.608C43.383 43.2973 43.2555 42.9357 43.283 42.5206V40.3848H43.738V42.5206C43.713 42.8143 43.798 43.0764 43.993 43.307C44.158 43.4575 44.353 43.54 44.5805 43.5546C44.9404 43.5885 45.2654 43.5133 45.5529 43.3216C45.8404 43.1322 45.9879 42.8653 45.9929 42.5206V40.3848L45.9879 40.3872Z" fill="white"/>
<path d="M57.4176 40.3872H57.8726V43.9526H57.4176V43.3531C57.2776 43.5084 57.1201 43.6322 56.9401 43.7269C56.8426 43.7779 56.7401 43.8191 56.6326 43.8555C56.4276 43.9211 56.2126 43.9526 55.9926 43.9526C55.6851 43.9623 55.4076 43.8701 55.1676 43.6759C55.1426 43.6565 55.1151 43.6347 55.0901 43.608C54.8126 43.2973 54.6851 42.9357 54.7126 42.5206V40.3848H55.1676V42.5206C55.1426 42.8143 55.2276 43.0764 55.4226 43.307C55.5876 43.4575 55.7826 43.54 56.0101 43.5546C56.3701 43.5885 56.6951 43.5133 56.9826 43.3216C57.2701 43.1322 57.4176 42.8653 57.4226 42.5206V40.3848L57.4176 40.3872Z" fill="white"/>
<path d="M63.2359 42.0351C63.4209 42.086 63.5784 42.1467 63.7059 42.2195C63.8334 42.2923 63.9334 42.37 63.9984 42.455C64.0659 42.5399 64.1109 42.6224 64.1384 42.7025C64.1634 42.7826 64.1759 42.8651 64.1759 42.9501C64.1759 43.2292 64.0434 43.4671 63.7784 43.6612C63.5134 43.8554 63.1909 43.9525 62.8109 43.9525C62.4659 43.9525 62.1584 43.8724 61.8859 43.7098C61.6134 43.5472 61.4509 43.3457 61.3984 43.1079L61.7059 43.0472C61.8134 43.2413 61.9659 43.3942 62.1609 43.501C62.3559 43.6078 62.5684 43.6564 62.7934 43.6467C63.0559 43.6467 63.2809 43.5836 63.4684 43.4598C63.6559 43.336 63.7509 43.1661 63.7509 42.9501C63.7509 42.7341 63.5409 42.569 63.1184 42.4622C63.0409 42.4428 62.9109 42.4161 62.7259 42.387C62.5984 42.3627 62.5059 42.3457 62.4559 42.3336C62.1359 42.2681 61.8884 42.1516 61.7084 41.9817C61.5284 41.8118 61.4384 41.6103 61.4384 41.3749C61.4384 41.0909 61.5709 40.8506 61.8359 40.6565C62.1009 40.4623 62.4259 40.3652 62.8134 40.3652C63.0559 40.3652 63.2809 40.4235 63.4934 40.5424C63.7034 40.6589 63.8709 40.8215 63.9959 41.0254L63.7034 41.154C63.6059 41.0036 63.4784 40.8871 63.3209 40.8021C63.1634 40.7172 62.9959 40.6735 62.8159 40.6735C62.6559 40.6735 62.5009 40.7099 62.3534 40.7851C62.2034 40.8604 62.0859 40.9502 62.0034 41.0594C61.9184 41.1662 61.8759 41.273 61.8759 41.3773C61.8759 41.637 62.1034 41.8142 62.5559 41.9089C62.5959 41.9137 62.6809 41.9283 62.8109 41.955C63.0109 41.989 63.1559 42.0181 63.2434 42.0375L63.2359 42.0351Z" fill="white"/>
<path d="M70.7755 40.3723H71.2305V43.9547H70.7755V43.3479C70.523 43.6319 70.208 43.8236 69.8305 43.9183C69.453 44.013 69.0805 43.9935 68.7155 43.8625C68.3505 43.7314 68.0555 43.5081 67.833 43.1999C67.6105 42.8892 67.498 42.5446 67.498 42.1659C67.498 41.7873 67.6105 41.4427 67.833 41.132C68.058 40.8213 68.3505 40.6005 68.7155 40.4694C69.0805 40.3383 69.453 40.3189 69.8305 40.4136C70.208 40.5082 70.523 40.7 70.7755 40.9912V40.3772V40.3723ZM68.3705 43.2072C68.6505 43.5154 68.9805 43.6683 69.363 43.6683C69.7455 43.6683 70.0755 43.5154 70.3555 43.2072C70.6355 42.8989 70.7755 42.5519 70.7755 42.1659C70.7755 41.78 70.6355 41.433 70.3555 41.1271C70.0755 40.8213 69.7455 40.6708 69.363 40.6708C68.9805 40.6708 68.6505 40.8238 68.3705 41.1271C68.0905 41.4305 67.9505 41.7776 67.9505 42.1659C67.9505 42.5543 68.0905 42.9013 68.3705 43.2072Z" fill="white"/>
<path d="M78.4922 39.0156V43.9523H78.0373V43.3456C77.7848 43.6295 77.4698 43.8213 77.0923 43.9159C76.7148 44.0106 76.3423 43.9936 75.9773 43.8625C75.6123 43.7315 75.3173 43.5106 75.0948 43.1999C74.8723 42.8868 74.7598 42.5422 74.7598 42.166C74.7598 41.7898 74.8723 41.4451 75.0948 41.132C75.3198 40.819 75.6123 40.5981 75.9773 40.4646C76.3423 40.3311 76.7148 40.3141 77.0923 40.4088C77.4698 40.5034 77.7848 40.6952 78.0373 40.9864V39.0156H78.4922ZM77.6172 43.2072C77.8972 42.899 78.0373 42.5519 78.0373 42.166C78.0373 41.7801 77.8972 41.433 77.6172 41.1272C77.3372 40.8214 77.0073 40.6709 76.6248 40.6709C76.2423 40.6709 75.9123 40.8238 75.6323 41.1272C75.3523 41.4306 75.2123 41.7777 75.2123 42.166C75.2123 42.5543 75.3523 42.9014 75.6323 43.2072C75.9123 43.513 76.2423 43.6684 76.6248 43.6684C77.0073 43.6684 77.3372 43.5155 77.6172 43.2072Z" fill="white"/>
<path d="M82.567 40.8865C82.932 40.5346 83.372 40.3574 83.887 40.3574C84.402 40.3574 84.8395 40.5346 85.202 40.8865C85.5645 41.2385 85.747 41.6656 85.747 42.1632C85.747 42.6607 85.5645 43.0903 85.202 43.4447C84.8395 43.7991 84.3995 43.9762 83.887 43.9762C83.3745 43.9762 82.932 43.7991 82.567 43.4447C82.202 43.0903 82.0195 42.6632 82.0195 42.1632C82.0195 41.6632 82.202 41.2385 82.567 40.8865ZM82.892 43.2093C83.1695 43.5175 83.4995 43.6704 83.8845 43.6704C84.2695 43.6704 84.5995 43.5175 84.8795 43.2093C85.1595 42.901 85.2995 42.5539 85.2995 42.1632C85.2995 41.7724 85.1595 41.4351 84.8795 41.1292C84.5995 40.8234 84.267 40.6729 83.8845 40.6729C83.502 40.6729 83.1695 40.8258 82.892 41.1292C82.6145 41.4351 82.4745 41.7797 82.4745 42.168C82.4745 42.5564 82.6145 42.9034 82.892 43.2093Z" fill="white"/>
<path d="M97.1315 40.3721H97.5015L95.774 43.9545H95.249L93.5215 40.3721H94.024L95.5765 43.6001L97.1365 40.3721H97.1315Z" fill="white"/>
<path d="M103.766 40.3723H104.221V43.9547H103.766V43.3479C103.513 43.6319 103.198 43.8236 102.821 43.9183C102.443 44.013 102.071 43.9935 101.706 43.8625C101.341 43.7314 101.046 43.5081 100.823 43.1999C100.601 42.8892 100.488 42.5446 100.488 42.1659C100.488 41.7873 100.601 41.4427 100.823 41.132C101.048 40.8213 101.341 40.6005 101.706 40.4694C102.071 40.3383 102.443 40.3189 102.821 40.4136C103.198 40.5082 103.513 40.7 103.766 40.9912V40.3772V40.3723ZM101.361 43.2072C101.641 43.5154 101.971 43.6683 102.353 43.6683C102.736 43.6683 103.066 43.5154 103.346 43.2072C103.626 42.8989 103.766 42.5519 103.766 42.1659C103.766 41.78 103.626 41.433 103.346 41.1271C103.066 40.8213 102.736 40.6708 102.353 40.6708C101.971 40.6708 101.641 40.8238 101.361 41.1271C101.081 41.433 100.941 41.7776 100.941 42.1659C100.941 42.5543 101.081 42.9013 101.361 43.2072Z" fill="white"/>
<path d="M108.387 43.9553H107.932V39.0186H108.387V43.9553Z" fill="white"/>
<path d="M113.776 43.6679C113.946 43.6582 114.108 43.6193 114.266 43.5562C114.423 43.4907 114.563 43.4033 114.686 43.2892C114.808 43.1752 114.908 43.0465 114.986 42.8961L115.448 42.9567C115.298 43.2456 115.086 43.4834 114.808 43.6654C114.531 43.8475 114.226 43.9494 113.893 43.9688C113.561 43.9882 113.246 43.9276 112.943 43.7844C112.643 43.6412 112.398 43.4349 112.213 43.1655C112.156 43.0757 112.106 42.981 112.058 42.8815C111.858 42.4373 111.846 41.9859 112.023 41.5296C112.201 41.0733 112.516 40.7384 112.968 40.5296C113.421 40.3209 113.886 40.2942 114.366 40.452C114.843 40.6097 115.196 40.9034 115.423 41.333C115.443 41.3718 115.461 41.4107 115.478 41.4446C115.508 41.5053 115.536 41.566 115.556 41.6315L112.616 42.9883C112.733 43.1922 112.896 43.3548 113.103 43.4761C113.308 43.5951 113.533 43.6606 113.776 43.6703V43.6679ZM112.471 42.6946L115.026 41.5175C114.918 41.2723 114.751 41.0733 114.523 40.918C114.296 40.7626 114.048 40.6801 113.776 40.6704C113.396 40.6704 113.063 40.8233 112.783 41.1267C112.503 41.4325 112.363 41.7772 112.363 42.1606C112.363 42.3451 112.398 42.5223 112.471 42.6922V42.6946Z" fill="white"/>
<path d="M127.938 40.6124C128.201 40.8721 128.326 41.1852 128.316 41.5493V43.9545H127.868V41.5493C127.868 41.5032 127.863 41.4522 127.853 41.3964C127.843 41.3381 127.823 41.2629 127.791 41.1682C127.761 41.0736 127.703 40.9935 127.621 40.9279C127.538 40.8624 127.438 40.8308 127.321 40.8308C127.013 40.8163 126.748 40.9109 126.526 41.1197C126.303 41.326 126.198 41.5808 126.208 41.8794V43.9545H125.753V41.5493C125.753 41.5201 125.751 41.4837 125.746 41.4449C125.741 41.4061 125.728 41.3454 125.708 41.2677C125.688 41.1901 125.661 41.1221 125.628 41.0614C125.596 41.0007 125.541 40.9473 125.466 40.9012C125.391 40.8527 125.306 40.8308 125.208 40.8308C124.906 40.8163 124.643 40.9109 124.421 41.1148C124.201 41.3187 124.091 41.5711 124.096 41.8721V43.9545H123.641V40.3818H124.096V40.9959C124.223 40.8163 124.386 40.6731 124.581 40.5687C124.776 40.4643 124.986 40.4037 125.206 40.3891C125.443 40.3843 125.648 40.4595 125.823 40.6148C125.968 40.7459 126.068 40.9036 126.123 41.0954C126.163 41.0396 126.193 41.0056 126.208 40.991C126.271 40.9061 126.343 40.8284 126.423 40.7556C126.506 40.6828 126.593 40.6221 126.688 40.5711C126.783 40.5202 126.883 40.4813 126.988 40.4522C127.093 40.4231 127.203 40.4012 127.316 40.3915C127.553 40.3867 127.758 40.4619 127.933 40.6173L127.938 40.6124Z" fill="white"/>
<path d="M135.082 40.3723H135.537V43.9547H135.082V43.3479C134.83 43.6319 134.515 43.8236 134.137 43.9183C133.76 44.013 133.387 43.9935 133.022 43.8625C132.657 43.7314 132.362 43.5081 132.14 43.1999C131.917 42.8892 131.805 42.5446 131.805 42.1659C131.805 41.7873 131.917 41.4427 132.14 41.132C132.365 40.8213 132.657 40.6005 133.022 40.4694C133.387 40.3383 133.76 40.3189 134.137 40.4136C134.515 40.5082 134.83 40.7 135.082 40.9912V40.3772V40.3723ZM132.677 43.2072C132.957 43.5154 133.287 43.6683 133.67 43.6683C134.052 43.6683 134.382 43.5154 134.662 43.2072C134.942 42.8989 135.082 42.5519 135.082 42.1659C135.082 41.78 134.942 41.433 134.662 41.1271C134.382 40.8213 134.052 40.6708 133.67 40.6708C133.287 40.6708 132.957 40.8238 132.677 41.1271C132.397 41.433 132.257 41.7776 132.257 42.1659C132.257 42.5543 132.397 42.9013 132.677 43.2072Z" fill="white"/>
<path d="M139.635 39.739C139.59 39.7827 139.535 39.8021 139.473 39.8021C139.41 39.8021 139.358 39.7803 139.315 39.739C139.27 39.6978 139.25 39.6444 139.25 39.5861C139.25 39.5279 139.273 39.4745 139.315 39.4332C139.358 39.392 139.413 39.3701 139.473 39.3701C139.533 39.3701 139.587 39.392 139.635 39.4332C139.682 39.4745 139.705 39.5279 139.705 39.5861C139.705 39.6444 139.682 39.6978 139.635 39.739ZM139.705 43.9525H139.25V40.3798H139.705V43.9525Z" fill="white"/>
<path d="M145.068 42.0351C145.253 42.086 145.41 42.1467 145.538 42.2195C145.665 42.2923 145.765 42.37 145.83 42.455C145.898 42.5399 145.943 42.6224 145.97 42.7025C145.995 42.7826 146.008 42.8651 146.008 42.9501C146.008 43.2292 145.875 43.4671 145.61 43.6612C145.345 43.8554 145.023 43.9525 144.643 43.9525C144.298 43.9525 143.99 43.8724 143.718 43.7098C143.445 43.5472 143.283 43.3457 143.23 43.1079L143.538 43.0472C143.645 43.2413 143.798 43.3942 143.993 43.501C144.188 43.6078 144.4 43.6564 144.625 43.6467C144.888 43.6467 145.113 43.5836 145.3 43.4598C145.488 43.336 145.583 43.1661 145.583 42.9501C145.583 42.7341 145.373 42.569 144.95 42.4622C144.873 42.4428 144.743 42.4161 144.558 42.387C144.43 42.3627 144.338 42.3457 144.288 42.3336C143.968 42.2681 143.72 42.1516 143.54 41.9817C143.36 41.8118 143.27 41.6103 143.27 41.3749C143.27 41.0909 143.403 40.8506 143.668 40.6565C143.933 40.4623 144.258 40.3652 144.645 40.3652C144.888 40.3652 145.113 40.4235 145.325 40.5424C145.535 40.6589 145.703 40.8215 145.828 41.0254L145.535 41.154C145.438 41.0036 145.31 40.8871 145.153 40.8021C144.995 40.7172 144.828 40.6735 144.648 40.6735C144.488 40.6735 144.333 40.7099 144.185 40.7851C144.035 40.8604 143.918 40.9502 143.835 41.0594C143.75 41.1662 143.708 41.273 143.708 41.3773C143.708 41.637 143.935 41.8142 144.388 41.9089C144.428 41.9137 144.513 41.9283 144.643 41.955C144.843 41.989 144.988 42.0181 145.075 42.0375L145.068 42.0351Z" fill="white"/>
<path d="M149.582 43.4942C149.632 43.4457 149.69 43.4238 149.76 43.4238C149.83 43.4238 149.887 43.4481 149.932 43.4942C149.98 43.5427 150.002 43.5986 150.002 43.6665C150.002 43.7345 149.98 43.7903 149.932 43.8389C149.885 43.8874 149.827 43.9092 149.76 43.9092C149.692 43.9092 149.632 43.885 149.582 43.8389C149.532 43.7903 149.51 43.7345 149.51 43.6665C149.51 43.5986 149.535 43.5427 149.582 43.4942ZM149.887 42.936H149.632L149.532 39.0332H149.987L149.887 42.936Z" fill="white"/>
</svg>
