<svg width="158" height="39" viewBox="0 0 158 39" fill="none" xmlns="http://www.w3.org/2000/svg">
<g clip-path="url(#clip0_7476_22900)">
<path d="M27.2163 37.25C29.429 37.25 31.2227 35.4591 31.2227 33.25C31.2227 31.0409 29.429 29.25 27.2163 29.25C25.0037 29.25 23.21 31.0409 23.21 33.25C23.21 35.4591 25.0037 37.25 27.2163 37.25Z" fill="#C0C0C0"/>
<path d="M2.00517 10.4627C13.0659 0.546653 24.1218 -1.31271 33.4909 0.751722C42.6495 2.76977 49.8525 8.45195 53.7519 13.1069C54.9053 14.4838 54.7222 16.5336 53.3433 17.6851C51.9643 18.8365 49.9113 18.6537 48.758 17.2769C45.5589 13.4578 39.536 8.7401 32.0877 7.0989C25.5294 5.6538 17.5796 6.52138 9.03051 13.075L11.5832 15.5713C14.4812 13.352 18.4898 11.3141 23.2409 10.7063C29.6969 9.88047 37.133 11.7495 44.5042 18.5891C45.1632 19.2005 45.5393 20.057 45.5436 20.9551C45.5476 21.8531 45.1793 22.7127 44.526 23.3301L37.8013 29.6857C36.532 30.8852 34.5408 30.87 33.2901 29.6515C31.9537 28.35 29.8271 27.0193 27.4616 26.8328C25.316 26.6638 22.3598 27.3837 18.9927 31.351C17.8305 32.7205 15.7764 32.89 14.4048 31.7295C13.0332 30.5692 12.8635 28.5183 14.0258 27.149C18.5044 21.872 23.3941 19.992 27.9736 20.3528C30.8983 20.5833 33.4256 21.7081 35.3844 23.0191L37.3924 21.1216C32.3664 17.4151 27.7943 16.6769 24.0681 17.1536C19.5251 17.7348 15.8278 20.1796 13.8037 22.2664C13.2009 22.8879 12.3748 23.244 11.5083 23.2554C10.6419 23.2668 9.80655 22.9328 9.18751 22.3274L1.90222 15.2027C1.25961 14.5742 0.906065 13.7082 0.925571 12.8103C0.94509 11.9124 1.33589 11.0627 2.00517 10.4627Z" fill="#C0C0C0"/>
<path d="M70.9914 37.25H57.2588V31.2735H70.9914C71.4023 31.2735 71.7544 31.127 72.0478 30.834C72.3413 30.541 72.488 30.1895 72.488 29.7792C72.488 29.3545 72.3413 29.0763 72.0478 28.9443C71.7544 28.8125 71.4023 28.7465 70.9914 28.7465H64.7412C63.6995 28.7465 62.724 28.5487 61.8143 28.1532C60.9046 27.7577 60.1123 27.2232 59.4375 26.5492C58.7624 25.8607 58.2271 25.0625 57.8309 24.1543C57.4493 23.2461 57.2588 22.272 57.2588 21.2319C57.2588 20.1919 57.4493 19.2178 57.8309 18.3096C58.2271 17.4014 58.7624 16.6104 59.4375 15.9365C60.1123 15.2627 60.9046 14.7353 61.8143 14.3545C62.724 13.959 63.6995 13.7612 64.7412 13.7612H76.9116V19.7378H64.7412C64.3305 19.7378 63.9782 19.8843 63.685 20.1772C63.3916 20.4702 63.2448 20.8218 63.2448 21.2319C63.2448 21.6567 63.3916 22.023 63.685 22.3306C63.9782 22.6235 64.3305 22.77 64.7412 22.77H70.9914C72.0185 22.77 72.9868 22.9458 73.8965 23.2974C74.8062 23.6343 75.5985 24.1103 76.2733 24.7256C76.9481 25.3407 77.4837 26.0805 77.8799 26.9447C78.276 27.809 78.4741 28.754 78.4741 29.7792C78.4741 30.8192 78.276 31.7935 77.8799 32.7018C77.4837 33.5953 76.9481 34.3862 76.2733 35.0747C75.5985 35.7485 74.8062 36.2832 73.8965 36.6787C72.9868 37.0595 72.0185 37.25 70.9914 37.25Z" fill="#C0C0C0"/>
<path d="M87.6956 37.25H81.6875V13.7173H83.1401L85.1207 16.0025C86.089 15.1235 87.1823 14.4497 88.3999 13.981C89.6324 13.4976 90.9162 13.2558 92.2513 13.2558C93.6891 13.2558 95.0463 13.5342 96.3226 14.0908C97.5991 14.6328 98.7141 15.3872 99.6679 16.354C100.621 17.3062 101.37 18.4267 101.913 19.7158C102.47 20.9902 102.749 22.3525 102.749 23.8027V37.25H96.7407V23.8027C96.7407 23.1875 96.6235 22.6089 96.3887 22.0669C96.154 21.5103 95.8313 21.0268 95.4204 20.6167C95.0095 20.2065 94.5327 19.8843 93.9898 19.6499C93.447 19.4155 92.8675 19.2983 92.2513 19.2983C91.6203 19.2983 91.0261 19.4155 90.4687 19.6499C89.9111 19.8843 89.4268 20.2065 89.0162 20.6167C88.6053 21.0268 88.2825 21.5103 88.0479 22.0669C87.813 22.6089 87.6956 23.1875 87.6956 23.8027V37.25Z" fill="#C0C0C0"/>
<path d="M116.415 31.4932C116.65 31.5665 116.885 31.6178 117.119 31.647C117.354 31.6615 117.589 31.669 117.824 31.669C118.41 31.669 118.975 31.5885 119.518 31.4273C120.061 31.266 120.567 31.039 121.037 30.746C121.521 30.4385 121.946 30.0723 122.313 29.6475C122.695 29.208 123.003 28.7245 123.237 28.1973L127.639 32.6138C127.081 33.4048 126.436 34.1152 125.702 34.745C124.983 35.375 124.198 35.9097 123.347 36.349C122.511 36.7885 121.623 37.1183 120.684 37.338C119.76 37.5723 118.806 37.6895 117.824 37.6895C116.165 37.6895 114.603 37.3817 113.136 36.7665C111.683 36.1512 110.407 35.2945 109.307 34.1958C108.221 33.0973 107.362 31.7935 106.732 30.2847C106.101 28.7612 105.785 27.0912 105.785 25.275C105.785 23.4145 106.101 21.7153 106.732 20.1772C107.362 18.6391 108.221 17.3281 109.307 16.2442C110.407 15.1602 111.683 14.3179 113.136 13.7173C114.603 13.1167 116.165 12.8164 117.824 12.8164C118.806 12.8164 119.767 12.9336 120.706 13.168C121.645 13.4024 122.533 13.7393 123.369 14.1787C124.22 14.6182 125.013 15.1601 125.746 15.8047C126.48 16.4346 127.125 17.145 127.683 17.936L116.415 31.4932ZM119.496 19.1225C119.217 19.02 118.939 18.9541 118.66 18.9248C118.396 18.8955 118.117 18.8808 117.824 18.8808C117.002 18.8808 116.224 19.0347 115.491 19.3423C114.772 19.6353 114.141 20.06 113.598 20.6167C113.07 21.1733 112.652 21.8472 112.344 22.6382C112.035 23.4145 111.881 24.2934 111.881 25.275C111.881 25.4947 111.889 25.7437 111.903 26.022C111.933 26.3002 111.97 26.586 112.013 26.879C112.072 27.1572 112.138 27.4282 112.211 27.692C112.285 27.9555 112.38 28.19 112.498 28.395L119.496 19.1225Z" fill="#C0C0C0"/>
<path d="M142.539 37.25C141.086 37.25 139.722 36.979 138.445 36.437C137.169 35.8803 136.047 35.126 135.078 34.1738C134.125 33.207 133.369 32.0865 132.812 30.812C132.269 29.5375 131.997 28.1753 131.997 26.725V19.7378H129.07V13.7612H131.997V4.35693H137.983V13.7612H147.095V19.7378H137.983V26.725C137.983 27.355 138.101 27.9483 138.336 28.505C138.57 29.047 138.893 29.523 139.304 29.933C139.715 30.3433 140.199 30.6728 140.756 30.922C141.314 31.1563 141.908 31.2735 142.539 31.2735H147.095V37.25H142.539Z" fill="#C0C0C0"/>
<path d="M157.878 35.0088C157.878 35.5363 157.783 36.0342 157.592 36.503C157.401 36.957 157.137 37.3525 156.8 37.6895C156.462 38.0262 156.066 38.29 155.611 38.4805C155.156 38.6855 154.665 38.788 154.137 38.788C153.623 38.788 153.132 38.6855 152.662 38.4805C152.208 38.29 151.804 38.0262 151.452 37.6895C151.115 37.3525 150.843 36.957 150.638 36.503C150.447 36.0342 150.352 35.5363 150.352 35.0088C150.352 34.496 150.447 34.0127 150.638 33.5585C150.843 33.1045 151.115 32.709 151.452 32.372C151.804 32.0353 152.208 31.7715 152.662 31.581C153.132 31.376 153.623 31.2735 154.137 31.2735C154.665 31.2735 155.156 31.376 155.611 31.581C156.066 31.7715 156.462 32.0353 156.8 32.372C157.137 32.709 157.401 33.1045 157.592 33.5585C157.783 34.0127 157.878 34.496 157.878 35.0088Z" fill="#C0C0C0"/>
</g>
<defs>
<clipPath id="clip0_7476_22900">
<rect width="157" height="39" fill="white" transform="translate(0.924805)"/>
</clipPath>
</defs>
</svg>
