<svg width="22" height="19" viewBox="0 0 22 19" fill="none" xmlns="http://www.w3.org/2000/svg">
<path fill-rule="evenodd" clip-rule="evenodd" d="M0 17.7551C0 17.4899 0.105357 17.2356 0.292893 17.048C0.48043 16.8605 0.734784 16.7551 1 16.7551H21C21.2652 16.7551 21.5196 16.8605 21.7071 17.048C21.8946 17.2356 22 17.4899 22 17.7551C22 18.0203 21.8946 18.2747 21.7071 18.4622C21.5196 18.6498 21.2652 18.7551 21 18.7551H1C0.734784 18.7551 0.48043 18.6498 0.292893 18.4622C0.105357 18.2747 0 18.0203 0 17.7551ZM0 9.75513C0 9.48991 0.105357 9.23556 0.292893 9.04802C0.48043 8.86048 0.734784 8.75513 1 8.75513H21C21.2652 8.75513 21.5196 8.86048 21.7071 9.04802C21.8946 9.23556 22 9.48991 22 9.75513C22 10.0203 21.8946 10.2747 21.7071 10.4622C21.5196 10.6498 21.2652 10.7551 21 10.7551H1C0.734784 10.7551 0.48043 10.6498 0.292893 10.4622C0.105357 10.2747 0 10.0203 0 9.75513ZM0 1.75513C0 1.48991 0.105357 1.23556 0.292893 1.04802C0.48043 0.860484 0.734784 0.755127 1 0.755127H21C21.2652 0.755127 21.5196 0.860484 21.7071 1.04802C21.8946 1.23556 22 1.48991 22 1.75513C22 2.02034 21.8946 2.2747 21.7071 2.46223C21.5196 2.64977 21.2652 2.75513 21 2.75513H1C0.734784 2.75513 0.48043 2.64977 0.292893 2.46223C0.105357 2.2747 0 2.02034 0 1.75513Z" fill="white"/>
</svg>
