<svg width="154" height="56" viewBox="0 0 154 56" fill="none" xmlns="http://www.w3.org/2000/svg">
<g clip-path="url(#clip0_2372_1486)">
<path d="M9.86775 54.5326H0V2.08643H9.86775V35.1587L24.472 17.0811H35.7392L23.0008 32.7064L35.7392 54.5326H24.472L16.6855 40.9044L9.86775 49.733V54.5326Z" fill="white"/>
<path d="M49.483 54.5326H39.6152V2.08643H49.483V54.5326Z" fill="white"/>
<path d="M81.2377 53.0191C81.2377 53.0191 80.8549 53.2948 79.874 53.7618C78.8933 54.2056 77.8766 54.5561 76.824 54.8128C75.7954 55.0931 74.7428 55.2333 73.6663 55.2333C71.2981 55.2333 69.0734 54.8247 66.9922 54.0072C64.911 53.1897 63.0809 52.0336 61.5021 50.5388C59.9473 49.0206 58.7153 47.1872 57.8063 45.0384C56.9211 42.8662 56.4785 40.4372 56.4785 37.7512V17.011H66.2386V37.7512C66.2386 39.0125 66.4301 40.1453 66.8129 41.1496C67.2195 42.1306 67.7576 42.9597 68.4275 43.637C69.0973 44.3142 69.8748 44.8282 70.76 45.1785C71.669 45.5289 72.6378 45.7041 73.6663 45.7041C74.6711 45.7041 75.616 45.4822 76.5012 45.0384C77.4102 44.5712 78.1996 43.964 78.8695 43.2167C79.5391 42.4692 80.0655 41.6284 80.4483 40.6942C80.8309 39.7365 81.0224 38.7555 81.0224 37.7512V17.011H90.8184V54.5326H81.2377V53.0191Z" fill="white"/>
<path d="M136.785 35.439C136.785 38.3819 136.271 41.0677 135.242 43.4969C134.213 45.9259 132.814 48.0163 131.044 49.7681C129.273 51.4963 127.192 52.8392 124.8 53.7969C122.432 54.7545 119.884 55.2333 117.157 55.2333C114.454 55.2333 111.906 54.7428 109.514 53.7618C107.146 52.7809 105.065 51.4147 103.271 49.6629C101.5 47.9112 100.101 45.8325 99.0722 43.4267C98.0436 40.9977 97.5293 38.3352 97.5293 35.439V2.08643H107.361V19.6035C107.887 18.9496 108.521 18.3657 109.263 17.8518C110.028 17.338 110.842 16.9176 111.703 16.5906C112.588 16.2636 113.497 16.0184 114.43 15.8549C115.363 15.668 116.272 15.5746 117.157 15.5746C119.884 15.5746 122.432 16.0768 124.8 17.0811C127.192 18.062 129.273 19.44 131.044 21.2152C132.814 22.9902 134.213 25.0922 135.242 27.5212C136.271 29.9269 136.785 32.5662 136.785 35.439ZM126.917 35.439C126.917 33.9909 126.654 32.6478 126.128 31.4101C125.625 30.1488 124.932 29.0627 124.047 28.1519C123.162 27.241 122.121 26.5286 120.925 26.0148C119.753 25.501 118.497 25.2441 117.157 25.2441C115.817 25.2441 114.55 25.536 113.354 26.1199C112.181 26.6804 111.153 27.4396 110.268 28.3971C109.382 29.3313 108.689 30.4174 108.186 31.6552C107.684 32.8697 107.433 34.131 107.433 35.439C107.433 36.8872 107.684 38.2301 108.186 39.4678C108.689 40.7058 109.382 41.7801 110.268 42.6911C111.153 43.602 112.181 44.3261 113.354 44.8631C114.55 45.3771 115.817 45.6339 117.157 45.6339C118.497 45.6339 119.753 45.3771 120.925 44.8631C122.121 44.3261 123.162 43.602 124.047 42.6911C124.932 41.7801 125.625 40.7058 126.128 39.4678C126.654 38.2301 126.917 36.8872 126.917 35.439Z" fill="white"/>
<path d="M152.106 54.5326H142.238V17.011H152.106V54.5326Z" fill="white"/>
<path d="M147.148 13.2764C150.826 13.2764 153.808 10.3652 153.808 6.77408C153.808 3.18293 150.826 0.271729 147.148 0.271729C143.47 0.271729 140.488 3.18293 140.488 6.77408C140.488 10.3652 143.47 13.2764 147.148 13.2764Z" fill="white"/>
</g>
<defs>
<clipPath id="clip0_2372_1486">
<rect width="154" height="55" fill="white" transform="translate(0 0.271729)"/>
</clipPath>
</defs>
</svg>
