<svg width="374" height="70" viewBox="0 0 374 70" fill="none" xmlns="http://www.w3.org/2000/svg">
<path d="M0 18.7926C0 8.96603 7.98643 1 17.8382 1H54.2901C64.1419 1 72.1283 8.96603 72.1283 18.7926V52.0571C72.1283 61.8837 64.1419 69.8498 54.2901 69.8498H17.8382C7.98643 69.8498 0 61.8837 0 52.0571V18.7926Z" fill="url(#paint0_linear_7223_26695)"/>
<path d="M54.2901 66.7554V69.8498H17.8382V66.7554H54.2901ZM69.026 52.0571V18.7926C69.026 10.675 62.4285 4.09437 54.2901 4.09437H17.8382C9.8269 4.09437 3.3085 10.471 3.10684 18.4134L3.10229 18.7926V52.0571C3.10229 60.1748 9.69978 66.7554 17.8382 66.7554V69.8498C7.98643 69.8498 0 61.8837 0 52.0571V18.7926C0 8.96603 7.98643 1 17.8382 1H54.2901L54.7506 1.00604C64.3896 1.24967 72.1283 9.11961 72.1283 18.7926V52.0571C72.1283 61.7302 64.3896 69.6001 54.7506 69.8437L54.2901 69.8498V66.7554C62.4285 66.7554 69.026 60.1748 69.026 52.0571Z" fill="#25D366"/>
<path d="M50.8204 20.5545C51.4726 20.5545 52.098 20.803 52.5592 21.2452C53.0203 21.6875 53.2794 22.2873 53.2794 22.9127V41.7786C53.2794 42.404 53.0203 43.0039 52.5592 43.4461C52.098 43.8884 51.4726 44.1368 50.8204 44.1368H27.2492C25.945 44.1371 24.6944 44.6342 23.7723 45.5187L18.8545 50.2352V22.9127C18.8545 22.2873 19.1135 21.6875 19.5747 21.2452C20.0358 20.803 20.6613 20.5545 21.3134 20.5545H50.8204ZM21.3134 18.1963C20.0091 18.1963 18.7582 18.6932 17.836 19.5777C16.9137 20.4622 16.3956 21.6619 16.3956 22.9127V53.0816C16.3956 53.3149 16.4678 53.543 16.6031 53.7369C16.7383 53.9308 16.9305 54.0819 17.1554 54.171C17.3802 54.2602 17.6275 54.2833 17.8661 54.2376C18.1046 54.1918 18.3237 54.0792 18.4955 53.914L25.5108 47.186C25.9718 46.7437 26.5971 46.4952 27.2492 46.4951H50.8204C52.1247 46.4951 53.3756 45.9981 54.2979 45.1136C55.2202 44.2291 55.7383 43.0295 55.7383 41.7786V22.9127C55.7383 21.6619 55.2202 20.4622 54.2979 19.5777C53.3756 18.6932 52.1247 18.1963 50.8204 18.1963H21.3134Z" fill="#25D366"/>
<path d="M27.249 45.7279L27.0908 45.7317C26.3001 45.7694 25.5451 46.0874 24.9754 46.6339L17.9603 53.3623C17.898 53.4222 17.8141 53.4663 17.7199 53.4844C17.6257 53.5025 17.5284 53.4927 17.4412 53.4582C17.3543 53.4237 17.2841 53.3675 17.237 53.3001C17.1903 53.233 17.1671 53.157 17.167 53.082V22.9127C17.167 21.8746 17.597 20.8733 18.3716 20.1303C19.1472 19.3865 20.2048 18.9636 21.3134 18.9636H50.8204C51.929 18.9636 52.9866 19.3865 53.7623 20.1303C54.5369 20.8733 54.9668 21.8746 54.9669 22.9127V41.7789C54.9668 42.817 54.5369 43.8183 53.7623 44.5612C52.9866 45.3051 51.929 45.7279 50.8204 45.7279V46.4953L51.0645 46.4893C52.2799 46.4314 53.4333 45.9427 54.2979 45.1135C55.1624 44.2843 55.6719 43.1783 55.7323 42.0127L55.7383 41.7789V22.9127C55.7382 21.74 55.2827 20.6126 54.4659 19.7474L54.2979 19.5781C53.3756 18.6936 52.1247 18.1963 50.8204 18.1963H21.3134C20.0091 18.1963 18.7582 18.6936 17.836 19.5781C16.9138 20.4625 16.3956 21.6619 16.3956 22.9127V53.082L16.3986 53.1689C16.4142 53.3715 16.4845 53.5673 16.6027 53.7369L16.6562 53.8081C16.7867 53.9681 16.959 54.0936 17.1557 54.1716L17.2408 54.2015C17.442 54.265 17.6574 54.2775 17.8661 54.2375C18.1045 54.1918 18.3234 54.0796 18.4951 53.9145L25.511 47.1862C25.972 46.744 26.5971 46.4955 27.249 46.4953H50.8204V45.7279H27.249ZM18.8545 22.9127C18.8545 22.3264 19.082 21.7626 19.4903 21.33L19.5747 21.2454C20.0358 20.8031 20.6613 20.5545 21.3134 20.5545V19.7871C20.4656 19.7871 19.6468 20.1102 19.0391 20.6931C18.4305 21.2769 18.0831 22.0746 18.0831 22.9127V52.0412L24.3079 46.0711C25.0348 45.3739 26.0096 44.9591 27.0418 44.9097L27.2498 44.9044H50.8204C51.6683 44.9044 52.487 44.5814 53.0948 43.9985C53.7034 43.4147 54.0508 42.6169 54.0508 41.7789V22.9127C54.0508 22.0746 53.7034 21.2769 53.0948 20.6931C52.487 20.1102 51.6683 19.7871 50.8204 19.7871V20.5545C51.4726 20.5545 52.098 20.8031 52.5592 21.2454L52.6435 21.33C53.0518 21.7626 53.2793 22.3264 53.2794 22.9127V41.7789L53.2763 41.8958C53.2462 42.4786 52.9914 43.0316 52.5592 43.4462C52.1269 43.8608 51.5502 44.1052 50.9425 44.1341L50.8204 44.1371H27.249C25.9449 44.1374 24.6943 44.6344 23.7723 45.5189L18.8545 50.2353V22.9127ZM21.3134 19.7871V20.5545H50.8204V19.7871H21.3134Z" fill="#25D366"/>
<path d="M351.999 29.2357C353.53 29.2357 354.893 29.5346 356.089 30.1326C357.309 30.7305 358.265 31.6513 358.959 32.895C359.652 34.1148 359.999 35.6933 359.999 37.6306V48.6086H355.515V38.2046C355.515 36.5065 355.108 35.2389 354.295 34.4018C353.506 33.5647 352.394 33.1461 350.959 33.1461C349.906 33.1461 348.974 33.3614 348.16 33.7919C347.347 34.2224 346.713 34.8682 346.259 35.7292C345.829 36.5663 345.613 37.6306 345.613 38.9221V48.6086H341.129V21.9888H345.613V34.617L344.645 33.0385C345.314 31.8187 346.283 30.886 347.551 30.2402C348.842 29.5705 350.325 29.2357 351.999 29.2357Z" fill="white"/>
<path d="M315.057 42.9044V39.6756L327.434 23.4956H332.42L320.223 39.6756L317.891 38.9581H337.801V42.9044H315.057ZM328.833 48.6086V42.9044L328.976 38.9581V33.8996H333.353V48.6086H328.833Z" fill="white"/>
<path d="M294.742 48.6105V45.4893L304.715 36.0181C305.552 35.2288 306.174 34.5352 306.581 33.9373C306.987 33.3393 307.25 32.7892 307.37 32.287C307.514 31.7608 307.585 31.2705 307.585 30.8161C307.585 29.6681 307.191 28.7831 306.401 28.1613C305.612 27.5155 304.452 27.1926 302.922 27.1926C301.702 27.1926 300.59 27.4079 299.585 27.8384C298.605 28.2689 297.756 28.9266 297.038 29.8116L293.773 27.3003C294.754 25.9848 296.069 24.9683 297.72 24.2508C299.394 23.5094 301.259 23.1387 303.316 23.1387C305.134 23.1387 306.712 23.4376 308.052 24.0356C309.415 24.6096 310.455 25.4347 311.173 26.511C311.914 27.5873 312.285 28.8668 312.285 30.3497C312.285 31.1629 312.177 31.9761 311.962 32.7892C311.747 33.5785 311.34 34.4156 310.742 35.3005C310.144 36.1855 309.271 37.178 308.123 38.2782L299.549 46.422L298.581 44.6641H313.254V48.6105H294.742Z" fill="white"/>
<path d="M273.2 48.8608C271.072 48.8608 269.206 48.4423 267.604 47.6052C266.025 46.7442 264.794 45.5722 263.909 44.0894C263.048 42.6065 262.617 40.9204 262.617 39.0309C262.617 37.1175 263.036 35.4314 263.873 33.9724C264.734 32.4896 265.906 31.3296 267.389 30.4925C268.895 29.6554 270.605 29.2368 272.519 29.2368C274.384 29.2368 276.046 29.6434 277.505 30.4566C278.964 31.2698 280.112 32.4178 280.949 33.9007C281.786 35.3835 282.205 37.1295 282.205 39.1385C282.205 39.3299 282.193 39.5451 282.169 39.7843C282.169 40.0235 282.157 40.2507 282.133 40.4659H266.169V37.4882H279.765L278.008 38.421C278.031 37.3208 277.804 36.3522 277.326 35.5151C276.848 34.678 276.19 34.0203 275.353 33.5419C274.54 33.0636 273.595 32.8244 272.519 32.8244C271.419 32.8244 270.45 33.0636 269.613 33.5419C268.8 34.0203 268.154 34.6899 267.676 35.5509C267.221 36.388 266.994 37.3806 266.994 38.5286V39.2462C266.994 40.3942 267.257 41.4107 267.783 42.2956C268.309 43.1805 269.051 43.8622 270.007 44.3405C270.964 44.8188 272.064 45.058 273.308 45.058C274.384 45.058 275.353 44.8906 276.214 44.5558C277.075 44.2209 277.84 43.6947 278.51 42.9772L280.913 45.7397C280.052 46.7442 278.964 47.5215 277.649 48.0716C276.357 48.5978 274.874 48.8608 273.2 48.8608Z" fill="white"/>
<path d="M256.832 48.8599C254.728 48.8599 253.101 48.3218 251.953 47.2455C250.805 46.1453 250.231 44.5309 250.231 42.4023V25.2178H254.716V42.2946C254.716 43.2035 254.943 43.909 255.397 44.4113C255.876 44.9136 256.533 45.1647 257.37 45.1647C258.375 45.1647 259.212 44.9016 259.882 44.3754L261.137 47.5684C260.611 47.9989 259.965 48.3218 259.2 48.537C258.435 48.7523 257.645 48.8599 256.832 48.8599ZM247.074 33.1822V29.5946H259.846V33.1822H247.074Z" fill="white"/>
<path d="M235.933 29.2368C237.463 29.2368 238.827 29.5358 240.022 30.1337C241.242 30.7316 242.199 31.6525 242.892 32.8961C243.586 34.1159 243.933 35.6945 243.933 37.6317V48.6097H239.448V38.2058C239.448 36.5076 239.042 35.24 238.229 34.4029C237.439 33.5658 236.327 33.1473 234.892 33.1473C233.84 33.1473 232.907 33.3625 232.094 33.793C231.281 34.2235 230.647 34.8693 230.193 35.7303C229.762 36.5674 229.547 37.6317 229.547 38.9233V48.6097H225.062V29.4521H229.332V34.6182L228.578 33.0396C229.248 31.8199 230.217 30.8871 231.484 30.2413C232.776 29.5717 234.258 29.2368 235.933 29.2368Z" fill="white"/>
<path d="M211.749 48.8608C209.621 48.8608 207.755 48.4423 206.153 47.6052C204.574 46.7442 203.342 45.5722 202.458 44.0894C201.597 42.6065 201.166 40.9204 201.166 39.0309C201.166 37.1175 201.585 35.4314 202.422 33.9724C203.283 32.4896 204.455 31.3296 205.937 30.4925C207.444 29.6554 209.154 29.2368 211.068 29.2368C212.933 29.2368 214.595 29.6434 216.054 30.4566C217.513 31.2698 218.661 32.4178 219.498 33.9007C220.335 35.3835 220.754 37.1295 220.754 39.1385C220.754 39.3299 220.742 39.5451 220.718 39.7843C220.718 40.0235 220.706 40.2507 220.682 40.4659H204.718V37.4882H218.314L216.556 38.421C216.58 37.3208 216.353 36.3522 215.875 35.5151C215.396 34.678 214.739 34.0203 213.902 33.5419C213.088 33.0636 212.144 32.8244 211.068 32.8244C209.967 32.8244 208.999 33.0636 208.162 33.5419C207.348 34.0203 206.703 34.6899 206.224 35.5509C205.77 36.388 205.543 37.3806 205.543 38.5286V39.2462C205.543 40.3942 205.806 41.4107 206.332 42.2956C206.858 43.1805 207.6 43.8622 208.556 44.3405C209.513 44.8188 210.613 45.058 211.857 45.058C212.933 45.058 213.902 44.8906 214.763 44.5558C215.624 44.2209 216.389 43.6947 217.059 42.9772L219.462 45.7397C218.601 46.7442 217.513 47.5215 216.198 48.0716C214.906 48.5978 213.423 48.8608 211.749 48.8608Z" fill="white"/>
<path d="M186.225 48.8597C184.384 48.8597 182.722 48.4531 181.239 47.6399C179.78 46.8028 178.632 45.6548 177.795 44.1959C176.958 42.7369 176.539 41.0149 176.539 39.0297C176.539 37.0446 176.958 35.3226 177.795 33.8636C178.632 32.4047 179.78 31.2686 181.239 30.4554C182.722 29.6423 184.384 29.2357 186.225 29.2357C187.828 29.2357 189.263 29.5944 190.53 30.3119C191.798 31.0055 192.802 32.0699 193.544 33.5049C194.285 34.9399 194.656 36.7815 194.656 39.0297C194.656 41.254 194.297 43.0957 193.58 44.5546C192.862 45.9896 191.87 47.0659 190.602 47.7834C189.334 48.5009 187.876 48.8597 186.225 48.8597ZM186.763 45.021C187.84 45.021 188.796 44.7818 189.633 44.3035C190.494 43.8251 191.176 43.1315 191.678 42.2227C192.204 41.3138 192.468 40.2495 192.468 39.0297C192.468 37.7861 192.204 36.7217 191.678 35.8368C191.176 34.928 190.494 34.2344 189.633 33.756C188.796 33.2777 187.84 33.0385 186.763 33.0385C185.687 33.0385 184.719 33.2777 183.858 33.756C183.02 34.2344 182.339 34.928 181.813 35.8368C181.31 36.7217 181.059 37.7861 181.059 39.0297C181.059 40.2495 181.31 41.3138 181.813 42.2227C182.339 43.1315 183.02 43.8251 183.858 44.3035C184.719 44.7818 185.687 45.021 186.763 45.021ZM192.575 48.6086V44.0882L192.755 38.9939L192.396 33.8995V21.9888H196.844V48.6086H192.575Z" fill="white"/>
<path d="M164.394 29.2368C165.924 29.2368 167.287 29.5358 168.483 30.1337C169.703 30.7316 170.66 31.6525 171.353 32.8961C172.047 34.1159 172.394 35.6945 172.394 37.6317V48.6097H167.909V38.2058C167.909 36.5076 167.503 35.24 166.69 34.4029C165.9 33.5658 164.788 33.1473 163.353 33.1473C162.301 33.1473 161.368 33.3625 160.555 33.793C159.742 34.2235 159.108 34.8693 158.654 35.7303C158.223 36.5674 158.008 37.6317 158.008 38.9233V48.6097H153.523V29.4521H157.793V34.6182L157.039 33.0396C157.709 31.8199 158.677 30.8871 159.945 30.2413C161.237 29.5717 162.719 29.2368 164.394 29.2368Z" fill="white"/>
<path d="M140.208 48.8608C138.08 48.8608 136.214 48.4423 134.612 47.6052C133.033 46.7442 131.801 45.5722 130.917 44.0894C130.056 42.6065 129.625 40.9204 129.625 39.0309C129.625 37.1175 130.044 35.4314 130.881 33.9724C131.742 32.4896 132.914 31.3296 134.396 30.4925C135.903 29.6554 137.613 29.2368 139.527 29.2368C141.392 29.2368 143.054 29.6434 144.513 30.4566C145.972 31.2698 147.12 32.4178 147.957 33.9007C148.794 35.3835 149.213 37.1295 149.213 39.1385C149.213 39.3299 149.201 39.5451 149.177 39.7843C149.177 40.0235 149.165 40.2507 149.141 40.4659H133.177V37.4882H146.773L145.015 38.421C145.039 37.3208 144.812 36.3522 144.334 35.5151C143.855 34.678 143.198 34.0203 142.361 33.5419C141.547 33.0636 140.603 32.8244 139.527 32.8244C138.426 32.8244 137.458 33.0636 136.621 33.5419C135.807 34.0203 135.162 34.6899 134.683 35.5509C134.229 36.388 134.002 37.3806 134.002 38.5286V39.2462C134.002 40.3942 134.265 41.4107 134.791 42.2956C135.317 43.1805 136.059 43.8622 137.015 44.3405C137.972 44.8188 139.072 45.058 140.316 45.058C141.392 45.058 142.361 44.8906 143.222 44.5558C144.083 44.2209 144.848 43.6947 145.518 42.9772L147.921 45.7397C147.06 46.7442 145.972 47.5215 144.657 48.0716C143.365 48.5978 141.882 48.8608 140.208 48.8608Z" fill="white"/>
<path d="M123.838 48.8599C121.733 48.8599 120.107 48.3218 118.959 47.2455C117.811 46.1453 117.237 44.5309 117.237 42.4023V25.2178H121.721V42.2946C121.721 43.2035 121.949 43.909 122.403 44.4113C122.881 44.9136 123.539 45.1647 124.376 45.1647C125.381 45.1647 126.218 44.9016 126.887 44.3754L128.143 47.5684C127.617 47.9989 126.971 48.3218 126.206 48.537C125.441 48.7523 124.651 48.8599 123.838 48.8599ZM114.08 33.1822V29.5946H126.852V33.1822H114.08Z" fill="white"/>
<path d="M86.8105 48.6086L98.1112 23.4956H102.703L114.04 48.6086H109.161L99.4386 25.971H101.304L91.6178 48.6086H86.8105ZM92.0124 42.7968L93.2681 39.1374H106.829L108.084 42.7968H92.0124Z" fill="white"/>
<defs>
<linearGradient id="paint0_linear_7223_26695" x1="-16.287" y1="-9.4435" x2="35.8776" y2="69.9723" gradientUnits="userSpaceOnUse">
<stop stop-color="#25D366"/>
<stop offset="1" stop-color="#020202"/>
</linearGradient>
</defs>
</svg>
