<svg width="196" height="145" viewBox="0 0 196 145" fill="none" xmlns="http://www.w3.org/2000/svg">
<path d="M0 144.94L68.45 47.8601L98.84 79.5401L130.26 47.8601L195.87 144.63L129.32 109.89L99.63 141.14L68.08 109.59L0 144.94ZM70.06 96.7401L99.44 126.12L127.16 96.9401L163.84 116.09L128.74 64.3101L98.72 94.5701L69.69 64.3101L33.4 115.78L70.06 96.7401Z" fill="white"/>
<path d="M71.4609 41.5399L80.7109 50.7999L90.5309 13.4099L71.4609 41.5399Z" fill="white"/>
<path d="M126.791 42.39L117.541 51.65L107.721 14.26L126.791 42.39Z" fill="white"/>
<path d="M99.2205 0L85.0605 56.08L99.0005 70.02L112.691 56.33L99.2205 0Z" fill="white"/>
</svg>
