<?xml version="1.0" encoding="UTF-8"?>
<svg id="uuid-8102570a-d6fd-4ca7-bfbb-771fa982e71d" data-name="Camada 1" xmlns="http://www.w3.org/2000/svg" viewBox="0 0 1060.4 280.07">
  <defs>
    <style>
      .uuid-f64a9989-7547-44a3-bb29-d308406d7e01 {
        fill: #5d2e9a;
        stroke-width: 0px;
      }
    </style>
  </defs>
  <path class="uuid-f64a9989-7547-44a3-bb29-d308406d7e01" d="M0,280.07L132.27,92.48l58.73,61.22,60.71-61.21,126.78,187-128.6-67.13-57.36,60.38-60.97-60.97L0,280.07ZM135.38,186.94l56.76,56.76,53.56-56.39,70.88,37-67.83-100.06-58,58.48-56.09-58.47-70.13,99.46,70.85-36.79Z"/>
  <polygon class="uuid-f64a9989-7547-44a3-bb29-d308406d7e01" points="138.08 80.28 155.96 98.16 174.94 25.91 138.08 80.28"/>
  <polygon class="uuid-f64a9989-7547-44a3-bb29-d308406d7e01" points="245 81.92 227.12 99.8 208.14 27.55 245 81.92"/>
  <polygon class="uuid-f64a9989-7547-44a3-bb29-d308406d7e01" points="191.72 0 164.36 108.37 191.29 135.3 217.74 108.85 191.72 0"/>
  <polygon class="uuid-f64a9989-7547-44a3-bb29-d308406d7e01" points="371.49 209.81 371.49 116.07 405.74 116.07 430.24 162.94 456.24 116.07 489.23 116.07 489.23 209.81 463.23 209.81 463.23 162.94 438.74 209.81 423.24 209.81 398.24 162.94 398.24 209.81 371.49 209.81"/>
  <path class="uuid-f64a9989-7547-44a3-bb29-d308406d7e01" d="M633.82,173.92v-14.56h43.3v50.71h-13.14v-13.62c-1.54,2.01-4.05,4.81-7.78,7.28-7.68,5.08-15.54,5.44-21.16,5.63-8.05.28-20.7.71-31.2-7.75-8.49-6.84-11.22-15.99-12.58-20.53-1.89-6.32-1.87-11.18-1.84-17.15.05-11.13.1-21.14,6.75-30.64,1.69-2.41,5.78-7.61,12.83-11.4,6.65-3.57,12.78-4.2,19.63-4.9,5.14-.53,9.75-1,15.64-.04,4.01.65,14.18,2.3,22.51,10.53,9.33,9.23,10.21,20.68,10.34,23.89h-26.76c-.64-.75-1.65-1.79-3.06-2.8-6.47-4.65-14.27-3.6-16.46-3.3-3.74.5-9.37,1.26-12.77,5.63-2.34,3.01-2.5,6.29-2.74,10.56-.18,3.28-.4,8.66,2.99,13.6.58.84,1.61,2.32,3.45,3.67,3.43,2.52,6.95,2.59,13.45,2.63,7.09.04,10.7.01,14.05-2.47,2.1-1.56,3.34-3.47,4.05-4.83-6.5-.05-13-.1-19.5-.15Z"/>
  <path class="uuid-f64a9989-7547-44a3-bb29-d308406d7e01" d="M809.81,210.07v-93.48h54.98c1.45.16,10.02,1.28,15.81,9.11,5.25,7.11,4.57,14.81,4.38,16.5h-50.84v11.08h50.84v21.43h-50.6v11.82h50.6v23.52h-75.17Z"/>
  <path class="uuid-f64a9989-7547-44a3-bb29-d308406d7e01" d="M892.76,116.07v30.22h30.16v63.78h24.81v-64.03h29.92c.22-1.7,1.33-11.61-5.6-20.31-6.39-8.04-15.14-9.41-17.03-9.66h-62.27Z"/>
  <path class="uuid-f64a9989-7547-44a3-bb29-d308406d7e01" d="M1037.53,150.5c-1.66-4.53-6.24-15.16-17.21-23.76-10.23-8.02-20.64-10.05-25.36-10.67l-35.03,94h29.68l5.84-16.22h29.68l6.08,16.22h29.19l-22.87-59.57ZM1001.53,171.31l8.64-26.01,9.12,26.01h-17.76Z"/>
  <path class="uuid-f64a9989-7547-44a3-bb29-d308406d7e01" d="M572.79,150.5c-1.69-4.53-6.35-15.16-17.52-23.76-10.42-8.02-21.01-10.05-25.83-10.67l-35.67,94h30.22l5.94-16.22h30.22l6.19,16.22h29.72l-23.28-59.57ZM536.13,171.31l8.79-26.01,9.29,26.01h-18.08Z"/>
  <polygon class="uuid-f64a9989-7547-44a3-bb29-d308406d7e01" points="684.37 210.07 684.37 116.07 718.62 116.07 743.12 163.07 769.12 116.07 802.11 116.07 802.11 210.07 776.11 210.07 776.11 163.07 751.62 210.07 736.12 210.07 711.12 163.07 711.12 210.07 684.37 210.07"/>
</svg>