<svg width="54" height="42" viewBox="0 0 54 42" fill="none" xmlns="http://www.w3.org/2000/svg">
<path d="M17.2259 20.1998L23.9739 26.7877L24.2168 27.0249L26.812 29.5572L29.4072 27.0249L34.5604 21.9918L36.3896 20.2055L42.1915 29.6344L42.4688 30.086L38.7875 27.8824L36.3038 26.3962L34.2545 28.4397L26.8149 35.8623L19.378 28.4397L17.3316 26.3962L14.8479 27.8795L11.1209 30.106L17.223 20.2026M37.1184 14.2977C33.6829 17.6532 30.2446 21.0086 26.8091 24.364C23.3708 21.0086 19.9325 17.6532 16.497 14.2977C10.998 23.2208 5.49902 32.1467 0 41.0697L16.7543 31.0635L26.8149 41.1069L36.8783 31.0635L53.5926 41.0697C48.1021 32.1467 42.6117 23.2208 37.1184 14.2977Z" fill="#fff"/>
<path d="M23.4595 17.6474L26.8178 1.10749L30.1761 17.6531L26.8178 21.0029L23.4595 17.6503V17.6474ZM17.8748 12.0627L21.2416 15.4295L24.7571 0.893127L17.8748 12.0627ZM28.8528 0.893127L32.3683 15.4295L35.7351 12.0627L28.8528 0.893127Z" fill="#fff"/>
</svg>
