<svg width="77" height="39" viewBox="0 0 77 39" fill="none" xmlns="http://www.w3.org/2000/svg">
<path fill-rule="evenodd" clip-rule="evenodd" d="M44.2751 35.8289L44.5739 36.467C44.5854 36.4919 44.6033 36.5132 44.6258 36.529C44.6489 36.5448 44.6758 36.5546 44.704 36.557L45.4355 36.63L44.8886 37.0972C44.8675 37.1148 44.8527 37.1379 44.8438 37.1635C44.8348 37.189 44.8335 37.2158 44.8393 37.2425L44.9919 37.925L44.3552 37.5765C44.3309 37.5625 44.3033 37.5558 44.2751 37.5558C44.2469 37.5558 44.2187 37.5625 44.1943 37.5765L43.5577 37.925L43.7109 37.2425C43.7167 37.2158 43.7154 37.189 43.7064 37.1635C43.6974 37.1373 43.682 37.1148 43.6609 37.0972L43.114 36.63L43.8455 36.557C43.8737 36.554 43.9007 36.5448 43.9238 36.529C43.9462 36.5132 43.9641 36.4919 43.9757 36.467L44.2751 35.8289Z" fill="#C0C0C0"/>
<path d="M21.7866 32.4776H23.6709C24.4428 32.4776 25.0737 31.8772 25.0737 31.1199C25.0737 30.7659 24.8941 30.4197 24.5819 30.2172C24.882 30.0219 25.007 29.6685 25.0211 29.3261C25.041 28.5304 24.5152 27.9568 23.6709 27.9568H21.7866V32.477V32.4776ZM22.7464 28.8595H23.5907C23.8626 28.8595 24.0299 29.0621 24.0299 29.3145C24.0299 29.5669 23.8626 29.7677 23.5907 29.7677H22.7464V28.8595ZM22.7464 30.6722H23.5907C23.8626 30.6722 24.0703 30.8674 24.0703 31.1199C24.0703 31.3723 23.8626 31.5749 23.5907 31.5749H22.7464V30.6722Z" fill="#C0C0C0"/>
<path d="M25.4923 32.4772H26.5707L26.756 31.9918H28.3338L28.5274 32.4772H29.5975L27.5939 27.7983H27.4952L25.4917 32.4772H25.4923ZM27.1028 31.1445L27.5484 29.9705L27.9818 31.1445H27.1028Z" fill="#C0C0C0"/>
<path d="M32.6305 32.4775H33.7089L32.6023 30.6149C34.0012 30.2305 33.8339 27.9628 32.1368 27.9628H30.2603V32.4775H31.2117V30.7548H31.6714L32.6305 32.4775ZM31.2117 29.8765V28.8649H32.0503C32.6972 28.8649 32.6972 29.8765 32.0503 29.8765H31.2117Z" fill="#C0C0C0"/>
<path d="M34.3364 32.4776H36.2207C36.9926 32.4776 37.6235 31.8772 37.6235 31.1199C37.6235 30.7659 37.444 30.4197 37.1317 30.2172C37.4318 30.0219 37.5568 29.6685 37.5709 29.3261C37.5908 28.5304 37.065 27.9568 36.2207 27.9568H34.3364V32.477V32.4776ZM35.2955 28.8595H36.1399C36.4117 28.8595 36.5791 29.0621 36.5791 29.3145C36.5791 29.5669 36.4117 29.7677 36.1399 29.7677H35.2955V28.8595ZM35.2955 30.6722H36.1399C36.4117 30.6722 36.6195 30.8674 36.6195 31.1199C36.6195 31.3723 36.4117 31.5749 36.1399 31.5749H35.2955V30.6722Z" fill="#C0C0C0"/>
<path d="M40.93 32.4771V31.5744H39.4182V30.6717H40.6697V29.7672H39.4182V28.8645H40.8492V27.9619H38.4668V32.4765H40.9294L40.93 32.4771Z" fill="#C0C0C0"/>
<path d="M41.3949 32.4772H42.4733L42.6586 31.9918H44.2364L44.43 32.4772H45.5L43.4965 27.7983H43.3978L41.3943 32.4772H41.3949ZM43.0048 31.1445L43.4504 29.9705L43.8838 31.1445H43.0048Z" fill="#C0C0C0"/>
<path d="M48.5331 32.4775H49.6114L48.5049 30.6149C49.9038 30.2305 49.7365 27.9628 48.0394 27.9628H46.1628V32.4775H47.1143V30.7548H47.574L48.5331 32.4775ZM47.1143 29.8765V28.8649H47.9529C48.5998 28.8649 48.5998 29.8765 47.9529 29.8765H47.1143Z" fill="#C0C0C0"/>
<path d="M51.1904 32.4775V27.9628H50.239V32.4775H51.1904Z" fill="#C0C0C0"/>
<path d="M51.8371 32.4772H52.9154L53.1007 31.9918H54.6785L54.8721 32.4772H55.9422L53.9387 27.7983H53.8399L51.8364 32.4772H51.8371ZM53.4469 31.1445L53.8925 29.9705L54.3259 31.1445H53.4469Z" fill="#C0C0C0"/>
<path d="M25.1379 15.4424C24.8853 14.7246 24.65 14.0568 24.3827 13.297C22.2875 15.9528 21.1155 18.8524 20.5731 22.1627C19.1299 20.7971 18.1022 19.2545 16.9347 17.5501C16.8623 18.1353 16.7501 18.558 16.768 18.9765C16.8328 20.4668 16.9418 21.9559 17.0341 23.445C17.0373 23.4924 17.0405 23.5399 17.0444 23.5873C17.1598 25.0204 16.7328 25.3197 15.3108 24.7741C14.7799 24.5703 14.233 24.372 13.7592 24.0764C12.7578 23.4517 12.3789 22.5106 12.3968 21.392C12.4706 16.8567 13.2027 12.4284 15.012 8.21604C15.6095 6.8243 16.5218 5.55299 17.3053 4.23485C17.4124 4.0548 17.5912 3.9009 17.7675 3.77377C18.2247 3.44469 18.5286 3.54749 18.5548 4.08825C18.6331 5.67647 18.5702 7.27565 18.7369 8.85414C18.9485 10.8523 19.3319 12.8335 19.6537 14.9047C20.7404 12.6589 21.6617 10.5421 22.7728 8.51897C23.8973 6.4715 25.4527 4.69228 27.2664 2.86804C27.2664 3.23788 27.2889 3.45503 27.2632 3.66671C26.9228 6.48427 27.2805 9.24039 28.0787 11.9551C28.423 13.1261 28.4006 13.0738 27.3305 13.7289C26.6497 14.1456 26.0874 14.7368 25.4674 15.2441C25.3681 15.3256 25.243 15.3804 25.1385 15.4424H25.1379Z" fill="#C0C0C0"/>
<path d="M62.1894 10.922C62.1259 12.0808 62.0656 13.183 62.0028 14.3266C60.6148 14.5334 59.2351 14.6952 58.1496 15.8953C59.0132 15.7067 59.7332 15.5352 60.4602 15.3935C63.9967 14.7031 66.7048 17.8631 66.1919 20.6965C65.8585 22.5383 64.4692 23.7312 62.6272 24.3084C61.5034 24.6606 60.3012 24.7902 59.1325 25.014C58.5997 25.1156 58.2028 24.8954 57.9355 24.4794C57.2976 23.4873 56.9437 22.438 57.2578 21.2178C58.8299 21.5724 60.2827 21.4422 61.6021 20.5852C62.1278 20.2433 62.7099 19.8467 62.4503 19.1593C62.206 18.5133 61.5764 18.1618 60.8507 18.1855C60.1602 18.208 59.4761 18.3704 58.7876 18.4623C58.022 18.5644 57.6028 18.6234 57.0758 18.5401C56.3526 18.4258 55.8121 18.1082 55.4838 17.8728L53.279 24.0694C53.279 24.0694 52.904 24.4301 52.845 24.4264C51.3589 24.334 49.9683 24.6095 48.6398 25.396C48.0789 24.1047 47.541 22.8911 47.0338 21.6655C46.98 21.5359 47.0505 21.2774 47.1614 21.1819C48.0282 20.4367 48.9194 19.7165 49.8317 18.9647C50.149 19.6928 50.4792 20.4489 50.8639 21.3315C51.6653 18.8254 52.4289 16.4361 53.1854 14.0693C53.2624 14.0315 53.3111 13.9859 53.3489 13.9926C53.6214 14.0425 53.8644 13.8697 54.694 13.961C55.0427 13.9993 55.4569 14.0534 55.455 14.0534C55.4614 14.0431 55.9839 13.1775 56.1224 12.9658C56.7481 12.0102 57.9387 11.5808 58.6837 11.3119C60.1256 10.7912 61.4309 10.835 62.1919 10.9232L62.1894 10.922Z" fill="#C0C0C0"/>
<path d="M31.1035 8.0694C34.1809 8.85286 36.5222 10.3237 38.2719 12.5968C40.0112 14.8566 40.8178 17.3962 40.4805 20.2721C40.8588 20.2721 41.1486 20.2514 41.4332 20.2764C42.0513 20.3299 42.695 20.3214 43.2778 20.4917C44.6658 20.8968 44.8049 21.2101 44.3568 22.5009C43.9695 23.6171 43.5688 24.729 43.1739 25.844C41.2565 25.1676 39.1085 25.0329 36.73 25.4401C37.0133 24.3689 37.3333 23.2928 37.5801 22.201C38.1103 19.8554 37.8064 17.6334 36.3235 15.6358C35.1278 14.0251 33.3474 13.3243 31.4112 12.8882C31.2221 12.8456 31.0349 12.7963 30.7739 12.7331C31.3003 11.2513 31.7215 9.79691 31.1035 8.07001V8.0694Z" fill="#C0C0C0"/>
<path d="M31.6604 19.4516C30.9718 18.3932 30.3307 18.1006 29.2356 18.3257C28.2413 18.5301 27.3751 19.5094 27.2911 20.5246C27.2052 21.5618 27.8489 22.5642 28.8631 22.9724C30.2069 23.5131 31.2347 23.1366 31.9117 21.9012C32.0168 21.709 32.2861 21.5307 32.5124 21.4796C32.9458 21.3817 33.4029 21.3744 33.8511 21.3397C34.2948 21.3051 34.739 21.2832 35.2532 21.2515C35.3193 23.0393 34.5967 24.4578 33.0901 25.3976C30.9141 26.7553 27.4193 26.3045 25.9524 24.5296C24.8382 23.181 24.6439 21.6451 24.9055 20.0295C25.2568 17.8622 26.9526 15.6943 29.587 15.2454C31.8918 14.8524 34.5256 16.2101 35.3321 18.462C34.1018 18.7935 32.8766 19.1238 31.6597 19.4516H31.6604Z" fill="#C0C0C0"/>
<path d="M48.9606 15.3609C48.9568 17.5033 47.5098 19.0106 45.4575 19.0094C43.4175 19.0082 42.0102 17.4929 42.0198 15.3086C42.0288 13.3238 43.4431 12.0324 45.6005 12.0391C47.6059 12.0452 48.9638 13.3883 48.96 15.3609H48.9606ZM45.8364 14.4588C45.0453 14.4765 44.2734 15.2429 44.2817 16.0032C44.29 16.7758 45.0632 17.4802 45.8832 17.4625C46.7103 17.4443 47.4739 16.707 47.4431 15.9558C47.4123 15.1967 46.6019 14.4418 45.8364 14.4588Z" fill="#C0C0C0"/>
<path d="M18.6579 32.5527C17.8353 33.4889 16.4838 33.3331 15.592 32.5789C14.5842 31.8033 14.5194 30.4742 14.9009 29.3854C15.1362 28.6311 15.6574 27.9736 16.2825 27.4693C16.4473 27.3355 16.6191 27.2108 16.7967 27.0971C16.2293 27.3033 15.6766 27.535 15.1503 27.8002C14.0289 28.3459 12.9685 28.9049 11.9408 29.608C11.526 29.8854 10.9983 30.1062 10.5367 30.3033C9.68661 30.6664 8.91983 30.9353 7.9575 30.8562C7.66771 30.8325 6.22903 30.7145 5.33402 29.5703C4.85125 28.9535 4.73713 28.3063 4.70508 27.9699C5.07757 28.3282 5.80396 28.9152 6.88233 29.1707C7.92416 29.4176 8.80058 29.2382 9.35066 29.1263C10.1316 28.9669 10.7816 28.6841 10.8682 28.6457C11.2061 28.4967 11.324 28.4128 11.8408 28.1737C11.8408 28.1737 12.38 27.9243 13.0006 27.6847C13.225 27.5983 14.1783 27.2351 15.5221 26.9036C16.3466 26.7005 17.3942 26.49 18.6284 26.3562C18.6373 26.4097 18.6457 26.4626 18.6547 26.5161C18.2584 26.6238 17.8609 26.7394 17.4666 26.8683C16.58 27.4036 15.81 28.1457 15.4401 29.0843C15.1624 29.8635 15.0413 30.7869 15.449 31.529C15.7952 32.1634 16.7742 32.6902 17.4506 32.4402C17.9917 32.2601 18.4309 31.6561 18.4072 31.088C18.252 29.9481 17.064 29.9432 16.5954 30.9396C16.6056 30.8161 16.655 30.3976 17.0082 30.105C17.4699 29.7218 18.1783 29.779 18.5784 30.0381C19.3067 30.5101 19.2919 31.8301 18.6559 32.5539L18.6579 32.5527Z" fill="#C0C0C0"/>
<path d="M14.6454 33.0531C14.3499 32.9114 13.9658 32.6711 13.6491 32.2757C13.5741 32.1821 13.4491 32.0233 13.3439 31.7873C13.3439 31.7873 13.1664 31.3883 13.1484 30.9053C13.1471 30.8761 13.1394 30.6425 13.1394 30.6425C12.9638 30.7435 12.699 30.8864 12.3643 31.0318C11.8597 31.252 11.1564 31.5641 10.23 31.6109C9.74083 31.6358 9.25229 31.6048 8.78491 31.4996L8.79261 31.4369C9.61645 31.3408 10.7955 31.1042 12.0604 30.4789C12.7522 30.137 13.3132 29.7568 13.7517 29.4107C13.728 30.3816 13.7357 30.6608 13.7357 30.6608C13.7479 31.0677 13.7543 31.2873 13.7959 31.516C13.8581 31.8518 14.0357 32.4181 14.6435 33.0531H14.6454Z" fill="#C0C0C0"/>
<path d="M56.0316 34.6294H54.9616C54.6224 34.6294 54.2897 34.5613 53.9832 34.4299C53.6768 34.5613 53.3434 34.6294 53.0049 34.6294H51.9271C51.822 34.6294 51.7143 34.6221 51.6046 34.6081C51.495 34.6221 51.3867 34.6294 51.2815 34.6294H50.3301C50.2256 34.6294 50.1192 34.6227 50.014 34.6094C49.9089 34.6227 49.8044 34.6294 49.7018 34.6294H48.6234C48.3817 34.6294 48.1439 34.5954 47.915 34.5272C47.6861 34.5954 47.4482 34.6294 47.2053 34.6294H46.2538C46.1436 34.6294 46.0326 34.6221 45.9217 34.6075C45.8108 34.6221 45.6999 34.6294 45.5903 34.6294H44.5209C44.1824 34.6294 43.849 34.5607 43.5425 34.4299C43.2361 34.5613 42.9033 34.6294 42.5642 34.6294H41.4858C41.4089 34.6294 41.3313 34.6258 41.2531 34.6185C41.1755 34.6258 41.0979 34.6294 41.0216 34.6294H38.5591C38.2154 34.6294 37.8775 34.5589 37.5685 34.4244C37.1665 34.5607 36.7453 34.6294 36.3138 34.6294H34.4296C34.3244 34.6294 34.2187 34.6227 34.1129 34.6094C34.0084 34.6227 33.9039 34.6294 33.8 34.6294H32.7223C32.4799 34.6294 32.2421 34.5954 32.0138 34.5272C31.7849 34.5954 31.5471 34.6294 31.3035 34.6294H30.352C30.2418 34.6294 30.1308 34.6221 30.0206 34.6075C29.9097 34.6221 29.7987 34.6294 29.6891 34.6294H28.6191C28.2806 34.6294 27.9478 34.5607 27.6407 34.4299C27.3336 34.5613 27.0009 34.6294 26.6617 34.6294H25.584C25.3064 34.6294 25.0358 34.5844 24.7787 34.4962C24.4479 34.585 24.1075 34.6294 23.7632 34.6294H21.8789C20.5666 34.6294 19.4985 33.6166 19.4985 32.3709V27.8507C19.4985 26.6056 20.5659 25.5922 21.8789 25.5922H23.7632C23.8414 25.5922 23.9196 25.5946 23.9972 25.5989C23.4183 24.8446 23.0086 24.0155 22.7688 23.1177C22.4854 23.625 22.004 24.0174 21.4071 24.2029C20.7736 24.3994 20.1005 24.3355 19.535 24.0441C19.5087 24.8227 19.2862 25.9213 18.254 26.6372C17.7347 26.9973 17.1269 27.1798 16.4473 27.1798C15.6081 27.1798 14.8708 26.8982 14.5163 26.7625L14.381 26.7108C13.813 26.4943 13.175 26.2504 12.5435 25.8562C11.41 25.1488 10.0682 23.7753 10.1098 21.2497C10.1951 16.0081 11.1074 11.4314 12.9006 7.2568C13.3911 6.11324 14.029 5.09862 14.6458 4.11686L14.6554 4.10165C14.9099 3.69775 15.1202 3.36198 15.3254 3.01769C15.5761 2.59494 15.9344 2.21841 16.4211 1.86743C17.777 0.891141 18.9817 1.25489 19.4363 1.45684C19.8883 1.65757 20.9474 2.29444 21.025 3.87537C21.0564 4.50494 21.066 5.12843 21.0756 5.73184V5.75982C21.0814 6.10471 21.0865 6.44231 21.0955 6.77443C22.4149 4.56881 24.1145 2.73363 25.6282 1.2111C26.3014 0.532869 27.3259 0.317535 28.2383 0.661822C29.1499 1.0055 29.7391 1.82911 29.7391 2.76039C29.7391 2.8565 29.7417 2.94044 29.7436 3.01526L29.7449 3.05723C29.75 3.27804 29.7564 3.52804 29.7212 3.81576C29.6237 4.62355 29.5885 5.43987 29.6173 6.27199C30.2129 5.77077 31.0348 5.58221 31.8132 5.7799C35.4419 6.70388 38.2135 8.46242 40.2875 11.1571C40.4703 11.3943 40.6453 11.6364 40.812 11.8822C41.8743 10.4849 43.6323 9.67289 45.6762 9.67289H45.6993C48.2445 9.68141 50.2538 11.0579 51.0558 13.1474C51.2533 12.6608 51.6194 12.2563 52.1002 11.9965C52.549 11.7344 53.0215 11.6097 53.5062 11.6249C53.6614 11.603 53.9165 11.5707 54.2576 11.5671C55.3129 10.036 57.008 9.4235 57.9281 9.09198C59.3783 8.56825 60.9836 8.38881 62.5711 8.57191C63.8072 8.71607 64.7246 9.75197 64.6599 10.9314L64.515 13.5708C65.2144 13.8865 65.8581 14.3122 66.4338 14.8396C68.1822 16.4455 69.024 18.7947 68.6303 20.9705C68.1726 23.5003 66.2909 25.459 63.4667 26.3446C62.5153 26.6421 61.5901 26.7966 60.6951 26.9456L60.6804 26.9481C60.3618 27.0004 60.0245 27.0569 59.6943 27.1196C58.196 27.4061 56.8131 26.8179 55.9963 25.5478C55.8399 25.3039 55.6989 25.0593 55.5738 24.8154C55.4565 25.0879 55.2821 25.3386 55.0654 25.5466C55.0404 25.5709 55.0148 25.5959 54.9879 25.6214C55.5444 25.8519 55.9976 26.282 56.2368 26.841L58.2396 31.5199C58.5378 32.217 58.4519 33.0065 58.0095 33.6306C57.5658 34.2553 56.8279 34.6282 56.0348 34.6282L56.0316 34.6294ZM53.9832 33.3776C54.0781 33.3794 54.1563 33.4056 54.1563 33.4056C54.1909 33.4171 54.2249 33.4323 54.2576 33.4518C54.4692 33.5759 54.7128 33.6416 54.9616 33.6416H56.0316C56.4778 33.6416 56.8926 33.4317 57.1427 33.0801C57.3914 32.7292 57.4402 32.2851 57.2722 31.8928L55.2693 27.2139C55.0635 26.7327 54.5763 26.4219 54.0294 26.4219H53.9306C53.8627 26.4219 53.7966 26.4268 53.7345 26.4359C53.6761 26.4444 53.6178 26.4438 53.5626 26.4341C53.521 26.4687 53.4729 26.4973 53.4197 26.5186C53.201 26.605 53.0696 26.7321 52.9177 26.8635C52.9177 26.8635 52.8253 26.9432 52.5708 27.2212C52.4759 26.7242 52.2317 26.4675 52.2317 26.4675C52.2317 26.4675 51.888 26.1178 50.5 26.2729C50.5 26.2729 50.7705 26.0764 50.8032 26.0527C51.1539 25.8008 51.6803 25.6859 51.7848 25.6634C51.7848 25.6634 52.2919 25.5527 52.8459 25.5867C52.8568 25.5873 52.8856 25.5892 52.9266 25.5898C52.9972 25.5898 53.0677 25.5849 53.1414 25.5746C53.1991 25.566 53.2562 25.5673 53.3107 25.5764C53.3523 25.5417 53.3998 25.5131 53.4536 25.4918C53.5229 25.4645 53.9133 25.2388 54.3224 24.8538C54.4685 24.7163 54.5436 24.6451 54.6237 24.5283C54.6974 24.4213 54.8019 24.2376 54.8013 24.2388C54.9443 23.8835 55.0879 23.5283 55.2308 23.1737C55.4482 22.5447 55.5879 22.1408 55.5879 22.1408C55.9636 23.2576 56.0162 23.3939 56.0162 23.3939C56.2291 23.9419 56.4368 24.476 56.8837 25.0344C57.2235 25.459 57.5575 25.8592 58.1473 26.0679C58.5557 26.212 59.0103 26.2437 59.4879 26.1524C59.8303 26.0873 60.1758 26.0296 60.4996 25.9766L60.5131 25.9742C61.3715 25.8313 62.2588 25.6834 63.1378 25.4085C65.5844 24.6415 67.2115 22.9638 67.602 20.8056C67.9386 18.9473 67.2128 16.9345 65.7081 15.5519C65.1356 15.027 64.4855 14.62 63.7764 14.3433C63.5719 14.2636 63.443 14.0702 63.4545 13.8609L63.618 10.8822C63.6546 10.2191 63.1378 9.63578 62.4428 9.55488C61.0234 9.39126 59.5898 9.55063 58.2967 10.0172C57.4729 10.3146 55.9393 10.8682 55.0751 12.1881C55.0533 12.221 55.0257 12.2642 54.9911 12.3201C54.8936 12.4759 54.7135 12.5689 54.5224 12.561C54.0787 12.544 53.7742 12.5878 53.6101 12.6115C53.5742 12.6164 53.5376 12.6182 53.5017 12.6164C53.2081 12.6005 52.926 12.6748 52.6388 12.8439C52.6324 12.8475 52.626 12.8512 52.6195 12.8548C52.4028 12.9698 52.2791 13.1158 52.2144 13.1869C51.8438 13.5975 51.588 14.0622 51.588 14.0622C51.4149 14.3773 51.1995 14.8147 50.9988 15.3664C50.9033 15.6541 50.8084 15.9424 50.7128 16.2302C50.7334 15.9881 50.9148 13.3007 48.7452 11.6863C47.5457 10.7933 46.2346 10.6802 45.6948 10.6638H45.6736C44.9261 10.6206 44.3401 10.7526 43.983 10.8615C42.9835 11.1668 42.3539 11.7277 42.1167 11.9436C41.7339 12.2921 41.3653 12.7429 41.2697 12.8603C41.08 13.0926 40.7344 13.5379 40.7344 13.5379C40.7344 13.5379 40.4459 13.0379 40.4311 13.013C40.2112 12.6334 39.7503 11.9965 39.2887 11.4545C38.2892 10.2824 37.1723 9.4241 36.9678 9.26838C36.9678 9.26838 34.6873 7.53722 31.542 6.73733C31.0643 6.61567 30.5572 6.75315 30.218 7.09622C29.8795 7.43868 29.768 7.92774 29.9276 8.373C30.0212 8.63395 30.0866 8.89551 30.1244 9.16072C30.1443 9.29758 30.236 9.70209 30.1424 10.1437C30.1424 10.1437 30.093 10.3767 29.5602 11.3019C29.5506 11.255 29.0685 9.56462 28.8441 7.77141C28.6402 6.14547 28.6691 4.60409 28.6858 3.70627C28.6909 3.44897 28.6973 3.23424 28.7031 3.08278L28.7018 3.04263C28.6999 2.96052 28.6973 2.86806 28.6973 2.76283C28.6973 2.2391 28.3658 1.77559 27.8529 1.58276C27.34 1.38872 26.7637 1.51037 26.3854 1.89176C23.8959 4.39788 21.6783 7.82676 21.6783 7.82676C21.2135 8.61753 20.3165 10.179 20.3133 10.1845C20.3133 10.1845 20.0351 5.78476 20.0344 5.77746V5.74948C20.0248 5.15398 20.0146 4.53779 19.9844 3.92403C19.9357 2.91854 19.3433 2.50917 18.9952 2.35466C18.7112 2.22875 17.954 2.00613 17.0506 2.65699C16.6801 2.92402 16.4121 3.20139 16.2326 3.50553C16.021 3.86016 15.8069 4.20141 15.5498 4.61078L15.5402 4.62538C14.9433 5.57491 14.3259 6.55728 13.8649 7.6315C12.1217 11.6906 11.2344 16.1505 11.151 21.2673C11.117 23.3446 12.2005 24.462 13.1161 25.0332C13.6604 25.3726 14.247 25.5971 14.765 25.7948L14.9003 25.8459C15.2215 25.9687 15.8094 26.1938 16.4467 26.1938C16.907 26.1938 17.2968 26.0788 17.6392 25.8416C18.6156 25.164 18.515 23.9176 18.472 23.3854L18.4637 23.2734C18.4637 23.2734 18.4637 23.2661 18.463 23.2631C18.463 23.2631 18.4412 22.945 18.406 22.6299C18.406 22.6299 18.3624 22.2394 18.2245 21.4383C18.2245 21.4383 18.7887 21.9693 19.3433 22.5885C19.4574 22.7163 19.5671 22.813 19.7209 22.9577C20.0793 23.2959 20.6012 23.4139 21.0827 23.2649C21.3019 23.1968 21.4936 23.0788 21.6443 22.9261C21.9027 22.6646 21.9661 22.3561 21.9892 22.2521C22.1527 21.5161 22.4867 20.6621 22.7233 20.0581C23.1695 18.9175 23.9017 17.9242 23.9017 17.9242C23.9017 17.9242 23.6113 19.0009 23.5446 20.0921C23.5254 20.4127 23.5151 20.8975 23.5805 21.4808C23.6709 22.2892 23.8722 22.9754 24.0806 23.5131C24.4172 24.3817 24.832 24.9851 24.9903 25.2078C25.0679 25.3173 25.5526 25.9912 26.2142 26.5788C26.2142 26.5788 26.2264 26.5898 26.8303 27.1208C26.8303 27.1208 26.127 26.8799 26.0629 26.858C25.6802 26.7285 25.0134 26.5989 23.7645 26.5813H21.8802C21.1423 26.5813 20.5416 27.1512 20.5416 27.8514V32.3715C20.5416 33.0716 21.1423 33.6416 21.8802 33.6416H23.7645C24.0613 33.6416 24.355 33.5954 24.6364 33.5041C24.7634 33.4628 24.9025 33.4701 25.0243 33.5242C25.2006 33.602 25.3891 33.6416 25.5853 33.6416H26.663C26.9118 33.6416 27.156 33.5759 27.3682 33.4512C27.5362 33.3527 27.7478 33.3527 27.9151 33.4512C28.1273 33.5759 28.371 33.6416 28.6197 33.6416H29.6898C29.7686 33.6416 29.8494 33.6349 29.9302 33.6209C29.9911 33.6106 30.0533 33.6106 30.1135 33.6209C30.1924 33.6343 30.2725 33.641 30.352 33.641H31.3035C31.4811 33.641 31.6529 33.6087 31.8144 33.5455C31.942 33.4956 32.0856 33.495 32.2132 33.5455C32.3748 33.6093 32.5466 33.641 32.7229 33.641H33.8006C33.8737 33.641 33.9487 33.6349 34.0231 33.6221C34.0821 33.6124 34.143 33.6124 34.202 33.6221C34.2776 33.6349 34.3546 33.641 34.4296 33.641H36.3138C36.6883 33.641 37.0505 33.5698 37.3922 33.4287C37.5474 33.3648 37.7256 33.3764 37.8699 33.4591C38.0763 33.5777 38.3148 33.641 38.5591 33.641H41.0216C41.0761 33.641 41.1313 33.6373 41.187 33.6306C41.2306 33.6252 41.2749 33.6252 41.3185 33.6306C41.3749 33.6373 41.4313 33.641 41.4858 33.641H42.5642C42.8129 33.641 43.0565 33.5753 43.2681 33.4512C43.4361 33.3527 43.6477 33.3527 43.8156 33.4512C44.0278 33.5759 44.2721 33.6416 44.5209 33.6416H45.5903C45.6691 33.6416 45.7499 33.6349 45.8307 33.6209C45.891 33.6106 45.9531 33.6106 46.014 33.6209C46.0942 33.6343 46.175 33.6416 46.2538 33.6416H47.2053C47.3822 33.6416 47.554 33.6093 47.7156 33.5461C47.8432 33.4962 47.9861 33.4956 48.1137 33.5461C48.2766 33.61 48.4484 33.6422 48.6241 33.6422H49.7024C49.7749 33.6422 49.8499 33.6361 49.9255 33.6233C49.9845 33.6136 50.0448 33.6136 50.1038 33.6233C50.1794 33.6361 50.2557 33.6422 50.3307 33.6422H51.2822C51.3578 33.6422 51.4354 33.6355 51.5187 33.6221C51.5764 33.613 51.6354 33.613 51.6931 33.6221C51.7745 33.6355 51.8534 33.6422 51.9278 33.6422H53.0055C53.4992 33.4658 53.8755 33.3764 53.9845 33.3782L53.9832 33.3776Z" fill="#C0C0C0"/>
<path d="M59.2119 32.7402C60.0345 33.6763 61.3859 33.5206 62.2778 32.7663C63.2856 31.9908 63.3504 30.6617 62.9689 29.5729C62.7336 28.8186 62.2124 28.161 61.5873 27.6568C61.4225 27.5229 61.2507 27.3982 61.0731 27.2845C61.6405 27.4907 62.1931 27.7225 62.7195 27.9877C63.8408 28.5333 64.9012 29.0923 65.929 29.7955C66.3438 30.0729 66.8714 30.2937 67.333 30.4907C68.1831 30.8539 68.9499 31.1227 69.9123 31.0437C70.202 31.0199 71.6407 30.9019 72.5357 29.7578C73.0185 29.141 73.1326 28.4938 73.1647 28.1574C72.7922 28.5157 72.0658 29.1026 70.9874 29.3581C69.9456 29.6051 69.0692 29.4256 68.5191 29.3137C67.7382 29.1544 67.0881 28.8715 67.0016 28.8332C66.6637 28.6842 66.5457 28.6002 66.029 28.3612C66.029 28.3612 65.4898 28.1118 64.8692 27.8721C64.6448 27.7857 63.6914 27.4226 62.3476 27.0911C61.5232 26.8879 60.4756 26.6774 59.2414 26.5436C59.2324 26.5971 59.2241 26.6501 59.2151 26.7036C59.6113 26.8113 60.0088 26.9268 60.4031 27.0558C61.2898 27.5911 62.0598 28.3332 62.4297 29.2717C62.7073 30.051 62.8285 30.9743 62.4207 31.7164C62.0745 32.3509 61.0955 32.8776 60.4191 32.6276C59.878 32.4476 59.4389 31.8436 59.4626 31.2754C59.6177 30.1355 60.8057 30.1306 61.2744 31.127C61.2641 31.0035 61.2148 30.585 60.8615 30.2924C60.3999 29.9092 59.6915 29.9664 59.2914 30.2255C58.5631 30.6976 58.5778 32.0175 59.2138 32.7414L59.2119 32.7402Z" fill="#C0C0C0"/>
<path d="M63.2241 33.2405C63.5197 33.0988 63.9037 32.8585 64.2204 32.4631C64.2954 32.3694 64.4205 32.2107 64.5256 31.9747C64.5256 31.9747 64.7032 31.5756 64.7211 31.0927C64.7224 31.0635 64.7301 30.8299 64.7301 30.8299C64.9058 30.9309 65.1706 31.0738 65.5052 31.2192C66.0098 31.4394 66.7131 31.7514 67.6395 31.7983C68.1287 31.8232 68.6173 31.7922 69.0846 31.687L69.0769 31.6243C68.2531 31.5282 67.0741 31.2916 65.8091 30.6663C65.1174 30.3244 64.5564 29.9442 64.1178 29.5981C64.1416 30.5689 64.1339 30.8481 64.1339 30.8481C64.1217 31.2551 64.1153 31.4747 64.0736 31.7034C64.0114 32.0391 63.8338 32.6055 63.226 33.2405H63.2241Z" fill="#C0C0C0"/>
<path fill-rule="evenodd" clip-rule="evenodd" d="M27.5946 35.3715L27.835 35.8843C27.8446 35.9044 27.8588 35.9214 27.8767 35.9342C27.8953 35.947 27.9171 35.9549 27.9395 35.9567L28.5274 36.0151L28.0876 36.3904C28.071 36.405 28.0588 36.4232 28.0517 36.4439C28.0447 36.4646 28.0434 36.4859 28.0485 36.5072L28.171 37.0558L27.6594 36.7754C27.6395 36.7645 27.6177 36.759 27.5946 36.759C27.5715 36.759 27.5491 36.7645 27.5292 36.7754L27.0176 37.0558L27.1407 36.5072C27.1452 36.4859 27.1439 36.464 27.1375 36.4439C27.1304 36.4232 27.1176 36.405 27.1009 36.3904L26.6611 36.0151L27.249 35.9567C27.2715 35.9543 27.2933 35.947 27.3119 35.9342C27.3298 35.9214 27.3446 35.9044 27.3535 35.8843L27.5946 35.3715Z" fill="#C0C0C0"/>
<path fill-rule="evenodd" clip-rule="evenodd" d="M38.6639 36.0048L39.0197 36.7646C39.0338 36.7938 39.055 36.8193 39.0819 36.8382C39.1095 36.857 39.1415 36.8686 39.1749 36.8716L40.0462 36.958L39.3948 37.514C39.3698 37.5353 39.3518 37.562 39.3416 37.593C39.3313 37.6235 39.3294 37.6551 39.3364 37.6873L39.5185 38.5L38.7601 38.0845C38.7306 38.0681 38.6979 38.0602 38.6646 38.0602C38.6312 38.0602 38.5972 38.0681 38.5677 38.0845L37.8093 38.5L37.992 37.6873C37.9991 37.6557 37.9971 37.6235 37.9869 37.593C37.9766 37.562 37.9574 37.5353 37.9324 37.514L37.281 36.958L38.1523 36.8716C38.1856 36.8686 38.2177 36.857 38.2453 36.8382C38.2722 36.8193 38.2933 36.7938 38.3074 36.7646L38.6639 36.0048Z" fill="#C0C0C0"/>
<path fill-rule="evenodd" clip-rule="evenodd" d="M33.1396 35.7072L33.4384 36.3453C33.4499 36.3702 33.4678 36.3915 33.4903 36.4073C33.5134 36.4232 33.5403 36.4329 33.5685 36.4353L34.3 36.5083L33.7531 36.9755C33.732 36.9931 33.7172 37.0162 33.7083 37.0418C33.6993 37.0673 33.698 37.0941 33.7038 37.1209L33.8564 37.8033L33.2197 37.4548C33.1954 37.4408 33.1678 37.4341 33.1396 37.4341C33.1114 37.4341 33.0832 37.4408 33.0588 37.4548L32.4222 37.8033L32.5754 37.1209C32.5812 37.0941 32.5799 37.0673 32.5709 37.0418C32.5619 37.0156 32.5466 36.9931 32.5254 36.9755L31.9785 36.5083L32.71 36.4353C32.7382 36.4323 32.7652 36.4232 32.7883 36.4073C32.8107 36.3915 32.8286 36.3702 32.8402 36.3453L33.1396 35.7072Z" fill="#C0C0C0"/>
<path fill-rule="evenodd" clip-rule="evenodd" d="M49.7072 35.4435L49.9476 35.9563C49.9572 35.9763 49.9713 35.9934 49.9893 36.0061C50.0078 36.0189 50.0296 36.0268 50.0521 36.0286L50.64 36.087L50.2002 36.4624C50.1835 36.477 50.1713 36.4952 50.1643 36.5159C50.1572 36.5366 50.1559 36.5578 50.1611 36.5791L50.2835 37.1278L49.7719 36.8474C49.752 36.8364 49.7302 36.831 49.7072 36.831C49.6841 36.831 49.6616 36.8364 49.6418 36.8474L49.1302 37.1278L49.2532 36.5791C49.2577 36.5578 49.2565 36.536 49.25 36.5159C49.243 36.4952 49.2302 36.477 49.2135 36.4624L48.7737 36.087L49.3616 36.0286C49.384 36.0262 49.4058 36.0189 49.4244 36.0061C49.4424 35.9934 49.4571 35.9763 49.4661 35.9563L49.7072 35.4435Z" fill="#C0C0C0"/>
<path fill-rule="evenodd" clip-rule="evenodd" d="M1.53864 10.0719H7.92103C8.12042 10.0719 8.28198 9.91676 8.28198 9.72941C8.28198 9.54206 8.12106 9.38695 7.92103 9.38695H1.53864C1.34118 9.38695 1.17769 9.53963 1.17769 9.72941C1.17769 9.9192 1.34118 10.0719 1.53864 10.0719ZM1.53864 25.1737H7.92103C8.12042 25.1737 8.28198 25.021 8.28198 24.8312C8.28198 24.6414 8.12106 24.4887 7.92103 24.4887H1.53864C1.34118 24.4887 1.17769 24.6439 1.17769 24.8312C1.17769 25.0186 1.34118 25.1737 1.53864 25.1737ZM4.6731 4.41183C6.47914 4.41183 7.94219 5.79992 7.94219 7.51162C7.94219 8.10652 7.7646 8.66249 7.45878 9.13513H1.88934C1.58288 8.6631 1.40593 8.10652 1.40593 7.51162C1.40593 5.80053 2.86898 4.41183 4.6731 4.41183ZM7.48443 25.3896C6.94845 25.948 5.90021 26.3282 4.69297 26.3282C3.48574 26.3282 2.43558 25.9474 1.8996 25.3896H7.48443ZM7.87551 10.3334V24.2272H7.92167C8.27237 24.2272 8.56023 24.4985 8.56023 24.8312C8.56023 25.1639 8.27173 25.4371 7.92167 25.4371H7.82102C7.57931 25.6779 7.35748 25.8689 7.05936 26.0411C6.79522 26.1828 6.52531 26.2899 6.23936 26.3775C5.95086 26.4657 5.68928 26.5094 5.40719 26.5478V26.5575C5.40911 26.6779 5.3809 26.7868 5.32256 26.8939C5.26614 27.0009 5.19561 27.0624 5.10073 27.1275C4.97956 27.1998 4.85454 27.2363 4.71157 27.2382C4.62886 27.2363 4.55257 27.2248 4.47371 27.1999C4.3551 27.1542 4.26021 27.091 4.17559 26.9991C4.06852 26.8689 4.01466 26.7236 4.01659 26.5575L4.01851 26.552L3.99864 26.5502C3.70821 26.5119 3.42804 26.4565 3.14787 26.3781C2.82923 26.2807 2.53303 26.1603 2.24709 25.9955C1.96114 25.8312 1.78163 25.653 1.56621 25.4371H1.53993C1.18923 25.4371 0.901367 25.1633 0.901367 24.8312C0.901367 24.4991 1.18987 24.2272 1.53993 24.2272H1.54826V10.3334H1.53993C1.18923 10.3334 0.901367 10.0621 0.901367 9.72941C0.901367 9.39668 1.18987 9.12357 1.53993 9.12357H1.56429C1.27835 8.62052 1.13474 8.07976 1.13089 7.5098C1.14692 6.87475 1.30848 6.32061 1.64251 5.76768C1.96114 5.29748 2.34005 4.93799 2.83564 4.63567C3.41778 4.31815 4.00248 4.16547 4.67374 4.14783C5.40526 4.16668 6.03997 4.34856 6.65674 4.72327C7.18502 5.08094 7.57162 5.50552 7.86974 6.05418C8.09542 6.52864 8.20441 6.98911 8.21851 7.50919C8.21659 7.82671 8.17043 8.1345 8.08131 8.44047C8.00694 8.6777 7.90821 8.90519 7.78511 9.12296H7.92231C8.27301 9.12296 8.56087 9.39425 8.56087 9.7288C8.56087 10.0634 8.27237 10.3328 7.92231 10.3328H7.87615L7.87551 10.3334ZM5.5617 23.9845L7.52289 23.1718V21.2253L1.90024 23.5562V23.9845H5.56234H5.5617ZM1.8996 20.4929L7.52225 18.162V16.1066L1.8996 18.4394V20.4929ZM1.8996 15.3743L7.52225 13.0433V10.699L1.8996 13.0318V15.3743ZM5.11419 26.476C5.12445 26.5082 5.13022 26.5447 5.13022 26.5812C5.13022 26.799 4.94301 26.9772 4.71092 26.9772C4.47884 26.9772 4.29355 26.7996 4.29355 26.5812C4.29355 26.5447 4.2974 26.5107 4.30766 26.4778L4.69233 26.4875L5.11355 26.476H5.11419ZM4.48333 4.80782C2.75806 5.11378 1.60917 6.9879 2.2785 8.64729C2.61894 8.07733 2.96771 7.83279 3.60883 7.83644C3.12543 6.53046 3.52805 5.56269 4.48333 4.80782Z" fill="#C0C0C0"/>
<path fill-rule="evenodd" clip-rule="evenodd" d="M69.8804 10.0951H76.2628C76.4622 10.0951 76.6237 9.93996 76.6237 9.75261C76.6237 9.56526 76.4628 9.41014 76.2628 9.41014H69.8804C69.6829 9.41014 69.5194 9.56282 69.5194 9.75261C69.5194 9.94239 69.6829 10.0951 69.8804 10.0951ZM69.8804 25.1969H76.2628C76.4622 25.1969 76.6237 25.0442 76.6237 24.8544C76.6237 24.6646 76.4628 24.5119 76.2628 24.5119H69.8804C69.6829 24.5119 69.5194 24.667 69.5194 24.8544C69.5194 25.0417 69.6829 25.1969 69.8804 25.1969ZM73.0161 4.43502C74.8196 4.43502 76.2833 5.82312 76.2833 7.53482C76.2833 8.12972 76.1057 8.68569 75.7999 9.15832H70.2317C69.9253 8.6863 69.7483 8.12972 69.7483 7.53482C69.7483 5.82372 71.2114 4.43502 73.0174 4.43502H73.0161ZM75.8274 25.4128C75.2915 25.9712 74.2413 26.3514 73.0341 26.3514C71.8268 26.3514 70.7786 25.9706 70.2407 25.4128H75.8274ZM76.2185 10.3572V24.251H76.2628C76.6154 24.251 76.9013 24.5223 76.9013 24.855C76.9013 25.1877 76.6154 25.4609 76.2628 25.4609H76.1621C75.9223 25.7017 75.6986 25.8927 75.4005 26.0649C75.1363 26.2066 74.8664 26.3137 74.5805 26.4013C74.292 26.4895 74.0304 26.5333 73.7483 26.5716V26.5813C73.7502 26.7017 73.722 26.8106 73.6656 26.9177C73.6072 27.0247 73.5367 27.0862 73.4418 27.1513C73.3206 27.2237 73.1982 27.2602 73.0527 27.262C72.97 27.2602 72.8937 27.2486 72.8148 27.2237C72.6962 27.178 72.6013 27.1148 72.5167 27.0229C72.4096 26.8927 72.3558 26.7474 72.3596 26.5813V26.5758L72.3397 26.574C72.0512 26.5357 71.7691 26.4803 71.489 26.4019C71.1703 26.3045 70.8741 26.1841 70.5882 26.0193C70.3022 25.8544 70.1246 25.6768 69.9073 25.4609H69.881C69.5303 25.4609 69.2444 25.1871 69.2444 24.855C69.2444 24.5229 69.5303 24.251 69.881 24.251H69.8894V10.3572H69.881C69.5303 10.3572 69.2444 10.0859 69.2444 9.75322C69.2444 9.42049 69.5303 9.14737 69.881 9.14737H69.9054C69.6214 8.64432 69.4784 8.10356 69.472 7.5336C69.488 6.89856 69.6515 6.34441 69.9862 5.79148C70.3029 5.32128 70.6837 4.96179 71.1793 4.65947C71.7595 4.34195 72.3442 4.18927 73.0174 4.17163C73.7489 4.19049 74.3817 4.37237 74.9985 4.74707C75.5287 5.10474 75.9153 5.52932 76.2115 6.07799C76.4372 6.55245 76.5461 7.01291 76.5602 7.53299C76.5583 7.85051 76.5141 8.15831 76.423 8.46427C76.3487 8.7015 76.2499 8.929 76.1268 9.14676H76.264C76.6167 9.14676 76.9026 9.41805 76.9026 9.75261C76.9026 10.0872 76.6167 10.3566 76.264 10.3566H76.2198L76.2185 10.3572ZM73.9028 24.0077L75.864 23.195V21.2485L70.2413 23.5794V24.0077H73.9034H73.9028ZM70.2407 20.5161L75.8633 18.1852V16.1298L70.2407 18.4626V20.5161ZM70.2407 15.3975L75.8633 13.0665V10.7222L70.2407 13.055V15.3975ZM73.4553 26.4992C73.4655 26.5314 73.4713 26.5679 73.4713 26.6044C73.4713 26.8222 73.2841 27.0004 73.052 27.0004C72.8199 27.0004 72.6346 26.8228 72.6346 26.6044C72.6346 26.5679 72.6404 26.5339 72.6488 26.501L73.0334 26.5107L73.4546 26.4992H73.4553ZM72.8244 4.83101C71.1011 5.13698 69.9503 7.01109 70.6215 8.67048C70.96 8.10052 71.3088 7.85599 71.9518 7.85964C71.4659 6.55366 71.8711 5.58589 72.8244 4.83101Z" fill="#C0C0C0"/>
</svg>
