<svg width="539" height="503" viewBox="0 0 539 503" fill="none" xmlns="http://www.w3.org/2000/svg">
<g filter="url(#filter0_d_3824_5374)">
<path d="M354.361 187.01L337 180.389V197.4L354.361 203.561V187.01Z" fill="#6221A2"/>
<path d="M354.361 187.01L393.274 173.769V189.768L373.817 196.665L354.361 203.561V187.01Z" fill="#A778E4"/>
<path d="M374.117 168.252L337 180.389L354.361 187.01L393.274 173.769L374.117 168.252Z" fill="#2E1B45"/>
<path d="M498.896 184.187L513.792 179.842V198.405L498.896 203.837V184.187Z" fill="#6221A2"/>
<path d="M498.896 184.187L484 179.842V198.61L498.896 203.837V184.187Z" fill="#A778E4"/>
<path d="M498.896 176.252L513.792 179.842L498.896 184.187L484 179.842L498.896 176.252Z" fill="#2E1B45"/>
<path d="M498.896 184.187L513.792 179.842V198.405L498.896 203.837V184.187Z" fill="#6221A2"/>
<path d="M498.896 184.187L484 179.842V198.61L498.896 203.837V184.187Z" fill="#A778E4"/>
<path d="M498.896 176.252L513.792 179.842L498.896 184.187L484 179.842L498.896 176.252Z" fill="#2E1B45"/>
<path d="M336.782 217.385L362.16 210.606V239.565L336.782 248.039V217.385Z" fill="#6221A2"/>
<path d="M336.782 217.385L311.403 210.606V239.884L336.782 248.039V217.385Z" fill="#A778E4"/>
<path d="M336.782 205.006L362.16 210.606L336.782 217.385L311.403 210.606L336.782 205.006Z" fill="#2E1B45"/>
<path d="M420.551 108.113L453.101 97.6309V134.963L420.551 147.836V108.113Z" fill="#6221A2"/>
<path d="M420.551 108.113L388 97.6309V135.448L420.551 147.836V108.113Z" fill="#A778E4"/>
<path d="M420.551 88.252L453.101 97.6309L420.551 108.113L388 97.6309L420.551 88.252Z" fill="#2E1B45"/>
<path d="M442.708 145.973L468.087 136.594V159.214L442.708 169.696V145.973Z" fill="#6221A2"/>
<path d="M442.708 145.973L417.33 136.594V159.214L442.708 169.696V145.973Z" fill="#A778E4"/>
<path d="M442.708 126.664L468.087 136.594L442.708 145.973L417.33 136.594L442.708 126.664Z" fill="#2E1B45"/>
<path d="M431.204 172.455L448.225 166.386V183.397L431.204 189.558V172.455Z" fill="#6221A2"/>
<path d="M431.204 172.455L393.055 159.766V175.765L431.204 189.558V172.455Z" fill="#A778E4"/>
<path d="M411.836 154.249L448.225 166.386L431.204 172.455L393.055 159.766L411.836 154.249Z" fill="#2E1B45"/>
<path d="M386.827 199.389L411.653 191.321V217.32L386.827 226.285V199.389Z" fill="#6221A2"/>
<path d="M386.827 199.389L362 191.321V217.657L386.827 226.285V199.389Z" fill="#A778E4"/>
<path d="M386.827 183.252L411.653 191.321L386.827 199.389L362 191.321L386.827 183.252Z" fill="#2E1B45"/>
<path d="M417.827 228.389L442.653 220.321V246.32L417.827 255.285V228.389Z" fill="#6221A2"/>
<path d="M417.827 228.389L393 220.321V246.657L417.827 255.285V228.389Z" fill="#A778E4"/>
<path d="M417.827 212.252L442.653 220.321L417.827 228.389L393 220.321L417.827 212.252Z" fill="#2E1B45"/>
<path d="M393.5 261.127L418 251.189V283.21L393.5 294.252V261.127Z" fill="#6221A2"/>
<path d="M393.5 261.127L369 251.189V283.626L393.5 294.252V261.127Z" fill="#A778E4"/>
<path d="M393.5 241.252L418 251.189L393.5 261.127L369 251.189L393.5 241.252Z" fill="#2E1B45"/>
<path d="M441.723 262.286L465.447 252.769V283.434L441.723 294.009V262.286Z" fill="#6221A2"/>
<path d="M441.723 262.286L418 252.769V283.833L441.723 294.009V262.286Z" fill="#A778E4"/>
<path d="M441.723 243.252L465.447 252.769L441.723 262.286L418 252.769L441.723 243.252Z" fill="#2E1B45"/>
<path d="M133.723 345.882L157.447 333.675V373.007L133.723 386.57V345.882Z" fill="#6221A2"/>
<path d="M133.723 345.882L110 333.675V373.518L133.723 386.57V345.882Z" fill="#A778E4"/>
<path d="M133.723 321.469L157.447 333.675L133.723 345.882L110 333.675L133.723 321.469Z" fill="#2E1B45"/>
<path d="M42.7235 193.136L58.7229 187.132V213.31L42.7235 220.453V193.136Z" fill="#6221A2"/>
<path d="M42.7235 193.136L26.7241 187.132V213.649L42.7235 220.453V193.136Z" fill="#A778E4"/>
<path d="M42.7235 181.833L58.7229 187.132L42.7235 193.136L26.7241 187.132L42.7235 181.833Z" fill="#2E1B45"/>
<path d="M105.617 193.136L121.617 187.132V213.31L105.617 220.453V193.136Z" fill="#6221A2"/>
<path d="M105.617 193.136L89.6179 187.132V213.649L105.617 220.453V193.136Z" fill="#A778E4"/>
<path d="M105.617 181.833L121.617 187.132L105.617 193.136L89.6179 187.132L105.617 181.833Z" fill="#2E1B45"/>
<path d="M183.408 224.039L209.889 211.212V252.544L183.408 266.797V224.039Z" fill="#6221A2"/>
<path d="M183.408 224.039L156.926 211.212V253.081L183.408 266.797V224.039Z" fill="#A778E4"/>
<path d="M183.408 198.385L209.889 211.212L183.408 224.039L156.926 211.212L183.408 198.385Z" fill="#2E1B45"/>
<path d="M82.4457 256.452L106.169 248.383V274.382L82.4457 283.347V256.452Z" fill="#6221A2"/>
<path d="M82.4457 256.452L58.7224 248.383V274.72L82.4457 283.347V256.452Z" fill="#A778E4"/>
<path d="M82.4457 240.314L106.169 248.383L82.4457 256.452L58.7224 248.383L82.4457 240.314Z" fill="#2E1B45"/>
<path d="M202.717 107.354L218.716 101.285V118.296L202.717 124.457V107.354Z" fill="#6221A2"/>
<path d="M202.717 107.354L166.856 94.6645V110.664L202.717 124.457V107.354Z" fill="#A778E4"/>
<path d="M184.511 89.1475L218.716 101.285L202.717 107.354L166.856 94.6645L184.511 89.1475Z" fill="#2E1B45"/>
<path d="M298.713 139.904L315.816 131.751V160.787L298.713 168.041V139.904Z" fill="#6221A2"/>
<path d="M298.713 139.904L281.611 131.751V161.164L298.713 168.041V139.904Z" fill="#A778E4"/>
<path d="M298.713 124.456L315.816 131.751L298.713 139.904L281.611 131.751L298.713 124.456Z" fill="#2E1B45"/>
<path d="M290.572 156.846L306.99 149.723V169.193L290.572 176.316V156.846Z" fill="#6221A2"/>
<path d="M290.572 156.846L257.336 145.924V164.444L290.572 176.316V156.846Z" fill="#A778E4"/>
<path d="M273.336 138.801L306.99 149.723L290.572 156.846L257.336 145.924L273.336 138.801Z" fill="#2E1B45"/>
<path d="M371.121 289.968L387.538 281.692V304.312L371.121 312.588V289.968Z" fill="#6221A2"/>
<path d="M371.121 289.968L337.885 277.279V298.795L371.121 312.588V289.968Z" fill="#A778E4"/>
<path d="M353.884 269.003L387.538 281.692L371.121 289.968L337.885 277.279L353.884 269.003Z" fill="#2E1B45"/>
<path d="M493.482 241.32L519.964 230.286V274.974L493.482 285.456V241.32Z" fill="#6221A2"/>
<path d="M493.482 241.32L467 230.286V274.974L493.482 285.456V241.32Z" fill="#A778E4"/>
<path d="M493.482 219.252L519.964 230.286L493.482 241.32L467 230.286L493.482 219.252Z" fill="#2E1B45"/>
<path d="M209.02 449.008L224.343 443.146V460.732L209.02 466.985V449.008Z" fill="#6221A2"/>
<path d="M209.02 449.008L178 436.641V453.744L209.02 466.985V449.008Z" fill="#A778E4"/>
<path d="M189.96 429.469L224.343 443.146L209.02 449.008L178 436.641L189.96 429.469Z" fill="#2E1B45"/>
<path d="M241.337 375.418L262.853 365.799V406.89L241.337 415.756V375.418Z" fill="#6221A2"/>
<path d="M241.337 375.418L219.82 365.799V407.343L241.337 415.756V375.418Z" fill="#A778E4"/>
<path d="M241.337 358.379L262.853 365.799L241.337 375.418L219.82 365.799L241.337 358.379Z" fill="#2E1B45"/>
<path d="M360.896 461.268L375.792 456.922V475.485L360.896 480.917V461.268Z" fill="#6221A2"/>
<path d="M360.896 461.268L346 456.922V475.69L360.896 480.917V461.268Z" fill="#A778E4"/>
<path d="M360.896 453.332L375.792 456.922L360.896 461.268L346 456.922L360.896 453.332Z" fill="#2E1B45"/>
<path d="M210.441 353.413L231.958 344.586V363.024L210.441 372.171V353.413Z" fill="#6221A2"/>
<path d="M210.441 353.413L188.925 344.586V363.294L210.441 372.171V353.413Z" fill="#A778E4"/>
<path d="M210.441 334.104L231.958 344.586L210.441 353.413L188.925 344.586L210.441 334.104Z" fill="#2E1B45"/>
<path d="M235.819 258.52L251.819 252.452V269.463L235.819 275.623V258.52Z" fill="#6221A2"/>
<path d="M235.819 258.52L199.958 245.831V261.831L235.819 275.623V258.52Z" fill="#A778E4"/>
<path d="M217.613 240.314L251.819 252.452L235.819 258.52L199.958 245.831L217.613 240.314Z" fill="#2E1B45"/>
<path d="M168.512 117.836L190.028 107.354V144.686L168.512 157.559V117.836Z" fill="#6221A2"/>
<path d="M168.512 117.836L146.995 107.354V145.17L168.512 157.559V117.836Z" fill="#A778E4"/>
<path d="M168.512 97.9746L190.028 107.354L168.512 117.836L146.995 107.354L168.512 97.9746Z" fill="#2E1B45"/>
<path d="M255.976 116.733L277.198 108.028V135.491L255.976 144.318V116.733Z" fill="#6221A2"/>
<path d="M255.976 116.733L234.165 108.028V135.491L255.976 144.318V116.733Z" fill="#A778E4"/>
<path d="M255.976 100.182L277.198 108.028L255.976 116.733L234.165 108.028L255.976 100.182Z" fill="#2E1B45"/>
<path d="M376.504 66.344L404.09 57.4145V89.2158L376.504 100.182V66.344Z" fill="#6221A2"/>
<path d="M376.504 66.344L348.919 57.4145V89.6288L376.504 100.182V66.344Z" fill="#A778E4"/>
<path d="M376.504 49.425L404.09 57.4145L376.504 66.344L348.919 57.4145L376.504 49.425Z" fill="#2E1B45"/>
<path d="M135.961 260.543L162.443 251.614V283.415L135.961 294.381V260.543Z" fill="#6221A2"/>
<path d="M135.961 260.543L109.479 251.614V283.828L135.961 294.381V260.543Z" fill="#A778E4"/>
<path d="M135.961 243.624L162.443 251.614L135.961 260.543L109.479 251.614L135.961 243.624Z" fill="#2E1B45"/>
<path d="M345.609 87.3081L373.194 78.3786V110.18L345.609 121.146V87.3081Z" fill="#6221A2"/>
<path d="M345.609 87.3081L318.024 78.3786V110.593L345.609 121.146V87.3081Z" fill="#A778E4"/>
<path d="M345.609 70.3892L373.194 78.3786L345.609 87.3081L318.024 78.3786L345.609 70.3892Z" fill="#2E1B45"/>
<path d="M202.718 269.692L226.441 261.624V287.623L202.718 296.588V269.692Z" fill="#6221A2"/>
<path d="M202.718 269.692L178.994 261.624V287.96L202.718 296.588V269.692Z" fill="#A778E4"/>
<path d="M202.718 253.555L226.441 261.624L202.718 269.692L178.994 261.624L202.718 253.555Z" fill="#2E1B45"/>
<path d="M161.281 154.403L183.408 146.628V168.423L161.281 176.316V154.403Z" fill="#6221A2"/>
<path d="M161.281 154.403L111.687 138.145V158.645L161.281 176.316V154.403Z" fill="#A778E4"/>
<path d="M136.102 131.077L183.408 146.628L161.281 154.403L111.687 138.145L136.102 131.077Z" fill="#2E1B45"/>
<path d="M421.451 337.414L404.089 330.794V347.805L421.451 353.965V337.414Z" fill="#6221A2"/>
<path d="M421.451 337.414L460.363 324.173V340.173L440.907 347.069L421.451 353.965V337.414Z" fill="#A778E4"/>
<path d="M441.206 318.656L404.089 330.794L421.451 337.414L460.363 324.173L441.206 318.656Z" fill="#2E1B45"/>
<path d="M228.648 132.18L255.129 122.801V151.398L228.648 161.972V132.18Z" fill="#6221A2"/>
<path d="M228.648 132.18L202.166 122.801V151.796L228.648 161.972V132.18Z" fill="#A778E4"/>
<path d="M228.648 111.215L255.129 122.801L228.648 132.18L202.166 122.801L228.648 111.215Z" fill="#2E1B45"/>
<path d="M195.546 165.419L222.027 156.778V183.125L195.546 192.868V165.419Z" fill="#6221A2"/>
<path d="M195.546 165.419L169.064 156.778V183.492L195.546 192.868V165.419Z" fill="#A778E4"/>
<path d="M195.546 147.628L222.027 156.778L195.546 165.419L169.064 156.778L195.546 147.628Z" fill="#2E1B45"/>
<path d="M258.44 169.696L283.818 157.558V180.178L258.44 192.316V169.696Z" fill="#6221A2"/>
<path d="M258.44 169.696L234.165 157.558V180.178L258.44 192.316V169.696Z" fill="#A778E4"/>
<path d="M258.44 148.731L283.818 157.558L258.44 169.696L234.165 157.558L258.44 148.731Z" fill="#2E1B45"/>
<path d="M63.1362 164.179L87.4111 155.352V180.362L63.1362 189.557V164.179Z" fill="#6221A2"/>
<path d="M63.1362 164.179L38.8612 155.352V180.709L63.1362 189.557V164.179Z" fill="#A778E4"/>
<path d="M63.1362 145.421L87.4111 155.352L63.1362 164.179L38.8612 155.352L63.1362 145.421Z" fill="#2E1B45"/>
<path d="M481.275 278.01L505.55 269.183V294.193L481.275 303.388V278.01Z" fill="#6221A2"/>
<path d="M481.275 278.01L457 269.183V294.54L481.275 303.388V278.01Z" fill="#A778E4"/>
<path d="M481.275 259.252L505.55 269.183L481.275 278.01L457 269.183L481.275 259.252Z" fill="#2E1B45"/>
<path d="M265.62 56.0454L289.335 47.7698V72.5965L265.62 81.4238V56.0454Z" fill="#6221A2"/>
<path d="M265.62 56.0454L217.613 39.4943V64.8727L265.62 81.4238V56.0454Z" fill="#A778E4"/>
<path d="M236.122 28.4602L289.335 47.7698L265.62 56.0454L217.613 39.4943L236.122 28.4602Z" fill="#2E1B45"/>
<path d="M308.093 326.931L333.471 317.552V340.172L308.093 350.655V326.931Z" fill="#6221A2"/>
<path d="M308.093 326.931L282.714 317.552V340.172L308.093 350.655V326.931Z" fill="#A778E4"/>
<path d="M308.093 307.622L333.471 317.552L308.093 326.931L282.714 317.552L308.093 307.622Z" fill="#2E1B45"/>
<path d="M396.365 307.07L421.744 297.691V320.311L396.365 330.794V307.07Z" fill="#6221A2"/>
<path d="M396.365 307.07L370.987 297.691V320.311L396.365 330.794V307.07Z" fill="#A778E4"/>
<path d="M396.365 287.761L421.744 297.691L396.365 307.07L370.987 297.691L396.365 287.761Z" fill="#2E1B45"/>
<path d="M337.884 339.069L363.263 329.69V352.31L337.884 362.793V339.069Z" fill="#6221A2"/>
<path d="M337.884 339.069L312.506 329.69V352.31L337.884 362.793V339.069Z" fill="#A778E4"/>
<path d="M337.884 319.76L363.263 329.69L337.884 339.069L312.506 329.69L337.884 319.76Z" fill="#2E1B45"/>
<path d="M278.853 401.064L300.369 390.982V434.049L278.853 443.341V401.064Z" fill="#6221A2"/>
<path d="M278.853 401.064L257.336 390.982V434.524L278.853 443.341V401.064Z" fill="#A778E4"/>
<path d="M278.853 382.654L300.369 390.982L278.853 401.064L257.336 390.982L278.853 382.654Z" fill="#2E1B45"/>
<path d="M195.93 397.016L221.86 384.743V410.267L195.93 422.122V397.016Z" fill="#6221A2"/>
<path d="M195.93 397.016L170 384.743V410.616L195.93 422.122V397.016Z" fill="#A778E4"/>
<path d="M195.93 372.469L221.86 384.743L195.93 397.016L170 384.743L195.93 372.469Z" fill="#2E1B45"/>
<path d="M320.516 425.099L342.033 415.479V456.571L320.516 465.437V425.099Z" fill="#6221A2"/>
<path d="M320.516 425.099L299 415.479V457.024L320.516 465.437V425.099Z" fill="#A778E4"/>
<path d="M320.516 408.059L342.033 415.479L320.516 425.099L299 415.479L320.516 408.059Z" fill="#2E1B45"/>
<path d="M430.516 451.642L452.033 442.815V461.253L430.516 470.4V451.642Z" fill="#6221A2"/>
<path d="M430.516 451.642L409 442.815V461.522L430.516 470.4V451.642Z" fill="#A778E4"/>
<path d="M430.516 432.332L452.033 442.815L430.516 451.642L409 442.815L430.516 432.332Z" fill="#2E1B45"/>
<path d="M387.5 357.759L371 351.457V378.375L387.5 386.252V357.759Z" fill="#6221A2"/>
<path d="M387.5 357.759L404 351.457V378.672L387.5 386.252V357.759Z" fill="#A778E4"/>
<path d="M387.5 346.252L371 351.457L387.5 357.759L404 351.457L387.5 346.252Z" fill="#2E1B45"/>
<path d="M412.659 401.598L427.555 395.34V422.071L412.659 429.894V401.598Z" fill="#6221A2"/>
<path d="M412.659 401.598L397.763 395.34V422.366L412.659 429.894V401.598Z" fill="#A778E4"/>
<path d="M412.659 390.171L427.555 395.34L412.659 401.598L397.763 395.34L412.659 390.171Z" fill="#2E1B45"/>
<path d="M501.896 415.187L516.792 410.842V429.405L501.896 434.837V415.187Z" fill="#6221A2"/>
<path d="M501.896 415.187L487 410.842V429.61L501.896 434.837V415.187Z" fill="#A778E4"/>
<path d="M501.896 407.252L516.792 410.842L501.896 415.187L487 410.842L501.896 407.252Z" fill="#2E1B45"/>
<path d="M104.896 83.1874L119.792 78.8418V97.4051L104.896 102.837V83.1874Z" fill="#6221A2"/>
<path d="M104.896 83.1874L90 78.8418V97.6097L104.896 102.837V83.1874Z" fill="#A778E4"/>
<path d="M104.896 75.252L119.792 78.8418L104.896 83.1874L90 78.8418L104.896 75.252Z" fill="#2E1B45"/>
<path d="M383.896 433.995L398.792 429.649V448.213L383.896 453.645V433.995Z" fill="#6221A2"/>
<path d="M383.896 433.995L369 429.649V448.417L383.896 453.645V433.995Z" fill="#A778E4"/>
<path d="M383.896 426.059L398.792 429.649L383.896 433.995L369 429.649L383.896 426.059Z" fill="#2E1B45"/>
<path d="M131.896 421.187L146.792 416.842V435.405L131.896 440.837V421.187Z" fill="#6221A2"/>
<path d="M131.896 421.187L117 416.842V435.61L131.896 440.837V421.187Z" fill="#A778E4"/>
<path d="M131.896 413.252L146.792 416.842L131.896 421.187L117 416.842L131.896 413.252Z" fill="#2E1B45"/>
<path d="M227.544 173.283L254.026 163.766V194.431L227.544 205.006V173.283Z" fill="#6221A2"/>
<path d="M227.544 173.283L201.062 163.766V194.829L227.544 205.006V173.283Z" fill="#A778E4"/>
<path d="M227.544 154.249L254.026 163.766L227.544 173.283L201.062 163.766L227.544 154.249Z" fill="#2E1B45"/>
<path d="M447.378 366.631L472.757 359.852V388.811L447.378 397.285V366.631Z" fill="#6221A2"/>
<path d="M447.378 366.631L422 359.852V389.13L447.378 397.285V366.631Z" fill="#A778E4"/>
<path d="M447.378 354.252L472.757 359.852L447.378 366.631L422 359.852L447.378 354.252Z" fill="#2E1B45"/>
<path d="M64.7914 285.554L87.4113 277.278V302.105L64.7914 310.932V285.554Z" fill="#6221A2"/>
<path d="M64.7914 285.554L19 269.003V294.381L64.7914 310.932V285.554Z" fill="#A778E4"/>
<path d="M36.6545 257.969L87.4113 277.278L64.7914 285.554L19 269.003L36.6545 257.969Z" fill="#2E1B45"/>
<path d="M294.3 73.6997L311.403 65.5467V94.5827L294.3 101.837V73.6997Z" fill="#6221A2"/>
<path d="M294.3 73.6997L277.198 65.5467V94.9598L294.3 101.837V73.6997Z" fill="#A778E4"/>
<path d="M294.3 58.252L311.403 65.5467L294.3 73.6997L277.198 65.5467L294.3 58.252Z" fill="#2E1B45"/>
<path d="M83.4871 328.265L98.4454 322.403V339.989L83.4871 346.241V328.265Z" fill="#6221A2"/>
<path d="M83.4871 328.265L53.2057 315.898V333.001L83.4871 346.241V328.265Z" fill="#A778E4"/>
<path d="M64.8805 308.726L98.4454 322.403L83.4871 328.265L53.2057 315.898L64.8805 308.726Z" fill="#2E1B45"/>
<path d="M185.861 295.458L201.86 289.389V306.4L185.861 312.561V295.458Z" fill="#6221A2"/>
<path d="M185.861 295.458L150 282.769V298.768L185.861 312.561V295.458Z" fill="#A778E4"/>
<path d="M167.655 277.252L201.86 289.389L185.861 295.458L150 282.769L167.655 277.252Z" fill="#2E1B45"/>
<path d="M181.753 319.346L205.476 311.277V337.276L181.753 346.242V319.346Z" fill="#6221A2"/>
<path d="M181.753 319.346L158.029 311.277V337.614L181.753 346.242V319.346Z" fill="#A778E4"/>
<path d="M181.753 303.209L205.476 311.277L181.753 319.346L158.029 311.277L181.753 303.209Z" fill="#2E1B45"/>
<path d="M344.418 387.252L220.864 328.203C218.253 326.955 218.198 323.258 220.771 321.933L324.67 268.441C327.244 267.116 327.188 263.416 324.574 262.17L240.176 221.934C237.509 220.663 237.52 216.864 240.194 215.607L375.25 152.158C378.014 150.86 377.905 146.892 375.075 145.746L196 73.252" stroke="url(#paint0_linear_3824_5374)" stroke-width="3.5" stroke-linecap="round"/>
<g filter="url(#filter1_f_3824_5374)">
<path d="M344.513 387.252L219.96 328.223C217.33 326.976 217.282 323.25 219.881 321.937L325.675 268.469C328.282 267.151 328.224 263.408 325.576 262.173L239.064 221.812C236.36 220.551 236.373 216.702 239.084 215.459L377.1 152.147C379.893 150.865 379.797 146.863 376.945 145.718L199 74.252" stroke="url(#paint1_linear_3824_5374)" stroke-width="3.5" stroke-linecap="round"/>
</g>
<ellipse cx="197.664" cy="73.1669" rx="12.6639" ry="7.91496" fill="#07BCCE" fill-opacity="0.6"/>
<ellipse cx="197.666" cy="73.1657" rx="9.49795" ry="5.54048" fill="#69FE97"/>
<g filter="url(#filter2_f_3824_5374)">
<ellipse cx="197.666" cy="73.1657" rx="9.49795" ry="5.54048" fill="#69FE97"/>
</g>
<ellipse cx="197.667" cy="73.1672" rx="6.33197" ry="3.16598" fill="#5468E4"/>
<path d="M210.857 48.537L210.858 48.5363C217.954 41.1495 217.954 29.1758 210.858 21.789C203.757 14.3981 192.243 14.3981 185.142 21.789C178.046 29.1758 178.046 41.1495 185.142 48.5363L185.272 48.4116L185.142 48.5363C185.754 49.1733 186.514 49.9555 187.421 50.8827L187.422 50.8833L194.639 58.1908L194.639 58.1912C196.512 60.0771 199.488 60.0774 201.361 58.1916C204.247 55.2876 206.594 52.9116 208.403 51.0635L208.403 51.063L210.857 48.537ZM208.405 46.0044L208.535 46.1291L208.405 46.0044C207.749 46.6873 206.937 47.5239 205.967 48.5142L198.95 55.6176C198.95 55.6176 198.95 55.6176 198.95 55.6177C198.42 56.1516 197.581 56.1514 197.05 55.6174C194.488 53.0375 192.36 50.8851 190.667 49.1609C190.667 49.1609 190.667 49.1609 190.667 49.1608L187.595 46.0044C187.594 46.0043 187.594 46.0041 187.594 46.004C181.843 40.017 181.843 30.3076 187.595 24.3207C193.342 18.3378 202.658 18.3378 208.405 24.3207C214.157 30.3077 214.157 40.0175 208.405 46.0044ZM204.385 35.7548C204.385 32.0951 201.533 29.1159 198 29.1159C194.467 29.1159 191.615 32.0951 191.615 35.7548C191.615 39.4145 194.467 42.3936 198 42.3936C201.533 42.3936 204.385 39.4145 204.385 35.7548ZM195.076 35.7548C195.076 34.0628 196.392 32.7037 198 32.7037C199.608 32.7037 200.924 34.0628 200.924 35.7548C200.924 37.4468 199.608 38.8058 198 38.8058C196.392 38.8058 195.076 37.4468 195.076 35.7548Z" fill="url(#paint2_linear_3824_5374)" stroke="url(#paint3_linear_3824_5374)" stroke-width="0.36"/>
<path d="M364.817 392.053C364.817 393.351 363.95 394.849 361.863 396.127C359.809 397.384 356.846 398.226 353.467 398.226C350.087 398.226 347.124 397.384 345.071 396.127C342.984 394.849 342.116 393.351 342.116 392.053C342.116 390.754 342.984 389.256 345.071 387.978C347.124 386.721 350.087 385.879 353.467 385.879C356.846 385.879 359.809 386.721 361.863 387.978C363.95 389.256 364.817 390.754 364.817 392.053Z" stroke="#69FF97" stroke-width="4"/>
<g filter="url(#filter3_f_3824_5374)">
<path d="M364.817 392.053C364.817 393.351 363.95 394.849 361.863 396.127C359.809 397.384 356.846 398.226 353.467 398.226C350.087 398.226 347.124 397.384 345.071 396.127C342.984 394.849 342.116 393.351 342.116 392.053C342.116 390.754 342.984 389.256 345.071 387.978C347.124 386.721 350.087 385.879 353.467 385.879C356.846 385.879 359.809 386.721 361.863 387.978C363.95 389.256 364.817 390.754 364.817 392.053Z" stroke="#69FF97" stroke-width="4"/>
</g>
</g>
<defs>
<filter id="filter0_d_3824_5374" x="0.299999" y="0.365673" width="538.364" height="502.252" filterUnits="userSpaceOnUse" color-interpolation-filters="sRGB">
<feFlood flood-opacity="0" result="BackgroundImageFix"/>
<feColorMatrix in="SourceAlpha" type="matrix" values="0 0 0 0 0 0 0 0 0 0 0 0 0 0 0 0 0 0 127 0" result="hardAlpha"/>
<feOffset dy="3"/>
<feGaussianBlur stdDeviation="9.35"/>
<feComposite in2="hardAlpha" operator="out"/>
<feColorMatrix type="matrix" values="0 0 0 0 0 0 0 0 0 0 0 0 0 0 0 0 0 0 0.25 0"/>
<feBlend mode="normal" in2="BackgroundImageFix" result="effect1_dropShadow_3824_5374"/>
<feBlend mode="normal" in="SourceGraphic" in2="effect1_dropShadow_3824_5374" result="shape"/>
</filter>
<filter id="filter1_f_3824_5374" x="188.75" y="64.0015" width="200.641" height="333.501" filterUnits="userSpaceOnUse" color-interpolation-filters="sRGB">
<feFlood flood-opacity="0" result="BackgroundImageFix"/>
<feBlend mode="normal" in="SourceGraphic" in2="BackgroundImageFix" result="shape"/>
<feGaussianBlur stdDeviation="4.25" result="effect1_foregroundBlur_3824_5374"/>
</filter>
<filter id="filter2_f_3824_5374" x="180.168" y="59.6252" width="34.9958" height="27.0811" filterUnits="userSpaceOnUse" color-interpolation-filters="sRGB">
<feFlood flood-opacity="0" result="BackgroundImageFix"/>
<feBlend mode="normal" in="SourceGraphic" in2="BackgroundImageFix" result="shape"/>
<feGaussianBlur stdDeviation="4" result="effect1_foregroundBlur_3824_5374"/>
</filter>
<filter id="filter3_f_3824_5374" x="321.116" y="364.879" width="64.7013" height="54.3477" filterUnits="userSpaceOnUse" color-interpolation-filters="sRGB">
<feFlood flood-opacity="0" result="BackgroundImageFix"/>
<feBlend mode="normal" in="SourceGraphic" in2="BackgroundImageFix" result="shape"/>
<feGaussianBlur stdDeviation="9.5" result="effect1_foregroundBlur_3824_5374"/>
</filter>
<linearGradient id="paint0_linear_3824_5374" x1="289.25" y1="73.252" x2="289.25" y2="387.252" gradientUnits="userSpaceOnUse">
<stop stop-color="#6E4BEE"/>
<stop offset="1" stop-color="#00EAFF"/>
</linearGradient>
<linearGradient id="paint1_linear_3824_5374" x1="291.75" y1="74.252" x2="291.75" y2="387.252" gradientUnits="userSpaceOnUse">
<stop stop-color="#6E4BEE"/>
<stop offset="1" stop-color="#00EAFF"/>
</linearGradient>
<linearGradient id="paint2_linear_3824_5374" x1="198" y1="16.4258" x2="198" y2="59.4258" gradientUnits="userSpaceOnUse">
<stop stop-color="#69FE97"/>
<stop offset="1" stop-color="#07BCCE"/>
</linearGradient>
<linearGradient id="paint3_linear_3824_5374" x1="198" y1="16.4258" x2="198" y2="59.4258" gradientUnits="userSpaceOnUse">
<stop stop-color="#69FE97"/>
<stop offset="1" stop-color="#69FE97" stop-opacity="0"/>
</linearGradient>
</defs>
</svg>
