<svg width="126" height="39" viewBox="0 0 126 39" fill="none" xmlns="http://www.w3.org/2000/svg">
<rect width="126" height="39"/>
<path d="M2.84937 34.3597H3.23097V37.3642H2.84937V36.8553C2.6376 37.0935 2.37341 37.2543 2.05681 37.3337C1.74021 37.413 1.4278 37.3968 1.12168 37.2868C0.815565 37.1769 0.568154 36.9897 0.381547 36.7311C0.192843 36.4706 0.100586 36.1815 0.100586 35.864C0.100586 35.5464 0.19494 35.2574 0.381547 34.9968C0.57025 34.7363 0.815565 34.551 1.12168 34.4411C1.4278 34.3292 1.74021 34.3149 2.05681 34.3943C2.37341 34.4737 2.6376 34.6345 2.84937 34.8788V34.3638V34.3597ZM0.832337 36.7372C1.06717 36.9958 1.34393 37.124 1.66473 37.124C1.98553 37.124 2.26019 36.9958 2.49712 36.7372C2.73195 36.4787 2.84937 36.1876 2.84937 35.864C2.84937 35.5403 2.73195 35.2492 2.49712 34.9927C2.26229 34.7363 1.98553 34.6101 1.66473 34.6101C1.34393 34.6101 1.06717 34.7383 0.832337 34.9927C0.597506 35.2492 0.480092 35.5383 0.480092 35.864C0.480092 36.1897 0.597506 36.4808 0.832337 36.7372Z" fill="#C0C0C0"/>
<path d="M8.93995 34.3658H9.32154V38.5001H8.93995V36.8533C8.72818 37.0915 8.46399 37.2523 8.14739 37.3317C7.83079 37.4111 7.51838 37.3968 7.21226 37.2869C6.90614 37.177 6.65873 36.9917 6.47212 36.7312C6.28342 36.4686 6.19116 36.1795 6.19116 35.8599C6.19116 35.5404 6.28551 35.2533 6.47212 34.9928C6.65873 34.7322 6.90614 34.547 7.21226 34.4371C7.51838 34.3251 7.83079 34.3109 8.14739 34.3903C8.46399 34.4697 8.72818 34.6305 8.93995 34.8747V34.3658ZM6.92291 36.7291C7.15774 36.9856 7.43451 37.1118 7.7553 37.1118C8.0761 37.1118 8.35077 36.9836 8.58769 36.7291C8.82252 36.4747 8.93995 36.1856 8.93995 35.862C8.93995 35.5383 8.82252 35.2493 8.58769 34.9887C8.35286 34.7282 8.0761 34.5999 7.7553 34.5999C7.43451 34.5999 7.15774 34.7302 6.92291 34.9887C6.68808 35.2493 6.57067 35.5404 6.57067 35.862C6.57067 36.1836 6.68808 36.4727 6.92291 36.7291Z" fill="#C0C0C0"/>
<path d="M14.6628 34.3724H15.0444V37.3627H14.6628V36.8599C14.5454 36.9902 14.4133 37.094 14.2623 37.1734C14.1806 37.2161 14.0946 37.2507 14.0045 37.2812C13.8325 37.3362 13.6522 37.3627 13.4677 37.3627C13.2098 37.3708 12.9771 37.2934 12.7758 37.1306C12.7548 37.1143 12.7318 37.096 12.7108 37.0736C12.478 36.8131 12.3711 36.5098 12.3942 36.1617V34.3704H12.7758V36.1617C12.7548 36.408 12.8261 36.6278 12.9896 36.8212C13.128 36.9474 13.2916 37.0166 13.4824 37.0288C13.7843 37.0573 14.0569 36.9942 14.298 36.8334C14.5391 36.6746 14.6628 36.4507 14.667 36.1617V34.3704L14.6628 34.3724Z" fill="#C0C0C0"/>
<path d="M18.474 33.8288C18.4342 33.8655 18.3901 33.8817 18.3377 33.8817C18.2853 33.8817 18.2413 33.8634 18.2056 33.8288C18.17 33.7942 18.1511 33.7494 18.1511 33.7006C18.1511 33.6517 18.17 33.6069 18.2056 33.5723C18.2413 33.5377 18.2874 33.5194 18.3377 33.5194C18.388 33.5194 18.4342 33.5377 18.474 33.5723C18.5139 33.6069 18.5327 33.6517 18.5327 33.7006C18.5327 33.7494 18.5139 33.7942 18.474 33.8288ZM18.5327 37.3626H18.1511V34.3662H18.5327V37.3626Z" fill="#C0C0C0"/>
<path d="M26.9008 35.7545C27.056 35.7972 27.188 35.8481 27.295 35.9092C27.4019 35.9702 27.4858 36.0354 27.5403 36.1066C27.5969 36.1779 27.6346 36.2471 27.6577 36.3143C27.6787 36.3814 27.6892 36.4506 27.6892 36.5219C27.6892 36.756 27.578 36.9555 27.3558 37.1183C27.1335 37.2812 26.8631 37.3626 26.5444 37.3626C26.255 37.3626 25.9971 37.2954 25.7686 37.159C25.54 37.0226 25.4038 36.8537 25.3618 36.6542L25.6197 36.6033C25.7099 36.7662 25.8378 36.8944 26.0013 36.984C26.1649 37.0735 26.3431 37.1142 26.5318 37.1061C26.7519 37.1061 26.9406 37.0532 27.0979 36.9494C27.2551 36.8455 27.3348 36.7031 27.3348 36.5219C27.3348 36.3407 27.1587 36.2023 26.8044 36.1127C26.7394 36.0964 26.6303 36.0741 26.4752 36.0496C26.3682 36.0293 26.2928 36.015 26.2487 36.0049C25.9803 35.9499 25.7728 35.8522 25.6218 35.7097C25.4708 35.5672 25.3954 35.3982 25.3954 35.2008C25.3954 34.9626 25.5065 34.7611 25.7287 34.5983C25.951 34.4354 26.2236 34.354 26.5465 34.354C26.7498 34.354 26.9385 34.4029 27.1168 34.5026C27.2929 34.6003 27.4334 34.7367 27.5382 34.9077L27.2929 35.0156C27.2111 34.8894 27.1042 34.7917 26.9721 34.7204C26.84 34.6492 26.6995 34.6125 26.5486 34.6125C26.4144 34.6125 26.2844 34.6431 26.1607 34.7062C26.0349 34.7693 25.9384 34.8446 25.8671 34.9362C25.7958 35.0257 25.7602 35.1153 25.7602 35.2028C25.7602 35.4206 25.951 35.5692 26.3305 35.6486C26.364 35.6527 26.4353 35.6649 26.5444 35.6873C26.7121 35.7158 26.8337 35.7402 26.9071 35.7565L26.9008 35.7545Z" fill="#C0C0C0"/>
<path d="M32.0399 37.1238C32.1825 37.1157 32.3187 37.0831 32.4508 37.0302C32.5829 36.9752 32.7004 36.902 32.8031 36.8063C32.9058 36.7106 32.9918 36.6027 33.0547 36.4765L33.4426 36.5274C33.3168 36.7697 33.1386 36.9691 32.9058 37.1218C32.6731 37.2745 32.4173 37.36 32.1384 37.3763C31.8596 37.3925 31.5954 37.3416 31.3417 37.2215C31.0901 37.1014 30.8846 36.9284 30.7294 36.7025C30.6812 36.6272 30.6393 36.5478 30.5995 36.4643C30.4317 36.0918 30.4212 35.7132 30.5701 35.3305C30.719 34.9478 30.9831 34.6669 31.3626 34.4918C31.7422 34.3168 32.1321 34.2944 32.5347 34.4267C32.9352 34.559 33.2308 34.8053 33.4216 35.1656C33.4384 35.1982 33.4531 35.2308 33.4677 35.2592C33.4929 35.3101 33.516 35.361 33.5327 35.416L31.067 36.5539C31.1656 36.7249 31.3018 36.8613 31.4759 36.963C31.6478 37.0628 31.8365 37.1177 32.0399 37.1259V37.1238ZM30.9454 36.3076L33.0882 35.3203C32.9981 35.1147 32.8576 34.9478 32.6668 34.8175C32.476 34.6873 32.2684 34.618 32.0399 34.6099C31.7212 34.6099 31.4423 34.7381 31.2075 34.9926C30.9727 35.2491 30.8552 35.5381 30.8552 35.8597C30.8552 36.0144 30.8846 36.163 30.9454 36.3055V36.3076Z" fill="#C0C0C0"/>
<path d="M38.6667 34.3724H39.0483V37.3627H38.6667V36.8599C38.5493 36.9902 38.4172 37.094 38.2663 37.1734C38.1845 37.2161 38.0985 37.2507 38.0084 37.2812C37.8364 37.3362 37.6561 37.3627 37.4716 37.3627C37.2137 37.3708 36.981 37.2934 36.7797 37.1306C36.7587 37.1143 36.7357 37.096 36.7147 37.0736C36.482 36.8131 36.375 36.5098 36.3981 36.1617V34.3704H36.7797V36.1617C36.7587 36.408 36.83 36.6278 36.9936 36.8212C37.1319 36.9474 37.2955 37.0166 37.4863 37.0288C37.7882 37.0573 38.0608 36.9942 38.3019 36.8334C38.543 36.6746 38.6667 36.4507 38.6709 36.1617V34.3704L38.6667 34.3724Z" fill="#C0C0C0"/>
<path d="M48.2522 34.3724H48.6338V37.3627H48.2522V36.8599C48.1348 36.9902 48.0027 37.094 47.8517 37.1734C47.7699 37.2161 47.684 37.2507 47.5938 37.2812C47.4219 37.3362 47.2416 37.3627 47.0571 37.3627C46.7992 37.3708 46.5664 37.2934 46.3651 37.1306C46.3442 37.1143 46.3211 37.096 46.3001 37.0736C46.0674 36.8131 45.9605 36.5098 45.9835 36.1617V34.3704H46.3651V36.1617C46.3442 36.408 46.4155 36.6278 46.579 36.8212C46.7174 36.9474 46.8809 37.0166 47.0717 37.0288C47.3737 37.0573 47.6462 36.9942 47.8874 36.8334C48.1285 36.6746 48.2522 36.4507 48.2564 36.1617V34.3704L48.2522 34.3724Z" fill="#C0C0C0"/>
<path d="M53.1324 35.7545C53.2875 35.7972 53.4196 35.8481 53.5266 35.9092C53.6335 35.9702 53.7174 36.0354 53.7719 36.1066C53.8285 36.1779 53.8662 36.2471 53.8893 36.3143C53.9103 36.3814 53.9208 36.4506 53.9208 36.5219C53.9208 36.756 53.8096 36.9555 53.5874 37.1183C53.3651 37.2812 53.0946 37.3626 52.7759 37.3626C52.4866 37.3626 52.2287 37.2954 52.0002 37.159C51.7716 37.0226 51.6353 36.8537 51.5913 36.6542L51.8492 36.6033C51.9394 36.7662 52.0673 36.8944 52.2308 36.984C52.3944 37.0735 52.5726 37.1142 52.7613 37.1061C52.9814 37.1061 53.1701 37.0532 53.3274 36.9494C53.4846 36.8455 53.5643 36.7031 53.5643 36.5219C53.5643 36.3407 53.3882 36.2023 53.0338 36.1127C52.9688 36.0964 52.8598 36.0741 52.7047 36.0496C52.5977 36.0293 52.5202 36.015 52.4782 36.0049C52.2098 35.9499 52.0023 35.8522 51.8513 35.7097C51.7003 35.5672 51.6249 35.3982 51.6249 35.2008C51.6249 34.9626 51.736 34.7611 51.9582 34.5983C52.1805 34.4354 52.4531 34.354 52.778 34.354C52.9814 34.354 53.1701 34.4029 53.3483 34.5026C53.5245 34.6003 53.665 34.7367 53.7698 34.9077L53.5245 35.0156C53.4427 34.8894 53.3358 34.7917 53.2037 34.7204C53.0716 34.6492 52.9311 34.6125 52.7801 34.6125C52.646 34.6125 52.516 34.6431 52.3923 34.7062C52.2664 34.7693 52.1679 34.8446 52.0987 34.9362C52.0274 35.0257 51.9918 35.1153 51.9918 35.2028C51.9918 35.4206 52.1826 35.5692 52.5621 35.6486C52.5956 35.6527 52.6669 35.6649 52.7759 35.6873C52.9437 35.7158 53.0653 35.7402 53.1387 35.7565L53.1324 35.7545Z" fill="#C0C0C0"/>
<path d="M59.4565 34.3598H59.8381V37.3643H59.4565V36.8554C59.2448 37.0936 58.9806 37.2544 58.664 37.3338C58.3474 37.4132 58.035 37.3969 57.7289 37.287C57.4227 37.177 57.1753 36.9898 56.9887 36.7312C56.8021 36.4707 56.7078 36.1816 56.7078 35.8641C56.7078 35.5465 56.8021 35.2575 56.9887 34.9969C57.1774 34.7364 57.4227 34.5511 57.7289 34.4412C58.035 34.3313 58.3474 34.315 58.664 34.3944C58.9806 34.4738 59.2448 34.6346 59.4565 34.8789V34.3639V34.3598ZM57.4395 36.7373C57.6743 36.9959 57.9511 37.1241 58.2719 37.1241C58.5927 37.1241 58.8695 36.9959 59.1043 36.7373C59.3391 36.4788 59.4565 36.1877 59.4565 35.8641C59.4565 35.5404 59.3391 35.2493 59.1043 34.9929C58.8695 34.7364 58.5927 34.6102 58.2719 34.6102C57.9511 34.6102 57.6743 34.7384 57.4395 34.9929C57.2047 35.2473 57.0873 35.5384 57.0873 35.8641C57.0873 36.1898 57.2047 36.4809 57.4395 36.7373Z" fill="#C0C0C0"/>
<path d="M65.9285 33.222V37.3624H65.5469V36.8535C65.3351 37.0917 65.0709 37.2525 64.7543 37.3319C64.4377 37.4113 64.1253 37.397 63.8192 37.2871C63.5131 37.1772 63.2657 36.9919 63.0791 36.7314C62.8925 36.4688 62.7981 36.1797 62.7981 35.8642C62.7981 35.5487 62.8925 35.2597 63.0791 34.9971C63.2678 34.7345 63.5131 34.5492 63.8192 34.4373C64.1253 34.3253 64.4377 34.3111 64.7543 34.3905C65.0709 34.4699 65.3351 34.6307 65.5469 34.8749V33.222H65.9285ZM65.1946 36.7375C65.4295 36.479 65.5469 36.1879 65.5469 35.8642C65.5469 35.5406 65.4295 35.2495 65.1946 34.993C64.9598 34.7365 64.683 34.6103 64.3622 34.6103C64.0414 34.6103 63.7647 34.7385 63.5299 34.993C63.295 35.2474 63.1776 35.5385 63.1776 35.8642C63.1776 36.1899 63.295 36.481 63.5299 36.7375C63.7647 36.994 64.0414 37.1242 64.3622 37.1242C64.683 37.1242 64.9598 36.996 65.1946 36.7375Z" fill="#C0C0C0"/>
<path d="M69.3461 34.7912C69.6523 34.496 70.0213 34.3474 70.4532 34.3474C70.8851 34.3474 71.252 34.496 71.5561 34.7912C71.8601 35.0863 72.0131 35.4446 72.0131 35.8619C72.0131 36.2792 71.8601 36.6395 71.5561 36.9367C71.252 37.2339 70.883 37.3825 70.4532 37.3825C70.0234 37.3825 69.6523 37.2339 69.3461 36.9367C69.04 36.6395 68.887 36.2812 68.887 35.8619C68.887 35.4426 69.04 35.0863 69.3461 34.7912ZM69.6187 36.7392C69.8514 36.9977 70.1282 37.126 70.4511 37.126C70.774 37.126 71.0508 36.9977 71.2856 36.7392C71.5204 36.4807 71.6378 36.1896 71.6378 35.8619C71.6378 35.5342 71.5204 35.2512 71.2856 34.9947C71.0508 34.7382 70.7719 34.612 70.4511 34.612C70.1303 34.612 69.8514 34.7403 69.6187 34.9947C69.386 35.2512 69.2686 35.5403 69.2686 35.866C69.2686 36.1916 69.386 36.4827 69.6187 36.7392Z" fill="#C0C0C0"/>
<path d="M81.5596 34.3596H81.8699L80.4211 37.3641H79.9808L78.532 34.3596H78.9534L80.2555 37.0669L81.5638 34.3596H81.5596Z" fill="#C0C0C0"/>
<path d="M87.1248 34.3598H87.5064V37.3643H87.1248V36.8554C86.913 37.0936 86.6488 37.2544 86.3322 37.3338C86.0156 37.4132 85.7032 37.3969 85.3971 37.287C85.091 37.177 84.8435 36.9898 84.6569 36.7312C84.4703 36.4707 84.376 36.1816 84.376 35.8641C84.376 35.5465 84.4703 35.2575 84.6569 34.9969C84.8456 34.7364 85.091 34.5511 85.3971 34.4412C85.7032 34.3313 86.0156 34.315 86.3322 34.3944C86.6488 34.4738 86.913 34.6346 87.1248 34.8789V34.3639V34.3598ZM85.1077 36.7373C85.3426 36.9959 85.6193 37.1241 85.9401 37.1241C86.2609 37.1241 86.5377 36.9959 86.7725 36.7373C87.0073 36.4788 87.1248 36.1877 87.1248 35.8641C87.1248 35.5404 87.0073 35.2493 86.7725 34.9929C86.5377 34.7364 86.2609 34.6102 85.9401 34.6102C85.6193 34.6102 85.3426 34.7384 85.1077 34.9929C84.8729 35.2493 84.7555 35.5384 84.7555 35.8641C84.7555 36.1898 84.8729 36.4809 85.1077 36.7373Z" fill="#C0C0C0"/>
<path d="M91.0003 37.3649H90.6187V33.2245H91.0003V37.3649Z" fill="#C0C0C0"/>
<path d="M95.5199 37.1238C95.6624 37.1157 95.7987 37.0831 95.9308 37.0302C96.0629 36.9752 96.1803 36.902 96.2831 36.8063C96.3858 36.7106 96.4697 36.6027 96.5347 36.4765L96.9226 36.5274C96.7968 36.7697 96.6185 36.9691 96.3858 37.1218C96.1531 37.2745 95.8973 37.36 95.6184 37.3763C95.3395 37.3925 95.0754 37.3416 94.8217 37.2215C94.5701 37.1014 94.3646 36.9284 94.2094 36.7025C94.1612 36.6272 94.1193 36.5478 94.0794 36.4643C93.9117 36.0918 93.9012 35.7132 94.0501 35.3305C94.1989 34.9478 94.4631 34.6669 94.8426 34.4918C95.2221 34.3168 95.6121 34.2944 96.0147 34.4267C96.4152 34.559 96.7108 34.8053 96.9016 35.1656C96.9184 35.1982 96.933 35.2308 96.9477 35.2592C96.9729 35.3101 96.9959 35.361 97.0127 35.416L94.547 36.5539C94.6455 36.7249 94.7818 36.8613 94.9558 36.963C95.1278 37.0628 95.3165 37.1177 95.5199 37.1259V37.1238ZM94.4254 36.3076L96.5682 35.3203C96.4781 35.1147 96.3376 34.9478 96.1468 34.8175C95.956 34.6873 95.7484 34.618 95.5199 34.6099C95.2012 34.6099 94.9223 34.7381 94.6875 34.9926C94.4526 35.2491 94.3352 35.5381 94.3352 35.8597C94.3352 36.0144 94.3646 36.163 94.4254 36.3055V36.3076Z" fill="#C0C0C0"/>
<path d="M107.397 34.5612C107.617 34.779 107.722 35.0416 107.713 35.3469V37.3642H107.338V35.3469C107.338 35.3082 107.334 35.2655 107.325 35.2187C107.317 35.1698 107.3 35.1067 107.273 35.0273C107.248 34.9479 107.2 34.8808 107.13 34.8258C107.061 34.7708 106.977 34.7444 106.879 34.7444C106.621 34.7322 106.399 34.8115 106.212 34.9866C106.025 35.1596 105.937 35.3734 105.946 35.6237V37.3642H105.564V35.3469C105.564 35.3225 105.562 35.2919 105.558 35.2594C105.554 35.2268 105.543 35.1759 105.526 35.1108C105.51 35.0456 105.487 34.9886 105.459 34.9378C105.432 34.8869 105.386 34.8421 105.323 34.8034C105.26 34.7627 105.189 34.7444 105.107 34.7444C104.853 34.7322 104.633 34.8115 104.447 34.9825C104.262 35.1535 104.17 35.3652 104.174 35.6176V37.3642H103.792V34.3678H104.174V34.8828C104.281 34.7322 104.417 34.6121 104.581 34.5245C104.744 34.437 104.921 34.3861 105.105 34.3739C105.304 34.3698 105.476 34.4329 105.623 34.5632C105.745 34.6731 105.828 34.8054 105.875 34.9662C105.908 34.9194 105.933 34.8909 105.946 34.8787C105.998 34.8075 106.059 34.7423 106.126 34.6813C106.195 34.6202 106.269 34.5693 106.348 34.5266C106.428 34.4838 106.512 34.4513 106.6 34.4268C106.688 34.4024 106.78 34.3841 106.875 34.3759C107.074 34.3719 107.246 34.435 107.393 34.5652L107.397 34.5612Z" fill="#C0C0C0"/>
<path d="M113.389 34.3598H113.771V37.3643H113.389V36.8554C113.177 37.0936 112.913 37.2544 112.596 37.3338C112.28 37.4132 111.967 37.3969 111.661 37.287C111.355 37.177 111.108 36.9898 110.921 36.7312C110.734 36.4707 110.64 36.1816 110.64 35.8641C110.64 35.5465 110.734 35.2575 110.921 34.9969C111.11 34.7364 111.355 34.5511 111.661 34.4412C111.967 34.3313 112.28 34.315 112.596 34.3944C112.913 34.4738 113.177 34.6346 113.389 34.8789V34.3639V34.3598ZM111.372 36.7373C111.607 36.9959 111.883 37.1241 112.204 37.1241C112.525 37.1241 112.802 36.9959 113.037 36.7373C113.272 36.4788 113.389 36.1877 113.389 35.8641C113.389 35.5404 113.272 35.2493 113.037 34.9929C112.802 34.7364 112.525 34.6102 112.204 34.6102C111.883 34.6102 111.607 34.7384 111.372 34.9929C111.137 35.2493 111.02 35.5384 111.02 35.8641C111.02 36.1898 111.137 36.4809 111.372 36.7373Z" fill="#C0C0C0"/>
<path d="M117.207 33.8288C117.17 33.8655 117.124 33.8817 117.071 33.8817C117.019 33.8817 116.975 33.8634 116.939 33.8288C116.901 33.7942 116.885 33.7494 116.885 33.7006C116.885 33.6517 116.903 33.6069 116.939 33.5723C116.975 33.5377 117.021 33.5194 117.071 33.5194C117.121 33.5194 117.168 33.5377 117.207 33.5723C117.247 33.6069 117.266 33.6517 117.266 33.7006C117.266 33.7494 117.247 33.7942 117.207 33.8288ZM117.266 37.3626H116.885V34.3662H117.266V37.3626Z" fill="#C0C0C0"/>
<path d="M121.764 35.7545C121.92 35.7972 122.052 35.8481 122.159 35.9092C122.266 35.9702 122.349 36.0354 122.404 36.1066C122.461 36.1779 122.498 36.2471 122.521 36.3143C122.542 36.3814 122.553 36.4506 122.553 36.5219C122.553 36.756 122.442 36.9555 122.219 37.1183C121.997 37.2812 121.727 37.3626 121.408 37.3626C121.119 37.3626 120.861 37.2954 120.632 37.159C120.404 37.0226 120.267 36.8537 120.223 36.6542L120.481 36.6033C120.571 36.7662 120.699 36.8944 120.863 36.984C121.026 37.0735 121.205 37.1142 121.393 37.1061C121.614 37.1061 121.802 37.0532 121.959 36.9494C122.117 36.8455 122.196 36.7031 122.196 36.5219C122.196 36.3407 122.02 36.2023 121.666 36.1127C121.601 36.0964 121.492 36.0741 121.337 36.0496C121.23 36.0293 121.152 36.015 121.11 36.0049C120.842 35.9499 120.634 35.8522 120.483 35.7097C120.332 35.5672 120.257 35.3982 120.257 35.2008C120.257 34.9626 120.368 34.7611 120.59 34.5983C120.813 34.4354 121.085 34.354 121.41 34.354C121.614 34.354 121.802 34.4029 121.98 34.5026C122.157 34.6003 122.297 34.7367 122.402 34.9077L122.157 35.0156C122.075 34.8894 121.968 34.7917 121.836 34.7204C121.704 34.6492 121.563 34.6125 121.412 34.6125C121.278 34.6125 121.148 34.6431 121.024 34.7062C120.899 34.7693 120.8 34.8446 120.731 34.9362C120.66 35.0257 120.624 35.1153 120.624 35.2028C120.624 35.4206 120.815 35.5692 121.194 35.6486C121.228 35.6527 121.299 35.6649 121.408 35.6873C121.576 35.7158 121.697 35.7402 121.771 35.7565L121.764 35.7545Z" fill="#C0C0C0"/>
<path d="M125.55 36.9782C125.592 36.9375 125.64 36.9192 125.698 36.9192C125.757 36.9192 125.805 36.9395 125.843 36.9782C125.883 37.0189 125.902 37.0657 125.902 37.1227C125.902 37.1797 125.883 37.2266 125.843 37.2673C125.803 37.308 125.755 37.3263 125.698 37.3263C125.642 37.3263 125.592 37.3059 125.55 37.2673C125.508 37.2266 125.489 37.1797 125.489 37.1227C125.489 37.0657 125.51 37.0189 125.55 36.9782ZM125.805 36.51H125.592L125.508 33.2368H125.889L125.805 36.51Z" fill="#C0C0C0"/>
<path d="M8.59511 7.48436C8.59511 8.54693 8.38335 9.31027 7.95981 9.77438C7.53628 10.2405 6.94291 10.4726 6.1818 10.4726C5.4207 10.4726 4.82314 10.2405 4.39331 9.77438C3.96349 9.30823 3.74753 8.54489 3.74753 7.48436V0.62854H0.097168V7.59021C0.097168 9.44055 0.627634 10.8716 1.69276 11.8853C2.75579 12.899 4.24026 13.4058 6.14406 13.4058C8.04787 13.4058 9.51976 12.899 10.5954 11.8853C11.671 10.8716 12.2077 9.43851 12.2077 7.59021V0.62854H8.59511V7.48436Z" fill="#C0C0C0"/>
<path d="M23.1154 6.794C22.6793 6.5253 22.2034 6.31157 21.6876 6.14872C21.1718 5.98791 20.6518 5.85357 20.1297 5.74568C19.6076 5.6378 19.1317 5.53398 18.7019 5.4322C18.272 5.33042 17.9219 5.20015 17.6514 5.03934C17.3809 4.87853 17.2467 4.65461 17.2467 4.36759C17.2467 4.17625 17.3138 3.99712 17.4501 3.8302C17.5843 3.66329 17.8066 3.5269 18.1148 3.41901C18.4209 3.31113 18.8277 3.25821 19.3309 3.25821C19.897 3.25821 20.4799 3.33556 21.0816 3.49026C21.6834 3.64496 22.2914 3.88923 22.9057 4.22307L24.0128 1.60939C23.3859 1.23892 22.6646 0.962079 21.8469 0.776841C21.0292 0.591604 20.1968 0.5 19.3497 0.5C18.0833 0.5 17.0266 0.68524 16.1795 1.05571C15.3324 1.42619 14.6992 1.91473 14.2799 2.52336C13.8627 3.132 13.653 3.80577 13.653 4.54672C13.653 5.21439 13.7851 5.7701 14.0493 6.21182C14.3135 6.65354 14.6615 7.0118 15.0913 7.28661C15.5212 7.56141 16.0013 7.78125 16.5297 7.94817C17.058 8.11509 17.578 8.24944 18.0875 8.35121C18.597 8.45299 19.0709 8.56088 19.507 8.67283C19.9431 8.78682 20.2974 8.92321 20.5679 9.08402C20.8384 9.24483 20.9726 9.46264 20.9726 9.73744C20.9726 9.95321 20.9013 10.1364 20.7608 10.2932C20.6203 10.4479 20.3981 10.568 20.0962 10.6514C19.7942 10.7349 19.3875 10.7776 18.8696 10.7776C18.119 10.7776 17.3663 10.6616 16.6114 10.4295C15.8545 10.1975 15.1878 9.90232 14.6112 9.54406L13.4119 12.1761C14.0136 12.5689 14.8041 12.8946 15.7811 13.1511C16.7582 13.4076 17.7814 13.5358 18.8507 13.5358C20.1297 13.5358 21.1927 13.3506 22.0398 12.9801C22.8869 12.6096 23.5243 12.1191 23.9478 11.5043C24.3713 10.8896 24.5831 10.2178 24.5831 9.49114C24.5831 8.83568 24.4468 8.29014 24.1784 7.8525C23.908 7.41688 23.5536 7.06473 23.1175 6.79603L23.1154 6.794Z" fill="#C0C0C0"/>
<path d="M31.4763 0.754761L25.7795 13.2837H29.5033L30.516 10.8309H35.9737L36.9864 13.2837H40.7836L35.0679 0.754761H31.4721H31.4763ZM31.5895 8.2355L33.2459 4.22949L34.9023 8.2355H31.5895Z" fill="#C0C0C0"/>
<path d="M51.8299 1.52421C50.748 1.01124 49.5004 0.754761 48.0873 0.754761H41.9858V13.2837H48.0873C49.5004 13.2837 50.748 13.0272 51.8299 12.5143C52.9118 12.0013 53.7567 11.2766 54.3648 10.3403C54.9728 9.40392 55.2769 8.29046 55.2769 7.00194C55.2769 5.71342 54.9728 4.62236 54.3648 3.69006C53.7567 2.75981 52.9118 2.03717 51.8299 1.52421ZM51.1296 8.85432C50.8214 9.37339 50.3957 9.77033 49.8485 10.0451C49.3012 10.3199 48.6534 10.4563 47.9027 10.4563H45.6362V3.58421H47.9027C48.6513 3.58421 49.3012 3.7206 49.8485 3.9954C50.3957 4.2702 50.8214 4.66103 51.1296 5.16789C51.4357 5.67475 51.5908 6.29356 51.5908 7.02026C51.5908 7.74696 51.4378 8.33525 51.1296 8.85432Z" fill="#C0C0C0"/>
<path d="M81.7833 7.85046C81.5128 7.41485 81.1585 7.0627 80.7224 6.794C80.2862 6.5253 79.8103 6.31157 79.2945 6.14872C78.7787 5.98587 78.2587 5.85357 77.7366 5.74568C77.2146 5.6378 76.7386 5.53398 76.3088 5.4322C75.879 5.33042 75.5288 5.20015 75.2583 5.03934C74.9879 4.87853 74.8537 4.65461 74.8537 4.36759C74.8537 4.17625 74.9208 3.99712 75.0571 3.8302C75.1912 3.66329 75.4135 3.5269 75.7217 3.41901C76.0278 3.31113 76.4346 3.25821 76.9378 3.25821C77.5039 3.25821 78.0868 3.33556 78.6885 3.49026C79.2903 3.64496 79.8983 3.88923 80.5127 4.22307L81.6197 1.60939C80.9928 1.23892 80.2716 0.962079 79.4538 0.776841C78.6361 0.591604 77.8037 0.5 76.9567 0.5C75.6903 0.5 74.6335 0.68524 73.7865 1.05571C72.9394 1.42619 72.3062 1.91473 71.8868 2.52336C71.4696 3.132 71.2599 3.80577 71.2599 4.54672C71.2599 5.21439 71.392 5.7701 71.6562 6.21182C71.9204 6.65354 72.2684 7.0118 72.6983 7.28661C73.1281 7.56141 73.6082 7.78125 74.1366 7.94817C74.665 8.11509 75.1849 8.24944 75.6944 8.35121C76.2039 8.45299 76.6778 8.56088 77.1139 8.67283C77.55 8.78682 77.9044 8.92321 78.1749 9.08402C78.4453 9.24483 78.5795 9.46264 78.5795 9.73744C78.5795 9.95321 78.5082 10.1364 78.3677 10.2932C78.2273 10.4479 78.005 10.568 77.7031 10.6514C77.4012 10.7349 76.9923 10.7776 76.4765 10.7776C75.7259 10.7776 74.9732 10.6616 74.2184 10.4295C73.4636 10.1975 72.7947 9.90232 72.2181 9.54406L71.0188 12.1761C71.6206 12.5689 72.411 12.8946 73.3881 13.1511C74.3651 13.4076 75.3883 13.5358 76.4577 13.5358C77.7366 13.5358 78.7997 13.3506 79.6467 12.9801C80.4938 12.6096 81.1312 12.1191 81.5547 11.5043C81.9783 10.8896 82.19 10.2178 82.19 9.49114C82.19 8.83568 82.0538 8.29014 81.7854 7.8525L81.7833 7.85046Z" fill="#C0C0C0"/>
<path d="M60.1512 9.49914C60.0107 9.52153 59.9583 9.72103 60.0946 9.87369C60.2225 9.99583 60.3483 9.95308 60.3986 9.88387C60.5077 9.72917 60.3399 9.46658 60.1512 9.49711V9.49914ZM59.5746 11.4879C59.5117 11.4655 59.4761 11.492 59.5012 11.5449C59.5117 11.5653 59.5264 11.5815 59.5369 11.5917C59.604 11.6548 59.6648 11.663 59.6879 11.6528C59.7403 11.6284 59.6648 11.5205 59.5746 11.4879ZM61.2268 12.0701C61.0947 11.9866 60.8914 11.9968 60.906 12.0864C60.9102 12.1128 60.9312 12.1332 60.9459 12.1454C61.0423 12.2207 61.1723 12.235 61.2352 12.2207C61.3254 12.2004 61.3212 12.1291 61.2268 12.068V12.0701ZM68.9238 4.83565C68.9238 4.81936 68.9238 4.79289 68.9196 4.76643C68.8966 4.6443 68.8106 4.48553 68.7792 4.53031C68.7519 4.56899 68.7855 4.74404 68.8609 4.84175C68.9113 4.89671 68.9217 4.85396 68.9238 4.83361V4.83565ZM67.3932 4.37764C67.4771 4.23312 67.2863 4.00513 67.1207 4.05398C67.0137 4.08655 66.9865 4.23108 67.1144 4.36339C67.2444 4.47942 67.3555 4.44074 67.3911 4.37764H67.3932ZM61.3967 5.71094C61.1849 5.74555 61.0507 6.00813 61.2142 6.19133C61.3631 6.32568 61.5413 6.24833 61.621 6.15063C61.7804 5.95114 61.6378 5.67226 61.3967 5.71094ZM68.1753 9.66606C68.2864 9.48693 68.2424 9.29152 68.0977 9.32205C67.9384 9.35665 67.7832 9.64978 67.8923 9.78616C67.9845 9.86962 68.1145 9.7658 68.1753 9.66606ZM67.1186 11.9215C67.1186 11.9215 67.1228 11.9256 67.1228 11.9276C67.1752 11.9561 67.322 11.8604 67.4016 11.7912C67.5169 11.6915 67.5715 11.5958 67.5169 11.5876C67.4058 11.5714 67.0745 11.8482 67.1186 11.9215ZM62.0865 9.56632C61.8894 9.5826 61.795 9.80244 61.9691 9.98361C62.1305 10.1261 62.3066 10.0834 62.38 10.008C62.5415 9.84112 62.3444 9.54393 62.0865 9.56632ZM65.6635 7.84626C65.4559 7.889 65.3489 8.15363 65.523 8.34498C65.6886 8.49154 65.871 8.41418 65.9486 8.31241C66.1122 8.09663 65.9256 7.79333 65.6635 7.84626ZM67.9237 11.3149C67.8902 11.4187 67.8105 11.5286 67.7119 11.6345C67.7455 11.6039 67.779 11.5754 67.8105 11.5429C68.3682 11.0014 68.8064 10.3928 69.1335 9.74341C69.0517 9.83501 68.949 9.98361 68.8651 10.1119C68.5779 10.5536 68.4332 10.7734 67.9258 11.3128L67.9237 11.3149ZM63.9966 4.39392C64.1538 4.52216 64.3341 4.47331 64.4117 4.39799C64.5669 4.24736 64.4243 4.01124 64.179 4.01531C63.9651 4.01938 63.8267 4.22497 63.9945 4.39189L63.9966 4.39392ZM68.0453 7.66916C68.234 7.62031 68.4856 7.54907 68.6701 7.48596C69.534 7.19691 69.6619 8.18416 69.6661 8.24116C70.1211 6.17709 69.5424 3.96238 67.9174 2.38481C65.3427 -0.114874 61.1178 -0.0680541 58.4843 2.48863C55.8509 5.04531 55.8006 9.14699 58.3774 11.6467C60.8201 14.0181 64.7472 14.0955 67.3932 11.9133C67.0724 12.1495 66.7244 12.2981 66.6887 12.178C66.6196 11.95 67.4331 11.2742 67.7665 11.2212C67.9237 11.1968 68.4668 10.4681 68.6911 10.1383C68.8421 9.91033 69.1796 9.40144 69.3579 9.24673C69.4417 9.0391 69.513 8.8274 69.5738 8.6157C69.5591 8.53021 69.5025 8.38772 69.2719 8.05796C69.123 7.88086 68.9784 7.85644 68.6995 7.96229C68.2655 8.12717 67.8189 8.29612 66.4896 8.3979C66.2191 9.13885 65.2252 9.1816 64.9254 8.46507C64.6256 7.75059 65.307 7.04017 66.0115 7.33126C66.2401 7.42489 66.4015 7.59792 66.4917 7.84626C67.1458 7.80555 67.171 7.80351 67.4897 7.7628C66.651 6.89361 65.8668 6.10991 64.5606 4.89467C63.7072 5.14301 63.1726 4.42446 63.4598 3.95628C63.8016 3.39446 64.8625 3.55526 64.9925 4.18833C65.0282 4.36542 64.9799 4.47534 64.9338 4.58323C65.8647 5.44428 66.8858 6.41321 68.0495 7.66712L68.0453 7.66916ZM68.6743 4.2209C68.7142 4.21683 68.7582 4.27586 68.7938 4.32268C68.8127 4.35321 68.84 4.39392 68.8567 4.42446C68.9196 4.53845 68.9469 4.66669 69.0098 4.78068C69.1419 5.01681 69.3306 5.21833 69.4375 5.46871C69.4459 5.49313 69.4585 5.5257 69.4669 5.55013C69.5046 5.6743 69.5466 5.82901 69.5822 5.97353C69.599 6.03053 69.6095 6.08549 69.6241 6.14452L69.6304 6.17912C69.6157 6.11602 69.599 6.04478 69.5822 5.97353C69.5277 5.77812 69.4229 5.56642 69.0664 5.0962C69.0433 5.35472 68.8903 5.1878 68.8609 5.15116C68.6093 4.85193 68.5422 4.23108 68.6743 4.21887V4.2209ZM66.6489 3.96034C66.7768 3.5858 67.4058 3.62041 67.6637 4.12319C67.756 4.30436 67.7455 4.44888 67.7371 4.52827C69.3201 6.13638 69.7017 6.83458 69.7415 7.13788V7.44932L69.7374 7.59385C69.6724 6.94653 68.06 5.29161 67.5673 4.799C67.0557 5.03513 66.5189 4.34303 66.6489 3.96034ZM61.9817 12.923C61.5686 12.8029 61.2876 12.7418 60.7886 12.5322C60.319 12.3205 60.1973 12.2004 59.757 11.8014C59.4174 11.6935 59.2119 11.378 59.3712 11.2966C59.5662 11.1968 59.9919 11.5876 59.9457 11.7403C59.9416 11.7566 59.9248 11.7749 59.9164 11.7912C60.124 11.9785 60.1743 12.0233 60.407 12.2207C60.5265 12.3143 60.7278 12.4691 61.7384 12.7622C61.5141 12.6014 61.4742 12.5708 61.2625 12.4039C60.6607 12.3082 60.3902 11.9866 60.6565 11.8319C60.9941 11.6365 61.8076 11.9785 61.7049 12.2757C61.686 12.3286 61.6336 12.3571 61.5938 12.3795C61.9062 12.6258 62.2312 12.8802 62.6463 13.1123L62.8518 13.2304C62.3611 13.1571 62.2668 13.1001 61.9837 12.9271L61.9817 12.923ZM64.3614 13.2365C64.2712 13.2466 64.1811 13.2365 64.0951 13.21L64.0721 13.2019C63.4242 12.9494 62.1326 11.9011 60.558 10.3358C59.8577 10.5149 59.4635 9.64774 59.7487 9.22841C59.8703 9.04928 60.2665 8.84369 60.7027 9.35666C60.8473 9.57853 60.9249 9.78616 60.8347 10.0752C63.1914 12.3998 64.4054 13.1998 64.7283 13.1795C64.7283 13.1795 64.4558 13.2242 64.3635 13.2365H64.3614ZM66.7537 10.7693C66.9718 10.5556 67.2591 10.2666 67.4666 10.0426C67.3178 9.33834 68.0537 8.66252 68.3976 8.86608C68.8211 9.11646 68.4185 10.1566 67.8524 10.2767C67.8063 10.2869 67.7413 10.2828 67.6931 10.2767C67.1941 10.8162 67.1542 10.8589 66.7873 11.1765C66.326 11.5856 66.152 12.1902 65.7222 12.6217C65.8752 12.7154 65.9339 12.7459 66.0346 12.7805L65.741 12.9026L65.7117 12.9128C65.5733 12.9535 65.2504 13.0472 62.5247 10.5068C61.6441 10.7001 61.1388 9.83909 61.4533 9.34444C61.816 8.77245 62.8434 9.06354 62.9797 9.77802C63.0195 9.98362 62.9629 10.1017 62.9084 10.2157C63.7072 10.9648 64.5983 11.7932 65.4475 12.4283C65.6383 12.178 65.718 12.0864 65.8228 11.8502C65.9465 11.5917 66.0786 11.4105 66.3449 11.1357C64.6151 9.54189 62.726 7.68545 61.7531 6.72058C60.9396 7.05849 60.4615 6.32162 60.7048 5.73944C60.9815 5.07992 61.8663 4.9822 62.162 5.58066C62.3192 5.89617 62.2039 6.18116 62.1473 6.31754C64.592 8.70731 66.0786 10.1322 66.7475 10.7693H66.7537Z" fill="#C0C0C0"/>
<path d="M46.7578 18.9257C47.2484 18.4555 47.8271 18.0911 48.4918 17.8346C49.1564 17.5781 49.8735 17.4499 50.6493 17.4499C51.425 17.4499 52.075 17.5659 52.7145 17.798C53.354 18.03 53.9369 18.4086 54.4653 18.9338L55.3312 18.0931C54.7651 17.4845 54.0711 17.0285 53.2471 16.7232C52.4231 16.4199 51.5446 16.2672 50.6115 16.2672C49.6785 16.2672 48.7434 16.426 47.9194 16.7415C47.0953 17.057 46.3804 17.5028 45.7723 18.0748C45.1643 18.6468 44.6904 19.3226 44.3529 20.0982C44.0153 20.8737 43.8455 21.7205 43.8455 22.6406C43.8455 23.5607 44.0132 24.4075 44.3529 25.183C44.6904 25.9586 45.1601 26.6324 45.7639 27.2064C46.3657 27.7784 47.0786 28.2242 47.9026 28.5397C48.7266 28.8552 49.624 29.014 50.5948 29.014C51.5655 29.014 52.4252 28.8593 53.2492 28.5478C54.0732 28.2384 54.7672 27.7784 55.3333 27.1698L54.4674 26.3291C53.939 26.8542 53.354 27.2369 52.7166 27.4751C52.0771 27.7133 51.3894 27.8334 50.6514 27.8334C49.8777 27.8334 49.1585 27.7051 48.4939 27.4486C47.8292 27.1921 47.2526 26.8278 46.7599 26.3576C46.2672 25.8873 45.8835 25.3377 45.6067 24.7108C45.3299 24.0838 45.1915 23.3958 45.1915 22.6426C45.1915 21.8895 45.3299 21.2015 45.6067 20.5745C45.8835 19.9475 46.2672 19.4 46.7599 18.9277L46.7578 18.9257Z" fill="#C0C0C0"/>
<path d="M61.7453 16.3745L55.8452 28.9035H57.2647L58.8079 25.557H66.01L67.5532 28.9035H68.9916L63.0914 16.3745H61.7453ZM59.3027 24.4822L62.4079 17.7444L65.5131 24.4822H59.3006H59.3027Z" fill="#C0C0C0"/>
<path d="M80.0061 17.1704C78.9682 16.6391 77.7605 16.3745 76.383 16.3745H71.1287V28.9035H76.383C77.7584 28.9035 78.9661 28.6389 80.0061 28.1076C81.044 27.5763 81.8533 26.8394 82.4299 25.8969C83.0065 24.9545 83.2958 23.8695 83.2958 22.64C83.2958 21.4105 83.0065 20.3256 82.4299 19.3831C81.8512 18.4406 81.044 17.7037 80.0061 17.1725V17.1704ZM81.2494 25.2964C80.7819 26.0659 80.1277 26.6684 79.2869 27.104C78.4441 27.5396 77.4523 27.7574 76.3096 27.7574H72.4936V17.5205H76.3096C77.4523 17.5205 78.4441 17.7383 79.2869 18.174C80.1277 18.6096 80.784 19.2101 81.2494 19.9734C81.717 20.7367 81.9498 21.6263 81.9498 22.64C81.9498 23.6537 81.717 24.529 81.2494 25.2985V25.2964Z" fill="#C0C0C0"/>
<path d="M88.1259 18.9257C88.6166 18.4555 89.1953 18.0911 89.8599 17.8346C90.5246 17.5781 91.2417 17.4499 92.0174 17.4499C92.7932 17.4499 93.4432 17.5659 94.0827 17.798C94.7222 18.03 95.3051 18.4086 95.8334 18.9338L96.6994 18.0931C96.1333 17.4845 95.4392 17.0285 94.6152 16.7232C93.7912 16.4199 92.9127 16.2672 91.9797 16.2672C91.0466 16.2672 90.1115 16.426 89.2875 16.7415C88.4635 17.057 87.7485 17.5028 87.1405 18.0748C86.5325 18.6468 86.0586 19.3226 85.721 20.0982C85.3835 20.8737 85.2136 21.7205 85.2136 22.6406C85.2136 23.5607 85.3835 24.4075 85.721 25.183C86.0586 25.9586 86.5282 26.6324 87.1321 27.2064C87.7339 27.7784 88.4467 28.2242 89.2707 28.5397C90.0947 28.8552 90.9921 29.014 91.9629 29.014C92.9337 29.014 93.7933 28.8593 94.6173 28.5478C95.4413 28.2384 96.1354 27.7784 96.7015 27.1698L95.8355 26.3291C95.3072 26.8542 94.7222 27.2369 94.0848 27.4751C93.4453 27.7133 92.7576 27.8334 92.0195 27.8334C91.2458 27.8334 90.5267 27.7051 89.862 27.4486C89.1974 27.1921 88.6208 26.8278 88.128 26.3576C87.6353 25.8873 87.2516 25.3377 86.9748 24.7108C86.6981 24.0838 86.5597 23.3958 86.5597 22.6426C86.5597 21.8895 86.6981 21.2015 86.9748 20.5745C87.2516 19.9475 87.6353 19.4 88.128 18.9277L88.1259 18.9257Z" fill="#C0C0C0"/>
<path d="M103.113 16.3745L97.2129 28.9035H98.6324L100.176 25.557H107.378L108.921 28.9035H110.359L104.459 16.3745H103.113ZM100.67 24.4822L103.776 17.7444L106.881 24.4822H100.668H100.67Z" fill="#C0C0C0"/>
<path d="M124.592 18.8823V28.9035H125.9V16.3745H124.777L119.225 25.6547L113.622 16.3745H112.498V28.9035H113.807V18.9393L118.876 27.3096H119.522L124.592 18.8823Z" fill="#C0C0C0"/>
</svg>
