<svg width="126" height="38" viewBox="0 0 126 38" fill="none" xmlns="http://www.w3.org/2000/svg">
<rect width="126" height="38" fill="#1E1E1E"/>
<g clip-path="url(#clip0_276_139)">
<rect width="1920" height="5639.06" transform="translate(-650 -948)" fill="white"/>
<path d="M2.84937 33.8596H3.23097V36.8641H2.84937V36.3552C2.6376 36.5934 2.37341 36.7542 2.05681 36.8336C1.74021 36.913 1.4278 36.8967 1.12168 36.7868C0.815565 36.6768 0.568154 36.4896 0.381547 36.231C0.192843 35.9705 0.100586 35.6814 0.100586 35.3639C0.100586 35.0463 0.19494 34.7573 0.381547 34.4967C0.57025 34.2362 0.815565 34.0509 1.12168 33.941C1.4278 33.8291 1.74021 33.8148 2.05681 33.8942C2.37341 33.9736 2.6376 34.1344 2.84937 34.3787V33.8637V33.8596ZM0.832337 36.2371C1.06717 36.4957 1.34393 36.6239 1.66473 36.6239C1.98553 36.6239 2.26019 36.4957 2.49712 36.2371C2.73195 35.9786 2.84937 35.6875 2.84937 35.3639C2.84937 35.0402 2.73195 34.7491 2.49712 34.4927C2.26229 34.2362 1.98553 34.11 1.66473 34.11C1.34393 34.11 1.06717 34.2382 0.832337 34.4927C0.597506 34.7491 0.480092 35.0382 0.480092 35.3639C0.480092 35.6896 0.597506 35.9807 0.832337 36.2371Z" fill="#C0C0C0"/>
<path d="M8.93995 33.8657H9.32154V38H8.93995V36.3532C8.72818 36.5914 8.46399 36.7522 8.14739 36.8316C7.83079 36.911 7.51838 36.8967 7.21226 36.7868C6.90614 36.6769 6.65873 36.4916 6.47212 36.2311C6.28342 35.9685 6.19116 35.6794 6.19116 35.3599C6.19116 35.0403 6.28551 34.7532 6.47212 34.4927C6.65873 34.2321 6.90614 34.0469 7.21226 33.937C7.51838 33.825 7.83079 33.8108 8.14739 33.8902C8.46399 33.9696 8.72818 34.1304 8.93995 34.3746V33.8657ZM6.92291 36.229C7.15774 36.4855 7.43451 36.6117 7.7553 36.6117C8.0761 36.6117 8.35077 36.4835 8.58769 36.229C8.82252 35.9746 8.93995 35.6855 8.93995 35.3619C8.93995 35.0382 8.82252 34.7492 8.58769 34.4886C8.35286 34.2281 8.0761 34.0998 7.7553 34.0998C7.43451 34.0998 7.15774 34.2301 6.92291 34.4886C6.68808 34.7492 6.57067 35.0403 6.57067 35.3619C6.57067 35.6835 6.68808 35.9726 6.92291 36.229Z" fill="#C0C0C0"/>
<path d="M14.6628 33.8723H15.0444V36.8626H14.6628V36.3598C14.5454 36.4901 14.4133 36.5939 14.2623 36.6733C14.1806 36.716 14.0946 36.7506 14.0045 36.7812C13.8325 36.8361 13.6522 36.8626 13.4677 36.8626C13.2098 36.8707 12.9771 36.7934 12.7758 36.6305C12.7548 36.6142 12.7318 36.5959 12.7108 36.5735C12.478 36.313 12.3711 36.0097 12.3942 35.6616V33.8703H12.7758V35.6616C12.7548 35.9079 12.8261 36.1277 12.9896 36.3211C13.128 36.4473 13.2916 36.5165 13.4824 36.5287C13.7843 36.5572 14.0569 36.4941 14.298 36.3333C14.5391 36.1745 14.6628 35.9506 14.667 35.6616V33.8703L14.6628 33.8723Z" fill="#C0C0C0"/>
<path d="M18.474 33.3287C18.4342 33.3653 18.3901 33.3816 18.3377 33.3816C18.2853 33.3816 18.2413 33.3633 18.2056 33.3287C18.17 33.2941 18.1511 33.2493 18.1511 33.2005C18.1511 33.1516 18.17 33.1068 18.2056 33.0722C18.2413 33.0376 18.2874 33.0193 18.3377 33.0193C18.388 33.0193 18.4342 33.0376 18.474 33.0722C18.5139 33.1068 18.5327 33.1516 18.5327 33.2005C18.5327 33.2493 18.5139 33.2941 18.474 33.3287ZM18.5327 36.8625H18.1511V33.8661H18.5327V36.8625Z" fill="#C0C0C0"/>
<path d="M26.9008 35.2544C27.056 35.2972 27.188 35.348 27.295 35.4091C27.4019 35.4702 27.4858 35.5353 27.5403 35.6066C27.5969 35.6778 27.6346 35.747 27.6577 35.8142C27.6787 35.8814 27.6892 35.9506 27.6892 36.0218C27.6892 36.2559 27.578 36.4554 27.3558 36.6182C27.1335 36.7811 26.8631 36.8625 26.5444 36.8625C26.255 36.8625 25.9971 36.7953 25.7686 36.659C25.54 36.5226 25.4038 36.3536 25.3618 36.1541L25.6197 36.1033C25.7099 36.2661 25.8378 36.3943 26.0013 36.4839C26.1649 36.5735 26.3431 36.6142 26.5318 36.606C26.7519 36.606 26.9406 36.5531 27.0979 36.4493C27.2551 36.3455 27.3348 36.203 27.3348 36.0218C27.3348 35.8407 27.1587 35.7022 26.8044 35.6127C26.7394 35.5964 26.6303 35.574 26.4752 35.5496C26.3682 35.5292 26.2928 35.515 26.2487 35.5048C25.9803 35.4498 25.7728 35.3521 25.6218 35.2096C25.4708 35.0671 25.3954 34.8982 25.3954 34.7007C25.3954 34.4626 25.5065 34.261 25.7287 34.0982C25.951 33.9354 26.2236 33.8539 26.5465 33.8539C26.7498 33.8539 26.9385 33.9028 27.1168 34.0025C27.2929 34.1002 27.4334 34.2366 27.5382 34.4076L27.2929 34.5155C27.2111 34.3893 27.1042 34.2916 26.9721 34.2203C26.84 34.1491 26.6995 34.1125 26.5486 34.1125C26.4144 34.1125 26.2844 34.143 26.1607 34.2061C26.0349 34.2692 25.9384 34.3445 25.8671 34.4361C25.7958 34.5257 25.7602 34.6152 25.7602 34.7028C25.7602 34.9206 25.951 35.0692 26.3305 35.1486C26.364 35.1526 26.4353 35.1649 26.5444 35.1872C26.7121 35.2157 26.8337 35.2402 26.9071 35.2564L26.9008 35.2544Z" fill="#C0C0C0"/>
<path d="M32.0399 36.6238C32.1825 36.6156 32.3187 36.5831 32.4508 36.5301C32.5829 36.4752 32.7004 36.4019 32.8031 36.3062C32.9058 36.2106 32.9918 36.1027 33.0547 35.9765L33.4426 36.0274C33.3168 36.2696 33.1386 36.4691 32.9058 36.6217C32.6731 36.7744 32.4173 36.8599 32.1384 36.8762C31.8596 36.8925 31.5954 36.8416 31.3417 36.7215C31.0901 36.6014 30.8846 36.4284 30.7294 36.2024C30.6812 36.1271 30.6393 36.0477 30.5995 35.9643C30.4317 35.5917 30.4212 35.2131 30.5701 34.8304C30.719 34.4478 30.9831 34.1668 31.3626 33.9918C31.7422 33.8167 32.1321 33.7943 32.5347 33.9266C32.9352 34.059 33.2308 34.3053 33.4216 34.6656C33.4384 34.6981 33.4531 34.7307 33.4677 34.7592C33.4929 34.8101 33.516 34.861 33.5327 34.9159L31.067 36.0538C31.1656 36.2248 31.3018 36.3612 31.4759 36.463C31.6478 36.5627 31.8365 36.6177 32.0399 36.6258V36.6238ZM30.9454 35.8075L33.0882 34.8203C32.9981 34.6147 32.8576 34.4477 32.6668 34.3175C32.476 34.1872 32.2684 34.118 32.0399 34.1098C31.7212 34.1098 31.4423 34.2381 31.2075 34.4925C30.9727 34.749 30.8552 35.0381 30.8552 35.3597C30.8552 35.5144 30.8846 35.663 30.9454 35.8055V35.8075Z" fill="#C0C0C0"/>
<path d="M38.6667 33.8723H39.0483V36.8626H38.6667V36.3598C38.5493 36.4901 38.4172 36.5939 38.2663 36.6733C38.1845 36.716 38.0985 36.7506 38.0084 36.7812C37.8364 36.8361 37.6561 36.8626 37.4716 36.8626C37.2137 36.8707 36.981 36.7934 36.7797 36.6305C36.7587 36.6142 36.7357 36.5959 36.7147 36.5735C36.482 36.313 36.375 36.0097 36.3981 35.6616V33.8703H36.7797V35.6616C36.7587 35.9079 36.83 36.1277 36.9936 36.3211C37.1319 36.4473 37.2955 36.5165 37.4863 36.5287C37.7882 36.5572 38.0608 36.4941 38.3019 36.3333C38.543 36.1745 38.6667 35.9506 38.6709 35.6616V33.8703L38.6667 33.8723Z" fill="#C0C0C0"/>
<path d="M48.2522 33.8723H48.6338V36.8626H48.2522V36.3598C48.1348 36.4901 48.0027 36.5939 47.8517 36.6733C47.7699 36.716 47.684 36.7506 47.5938 36.7812C47.4219 36.8361 47.2416 36.8626 47.0571 36.8626C46.7992 36.8707 46.5664 36.7934 46.3651 36.6305C46.3442 36.6142 46.3211 36.5959 46.3001 36.5735C46.0674 36.313 45.9605 36.0097 45.9835 35.6616V33.8703H46.3651V35.6616C46.3442 35.9079 46.4155 36.1277 46.579 36.3211C46.7174 36.4473 46.8809 36.5165 47.0717 36.5287C47.3737 36.5572 47.6462 36.4941 47.8874 36.3333C48.1285 36.1745 48.2522 35.9506 48.2564 35.6616V33.8703L48.2522 33.8723Z" fill="#C0C0C0"/>
<path d="M53.1324 35.2544C53.2875 35.2972 53.4196 35.348 53.5266 35.4091C53.6335 35.4702 53.7174 35.5353 53.7719 35.6066C53.8285 35.6778 53.8662 35.747 53.8893 35.8142C53.9103 35.8814 53.9208 35.9506 53.9208 36.0218C53.9208 36.2559 53.8096 36.4554 53.5874 36.6182C53.3651 36.7811 53.0946 36.8625 52.7759 36.8625C52.4866 36.8625 52.2287 36.7953 52.0002 36.659C51.7716 36.5226 51.6353 36.3536 51.5913 36.1541L51.8492 36.1033C51.9394 36.2661 52.0673 36.3943 52.2308 36.4839C52.3944 36.5735 52.5726 36.6142 52.7613 36.606C52.9814 36.606 53.1701 36.5531 53.3274 36.4493C53.4846 36.3455 53.5643 36.203 53.5643 36.0218C53.5643 35.8407 53.3882 35.7022 53.0338 35.6127C52.9688 35.5964 52.8598 35.574 52.7047 35.5496C52.5977 35.5292 52.5202 35.515 52.4782 35.5048C52.2098 35.4498 52.0023 35.3521 51.8513 35.2096C51.7003 35.0671 51.6249 34.8982 51.6249 34.7007C51.6249 34.4626 51.736 34.261 51.9582 34.0982C52.1805 33.9354 52.4531 33.8539 52.778 33.8539C52.9814 33.8539 53.1701 33.9028 53.3483 34.0025C53.5245 34.1002 53.665 34.2366 53.7698 34.4076L53.5245 34.5155C53.4427 34.3893 53.3358 34.2916 53.2037 34.2203C53.0716 34.1491 52.9311 34.1125 52.7801 34.1125C52.646 34.1125 52.516 34.143 52.3923 34.2061C52.2664 34.2692 52.1679 34.3445 52.0987 34.4361C52.0274 34.5257 51.9918 34.6152 51.9918 34.7028C51.9918 34.9206 52.1826 35.0692 52.5621 35.1486C52.5956 35.1526 52.6669 35.1649 52.7759 35.1872C52.9437 35.2157 53.0653 35.2402 53.1387 35.2564L53.1324 35.2544Z" fill="#C0C0C0"/>
<path d="M59.4565 33.8598H59.8381V36.8643H59.4565V36.3554C59.2448 36.5935 58.9806 36.7544 58.664 36.8337C58.3474 36.9131 58.035 36.8968 57.7289 36.7869C57.4227 36.677 57.1753 36.4897 56.9887 36.2312C56.8021 35.9707 56.7078 35.6816 56.7078 35.3641C56.7078 35.0465 56.8021 34.7575 56.9887 34.4969C57.1774 34.2363 57.4227 34.0511 57.7289 33.9412C58.035 33.8313 58.3474 33.815 58.664 33.8944C58.9806 33.9738 59.2448 34.1346 59.4565 34.3788V33.8638V33.8598ZM57.4395 36.2373C57.6743 36.4958 57.9511 36.6241 58.2719 36.6241C58.5927 36.6241 58.8695 36.4958 59.1043 36.2373C59.3391 35.9788 59.4565 35.6877 59.4565 35.3641C59.4565 35.0404 59.3391 34.7493 59.1043 34.4928C58.8695 34.2363 58.5927 34.1101 58.2719 34.1101C57.9511 34.1101 57.6743 34.2384 57.4395 34.4928C57.2047 34.7473 57.0873 35.0384 57.0873 35.3641C57.0873 35.6898 57.2047 35.9808 57.4395 36.2373Z" fill="#C0C0C0"/>
<path d="M65.9285 32.722V36.8623H65.5469V36.3534C65.3351 36.5916 65.0709 36.7524 64.7543 36.8318C64.4377 36.9112 64.1253 36.8969 63.8192 36.787C63.5131 36.6771 63.2657 36.4918 63.0791 36.2313C62.8925 35.9687 62.7981 35.6796 62.7981 35.3641C62.7981 35.0486 62.8925 34.7596 63.0791 34.497C63.2678 34.2344 63.5131 34.0491 63.8192 33.9372C64.1253 33.8252 64.4377 33.811 64.7543 33.8904C65.0709 33.9698 65.3351 34.1306 65.5469 34.3748V32.722H65.9285ZM65.1946 36.2374C65.4295 35.9789 65.5469 35.6878 65.5469 35.3641C65.5469 35.0405 65.4295 34.7494 65.1946 34.4929C64.9598 34.2364 64.683 34.1102 64.3622 34.1102C64.0414 34.1102 63.7647 34.2384 63.5299 34.4929C63.295 34.7473 63.1776 35.0384 63.1776 35.3641C63.1776 35.6898 63.295 35.9809 63.5299 36.2374C63.7647 36.4939 64.0414 36.6241 64.3622 36.6241C64.683 36.6241 64.9598 36.4959 65.1946 36.2374Z" fill="#C0C0C0"/>
<path d="M69.3461 34.2911C69.6523 33.9959 70.0213 33.8473 70.4532 33.8473C70.8851 33.8473 71.252 33.9959 71.5561 34.2911C71.8601 34.5862 72.0131 34.9445 72.0131 35.3618C72.0131 35.7791 71.8601 36.1394 71.5561 36.4366C71.252 36.7338 70.883 36.8824 70.4532 36.8824C70.0234 36.8824 69.6523 36.7338 69.3461 36.4366C69.04 36.1394 68.887 35.7811 68.887 35.3618C68.887 34.9425 69.04 34.5862 69.3461 34.2911ZM69.6187 36.2391C69.8514 36.4976 70.1282 36.6259 70.4511 36.6259C70.774 36.6259 71.0508 36.4976 71.2856 36.2391C71.5204 35.9806 71.6378 35.6895 71.6378 35.3618C71.6378 35.0341 71.5204 34.7511 71.2856 34.4946C71.0508 34.2381 70.7719 34.1119 70.4511 34.1119C70.1303 34.1119 69.8514 34.2402 69.6187 34.4946C69.386 34.7511 69.2686 35.0402 69.2686 35.3659C69.2686 35.6916 69.386 35.9826 69.6187 36.2391Z" fill="#C0C0C0"/>
<path d="M81.5596 33.8596H81.8699L80.4211 36.8641H79.9808L78.532 33.8596H78.9534L80.2555 36.5669L81.5638 33.8596H81.5596Z" fill="#C0C0C0"/>
<path d="M87.1248 33.8598H87.5064V36.8643H87.1248V36.3554C86.913 36.5935 86.6488 36.7544 86.3322 36.8337C86.0156 36.9131 85.7032 36.8968 85.3971 36.7869C85.091 36.677 84.8435 36.4897 84.6569 36.2312C84.4703 35.9707 84.376 35.6816 84.376 35.3641C84.376 35.0465 84.4703 34.7575 84.6569 34.4969C84.8456 34.2363 85.091 34.0511 85.3971 33.9412C85.7032 33.8313 86.0156 33.815 86.3322 33.8944C86.6488 33.9738 86.913 34.1346 87.1248 34.3788V33.8638V33.8598ZM85.1077 36.2373C85.3426 36.4958 85.6193 36.6241 85.9401 36.6241C86.2609 36.6241 86.5377 36.4958 86.7725 36.2373C87.0073 35.9788 87.1248 35.6877 87.1248 35.3641C87.1248 35.0404 87.0073 34.7493 86.7725 34.4928C86.5377 34.2363 86.2609 34.1101 85.9401 34.1101C85.6193 34.1101 85.3426 34.2384 85.1077 34.4928C84.8729 34.7493 84.7555 35.0384 84.7555 35.3641C84.7555 35.6898 84.8729 35.9808 85.1077 36.2373Z" fill="#C0C0C0"/>
<path d="M91.0003 36.8648H90.6187V32.7245H91.0003V36.8648Z" fill="#C0C0C0"/>
<path d="M95.5199 36.6238C95.6624 36.6156 95.7987 36.5831 95.9308 36.5301C96.0629 36.4752 96.1803 36.4019 96.2831 36.3062C96.3858 36.2106 96.4697 36.1027 96.5347 35.9765L96.9226 36.0274C96.7968 36.2696 96.6185 36.4691 96.3858 36.6217C96.1531 36.7744 95.8973 36.8599 95.6184 36.8762C95.3395 36.8925 95.0754 36.8416 94.8217 36.7215C94.5701 36.6014 94.3646 36.4284 94.2094 36.2024C94.1612 36.1271 94.1193 36.0477 94.0794 35.9643C93.9117 35.5917 93.9012 35.2131 94.0501 34.8304C94.1989 34.4478 94.4631 34.1668 94.8426 33.9918C95.2221 33.8167 95.6121 33.7943 96.0147 33.9266C96.4152 34.059 96.7108 34.3053 96.9016 34.6656C96.9184 34.6981 96.933 34.7307 96.9477 34.7592C96.9729 34.8101 96.9959 34.861 97.0127 34.9159L94.547 36.0538C94.6455 36.2248 94.7818 36.3612 94.9558 36.463C95.1278 36.5627 95.3165 36.6177 95.5199 36.6258V36.6238ZM94.4254 35.8075L96.5682 34.8203C96.4781 34.6147 96.3376 34.4477 96.1468 34.3175C95.956 34.1872 95.7484 34.118 95.5199 34.1098C95.2012 34.1098 94.9223 34.2381 94.6875 34.4925C94.4526 34.749 94.3352 35.0381 94.3352 35.3597C94.3352 35.5144 94.3646 35.663 94.4254 35.8055V35.8075Z" fill="#C0C0C0"/>
<path d="M107.397 34.0611C107.617 34.2789 107.722 34.5415 107.713 34.8469V36.8641H107.338V34.8469C107.338 34.8082 107.334 34.7655 107.325 34.7186C107.317 34.6698 107.3 34.6067 107.273 34.5273C107.248 34.4479 107.2 34.3807 107.13 34.3258C107.061 34.2708 106.977 34.2443 106.879 34.2443C106.621 34.2321 106.399 34.3115 106.212 34.4866C106.025 34.6596 105.937 34.8733 105.946 35.1237V36.8641H105.564V34.8469C105.564 34.8225 105.562 34.7919 105.558 34.7593C105.554 34.7268 105.543 34.6759 105.526 34.6107C105.51 34.5456 105.487 34.4886 105.459 34.4377C105.432 34.3868 105.386 34.342 105.323 34.3034C105.26 34.2627 105.189 34.2443 105.107 34.2443C104.853 34.2321 104.633 34.3115 104.447 34.4825C104.262 34.6535 104.17 34.8652 104.174 35.1176V36.8641H103.792V33.8678H104.174V34.3828C104.281 34.2321 104.417 34.112 104.581 34.0245C104.744 33.937 104.921 33.8861 105.105 33.8739C105.304 33.8698 105.476 33.9329 105.623 34.0632C105.745 34.1731 105.828 34.3054 105.875 34.4662C105.908 34.4194 105.933 34.3909 105.946 34.3787C105.998 34.3074 106.059 34.2423 106.126 34.1812C106.195 34.1202 106.269 34.0693 106.348 34.0265C106.428 33.9838 106.512 33.9512 106.6 33.9268C106.688 33.9024 106.78 33.884 106.875 33.8759C107.074 33.8718 107.246 33.9349 107.393 34.0652L107.397 34.0611Z" fill="#C0C0C0"/>
<path d="M113.389 33.8598H113.771V36.8643H113.389V36.3554C113.177 36.5935 112.913 36.7544 112.596 36.8337C112.28 36.9131 111.967 36.8968 111.661 36.7869C111.355 36.677 111.108 36.4897 110.921 36.2312C110.734 35.9707 110.64 35.6816 110.64 35.3641C110.64 35.0465 110.734 34.7575 110.921 34.4969C111.11 34.2363 111.355 34.0511 111.661 33.9412C111.967 33.8313 112.28 33.815 112.596 33.8944C112.913 33.9738 113.177 34.1346 113.389 34.3788V33.8638V33.8598ZM111.372 36.2373C111.607 36.4958 111.883 36.6241 112.204 36.6241C112.525 36.6241 112.802 36.4958 113.037 36.2373C113.272 35.9788 113.389 35.6877 113.389 35.3641C113.389 35.0404 113.272 34.7493 113.037 34.4928C112.802 34.2363 112.525 34.1101 112.204 34.1101C111.883 34.1101 111.607 34.2384 111.372 34.4928C111.137 34.7493 111.02 35.0384 111.02 35.3641C111.02 35.6898 111.137 35.9808 111.372 36.2373Z" fill="#C0C0C0"/>
<path d="M117.207 33.3287C117.17 33.3653 117.124 33.3816 117.071 33.3816C117.019 33.3816 116.975 33.3633 116.939 33.3287C116.901 33.2941 116.885 33.2493 116.885 33.2005C116.885 33.1516 116.903 33.1068 116.939 33.0722C116.975 33.0376 117.021 33.0193 117.071 33.0193C117.121 33.0193 117.168 33.0376 117.207 33.0722C117.247 33.1068 117.266 33.1516 117.266 33.2005C117.266 33.2493 117.247 33.2941 117.207 33.3287ZM117.266 36.8625H116.885V33.8661H117.266V36.8625Z" fill="#C0C0C0"/>
<path d="M121.764 35.2544C121.92 35.2972 122.052 35.348 122.159 35.4091C122.266 35.4702 122.349 35.5353 122.404 35.6066C122.461 35.6778 122.498 35.747 122.521 35.8142C122.542 35.8814 122.553 35.9506 122.553 36.0218C122.553 36.2559 122.442 36.4554 122.219 36.6182C121.997 36.7811 121.727 36.8625 121.408 36.8625C121.119 36.8625 120.861 36.7953 120.632 36.659C120.404 36.5226 120.267 36.3536 120.223 36.1541L120.481 36.1033C120.571 36.2661 120.699 36.3943 120.863 36.4839C121.026 36.5735 121.205 36.6142 121.393 36.606C121.614 36.606 121.802 36.5531 121.959 36.4493C122.117 36.3455 122.196 36.203 122.196 36.0218C122.196 35.8407 122.02 35.7022 121.666 35.6127C121.601 35.5964 121.492 35.574 121.337 35.5496C121.23 35.5292 121.152 35.515 121.11 35.5048C120.842 35.4498 120.634 35.3521 120.483 35.2096C120.332 35.0671 120.257 34.8982 120.257 34.7007C120.257 34.4626 120.368 34.261 120.59 34.0982C120.813 33.9354 121.085 33.8539 121.41 33.8539C121.614 33.8539 121.802 33.9028 121.98 34.0025C122.157 34.1002 122.297 34.2366 122.402 34.4076L122.157 34.5155C122.075 34.3893 121.968 34.2916 121.836 34.2203C121.704 34.1491 121.563 34.1125 121.412 34.1125C121.278 34.1125 121.148 34.143 121.024 34.2061C120.899 34.2692 120.8 34.3445 120.731 34.4361C120.66 34.5257 120.624 34.6152 120.624 34.7028C120.624 34.9206 120.815 35.0692 121.194 35.1486C121.228 35.1526 121.299 35.1649 121.408 35.1872C121.576 35.2157 121.697 35.2402 121.771 35.2564L121.764 35.2544Z" fill="#C0C0C0"/>
<path d="M125.55 36.4781C125.592 36.4374 125.64 36.4191 125.698 36.4191C125.757 36.4191 125.805 36.4394 125.843 36.4781C125.883 36.5188 125.902 36.5656 125.902 36.6226C125.902 36.6796 125.883 36.7264 125.843 36.7671C125.803 36.8079 125.755 36.8262 125.698 36.8262C125.642 36.8262 125.592 36.8058 125.55 36.7671C125.508 36.7264 125.489 36.6796 125.489 36.6226C125.489 36.5656 125.51 36.5188 125.55 36.4781ZM125.805 36.0099H125.592L125.508 32.7367H125.889L125.805 36.0099Z" fill="#C0C0C0"/>
<path d="M8.59511 6.98433C8.59511 8.0469 8.38335 8.81024 7.95981 9.27435C7.53628 9.74049 6.94291 9.97256 6.1818 9.97256C5.4207 9.97256 4.82314 9.74049 4.39331 9.27435C3.96349 8.8082 3.74753 8.04486 3.74753 6.98433V0.12851H0.097168V7.09018C0.097168 8.94052 0.627634 10.3715 1.69276 11.3852C2.75579 12.399 4.24026 12.9058 6.14406 12.9058C8.04787 12.9058 9.51976 12.399 10.5954 11.3852C11.671 10.3715 12.2077 8.93848 12.2077 7.09018V0.12851H8.59511V6.98433Z" fill="#C0C0C0"/>
<path d="M23.1154 6.29394C22.6793 6.02524 22.2034 5.81151 21.6876 5.64866C21.1718 5.48785 20.6518 5.35351 20.1297 5.24562C19.6076 5.13773 19.1317 5.03392 18.7019 4.93214C18.272 4.83036 17.9219 4.70009 17.6514 4.53928C17.3809 4.37846 17.2467 4.15455 17.2467 3.86753C17.2467 3.67619 17.3138 3.49706 17.4501 3.33014C17.5843 3.16323 17.8066 3.02684 18.1148 2.91895C18.4209 2.81107 18.8277 2.75815 19.3309 2.75815C19.897 2.75815 20.4799 2.8355 21.0816 2.9902C21.6834 3.1449 22.2914 3.38917 22.9057 3.72301L24.0128 1.10933C23.3859 0.738855 22.6646 0.462018 21.8469 0.27678C21.0292 0.0915431 20.1968 -6.10352e-05 19.3497 -6.10352e-05C18.0833 -6.10352e-05 17.0266 0.185179 16.1795 0.555653C15.3324 0.926128 14.6992 1.41466 14.2799 2.0233C13.8627 2.63194 13.653 3.30571 13.653 4.04666C13.653 4.71433 13.7851 5.27004 14.0493 5.71176C14.3135 6.15348 14.6615 6.51174 15.0913 6.78655C15.5212 7.06135 16.0013 7.28119 16.5297 7.44811C17.058 7.61502 17.578 7.74937 18.0875 7.85115C18.597 7.95293 19.0709 8.06081 19.507 8.17277C19.9431 8.28676 20.2974 8.42315 20.5679 8.58396C20.8384 8.74477 20.9726 8.96258 20.9726 9.23738C20.9726 9.45315 20.9013 9.63635 20.7608 9.79309C20.6203 9.9478 20.3981 10.0679 20.0962 10.1514C19.7942 10.2348 19.3875 10.2776 18.8696 10.2776C18.119 10.2776 17.3663 10.1615 16.6114 9.92947C15.8545 9.69742 15.1878 9.40226 14.6112 9.044L13.4119 11.676C14.0136 12.0689 14.8041 12.3946 15.7811 12.651C16.7582 12.9075 17.7814 13.0358 18.8507 13.0358C20.1297 13.0358 21.1927 12.8505 22.0398 12.48C22.8869 12.1096 23.5243 11.619 23.9478 11.0043C24.3713 10.3895 24.5831 9.71778 24.5831 8.99108C24.5831 8.33562 24.4468 7.79008 24.1784 7.35244C23.908 6.91682 23.5536 6.56467 23.1175 6.29597L23.1154 6.29394Z" fill="#C0C0C0"/>
<path d="M31.4763 0.254669L25.7795 12.7836H29.5033L30.516 10.3308H35.9737L36.9864 12.7836H40.7836L35.0679 0.254669H31.4721H31.4763ZM31.5895 7.73541L33.2459 3.7294L34.9023 7.73541H31.5895Z" fill="#C0C0C0"/>
<path d="M51.8299 1.02412C50.748 0.511151 49.5004 0.254669 48.0873 0.254669H41.9858V12.7836H48.0873C49.5004 12.7836 50.748 12.5272 51.8299 12.0142C52.9118 11.5012 53.7567 10.7766 54.3648 9.84019C54.9728 8.90383 55.2769 7.79037 55.2769 6.50185C55.2769 5.21333 54.9728 4.12227 54.3648 3.18997C53.7567 2.25971 52.9118 1.53708 51.8299 1.02412ZM51.1296 8.35423C50.8214 8.8733 50.3957 9.27024 49.8485 9.54504C49.3012 9.81984 48.6534 9.95622 47.9027 9.95622H45.6362V3.08412H47.9027C48.6513 3.08412 49.3012 3.22051 49.8485 3.49531C50.3957 3.77011 50.8214 4.16094 51.1296 4.6678C51.4357 5.17465 51.5908 5.79347 51.5908 6.52017C51.5908 7.24687 51.4378 7.83515 51.1296 8.35423Z" fill="#C0C0C0"/>
<path d="M81.7833 7.3504C81.5128 6.91479 81.1585 6.56264 80.7224 6.29394C80.2862 6.02524 79.8103 5.81151 79.2945 5.64866C78.7787 5.48581 78.2587 5.35351 77.7366 5.24562C77.2146 5.13773 76.7386 5.03392 76.3088 4.93214C75.879 4.83036 75.5288 4.70009 75.2583 4.53928C74.9879 4.37846 74.8537 4.15455 74.8537 3.86753C74.8537 3.67619 74.9208 3.49706 75.0571 3.33014C75.1912 3.16323 75.4135 3.02684 75.7217 2.91895C76.0278 2.81107 76.4346 2.75815 76.9378 2.75815C77.5039 2.75815 78.0868 2.8355 78.6885 2.9902C79.2903 3.1449 79.8983 3.38917 80.5127 3.72301L81.6197 1.10933C80.9928 0.738855 80.2716 0.462018 79.4538 0.27678C78.6361 0.0915431 77.8037 -6.10352e-05 76.9567 -6.10352e-05C75.6903 -6.10352e-05 74.6335 0.185179 73.7865 0.555653C72.9394 0.926128 72.3062 1.41466 71.8868 2.0233C71.4696 2.63194 71.2599 3.30571 71.2599 4.04666C71.2599 4.71433 71.392 5.27004 71.6562 5.71176C71.9204 6.15348 72.2684 6.51174 72.6983 6.78655C73.1281 7.06135 73.6082 7.28119 74.1366 7.44811C74.665 7.61502 75.1849 7.74937 75.6944 7.85115C76.2039 7.95293 76.6778 8.06081 77.1139 8.17277C77.55 8.28676 77.9044 8.42315 78.1749 8.58396C78.4453 8.74477 78.5795 8.96258 78.5795 9.23738C78.5795 9.45315 78.5082 9.63635 78.3677 9.79309C78.2273 9.9478 78.005 10.0679 77.7031 10.1514C77.4012 10.2348 76.9923 10.2776 76.4765 10.2776C75.7259 10.2776 74.9732 10.1615 74.2184 9.92947C73.4636 9.69742 72.7947 9.40226 72.2181 9.044L71.0188 11.676C71.6206 12.0689 72.411 12.3946 73.3881 12.651C74.3651 12.9075 75.3883 13.0358 76.4577 13.0358C77.7366 13.0358 78.7997 12.8505 79.6467 12.48C80.4938 12.1096 81.1312 11.619 81.5547 11.0043C81.9783 10.3895 82.19 9.71778 82.19 8.99108C82.19 8.33562 82.0538 7.79008 81.7854 7.35244L81.7833 7.3504Z" fill="#C0C0C0"/>
<path d="M60.1512 8.99908C60.0107 9.02147 59.9583 9.22097 60.0946 9.37363C60.2225 9.49577 60.3483 9.45302 60.3986 9.38381C60.5077 9.2291 60.3399 8.96652 60.1512 8.99705V8.99908ZM59.5746 10.9878C59.5117 10.9655 59.4761 10.9919 59.5012 11.0448C59.5117 11.0652 59.5264 11.0815 59.5369 11.0917C59.604 11.1548 59.6648 11.1629 59.6879 11.1527C59.7403 11.1283 59.6648 11.0204 59.5746 10.9878ZM61.2268 11.57C61.0947 11.4866 60.8914 11.4967 60.906 11.5863C60.9102 11.6128 60.9312 11.6331 60.9459 11.6453C61.0423 11.7206 61.1723 11.7349 61.2352 11.7207C61.3254 11.7003 61.3212 11.629 61.2268 11.568V11.57ZM68.9238 4.33558C68.9238 4.3193 68.9238 4.29283 68.9196 4.26637C68.8966 4.14424 68.8106 3.98547 68.7792 4.03025C68.7519 4.06892 68.7855 4.24398 68.8609 4.34169C68.9113 4.39665 68.9217 4.3539 68.9238 4.33355V4.33558ZM67.3932 3.87758C67.4771 3.73305 67.2863 3.50506 67.1207 3.55392C67.0137 3.58649 66.9865 3.73102 67.1144 3.86333C67.2444 3.97936 67.3555 3.94068 67.3911 3.87758H67.3932ZM61.3967 5.21088C61.1849 5.24548 61.0507 5.50807 61.2142 5.69127C61.3631 5.82562 61.5413 5.74827 61.621 5.65056C61.7804 5.45108 61.6378 5.1722 61.3967 5.21088ZM68.1753 9.166C68.2864 8.98687 68.2424 8.79145 68.0977 8.82199C67.9384 8.85659 67.7832 9.14971 67.8923 9.2861C67.9845 9.36956 68.1145 9.26574 68.1753 9.166ZM67.1186 11.4214C67.1186 11.4214 67.1228 11.4255 67.1228 11.4275C67.1752 11.456 67.322 11.3604 67.4016 11.2911C67.5169 11.1914 67.5715 11.0957 67.5169 11.0876C67.4058 11.0713 67.0745 11.3481 67.1186 11.4214ZM62.0865 9.06626C61.8894 9.08254 61.795 9.30238 61.9691 9.48355C62.1305 9.62604 62.3066 9.58329 62.38 9.50798C62.5415 9.34106 62.3444 9.04387 62.0865 9.06626ZM65.6635 7.3462C65.4559 7.38894 65.3489 7.65357 65.523 7.84491C65.6886 7.99148 65.871 7.91412 65.9486 7.81234C66.1122 7.59657 65.9256 7.29327 65.6635 7.3462ZM67.9237 10.8148C67.8902 10.9186 67.8105 11.0286 67.7119 11.1344C67.7455 11.1039 67.779 11.0754 67.8105 11.0428C68.3682 10.5013 68.8064 9.8927 69.1335 9.24335C69.0517 9.33495 68.949 9.48355 68.8651 9.61179C68.5779 10.0535 68.4332 10.2734 67.9258 10.8128L67.9237 10.8148ZM63.9966 3.89386C64.1538 4.0221 64.3341 3.97325 64.4117 3.89793C64.5669 3.7473 64.4243 3.51118 64.179 3.51525C63.9651 3.51932 63.8267 3.72491 63.9945 3.89182L63.9966 3.89386ZM68.0453 7.1691C68.234 7.12025 68.4856 7.049 68.6701 6.9859C69.534 6.69685 69.6619 7.6841 69.6661 7.7411C70.1211 5.67702 69.5424 3.46232 67.9174 1.88475C65.3427 -0.614935 61.1178 -0.568115 58.4843 1.98857C55.8509 4.54525 55.8006 8.64693 58.3774 11.1466C60.8201 13.5181 64.7472 13.5954 67.3932 11.4133C67.0724 11.6494 66.7244 11.798 66.6887 11.6779C66.6196 11.4499 67.4331 10.7741 67.7665 10.7212C67.9237 10.6968 68.4668 9.96802 68.6911 9.63826C68.8421 9.41027 69.1796 8.90138 69.3579 8.74667C69.4417 8.53904 69.513 8.32734 69.5738 8.11564C69.5591 8.03015 69.5025 7.88766 69.2719 7.5579C69.123 7.3808 68.9784 7.35638 68.6995 7.46223C68.2655 7.62711 67.8189 7.79606 66.4896 7.89784C66.2191 8.63879 65.2252 8.68153 64.9254 7.96501C64.6256 7.25053 65.307 6.54011 66.0115 6.8312C66.2401 6.92483 66.4015 7.09786 66.4917 7.3462C67.1458 7.30548 67.171 7.30345 67.4897 7.26274C66.651 6.39355 65.8668 5.60985 64.5606 4.39461C63.7072 4.64295 63.1726 3.9244 63.4598 3.45621C63.8016 2.8944 64.8625 3.0552 64.9925 3.68827C65.0282 3.86536 64.9799 3.97528 64.9338 4.08317C65.8647 4.94422 66.8858 5.91315 68.0495 7.16706L68.0453 7.1691ZM68.6743 3.72084C68.7142 3.71677 68.7582 3.7758 68.7938 3.82262C68.8127 3.85315 68.84 3.89386 68.8567 3.92439C68.9196 4.03839 68.9469 4.16663 69.0098 4.28062C69.1419 4.51675 69.3306 4.71827 69.4375 4.96865C69.4459 4.99307 69.4585 5.02564 69.4669 5.05007C69.5046 5.17424 69.5466 5.32894 69.5822 5.47347C69.599 5.53047 69.6095 5.58543 69.6241 5.64446L69.6304 5.67906C69.6157 5.61596 69.599 5.54472 69.5822 5.47347C69.5277 5.27806 69.4229 5.06636 69.0664 4.59614C69.0433 4.85466 68.8903 4.68774 68.8609 4.6511C68.6093 4.35187 68.5422 3.73102 68.6743 3.71881V3.72084ZM66.6489 3.46028C66.7768 3.08574 67.4058 3.12035 67.6637 3.62313C67.756 3.8043 67.7455 3.94882 67.7371 4.02821C69.3201 5.63632 69.7017 6.33452 69.7415 6.63782V6.94926L69.7374 7.09379C69.6724 6.44647 68.06 4.79155 67.5673 4.29894C67.0557 4.53507 66.5189 3.84297 66.6489 3.46028ZM61.9817 12.4229C61.5686 12.3028 61.2876 12.2418 60.7886 12.0321C60.319 11.8204 60.1973 11.7003 59.757 11.3013C59.4174 11.1934 59.2119 10.8779 59.3712 10.7965C59.5662 10.6968 59.9919 11.0876 59.9457 11.2403C59.9416 11.2565 59.9248 11.2749 59.9164 11.2911C60.124 11.4784 60.1743 11.5232 60.407 11.7207C60.5265 11.8143 60.7278 11.969 61.7384 12.2621C61.5141 12.1013 61.4742 12.0708 61.2625 11.9039C60.6607 11.8082 60.3902 11.4866 60.6565 11.3319C60.9941 11.1364 61.8076 11.4784 61.7049 11.7756C61.686 11.8285 61.6336 11.857 61.5938 11.8794C61.9062 12.1257 62.2312 12.3802 62.6463 12.6122L62.8518 12.7303C62.3611 12.657 62.2668 12.6 61.9837 12.427L61.9817 12.4229ZM64.3614 12.7364C64.2712 12.7466 64.1811 12.7364 64.0951 12.7099L64.0721 12.7018C63.4242 12.4494 62.1326 11.4011 60.558 9.83571C59.8577 10.0148 59.4635 9.14768 59.7487 8.72835C59.8703 8.54922 60.2665 8.34363 60.7027 8.8566C60.8473 9.07847 60.9249 9.2861 60.8347 9.57515C63.1914 11.8998 64.4054 12.6998 64.7283 12.6794C64.7283 12.6794 64.4558 12.7242 64.3635 12.7364H64.3614ZM66.7537 10.2693C66.9718 10.0555 67.2591 9.7665 67.4666 9.54258C67.3178 8.83827 68.0537 8.16246 68.3976 8.36602C68.8211 8.6164 68.4185 9.65657 67.8524 9.77667C67.8063 9.78685 67.7413 9.78278 67.6931 9.77667C67.1941 10.3161 67.1542 10.3589 66.7873 10.6764C66.326 11.0856 66.152 11.6901 65.7222 12.1217C65.8752 12.2153 65.9339 12.2458 66.0346 12.2804L65.741 12.4026L65.7117 12.4127C65.5733 12.4535 65.2504 12.5471 62.5247 10.0067C61.6441 10.2001 61.1388 9.33903 61.4533 8.84438C61.816 8.27239 62.8434 8.56347 62.9797 9.27796C63.0195 9.48355 62.9629 9.60162 62.9084 9.71561C63.7072 10.4647 64.5983 11.2932 65.4475 11.9283C65.6383 11.6779 65.718 11.5863 65.8228 11.3502C65.9465 11.0917 66.0786 10.9105 66.3449 10.6357C64.6151 9.04183 62.726 7.18539 61.7531 6.22052C60.9396 6.55843 60.4615 5.82155 60.7048 5.23938C60.9815 4.57985 61.8663 4.48214 62.162 5.0806C62.3192 5.39611 62.2039 5.6811 62.1473 5.81748C64.592 8.20725 66.0786 9.63215 66.7475 10.2693H66.7537Z" fill="#C0C0C0"/>
<path d="M46.7578 18.4256C47.2484 17.9554 47.8271 17.5911 48.4918 17.3346C49.1564 17.0781 49.8735 16.9499 50.6493 16.9499C51.425 16.9499 52.075 17.0659 52.7145 17.2979C53.354 17.53 53.9369 17.9086 54.4653 18.4338L55.3312 17.5931C54.7651 16.9845 54.0711 16.5285 53.2471 16.2231C52.4231 15.9198 51.5446 15.7672 50.6115 15.7672C49.6785 15.7672 48.7434 15.926 47.9194 16.2415C47.0953 16.557 46.3804 17.0028 45.7723 17.5748C45.1643 18.1468 44.6904 18.8226 44.3529 19.5981C44.0153 20.3737 43.8455 21.2205 43.8455 22.1406C43.8455 23.0606 44.0132 23.9074 44.3529 24.683C44.6904 25.4586 45.1601 26.1323 45.7639 26.7064C46.3657 27.2784 47.0786 27.7242 47.9026 28.0397C48.7266 28.3552 49.624 28.514 50.5948 28.514C51.5655 28.514 52.4252 28.3593 53.2492 28.0478C54.0732 27.7384 54.7672 27.2784 55.3333 26.6697L54.4674 25.829C53.939 26.3542 53.354 26.7369 52.7166 26.9751C52.0771 27.2132 51.3894 27.3333 50.6514 27.3333C49.8777 27.3333 49.1585 27.2051 48.4939 26.9486C47.8292 26.6921 47.2526 26.3277 46.7599 25.8575C46.2672 25.3873 45.8835 24.8377 45.6067 24.2108C45.3299 23.5838 45.1915 22.8958 45.1915 22.1426C45.1915 21.3894 45.3299 20.7014 45.6067 20.0745C45.8835 19.4475 46.2672 18.8999 46.7599 18.4277L46.7578 18.4256Z" fill="#C0C0C0"/>
<path d="M61.7453 15.8745L55.8452 28.4035H57.2647L58.8079 25.057H66.01L67.5532 28.4035H68.9916L63.0914 15.8745H61.7453ZM59.3027 23.9822L62.4079 17.2444L65.5131 23.9822H59.3006H59.3027Z" fill="#C0C0C0"/>
<path d="M80.0061 16.6704C78.9682 16.1391 77.7605 15.8745 76.383 15.8745H71.1287V28.4035H76.383C77.7584 28.4035 78.9661 28.1389 80.0061 27.6076C81.044 27.0763 81.8533 26.3394 82.4299 25.3969C83.0065 24.4545 83.2958 23.3695 83.2958 22.14C83.2958 20.9105 83.0065 19.8256 82.4299 18.8831C81.8512 17.9406 81.044 17.2037 80.0061 16.6725V16.6704ZM81.2494 24.7964C80.7819 25.5659 80.1277 26.1684 79.2869 26.604C78.4441 27.0396 77.4523 27.2574 76.3096 27.2574H72.4936V17.0205H76.3096C77.4523 17.0205 78.4441 17.2383 79.2869 17.674C80.1277 18.1096 80.784 18.7101 81.2494 19.4734C81.717 20.2367 81.9498 21.1263 81.9498 22.14C81.9498 23.1537 81.717 24.029 81.2494 24.7985V24.7964Z" fill="#C0C0C0"/>
<path d="M88.1259 18.4256C88.6166 17.9554 89.1953 17.5911 89.8599 17.3346C90.5246 17.0781 91.2417 16.9499 92.0174 16.9499C92.7932 16.9499 93.4432 17.0659 94.0827 17.2979C94.7222 17.53 95.3051 17.9086 95.8334 18.4338L96.6994 17.5931C96.1333 16.9845 95.4392 16.5285 94.6152 16.2231C93.7912 15.9198 92.9127 15.7672 91.9797 15.7672C91.0466 15.7672 90.1115 15.926 89.2875 16.2415C88.4635 16.557 87.7485 17.0028 87.1405 17.5748C86.5325 18.1468 86.0586 18.8226 85.721 19.5981C85.3835 20.3737 85.2136 21.2205 85.2136 22.1406C85.2136 23.0606 85.3835 23.9074 85.721 24.683C86.0586 25.4586 86.5282 26.1323 87.1321 26.7064C87.7339 27.2784 88.4467 27.7242 89.2707 28.0397C90.0947 28.3552 90.9921 28.514 91.9629 28.514C92.9337 28.514 93.7933 28.3593 94.6173 28.0478C95.4413 27.7384 96.1354 27.2784 96.7015 26.6697L95.8355 25.829C95.3072 26.3542 94.7222 26.7369 94.0848 26.9751C93.4453 27.2132 92.7576 27.3333 92.0195 27.3333C91.2458 27.3333 90.5267 27.2051 89.862 26.9486C89.1974 26.6921 88.6208 26.3277 88.128 25.8575C87.6353 25.3873 87.2516 24.8377 86.9748 24.2108C86.6981 23.5838 86.5597 22.8958 86.5597 22.1426C86.5597 21.3894 86.6981 20.7014 86.9748 20.0745C87.2516 19.4475 87.6353 18.8999 88.128 18.4277L88.1259 18.4256Z" fill="#C0C0C0"/>
<path d="M103.113 15.8745L97.2129 28.4035H98.6324L100.176 25.057H107.378L108.921 28.4035H110.359L104.459 15.8745H103.113ZM100.67 23.9822L103.776 17.2444L106.881 23.9822H100.668H100.67Z" fill="#C0C0C0"/>
<path d="M124.592 18.3823V28.4035H125.9V15.8745H124.777L119.225 25.1547L113.622 15.8745H112.498V28.4035H113.807V18.4393L118.876 26.8096H119.522L124.592 18.3823Z" fill="#C0C0C0"/>
</g>
<defs>
<clipPath id="clip0_276_139">
<rect width="1920" height="5639.06" fill="white" transform="translate(-650 -948)"/>
</clipPath>
</defs>
</svg>
