<svg width="201" height="200" viewBox="0 0 201 200" fill="none" xmlns="http://www.w3.org/2000/svg">
<rect width="201" height="200" fill="#1E1E1E"/>
<path d="M-7002 -2253C-7002 -2254.1 -7001.1 -2255 -7000 -2255H3180C3181.1 -2255 3182 -2254.1 3182 -2253V7750C3182 7751.1 3181.1 7752 3180 7752H-7000C-7001.1 7752 -7002 7751.1 -7002 7750V-2253Z" fill="#444444"/>
<path d="M-7000 -2254H3180V-2256H-7000V-2254ZM3181 -2253V7750H3183V-2253H3181ZM3180 7751H-7000V7753H3180V7751ZM-7001 7750V-2253H-7003V7750H-7001ZM-7000 7751C-7000.55 7751 -7001 7750.55 -7001 7750H-7003C-7003 7751.66 -7001.66 7753 -7000 7753V7751ZM3181 7750C3181 7750.55 3180.55 7751 3180 7751V7753C3181.66 7753 3183 7751.66 3183 7750H3181ZM3180 -2254C3180.55 -2254 3181 -2253.55 3181 -2253H3183C3183 -2254.66 3181.66 -2256 3180 -2256V-2254ZM-7000 -2256C-7001.66 -2256 -7003 -2254.66 -7003 -2253H-7001C-7001 -2253.55 -7000.55 -2254 -7000 -2254V-2256Z" fill="white" fill-opacity="0.1"/>
<rect width="1512" height="4674" transform="translate(-148 -835)" fill="#101010"/>
<rect width="497.333" height="529" transform="translate(-148 -65)" fill="#5A58C4"/>
<mask id="path-3-inside-1_276_139" fill="white">
<path d="M188.222 66.6325C191.474 65.393 195.136 67.0202 196.169 70.3443C202.309 90.1157 202.174 111.363 195.696 131.135C188.562 152.909 174.168 171.573 154.92 184.004C135.673 196.434 112.74 201.878 89.9595 199.425C67.1786 196.972 45.9311 186.77 29.7718 170.526C13.6126 154.282 3.52164 132.981 1.18732 110.188C-1.14701 87.3945 4.41687 64.4908 16.9481 45.3086C29.4793 26.1265 48.2177 11.8293 70.0284 4.80925C89.8341 -1.5655 111.082 -1.58853 130.821 4.65463C134.14 5.70428 135.748 9.37468 134.491 12.6207C133.235 15.8667 129.59 17.456 126.262 16.4365C109.226 11.2183 90.9461 11.3182 73.8904 16.8079C54.8289 22.9431 38.4524 35.4381 27.5007 52.2024C16.549 68.9667 11.6864 88.9834 13.7265 108.904C15.7666 128.824 24.5856 147.44 38.708 161.636C52.8305 175.833 71.3997 184.749 91.3091 186.893C111.219 189.037 131.26 184.279 148.082 173.415C164.903 162.551 177.483 146.24 183.718 127.211C189.297 110.184 189.492 91.9052 184.363 74.8423C183.361 71.5089 184.969 67.8721 188.222 66.6325Z"/>
</mask>
<path d="M188.222 66.6325C191.474 65.393 195.136 67.0202 196.169 70.3443C202.309 90.1157 202.174 111.363 195.696 131.135C188.562 152.909 174.168 171.573 154.92 184.004C135.673 196.434 112.74 201.878 89.9595 199.425C67.1786 196.972 45.9311 186.77 29.7718 170.526C13.6126 154.282 3.52164 132.981 1.18732 110.188C-1.14701 87.3945 4.41687 64.4908 16.9481 45.3086C29.4793 26.1265 48.2177 11.8293 70.0284 4.80925C89.8341 -1.5655 111.082 -1.58853 130.821 4.65463C134.14 5.70428 135.748 9.37468 134.491 12.6207C133.235 15.8667 129.59 17.456 126.262 16.4365C109.226 11.2183 90.9461 11.3182 73.8904 16.8079C54.8289 22.9431 38.4524 35.4381 27.5007 52.2024C16.549 68.9667 11.6864 88.9834 13.7265 108.904C15.7666 128.824 24.5856 147.44 38.708 161.636C52.8305 175.833 71.3997 184.749 91.3091 186.893C111.219 189.037 131.26 184.279 148.082 173.415C164.903 162.551 177.483 146.24 183.718 127.211C189.297 110.184 189.492 91.9052 184.363 74.8423C183.361 71.5089 184.969 67.8721 188.222 66.6325Z" stroke="white" stroke-width="24" mask="url(#path-3-inside-1_276_139)"/>
<mask id="path-4-inside-2_276_139" fill="white">
<path d="M163.714 88.8363C167.008 88.2747 170.162 90.4903 170.435 93.8204C171.463 106.36 169.07 118.986 163.455 130.33C156.943 143.487 146.432 154.244 133.429 161.058C120.426 167.873 105.599 170.395 91.0737 168.263C76.5488 166.131 63.0721 159.455 52.5759 149.191C42.0797 138.927 35.1033 125.603 32.6468 111.129C30.1904 96.6556 32.3802 81.7759 38.9022 68.6237C45.4242 55.4715 55.9434 44.7223 68.9515 37.9174C80.167 32.0503 92.7359 29.3752 105.295 30.1227C108.631 30.3212 110.916 33.4241 110.429 36.7296C109.941 40.0351 106.863 42.2856 103.525 42.1484C93.5032 41.7363 83.51 43.9572 74.5603 48.639C63.8169 54.2591 55.1291 63.1369 49.7425 73.9993C44.356 84.8617 42.5475 97.1508 44.5762 109.105C46.605 121.058 52.3669 132.062 61.0357 140.539C69.7044 149.016 80.8349 154.531 92.8309 156.291C104.827 158.052 117.073 155.969 127.812 150.341C138.551 144.713 147.232 135.829 152.611 124.962C157.091 115.91 159.088 105.87 158.452 95.8598C158.24 92.5252 160.421 89.3979 163.714 88.8363Z"/>
</mask>
<path d="M163.714 88.8363C167.008 88.2747 170.162 90.4903 170.435 93.8204C171.463 106.36 169.07 118.986 163.455 130.33C156.943 143.487 146.432 154.244 133.429 161.058C120.426 167.873 105.599 170.395 91.0737 168.263C76.5488 166.131 63.0721 159.455 52.5759 149.191C42.0797 138.927 35.1033 125.603 32.6468 111.129C30.1904 96.6556 32.3802 81.7759 38.9022 68.6237C45.4242 55.4715 55.9434 44.7223 68.9515 37.9174C80.167 32.0503 92.7359 29.3752 105.295 30.1227C108.631 30.3212 110.916 33.4241 110.429 36.7296C109.941 40.0351 106.863 42.2856 103.525 42.1484C93.5032 41.7363 83.51 43.9572 74.5603 48.639C63.8169 54.2591 55.1291 63.1369 49.7425 73.9993C44.356 84.8617 42.5475 97.1508 44.5762 109.105C46.605 121.058 52.3669 132.062 61.0357 140.539C69.7044 149.016 80.8349 154.531 92.8309 156.291C104.827 158.052 117.073 155.969 127.812 150.341C138.551 144.713 147.232 135.829 152.611 124.962C157.091 115.91 159.088 105.87 158.452 95.8598C158.24 92.5252 160.421 89.3979 163.714 88.8363Z" stroke="white" stroke-width="24" mask="url(#path-4-inside-2_276_139)"/>
<mask id="path-5-inside-3_276_139" fill="white">
<path d="M134.027 94.3125C137.38 93.7408 140.612 96.0032 140.663 99.4042C140.757 105.731 139.349 112.021 136.516 117.744C132.768 125.316 126.719 131.507 119.235 135.429C111.751 139.351 103.218 140.803 94.8579 139.576C86.4983 138.349 78.7419 134.506 72.7009 128.599C66.6599 122.692 62.6447 115.023 61.2309 106.693C59.8172 98.3629 61.0775 89.7991 64.8311 82.2295C68.5848 74.6599 74.639 68.4733 82.1257 64.5568C87.784 61.5968 94.0408 60.0484 100.368 60.0011C103.769 59.9756 106.103 63.1562 105.607 66.5211C105.11 69.886 101.957 72.139 98.5655 72.3972C94.8382 72.681 91.1851 73.7185 87.8352 75.4709C82.6539 78.1814 78.464 82.4629 75.8662 87.7016C73.2684 92.9403 72.3962 98.8671 73.3746 104.632C74.353 110.397 77.1318 115.704 81.3126 119.792C85.4933 123.881 90.8613 126.54 96.6467 127.389C102.432 128.238 108.338 127.234 113.517 124.519C118.696 121.805 122.883 117.52 125.477 112.28C127.154 108.892 128.11 105.216 128.31 101.483C128.492 98.087 130.674 94.8841 134.027 94.3125Z"/>
</mask>
<path d="M134.027 94.3125C137.38 93.7408 140.612 96.0032 140.663 99.4042C140.757 105.731 139.349 112.021 136.516 117.744C132.768 125.316 126.719 131.507 119.235 135.429C111.751 139.351 103.218 140.803 94.8579 139.576C86.4983 138.349 78.7419 134.506 72.7009 128.599C66.6599 122.692 62.6447 115.023 61.2309 106.693C59.8172 98.3629 61.0775 89.7991 64.8311 82.2295C68.5848 74.6599 74.639 68.4733 82.1257 64.5568C87.784 61.5968 94.0408 60.0484 100.368 60.0011C103.769 59.9756 106.103 63.1562 105.607 66.5211C105.11 69.886 101.957 72.139 98.5655 72.3972C94.8382 72.681 91.1851 73.7185 87.8352 75.4709C82.6539 78.1814 78.464 82.4629 75.8662 87.7016C73.2684 92.9403 72.3962 98.8671 73.3746 104.632C74.353 110.397 77.1318 115.704 81.3126 119.792C85.4933 123.881 90.8613 126.54 96.6467 127.389C102.432 128.238 108.338 127.234 113.517 124.519C118.696 121.805 122.883 117.52 125.477 112.28C127.154 108.892 128.11 105.216 128.31 101.483C128.492 98.087 130.674 94.8841 134.027 94.3125Z" stroke="white" stroke-width="24" mask="url(#path-5-inside-3_276_139)"/>
<line x1="134.974" y1="45.6863" x2="134.353" y2="63.6928" stroke="white" stroke-width="11" stroke-linecap="round"/>
<line x1="134.974" y1="45.6863" x2="134.353" y2="63.6928" stroke="white" stroke-width="11" stroke-linecap="round"/>
<line x1="134.974" y1="45.6863" x2="134.353" y2="63.6928" stroke="white" stroke-width="11" stroke-linecap="round"/>
<line x1="134.974" y1="45.6863" x2="134.353" y2="63.6928" stroke="white" stroke-width="11" stroke-linecap="round"/>
<line x1="155.573" y1="64.8779" x2="138.545" y2="66.0942" stroke="white" stroke-width="11" stroke-linecap="round"/>
<line x1="155.573" y1="64.8779" x2="138.545" y2="66.0942" stroke="white" stroke-width="11" stroke-linecap="round"/>
<line x1="155.573" y1="64.8779" x2="138.545" y2="66.0942" stroke="white" stroke-width="11" stroke-linecap="round"/>
<line x1="155.573" y1="64.8779" x2="138.545" y2="66.0942" stroke="white" stroke-width="11" stroke-linecap="round"/>
<line x1="187.347" y1="34.6745" x2="167.341" y2="35.3198" stroke="white" stroke-width="11" stroke-linecap="round"/>
<line x1="187.347" y1="34.6745" x2="167.341" y2="35.3198" stroke="white" stroke-width="11" stroke-linecap="round"/>
<line x1="187.347" y1="34.6745" x2="167.341" y2="35.3198" stroke="white" stroke-width="11" stroke-linecap="round"/>
<line x1="187.347" y1="34.6745" x2="167.341" y2="35.3198" stroke="white" stroke-width="11" stroke-linecap="round"/>
<line x1="166.981" y1="15.6802" x2="166.347" y2="34.6863" stroke="white" stroke-width="11" stroke-linecap="round"/>
<line x1="166.981" y1="15.6802" x2="166.347" y2="34.6863" stroke="white" stroke-width="11" stroke-linecap="round"/>
<line x1="166.981" y1="15.6802" x2="166.347" y2="34.6863" stroke="white" stroke-width="11" stroke-linecap="round"/>
<line x1="166.981" y1="15.6802" x2="166.347" y2="34.6863" stroke="white" stroke-width="11" stroke-linecap="round"/>
<line x1="136.473" y1="64.7757" x2="103.443" y2="96.1944" stroke="white" stroke-width="11" stroke-linecap="round"/>
<line x1="136.473" y1="64.7757" x2="103.443" y2="96.1944" stroke="white" stroke-width="11" stroke-linecap="round"/>
<line x1="136.473" y1="64.7757" x2="103.443" y2="96.1944" stroke="white" stroke-width="11" stroke-linecap="round"/>
<line x1="136.473" y1="64.7757" x2="103.443" y2="96.1944" stroke="white" stroke-width="11" stroke-linecap="round"/>
<line x1="187.356" y1="35.772" x2="156.439" y2="64.3109" stroke="white" stroke-width="11" stroke-linecap="round"/>
<line x1="187.356" y1="35.772" x2="156.439" y2="64.3109" stroke="white" stroke-width="11" stroke-linecap="round"/>
<line x1="187.356" y1="35.772" x2="156.439" y2="64.3109" stroke="white" stroke-width="11" stroke-linecap="round"/>
<line x1="187.356" y1="35.772" x2="156.439" y2="64.3109" stroke="white" stroke-width="11" stroke-linecap="round"/>
<line x1="165.457" y1="15.7753" x2="135.442" y2="44.2101" stroke="white" stroke-width="11" stroke-linecap="round"/>
<line x1="165.457" y1="15.7753" x2="135.442" y2="44.2101" stroke="white" stroke-width="11" stroke-linecap="round"/>
<line x1="165.457" y1="15.7753" x2="135.442" y2="44.2101" stroke="white" stroke-width="11" stroke-linecap="round"/>
<line x1="165.457" y1="15.7753" x2="135.442" y2="44.2101" stroke="white" stroke-width="11" stroke-linecap="round"/>
</svg>
