<svg width="49" height="50" viewBox="0 0 49 50" fill="none" xmlns="http://www.w3.org/2000/svg">
<g clip-path="url(#clip0_2374_140)">
<path d="M33.6875 12.75C36.9364 12.75 40.0522 14.0406 42.3496 16.3379C44.6469 18.6353 45.9375 21.7511 45.9375 25C45.9375 28.2489 44.6469 31.3647 42.3496 33.6621C40.0522 35.9594 36.9364 37.25 33.6875 37.25H24.5C26.4032 35.825 27.9477 33.9758 29.011 31.8493C30.0743 29.7227 30.6269 27.3775 30.625 25C30.6269 22.6225 30.0743 20.2773 29.011 18.1507C27.9477 16.0242 26.4032 14.175 24.5 12.75H33.6875ZM15.3125 37.25C12.0636 37.25 8.94776 35.9594 6.65044 33.6621C4.35312 31.3647 3.0625 28.2489 3.0625 25C3.0625 21.7511 4.35312 18.6353 6.65044 16.3379C8.94776 14.0406 12.0636 12.75 15.3125 12.75C18.5614 12.75 21.6772 14.0406 23.9746 16.3379C26.2719 18.6353 27.5625 21.7511 27.5625 25C27.5625 28.2489 26.2719 31.3647 23.9746 33.6621C21.6772 35.9594 18.5614 37.25 15.3125 37.25ZM0 25C0 29.0611 1.61328 32.9559 4.48493 35.8276C7.35658 38.6992 11.2514 40.3125 15.3125 40.3125H33.6875C37.7486 40.3125 41.6434 38.6992 44.5151 35.8276C47.3867 32.9559 49 29.0611 49 25C49 20.9389 47.3867 17.0441 44.5151 14.1724C41.6434 11.3008 37.7486 9.6875 33.6875 9.6875H15.3125C11.2514 9.6875 7.35658 11.3008 4.48493 14.1724C1.61328 17.0441 0 20.9389 0 25Z" fill="white"/>
</g>
<defs>
<clipPath id="clip0_2374_140">
<rect width="49" height="49" fill="white" transform="translate(0 0.5)"/>
</clipPath>
</defs>
</svg>
