<svg width="56" height="57" viewBox="0 0 56 57" fill="none" xmlns="http://www.w3.org/2000/svg">
<rect y="56.2715" width="56" height="56" rx="28" transform="rotate(-90 0 56.2715)" fill="white"/>
<g clip-path="url(#clip0_1128_1084)">
<path fill-rule="evenodd" clip-rule="evenodd" d="M28 45.7715C27.6759 45.7715 27.3651 45.6398 27.1359 45.4054C26.9067 45.171 26.7779 44.8531 26.7779 44.5216L26.7779 15.0409L19.0888 22.9079C18.8593 23.1426 18.5481 23.2745 18.2236 23.2745C17.8991 23.2745 17.5878 23.1426 17.3584 22.9079C17.1289 22.6732 17 22.3549 17 22.023C17 21.6911 17.1289 21.3728 17.3584 21.1381L27.1348 11.1387C27.2483 11.0223 27.3832 10.9299 27.5316 10.8669C27.6801 10.8039 27.8393 10.7715 28 10.7715C28.1607 10.7715 28.3199 10.8039 28.4684 10.8669C28.6168 10.9299 28.7517 11.0223 28.8652 11.1387L38.6416 21.1381C38.8711 21.3728 39 21.6911 39 22.023C39 22.3549 38.8711 22.6732 38.6416 22.9079C38.4121 23.1426 38.1009 23.2745 37.7764 23.2745C37.4519 23.2745 37.1407 23.1426 36.9112 22.9079L29.222 15.0409L29.2221 44.5216C29.2221 44.8531 29.0933 45.171 28.8641 45.4054C28.6349 45.6398 28.3241 45.7715 28 45.7715Z" fill="#101010"/>
</g>
<defs>
<clipPath id="clip0_1128_1084">
<rect width="35" height="22" fill="white" transform="translate(17 45.7715) rotate(-90)"/>
</clipPath>
</defs>
</svg>
