<svg width="56" height="57" viewBox="0 0 56 57" fill="none" xmlns="http://www.w3.org/2000/svg">
<rect y="56.2717" width="56" height="56" rx="28" transform="rotate(-90 0 56.2717)" fill="black"/>
<g clip-path="url(#clip0_1182_4516)">
<path fill-rule="evenodd" clip-rule="evenodd" d="M28 45.7717C27.6759 45.7717 27.3651 45.64 27.1359 45.4056C26.9067 45.1712 26.7779 44.8533 26.7779 44.5218L26.7779 15.0412L19.0888 22.9082C18.8593 23.1429 18.5481 23.2747 18.2236 23.2747C17.8991 23.2747 17.5878 23.1429 17.3584 22.9082C17.1289 22.6735 17 22.3552 17 22.0232C17 21.6913 17.1289 21.373 17.3584 21.1383L27.1348 11.1389C27.2483 11.0225 27.3832 10.9302 27.5316 10.8672C27.6801 10.8042 27.8393 10.7717 28 10.7717C28.1607 10.7717 28.3199 10.8042 28.4684 10.8672C28.6168 10.9302 28.7517 11.0225 28.8652 11.1389L38.6416 21.1383C38.8711 21.373 39 21.6913 39 22.0232C39 22.3552 38.8711 22.6735 38.6416 22.9082C38.4121 23.1429 38.1009 23.2747 37.7764 23.2747C37.4519 23.2747 37.1407 23.1429 36.9112 22.9082L29.222 15.0412L29.2221 44.5218C29.2221 44.8533 29.0933 45.1712 28.8641 45.4056C28.6349 45.64 28.3241 45.7717 28 45.7717Z" fill="white"/>
</g>
<defs>
<clipPath id="clip0_1182_4516">
<rect width="35" height="22" fill="white" transform="translate(17 45.7717) rotate(-90)"/>
</clipPath>
</defs>
</svg>
