<svg width="200" height="200" viewBox="0 0 200 200" fill="none" xmlns="http://www.w3.org/2000/svg">
<mask id="mask0_3334_783" style="mask-type:luminance" maskUnits="userSpaceOnUse" x="0" y="0" width="201" height="200">
<path d="M187.555 66.6325C190.807 65.393 194.469 67.0202 195.502 70.3443C201.642 90.1157 201.508 111.363 195.029 131.135C187.895 152.909 173.501 171.573 154.253 184.004C135.006 196.434 112.073 201.878 89.2927 199.425C66.5118 196.972 45.2643 186.77 29.105 170.526C12.9458 154.282 2.85479 132.981 0.520478 110.188C-1.81385 87.3945 3.75003 64.4908 16.2813 45.3086C28.8125 26.1265 47.5509 11.8293 69.3615 4.80926C89.1672 -1.56549 110.415 -1.58852 130.154 4.65464C133.473 5.70429 135.081 9.37469 133.824 12.6207C132.568 15.8667 128.923 17.456 125.595 16.4365C108.559 11.2183 90.2792 11.3182 73.2235 16.8079C54.162 22.9431 37.7856 35.4381 26.8339 52.2024C15.8822 68.9667 11.0197 88.9834 13.0597 108.904C15.0998 128.824 23.9188 147.44 38.0412 161.636C52.1637 175.833 70.7328 184.749 90.6423 186.893C110.552 189.037 130.593 184.279 147.415 173.415C164.236 162.551 176.816 146.24 183.051 127.211C188.63 110.184 188.825 91.9052 183.696 74.8423C182.694 71.5089 184.302 67.8721 187.555 66.6325Z" fill="white"/>
</mask>
<g mask="url(#mask0_3334_783)">
<path d="M187.555 66.6325C190.807 65.393 194.469 67.0202 195.502 70.3443C201.642 90.1157 201.508 111.363 195.029 131.135C187.895 152.909 173.501 171.573 154.253 184.004C135.006 196.434 112.073 201.878 89.2927 199.425C66.5118 196.972 45.2643 186.77 29.105 170.526C12.9458 154.282 2.85479 132.981 0.520478 110.188C-1.81385 87.3945 3.75003 64.4908 16.2813 45.3086C28.8125 26.1265 47.5509 11.8293 69.3615 4.80926C89.1672 -1.56549 110.415 -1.58852 130.154 4.65464C133.473 5.70429 135.081 9.37469 133.824 12.6207C132.568 15.8667 128.923 17.456 125.595 16.4365C108.559 11.2183 90.2792 11.3182 73.2235 16.8079C54.162 22.9431 37.7856 35.4381 26.8339 52.2024C15.8822 68.9667 11.0197 88.9834 13.0597 108.904C15.0998 128.824 23.9188 147.44 38.0412 161.636C52.1637 175.833 70.7328 184.749 90.6423 186.893C110.552 189.037 130.593 184.279 147.415 173.415C164.236 162.551 176.816 146.24 183.051 127.211C188.63 110.184 188.825 91.9052 183.696 74.8423C182.694 71.5089 184.302 67.8721 187.555 66.6325Z" stroke="white" stroke-width="24"/>
</g>
<mask id="mask1_3334_783" style="mask-type:luminance" maskUnits="userSpaceOnUse" x="31" y="30" width="139" height="139">
<path d="M163.047 88.8363C166.341 88.2747 169.495 90.4903 169.768 93.8204C170.796 106.36 168.403 118.986 162.788 130.33C156.276 143.487 145.765 154.244 132.762 161.058C119.759 167.873 104.932 170.395 90.4068 168.263C75.8819 166.131 62.4052 159.455 51.909 149.191C41.4129 138.927 34.4364 125.603 31.9799 111.129C29.5235 96.6556 31.7133 81.7759 38.2353 68.6237C44.7573 55.4715 55.2765 44.7223 68.2847 37.9174C79.5001 32.0503 92.069 29.3752 104.628 30.1227C107.964 30.3212 110.249 33.4241 109.762 36.7296C109.274 40.0351 106.196 42.2856 102.858 42.1484C92.8363 41.7363 82.8431 43.9572 73.8934 48.639C63.15 54.2591 54.4622 63.1369 49.0756 73.9993C43.6891 84.8617 41.8806 97.1508 43.9093 109.105C45.9381 121.058 51.7 132.062 60.3688 140.539C69.0375 149.016 80.168 154.531 92.1641 156.291C104.16 158.052 116.406 155.969 127.145 150.341C137.884 144.713 146.565 135.829 151.944 124.962C156.424 115.91 158.421 105.87 157.785 95.8598C157.573 92.5252 159.754 89.3979 163.047 88.8363Z" fill="white"/>
</mask>
<g mask="url(#mask1_3334_783)">
<path d="M163.047 88.8363C166.341 88.2747 169.495 90.4903 169.768 93.8204C170.796 106.36 168.403 118.986 162.788 130.33C156.276 143.487 145.765 154.244 132.762 161.058C119.759 167.873 104.932 170.395 90.4068 168.263C75.8819 166.131 62.4052 159.455 51.909 149.191C41.4129 138.927 34.4364 125.603 31.9799 111.129C29.5235 96.6556 31.7133 81.7759 38.2353 68.6237C44.7573 55.4715 55.2765 44.7223 68.2847 37.9174C79.5001 32.0503 92.069 29.3752 104.628 30.1227C107.964 30.3212 110.249 33.4241 109.762 36.7296C109.274 40.0351 106.196 42.2856 102.858 42.1484C92.8363 41.7363 82.8431 43.9572 73.8934 48.639C63.15 54.2591 54.4622 63.1369 49.0756 73.9993C43.6891 84.8617 41.8806 97.1508 43.9093 109.105C45.9381 121.058 51.7 132.062 60.3688 140.539C69.0375 149.016 80.168 154.531 92.1641 156.291C104.16 158.052 116.406 155.969 127.145 150.341C137.884 144.713 146.565 135.829 151.944 124.962C156.424 115.91 158.421 105.87 157.785 95.8598C157.573 92.5252 159.754 89.3979 163.047 88.8363Z" stroke="white" stroke-width="24"/>
</g>
<mask id="mask2_3334_783" style="mask-type:luminance" maskUnits="userSpaceOnUse" x="60" y="60" width="80" height="80">
<path d="M133.36 94.3125C136.713 93.7408 139.945 96.0032 139.996 99.4042C140.09 105.731 138.682 112.021 135.849 117.744C132.101 125.316 126.052 131.507 118.568 135.429C111.084 139.351 102.551 140.803 94.1909 139.576C85.8313 138.349 78.0749 134.506 72.0339 128.599C65.993 122.692 61.9777 115.023 60.5639 106.693C59.1502 98.3629 60.4105 89.7991 64.1641 82.2295C67.9178 74.6599 73.9721 68.4733 81.4587 64.5568C87.117 61.5968 93.3738 60.0484 99.7009 60.0011C103.102 59.9756 105.436 63.1562 104.94 66.5211C104.443 69.886 101.29 72.139 97.8985 72.3972C94.1712 72.681 90.5181 73.7185 87.1682 75.4709C81.9869 78.1814 77.797 82.4629 75.1992 87.7016C72.6014 92.9403 71.7292 98.8671 72.7076 104.632C73.686 110.397 76.4649 115.704 80.6456 119.792C84.8264 123.881 90.1943 126.54 95.9797 127.389C101.765 128.238 107.671 127.234 112.85 124.519C118.029 121.805 122.216 117.52 124.81 112.28C126.487 108.892 127.443 105.216 127.643 101.483C127.825 98.087 130.007 94.8841 133.36 94.3125Z" fill="white"/>
</mask>
<g mask="url(#mask2_3334_783)">
<path d="M133.36 94.3125C136.713 93.7408 139.945 96.0032 139.996 99.4042C140.09 105.731 138.682 112.021 135.849 117.744C132.101 125.316 126.052 131.507 118.568 135.429C111.084 139.351 102.551 140.803 94.1909 139.576C85.8313 138.349 78.0749 134.506 72.0339 128.599C65.993 122.692 61.9777 115.023 60.5639 106.693C59.1502 98.3629 60.4105 89.7991 64.1641 82.2295C67.9178 74.6599 73.9721 68.4733 81.4587 64.5568C87.117 61.5968 93.3738 60.0484 99.7009 60.0011C103.102 59.9756 105.436 63.1562 104.94 66.5211C104.443 69.886 101.29 72.139 97.8985 72.3972C94.1712 72.681 90.5181 73.7185 87.1682 75.4709C81.9869 78.1814 77.797 82.4629 75.1992 87.7016C72.6014 92.9403 71.7292 98.8671 72.7076 104.632C73.686 110.397 76.4649 115.704 80.6456 119.792C84.8264 123.881 90.1943 126.54 95.9797 127.389C101.765 128.238 107.671 127.234 112.85 124.519C118.029 121.805 122.216 117.52 124.81 112.28C126.487 108.892 127.443 105.216 127.643 101.483C127.825 98.087 130.007 94.8841 133.36 94.3125Z" stroke="white" stroke-width="24"/>
</g>
<path d="M134.307 45.6863L133.686 63.6928" stroke="white" stroke-width="11" stroke-linecap="round"/>
<path d="M154.906 64.8779L137.878 66.0942" stroke="white" stroke-width="11" stroke-linecap="round"/>
<path d="M186.68 34.6746L166.674 35.3199" stroke="white" stroke-width="11" stroke-linecap="round"/>
<path d="M166.314 15.6802L165.68 34.6863" stroke="white" stroke-width="11" stroke-linecap="round"/>
<path d="M135.806 64.7756L102.776 96.1943" stroke="white" stroke-width="11" stroke-linecap="round"/>
<path d="M186.689 35.772L155.772 64.3109" stroke="white" stroke-width="11" stroke-linecap="round"/>
<path d="M164.79 15.7754L134.775 44.2102" stroke="white" stroke-width="11" stroke-linecap="round"/>
</svg>
