<svg width="36" height="22" viewBox="0 0 36 22" fill="none" xmlns="http://www.w3.org/2000/svg">
<path fill-rule="evenodd" clip-rule="evenodd" d="M0.875 11C0.875 10.6759 1.00669 10.3651 1.24109 10.1359C1.4755 9.9067 1.79342 9.77795 2.12492 9.77795H31.6055L23.7385 2.08881C23.5038 1.85934 23.372 1.54811 23.372 1.22359C23.372 0.899077 23.5038 0.587851 23.7385 0.358382C23.9732 0.128914 24.2916 7.64589e-09 24.6235 0C24.9554 -7.64589e-09 25.2737 0.128914 25.5084 0.358382L35.5078 10.1348C35.6242 10.2483 35.7165 10.3832 35.7796 10.5316C35.8426 10.6801 35.875 10.8393 35.875 11C35.875 11.1607 35.8426 11.3199 35.7796 11.4684C35.7165 11.6168 35.6242 11.7517 35.5078 11.8652L25.5084 21.6416C25.2737 21.8711 24.9554 22 24.6235 22C24.2916 22 23.9732 21.8711 23.7385 21.6416C23.5038 21.4121 23.372 21.1009 23.372 20.7764C23.372 20.4519 23.5038 20.1407 23.7385 19.9112L31.6055 12.2221H2.12492C1.79342 12.2221 1.4755 12.0933 1.24109 11.8641C1.00669 11.6349 0.875 11.3241 0.875 11Z" fill="white"/>
</svg>
