<svg width="10" height="16" viewBox="0 0 10 16" fill="none" xmlns="http://www.w3.org/2000/svg">
<path fill-rule="evenodd" clip-rule="evenodd" d="M1.07873 0.454588C1.13389 0.399294 1.19941 0.355424 1.27154 0.325492C1.34368 0.295559 1.42101 0.280151 1.49911 0.280151C1.57721 0.280151 1.65454 0.295559 1.72667 0.325492C1.79881 0.355424 1.86433 0.399294 1.91948 0.454588L9.04448 7.57959C9.09978 7.63474 9.14365 7.70026 9.17358 7.7724C9.20351 7.84453 9.21892 7.92186 9.21892 7.99996C9.21892 8.07806 9.20351 8.15539 9.17358 8.22753C9.14365 8.29966 9.09978 8.36518 9.04448 8.42034L1.91948 15.5453C1.80799 15.6568 1.65678 15.7195 1.49911 15.7195C1.34144 15.7195 1.19022 15.6568 1.07873 15.5453C0.967243 15.4338 0.904608 15.2826 0.904608 15.125C0.904608 14.9673 0.967243 14.8161 1.07873 14.7046L7.78455 7.99996L1.07873 1.29534C1.02344 1.24018 0.979569 1.17466 0.949637 1.10253C0.919704 1.03039 0.904297 0.953061 0.904297 0.874963C0.904297 0.796864 0.919704 0.719533 0.949637 0.647398C0.979569 0.575263 1.02344 0.509742 1.07873 0.454588Z" fill="white"/>
</svg>
