<svg width="150" height="200" viewBox="0 0 150 200" fill="none" xmlns="http://www.w3.org/2000/svg">
<path fill-rule="evenodd" clip-rule="evenodd" d="M75.0005 55.125C92.338 37.3125 135.675 68.5 75.0005 108.588C14.3255 68.5 57.663 37.325 75.0005 55.15V55.125Z" fill="white"/>
<path d="M0 25C0 18.3696 2.63392 12.0107 7.32233 7.32233C12.0107 2.63392 18.3696 0 25 0L125 0C131.63 0 137.989 2.63392 142.678 7.32233C147.366 12.0107 150 18.3696 150 25V193.75C149.999 194.881 149.692 195.99 149.111 196.959C148.53 197.929 147.697 198.723 146.7 199.257C145.703 199.79 144.581 200.044 143.451 199.99C142.322 199.936 141.229 199.576 140.287 198.95L75 163.762L9.7125 198.95C8.77132 199.576 7.67788 199.936 6.54864 199.99C5.41941 200.044 4.29666 199.79 3.29999 199.257C2.30332 198.723 1.47005 197.929 0.888926 196.959C0.3078 195.99 0.000584005 194.881 0 193.75V25ZM25 12.5C21.6848 12.5 18.5054 13.817 16.1612 16.1612C13.817 18.5054 12.5 21.6848 12.5 25V182.075L71.5375 151.05C72.5633 150.367 73.7679 150.003 75 150.003C76.2321 150.003 77.4367 150.367 78.4625 151.05L137.5 182.075V25C137.5 21.6848 136.183 18.5054 133.839 16.1612C131.495 13.817 128.315 12.5 125 12.5H25Z" fill="white"/>
</svg>
