<svg width="200" height="138" viewBox="0 0 200 138" fill="none" xmlns="http://www.w3.org/2000/svg">
<path d="M200 68.75C200 68.75 162.5 0 100 0C37.5 0 0 68.75 0 68.75C0 68.75 37.5 137.5 100 137.5C162.5 137.5 200 68.75 200 68.75ZM14.6625 68.75C20.7064 59.564 27.658 51.0086 35.4125 43.2125C51.5 27.1 73.5 12.5 100 12.5C126.5 12.5 148.488 27.1 164.6 43.2125C172.354 51.0086 179.306 59.564 185.35 68.75C184.625 69.8375 183.825 71.0375 182.913 72.35C178.725 78.35 172.538 86.35 164.6 94.2875C148.488 110.4 126.487 125 100 125C73.5 125 51.5125 110.4 35.4 94.2875C27.6456 86.4914 20.7065 77.9359 14.6625 68.75Z" fill="white"/>
<path d="M100 37.5C91.712 37.5 83.7634 40.7924 77.9029 46.6529C72.0424 52.5134 68.75 60.462 68.75 68.75C68.75 77.038 72.0424 84.9866 77.9029 90.8471C83.7634 96.7076 91.712 100 100 100C108.288 100 116.237 96.7076 122.097 90.8471C127.958 84.9866 131.25 77.038 131.25 68.75C131.25 60.462 127.958 52.5134 122.097 46.6529C116.237 40.7924 108.288 37.5 100 37.5ZM56.25 68.75C56.25 57.1468 60.8594 46.0188 69.0641 37.8141C77.2688 29.6094 88.3968 25 100 25C111.603 25 122.731 29.6094 130.936 37.8141C139.141 46.0188 143.75 57.1468 143.75 68.75C143.75 80.3532 139.141 91.4812 130.936 99.6859C122.731 107.891 111.603 112.5 100 112.5C88.3968 112.5 77.2688 107.891 69.0641 99.6859C60.8594 91.4812 56.25 80.3532 56.25 68.75Z" fill="white"/>
</svg>
